M48
;DRILL file {KiCad 5.0.2+dfsg1-1} date Mon 23 Nov 2020 02:49:26 PM MST
;FORMAT={-:-/ absolute / inch / decimal}
FMAT,2
INCH,TZ
T1C0.0157
T2C0.0276
T3C0.0295
T4C0.0315
T5C0.0354
T6C0.0394
%
G90
G05
T1
X2.0481Y-1.8544
X2.1573Y-4.8451
X2.2013Y-6.5513
X2.2637Y-1.8564
X2.2989Y-6.7067
X2.3Y-3.1
X2.4Y-3.8
X2.4091Y-4.975
X2.4563Y-3.5864
X2.4827Y-2.3014
X2.5Y-0.85
X2.5Y-1.85
X2.5Y-2.85
X2.5056Y-3.2956
X2.5212Y-3.6094
X2.5294Y-4.8169
X2.6593Y-1.7585
X2.6677Y-3.301
X2.6708Y-4.2911
X2.705Y-4.2008
X2.7138Y-2.4606
X2.7242Y-3.3345
X2.7307Y-4.3125
X2.7326Y-1.7899
X3.1466Y-3.5765
X3.3059Y-3.3024
X5.1953Y-5.6354
X5.2008Y-1.5543
X5.6935Y-5.6574
X5.6975Y-3.621
X5.7006Y-1.5817
X6.1989Y-5.6872
X6.2Y-1.6118
X6.2019Y-3.6501
X6.7004Y-1.6557
X6.7015Y-5.7168
X6.7019Y-3.6794
X7.1931Y-3.7093
X7.1988Y-1.6868
X7.6984Y-2.086
X7.7021Y-3.7386
X7.8416Y-1.2773
X8.1979Y-3.7679
X8.1985Y-2.1012
X8.2511Y-2.1056
X8.2709Y-3.7972
X8.3308Y-1.3099
X8.6097Y-4.9474
X8.6157Y-1.374
X8.616Y-1.3203
X8.8Y-1.9
X8.9908Y-2.5026
X8.9928Y-2.7691
X8.9997Y-1.8493
X9.Y-2.158
X9.0019Y-0.8477
X9.0068Y-2.6058
X9.0185Y-6.7168
X9.0561Y-6.4
X9.1Y-6.45
X9.1431Y-2.7902
X9.1906Y-2.2994
X9.1932Y-2.4022
X9.1932Y-2.5005
X9.2189Y-1.2
X9.241Y-2.2468
X9.2454Y-1.3
X9.2697Y-1.3995
X9.2697Y-2.3581
X9.3016Y-1.4963
X9.3016Y-2.3954
T2
X5.2Y-1.
X5.2Y-1.3
X7.7Y-1.
X7.7Y-1.3
X5.2Y-5.
X5.2Y-5.3
X9.Y-4.7
X9.Y-5.
X3.7Y-3.
X3.7Y-3.3
X4.7Y-5.
X4.7Y-5.3
X6.7Y-3.
X6.7Y-3.3
X8.2Y-5.
X8.2Y-5.3
X3.175Y-1.
X3.175Y-1.3
X5.7Y-3.
X5.7Y-3.3
X4.7Y-3.
X4.7Y-3.3
X3.2Y-3.
X3.2Y-3.3
X7.2Y-1.
X7.2Y-1.3
X3.7Y-5.
X3.7Y-5.3
X6.2Y-5.
X6.2Y-5.3
X9.Y-2.9
X9.Y-3.2
X4.2Y-5.
X4.2Y-5.3
X6.7Y-5.
X6.7Y-5.3
X5.2Y-3.
X5.2Y-3.3
X8.075Y-2.825
X8.375Y-2.825
X8.2Y-1.
X8.2Y-1.3
X8.075Y-4.825
X8.375Y-4.825
X3.2Y-5.
X3.2Y-5.3
X8.075Y-0.825
X8.375Y-0.825
X7.7Y-3.
X7.7Y-3.3
X4.7Y-1.
X4.7Y-1.3
X9.1Y-5.9
X9.1Y-6.2
X4.2Y-3.
X4.2Y-3.3
X5.7Y-5.
X5.7Y-5.3
X9.Y-3.5
X9.Y-3.8
X9.1Y-3.5
X9.1Y-3.8
X7.7Y-5.
X7.7Y-5.3
X7.2Y-5.
X7.2Y-5.3
X9.1Y-5.3
X9.1Y-5.6
X7.2Y-3.
X7.2Y-3.3
X9.1Y-2.9
X9.1Y-3.2
X8.2Y-3.
X8.2Y-3.3
X4.2Y-1.
X4.2Y-1.3
X9.Y-4.1
X9.Y-4.4
X3.7Y-1.
X3.7Y-1.3
X9.Y-5.9
X9.Y-6.2
X9.1Y-4.1
X9.1Y-4.4
X5.7Y-1.
X5.7Y-1.3
X6.7Y-1.
X6.7Y-1.3
X9.1Y-4.7
X9.1Y-5.
X9.Y-5.3
X9.Y-5.6
X6.2Y-1.
X6.2Y-1.3
X6.2Y-3.
X6.2Y-3.3
T3
X8.75Y-3.55
X8.8Y-3.55
X8.85Y-3.55
X8.75Y-3.25
X8.8Y-3.25
X8.85Y-3.25
X8.75Y-4.75
X8.8Y-4.75
X8.85Y-4.75
X8.75Y-5.05
X8.8Y-5.05
X8.85Y-5.05
X8.75Y-5.95
X8.8Y-5.95
X8.85Y-5.95
X8.75Y-2.95
X8.8Y-2.95
X8.85Y-2.95
X8.75Y-6.25
X8.8Y-6.25
X8.85Y-6.25
X8.75Y-4.15
X8.8Y-4.15
X8.85Y-4.15
X8.75Y-5.65
X8.8Y-5.65
X8.85Y-5.65
X8.75Y-4.45
X8.8Y-4.45
X8.85Y-4.45
X8.75Y-3.85
X8.8Y-3.85
X8.85Y-3.85
X8.75Y-5.35
X8.8Y-5.35
X8.85Y-5.35
T4
X2.3Y-3.
X2.3Y-3.1
X2.3Y-3.2
X2.3Y-3.3
X2.3Y-3.4
X2.3Y-3.5
X2.3Y-3.6
X2.3Y-3.7
X2.6Y-3.
X2.6Y-3.1
X2.6Y-3.2
X2.6Y-3.3
X2.6Y-3.4
X2.6Y-3.5
X2.6Y-3.6
X2.6Y-3.7
X2.3Y-4.
X2.3Y-4.1
X2.3Y-4.2
X2.3Y-4.3
X2.3Y-4.4
X2.3Y-4.5
X2.3Y-4.6
X2.3Y-4.7
X2.6Y-4.
X2.6Y-4.1
X2.6Y-4.2
X2.6Y-4.3
X2.6Y-4.4
X2.6Y-4.5
X2.6Y-4.6
X2.6Y-4.7
X2.3Y-1.
X2.3Y-1.1
X2.3Y-1.2
X2.3Y-1.3
X2.3Y-1.4
X2.3Y-1.5
X2.3Y-1.6
X2.3Y-1.7
X2.6Y-1.
X2.6Y-1.1
X2.6Y-1.2
X2.6Y-1.3
X2.6Y-1.4
X2.6Y-1.5
X2.6Y-1.6
X2.6Y-1.7
X8.8Y-2.
X8.8Y-2.1
X8.8Y-2.2
X8.8Y-2.3
X8.8Y-2.4
X8.8Y-2.5
X8.8Y-2.6
X8.8Y-2.7
X9.1Y-2.
X9.1Y-2.1
X9.1Y-2.2
X9.1Y-2.3
X9.1Y-2.4
X9.1Y-2.5
X9.1Y-2.6
X9.1Y-2.7
X2.3Y-2.
X2.3Y-2.1
X2.3Y-2.2
X2.3Y-2.3
X2.3Y-2.4
X2.3Y-2.5
X2.3Y-2.6
X2.3Y-2.7
X2.6Y-2.
X2.6Y-2.1
X2.6Y-2.2
X2.6Y-2.3
X2.6Y-2.4
X2.6Y-2.5
X2.6Y-2.6
X2.6Y-2.7
X8.8Y-1.
X8.8Y-1.1
X8.8Y-1.2
X8.8Y-1.3
X8.8Y-1.4
X8.8Y-1.5
X8.8Y-1.6
X8.8Y-1.7
X9.1Y-1.
X9.1Y-1.1
X9.1Y-1.2
X9.1Y-1.3
X9.1Y-1.4
X9.1Y-1.5
X9.1Y-1.6
X9.1Y-1.7
T5
X5.4Y-4.
X5.45Y-4.
X5.5Y-4.
X5.55Y-4.
X7.9Y-4.
X7.95Y-4.
X8.Y-4.
X8.05Y-4.
X7.9Y-3.
X7.95Y-3.
X8.Y-3.
X8.05Y-3.
X6.4Y-3.5
X6.45Y-3.5
X6.5Y-3.5
X6.55Y-3.5
X3.9Y-2.5
X3.95Y-2.5
X4.Y-2.5
X4.05Y-2.5
X3.4Y-6.
X3.45Y-6.
X3.5Y-6.
X3.55Y-6.
X4.9Y-3.
X4.95Y-3.
X5.Y-3.
X5.05Y-3.
X3.4Y-3.5
X3.45Y-3.5
X3.5Y-3.5
X3.55Y-3.5
X2.9Y-6.5
X2.95Y-6.5
X3.Y-6.5
X3.05Y-6.5
X3.4Y-1.
X3.45Y-1.
X3.5Y-1.
X3.55Y-1.
X3.4Y-3.
X3.45Y-3.
X3.5Y-3.
X3.55Y-3.
X3.9Y-5.5
X3.95Y-5.5
X4.Y-5.5
X4.05Y-5.5
X5.9Y-3.5
X5.95Y-3.5
X6.Y-3.5
X6.05Y-3.5
X4.9Y-4.5
X4.95Y-4.5
X5.Y-4.5
X5.05Y-4.5
X8.4Y-1.
X8.45Y-1.
X8.5Y-1.
X8.55Y-1.
X8.4Y-6.5
X8.45Y-6.5
X8.5Y-6.5
X8.55Y-6.5
X5.4Y-1.
X5.45Y-1.
X5.5Y-1.
X5.55Y-1.
X6.4Y-6.
X6.45Y-6.
X6.5Y-6.
X6.55Y-6.
X3.9Y-6.5
X3.95Y-6.5
X4.Y-6.5
X4.05Y-6.5
X4.9Y-1.
X4.95Y-1.
X5.Y-1.
X5.05Y-1.
X2.9Y-4.5
X2.95Y-4.5
X3.Y-4.5
X3.05Y-4.5
X7.4Y-5.
X7.45Y-5.
X7.5Y-5.
X7.55Y-5.
X6.9Y-3.5
X6.95Y-3.5
X7.Y-3.5
X7.05Y-3.5
X4.4Y-6.
X4.45Y-6.
X4.5Y-6.
X4.55Y-6.
X7.4Y-1.
X7.45Y-1.
X7.5Y-1.
X7.55Y-1.
X7.4Y-4.5
X7.45Y-4.5
X7.5Y-4.5
X7.55Y-4.5
X6.4Y-5.
X6.45Y-5.
X6.5Y-5.
X6.55Y-5.
X2.9Y-4.
X2.95Y-4.
X3.Y-4.
X3.05Y-4.
X4.4Y-1.
X4.45Y-1.
X4.5Y-1.
X4.55Y-1.
X4.4Y-5.5
X4.45Y-5.5
X4.5Y-5.5
X4.55Y-5.5
X4.4Y-2.
X4.45Y-2.
X4.5Y-2.
X4.55Y-2.
X5.9Y-1.5
X5.95Y-1.5
X6.Y-1.5
X6.05Y-1.5
X8.4Y-6.
X8.45Y-6.
X8.5Y-6.
X8.55Y-6.
X5.4Y-2.5
X5.45Y-2.5
X5.5Y-2.5
X5.55Y-2.5
X7.9Y-5.
X7.95Y-5.
X8.Y-5.
X8.05Y-5.
X2.9Y-2.5
X2.95Y-2.5
X3.Y-2.5
X3.05Y-2.5
X4.4Y-4.5
X4.45Y-4.5
X4.5Y-4.5
X4.55Y-4.5
X4.4Y-6.5
X4.45Y-6.5
X4.5Y-6.5
X4.55Y-6.5
X6.9Y-3.
X6.95Y-3.
X7.Y-3.
X7.05Y-3.
X3.9Y-3.5
X3.95Y-3.5
X4.Y-3.5
X4.05Y-3.5
X5.9Y-5.5
X5.95Y-5.5
X6.Y-5.5
X6.05Y-5.5
X4.9Y-4.
X4.95Y-4.
X5.Y-4.
X5.05Y-4.
X4.9Y-6.5
X4.95Y-6.5
X5.Y-6.5
X5.05Y-6.5
X7.9Y-3.5
X7.95Y-3.5
X8.Y-3.5
X8.05Y-3.5
X6.4Y-4.
X6.45Y-4.
X6.5Y-4.
X6.55Y-4.
X5.4Y-2.
X5.45Y-2.
X5.5Y-2.
X5.55Y-2.
X7.9Y-2.
X7.95Y-2.
X8.Y-2.
X8.05Y-2.
X7.4Y-3.
X7.45Y-3.
X7.5Y-3.
X7.55Y-3.
X5.4Y-6.
X5.45Y-6.
X5.5Y-6.
X5.55Y-6.
X3.4Y-4.
X3.45Y-4.
X3.5Y-4.
X3.55Y-4.
X3.9Y-5.
X3.95Y-5.
X4.Y-5.
X4.05Y-5.
X2.9Y-2.
X2.95Y-2.
X3.Y-2.
X3.05Y-2.
X4.4Y-2.5
X4.45Y-2.5
X4.5Y-2.5
X4.55Y-2.5
X7.9Y-5.5
X7.95Y-5.5
X8.Y-5.5
X8.05Y-5.5
X6.4Y-2.
X6.45Y-2.
X6.5Y-2.
X6.55Y-2.
X4.9Y-6.
X4.95Y-6.
X5.Y-6.
X5.05Y-6.
X8.4Y-3.5
X8.45Y-3.5
X8.5Y-3.5
X8.55Y-3.5
X5.4Y-3.5
X5.45Y-3.5
X5.5Y-3.5
X5.55Y-3.5
X3.9Y-1.5
X3.95Y-1.5
X4.Y-1.5
X4.05Y-1.5
X6.9Y-6.
X6.95Y-6.
X7.Y-6.
X7.05Y-6.
X6.9Y-5.
X6.95Y-5.
X7.Y-5.
X7.05Y-5.
X5.4Y-5.5
X5.45Y-5.5
X5.5Y-5.5
X5.55Y-5.5
X2.9Y-5.5
X2.95Y-5.5
X3.Y-5.5
X3.05Y-5.5
X7.9Y-1.
X7.95Y-1.
X8.Y-1.
X8.05Y-1.
X8.4Y-4.5
X8.45Y-4.5
X8.5Y-4.5
X8.55Y-4.5
X2.9Y-3.
X2.95Y-3.
X3.Y-3.
X3.05Y-3.
X5.9Y-1.
X5.95Y-1.
X6.Y-1.
X6.05Y-1.
X7.4Y-2.
X7.45Y-2.
X7.5Y-2.
X7.55Y-2.
X7.9Y-6.
X7.95Y-6.
X8.Y-6.
X8.05Y-6.
X6.9Y-2.5
X6.95Y-2.5
X7.Y-2.5
X7.05Y-2.5
X4.9Y-3.5
X4.95Y-3.5
X5.Y-3.5
X5.05Y-3.5
X8.4Y-3.
X8.45Y-3.
X8.5Y-3.
X8.55Y-3.
X3.9Y-4.
X3.95Y-4.
X4.Y-4.
X4.05Y-4.
X7.4Y-1.5
X7.45Y-1.5
X7.5Y-1.5
X7.55Y-1.5
X4.9Y-2.5
X4.95Y-2.5
X5.Y-2.5
X5.05Y-2.5
X7.4Y-5.5
X7.45Y-5.5
X7.5Y-5.5
X7.55Y-5.5
X8.4Y-4.
X8.45Y-4.
X8.5Y-4.
X8.55Y-4.
X3.9Y-1.
X3.95Y-1.
X4.Y-1.
X4.05Y-1.
X6.4Y-2.5
X6.45Y-2.5
X6.5Y-2.5
X6.55Y-2.5
X2.9Y-6.
X2.95Y-6.
X3.Y-6.
X3.05Y-6.
X6.9Y-2.
X6.95Y-2.
X7.Y-2.
X7.05Y-2.
X6.4Y-4.5
X6.45Y-4.5
X6.5Y-4.5
X6.55Y-4.5
X3.4Y-5.
X3.45Y-5.
X3.5Y-5.
X3.55Y-5.
X3.9Y-6.
X3.95Y-6.
X4.Y-6.
X4.05Y-6.
X6.9Y-4.
X6.95Y-4.
X7.Y-4.
X7.05Y-4.
X6.9Y-5.5
X6.95Y-5.5
X7.Y-5.5
X7.05Y-5.5
X5.9Y-2.5
X5.95Y-2.5
X6.Y-2.5
X6.05Y-2.5
X2.9Y-5.
X2.95Y-5.
X3.Y-5.
X3.05Y-5.
X3.9Y-3.
X3.95Y-3.
X4.Y-3.
X4.05Y-3.
X5.9Y-2.
X5.95Y-2.
X6.Y-2.
X6.05Y-2.
X5.4Y-1.5
X5.45Y-1.5
X5.5Y-1.5
X5.55Y-1.5
X6.4Y-5.5
X6.45Y-5.5
X6.5Y-5.5
X6.55Y-5.5
X6.9Y-1.5
X6.95Y-1.5
X7.Y-1.5
X7.05Y-1.5
X8.4Y-5.5
X8.45Y-5.5
X8.5Y-5.5
X8.55Y-5.5
X8.4Y-2.
X8.45Y-2.
X8.5Y-2.
X8.55Y-2.
X7.4Y-2.5
X7.45Y-2.5
X7.5Y-2.5
X7.55Y-2.5
X6.9Y-1.
X6.95Y-1.
X7.Y-1.
X7.05Y-1.
X6.4Y-1.
X6.45Y-1.
X6.5Y-1.
X6.55Y-1.
X8.4Y-2.5
X8.45Y-2.5
X8.5Y-2.5
X8.55Y-2.5
X3.9Y-4.5
X3.95Y-4.5
X4.Y-4.5
X4.05Y-4.5
X7.9Y-6.5
X7.95Y-6.5
X8.Y-6.5
X8.05Y-6.5
X6.4Y-6.5
X6.45Y-6.5
X6.5Y-6.5
X6.55Y-6.5
X6.4Y-1.5
X6.45Y-1.5
X6.5Y-1.5
X6.55Y-1.5
X5.9Y-6.5
X5.95Y-6.5
X6.Y-6.5
X6.05Y-6.5
X8.4Y-1.5
X8.45Y-1.5
X8.5Y-1.5
X8.55Y-1.5
X4.4Y-4.
X4.45Y-4.
X4.5Y-4.
X4.55Y-4.
X5.4Y-3.
X5.45Y-3.
X5.5Y-3.
X5.55Y-3.
X5.4Y-5.
X5.45Y-5.
X5.5Y-5.
X5.55Y-5.
X4.9Y-1.5
X4.95Y-1.5
X5.Y-1.5
X5.05Y-1.5
X7.4Y-6.
X7.45Y-6.
X7.5Y-6.
X7.55Y-6.
X5.9Y-6.
X5.95Y-6.
X6.Y-6.
X6.05Y-6.
X7.9Y-1.5
X7.95Y-1.5
X8.Y-1.5
X8.05Y-1.5
X6.9Y-4.5
X6.95Y-4.5
X7.Y-4.5
X7.05Y-4.5
X3.4Y-5.5
X3.45Y-5.5
X3.5Y-5.5
X3.55Y-5.5
X3.4Y-4.5
X3.45Y-4.5
X3.5Y-4.5
X3.55Y-4.5
X7.4Y-6.5
X7.45Y-6.5
X7.5Y-6.5
X7.55Y-6.5
X4.9Y-5.5
X4.95Y-5.5
X5.Y-5.5
X5.05Y-5.5
X2.9Y-3.5
X2.95Y-3.5
X3.Y-3.5
X3.05Y-3.5
X5.9Y-4.5
X5.95Y-4.5
X6.Y-4.5
X6.05Y-4.5
X4.4Y-5.
X4.45Y-5.
X4.5Y-5.
X4.55Y-5.
X7.4Y-3.5
X7.45Y-3.5
X7.5Y-3.5
X7.55Y-3.5
X4.4Y-1.5
X4.45Y-1.5
X4.5Y-1.5
X4.55Y-1.5
X3.4Y-1.5
X3.45Y-1.5
X3.5Y-1.5
X3.55Y-1.5
X7.4Y-4.
X7.45Y-4.
X7.5Y-4.
X7.55Y-4.
X7.9Y-2.5
X7.95Y-2.5
X8.Y-2.5
X8.05Y-2.5
X4.9Y-5.
X4.95Y-5.
X5.Y-5.
X5.05Y-5.
X3.4Y-6.5
X3.45Y-6.5
X3.5Y-6.5
X3.55Y-6.5
X5.9Y-4.
X5.95Y-4.
X6.Y-4.
X6.05Y-4.
X3.4Y-2.5
X3.45Y-2.5
X3.5Y-2.5
X3.55Y-2.5
X8.4Y-5.
X8.45Y-5.
X8.5Y-5.
X8.55Y-5.
X3.9Y-2.
X3.95Y-2.
X4.Y-2.
X4.05Y-2.
X6.9Y-6.5
X6.95Y-6.5
X7.Y-6.5
X7.05Y-6.5
X5.4Y-6.5
X5.45Y-6.5
X5.5Y-6.5
X5.55Y-6.5
X6.4Y-3.
X6.45Y-3.
X6.5Y-3.
X6.55Y-3.
X5.9Y-5.
X5.95Y-5.
X6.Y-5.
X6.05Y-5.
X4.4Y-3.
X4.45Y-3.
X4.5Y-3.
X4.55Y-3.
X2.9Y-1.
X2.95Y-1.
X3.Y-1.
X3.05Y-1.
X5.9Y-3.
X5.95Y-3.
X6.Y-3.
X6.05Y-3.
X3.4Y-2.
X3.45Y-2.
X3.5Y-2.
X3.55Y-2.
X4.4Y-3.5
X4.45Y-3.5
X4.5Y-3.5
X4.55Y-3.5
X4.9Y-2.
X4.95Y-2.
X5.Y-2.
X5.05Y-2.
X2.9Y-1.5
X2.95Y-1.5
X3.Y-1.5
X3.05Y-1.5
X5.4Y-4.5
X5.45Y-4.5
X5.5Y-4.5
X5.55Y-4.5
X7.9Y-4.5
X7.95Y-4.5
X8.Y-4.5
X8.05Y-4.5
T6
X2.3Y-5.4
X2.3Y-5.55
X2.3Y-5.1
X2.3Y-6.25
X2.3Y-6.35
X2.3Y-6.45
X2.3Y-6.55
X2.3Y-5.25
T0
M30
