G04 #@! TF.GenerationSoftware,KiCad,Pcbnew,5.0.2+dfsg1-1*
G04 #@! TF.CreationDate,2020-11-23T14:49:08-07:00*
G04 #@! TF.ProjectId,BattleshipLED,42617474-6c65-4736-9869-704c45442e6b,rev?*
G04 #@! TF.SameCoordinates,Original*
G04 #@! TF.FileFunction,Copper,L1,Top*
G04 #@! TF.FilePolarity,Positive*
%FSLAX46Y46*%
G04 Gerber Fmt 4.6, Leading zero omitted, Abs format (unit mm)*
G04 Created by KiCad (PCBNEW 5.0.2+dfsg1-1) date Mon 23 Nov 2020 02:49:08 PM MST*
%MOMM*%
%LPD*%
G01*
G04 APERTURE LIST*
G04 #@! TA.AperFunction,ComponentPad*
%ADD10C,1.400000*%
G04 #@! TD*
G04 #@! TA.AperFunction,ComponentPad*
%ADD11O,1.400000X1.400000*%
G04 #@! TD*
G04 #@! TA.AperFunction,ComponentPad*
%ADD12R,1.070000X1.800000*%
G04 #@! TD*
G04 #@! TA.AperFunction,ComponentPad*
%ADD13O,1.070000X1.800000*%
G04 #@! TD*
G04 #@! TA.AperFunction,Conductor*
%ADD14C,0.100000*%
G04 #@! TD*
G04 #@! TA.AperFunction,SMDPad,CuDef*
%ADD15C,0.975000*%
G04 #@! TD*
G04 #@! TA.AperFunction,ComponentPad*
%ADD16R,1.700000X1.700000*%
G04 #@! TD*
G04 #@! TA.AperFunction,ComponentPad*
%ADD17O,1.700000X1.700000*%
G04 #@! TD*
G04 #@! TA.AperFunction,ComponentPad*
%ADD18R,1.050000X1.500000*%
G04 #@! TD*
G04 #@! TA.AperFunction,ComponentPad*
%ADD19O,1.050000X1.500000*%
G04 #@! TD*
G04 #@! TA.AperFunction,ComponentPad*
%ADD20O,1.600000X1.600000*%
G04 #@! TD*
G04 #@! TA.AperFunction,ComponentPad*
%ADD21R,1.600000X1.600000*%
G04 #@! TD*
G04 #@! TA.AperFunction,ViaPad*
%ADD22C,0.800000*%
G04 #@! TD*
G04 #@! TA.AperFunction,Conductor*
%ADD23C,1.000000*%
G04 #@! TD*
G04 #@! TA.AperFunction,Conductor*
%ADD24C,0.250000*%
G04 #@! TD*
G04 #@! TA.AperFunction,Conductor*
%ADD25C,2.000000*%
G04 #@! TD*
G04 #@! TA.AperFunction,Conductor*
%ADD26C,4.000000*%
G04 #@! TD*
G04 #@! TA.AperFunction,Conductor*
%ADD27C,1.150000*%
G04 #@! TD*
G04 APERTURE END LIST*
D10*
G04 #@! TO.P,R53,1*
G04 #@! TO.N,Net-(R53-Pad1)*
X205105000Y-71755000D03*
D11*
G04 #@! TO.P,R53,2*
G04 #@! TO.N,/GA12*
X212725000Y-71755000D03*
G04 #@! TD*
D12*
G04 #@! TO.P,D60,1*
G04 #@! TO.N,/BA12*
X213360000Y-76200000D03*
D13*
G04 #@! TO.P,D60,2*
G04 #@! TO.N,/K5*
X214630000Y-76200000D03*
G04 #@! TO.P,D60,3*
G04 #@! TO.N,/GA12*
X215900000Y-76200000D03*
G04 #@! TO.P,D60,4*
G04 #@! TO.N,/RA12*
X217170000Y-76200000D03*
G04 #@! TD*
D12*
G04 #@! TO.P,D47,1*
G04 #@! TO.N,/BA11*
X200660000Y-63500000D03*
D13*
G04 #@! TO.P,D47,2*
G04 #@! TO.N,/K4*
X201930000Y-63500000D03*
G04 #@! TO.P,D47,3*
G04 #@! TO.N,/GA11*
X203200000Y-63500000D03*
G04 #@! TO.P,D47,4*
G04 #@! TO.N,/RA11*
X204470000Y-63500000D03*
G04 #@! TD*
D12*
G04 #@! TO.P,D1,1*
G04 #@! TO.N,/BA1*
X73660000Y-25400000D03*
D13*
G04 #@! TO.P,D1,2*
G04 #@! TO.N,/K1*
X74930000Y-25400000D03*
G04 #@! TO.P,D1,3*
G04 #@! TO.N,/GA1*
X76200000Y-25400000D03*
G04 #@! TO.P,D1,4*
G04 #@! TO.N,/RA1*
X77470000Y-25400000D03*
G04 #@! TD*
G04 #@! TO.P,D2,4*
G04 #@! TO.N,/RA2*
X90170000Y-25400000D03*
G04 #@! TO.P,D2,3*
G04 #@! TO.N,/GA2*
X88900000Y-25400000D03*
G04 #@! TO.P,D2,2*
G04 #@! TO.N,/K1*
X87630000Y-25400000D03*
D12*
G04 #@! TO.P,D2,1*
G04 #@! TO.N,/BA2*
X86360000Y-25400000D03*
G04 #@! TD*
D13*
G04 #@! TO.P,D3,4*
G04 #@! TO.N,/RA3*
X102870000Y-25400000D03*
G04 #@! TO.P,D3,3*
G04 #@! TO.N,/GA3*
X101600000Y-25400000D03*
G04 #@! TO.P,D3,2*
G04 #@! TO.N,/K1*
X100330000Y-25400000D03*
D12*
G04 #@! TO.P,D3,1*
G04 #@! TO.N,/BA3*
X99060000Y-25400000D03*
G04 #@! TD*
G04 #@! TO.P,D4,1*
G04 #@! TO.N,/BA4*
X111760000Y-25400000D03*
D13*
G04 #@! TO.P,D4,2*
G04 #@! TO.N,/K1*
X113030000Y-25400000D03*
G04 #@! TO.P,D4,3*
G04 #@! TO.N,/GA4*
X114300000Y-25400000D03*
G04 #@! TO.P,D4,4*
G04 #@! TO.N,/RA4*
X115570000Y-25400000D03*
G04 #@! TD*
G04 #@! TO.P,D5,4*
G04 #@! TO.N,/RA5*
X128270000Y-25400000D03*
G04 #@! TO.P,D5,3*
G04 #@! TO.N,/GA5*
X127000000Y-25400000D03*
G04 #@! TO.P,D5,2*
G04 #@! TO.N,/K1*
X125730000Y-25400000D03*
D12*
G04 #@! TO.P,D5,1*
G04 #@! TO.N,/BA5*
X124460000Y-25400000D03*
G04 #@! TD*
G04 #@! TO.P,D6,1*
G04 #@! TO.N,/BA6*
X137160000Y-25400000D03*
D13*
G04 #@! TO.P,D6,2*
G04 #@! TO.N,/K1*
X138430000Y-25400000D03*
G04 #@! TO.P,D6,3*
G04 #@! TO.N,/GA6*
X139700000Y-25400000D03*
G04 #@! TO.P,D6,4*
G04 #@! TO.N,/RA6*
X140970000Y-25400000D03*
G04 #@! TD*
G04 #@! TO.P,D7,4*
G04 #@! TO.N,/RA7*
X153670000Y-25400000D03*
G04 #@! TO.P,D7,3*
G04 #@! TO.N,/GA7*
X152400000Y-25400000D03*
G04 #@! TO.P,D7,2*
G04 #@! TO.N,/K1*
X151130000Y-25400000D03*
D12*
G04 #@! TO.P,D7,1*
G04 #@! TO.N,/BA7*
X149860000Y-25400000D03*
G04 #@! TD*
G04 #@! TO.P,D8,1*
G04 #@! TO.N,/BA8*
X162560000Y-25400000D03*
D13*
G04 #@! TO.P,D8,2*
G04 #@! TO.N,/K1*
X163830000Y-25400000D03*
G04 #@! TO.P,D8,3*
G04 #@! TO.N,/GA8*
X165100000Y-25400000D03*
G04 #@! TO.P,D8,4*
G04 #@! TO.N,/RA8*
X166370000Y-25400000D03*
G04 #@! TD*
G04 #@! TO.P,D9,4*
G04 #@! TO.N,/RA9*
X179070000Y-25400000D03*
G04 #@! TO.P,D9,3*
G04 #@! TO.N,/GA9*
X177800000Y-25400000D03*
G04 #@! TO.P,D9,2*
G04 #@! TO.N,/K1*
X176530000Y-25400000D03*
D12*
G04 #@! TO.P,D9,1*
G04 #@! TO.N,/BA9*
X175260000Y-25400000D03*
G04 #@! TD*
D13*
G04 #@! TO.P,D10,4*
G04 #@! TO.N,/RA10*
X191770000Y-25400000D03*
G04 #@! TO.P,D10,3*
G04 #@! TO.N,/GA10*
X190500000Y-25400000D03*
G04 #@! TO.P,D10,2*
G04 #@! TO.N,/K1*
X189230000Y-25400000D03*
D12*
G04 #@! TO.P,D10,1*
G04 #@! TO.N,/BA10*
X187960000Y-25400000D03*
G04 #@! TD*
G04 #@! TO.P,D11,1*
G04 #@! TO.N,/BA11*
X200660000Y-25400000D03*
D13*
G04 #@! TO.P,D11,2*
G04 #@! TO.N,/K1*
X201930000Y-25400000D03*
G04 #@! TO.P,D11,3*
G04 #@! TO.N,/GA11*
X203200000Y-25400000D03*
G04 #@! TO.P,D11,4*
G04 #@! TO.N,/RA11*
X204470000Y-25400000D03*
G04 #@! TD*
G04 #@! TO.P,D12,4*
G04 #@! TO.N,/RA12*
X217170000Y-25400000D03*
G04 #@! TO.P,D12,3*
G04 #@! TO.N,/GA12*
X215900000Y-25400000D03*
G04 #@! TO.P,D12,2*
G04 #@! TO.N,/K1*
X214630000Y-25400000D03*
D12*
G04 #@! TO.P,D12,1*
G04 #@! TO.N,/BA12*
X213360000Y-25400000D03*
G04 #@! TD*
D13*
G04 #@! TO.P,D13,4*
G04 #@! TO.N,/RA1*
X77470000Y-38100000D03*
G04 #@! TO.P,D13,3*
G04 #@! TO.N,/GA1*
X76200000Y-38100000D03*
G04 #@! TO.P,D13,2*
G04 #@! TO.N,/K2*
X74930000Y-38100000D03*
D12*
G04 #@! TO.P,D13,1*
G04 #@! TO.N,/BA1*
X73660000Y-38100000D03*
G04 #@! TD*
D13*
G04 #@! TO.P,D14,4*
G04 #@! TO.N,/RA2*
X90170000Y-38100000D03*
G04 #@! TO.P,D14,3*
G04 #@! TO.N,/GA2*
X88900000Y-38100000D03*
G04 #@! TO.P,D14,2*
G04 #@! TO.N,/K2*
X87630000Y-38100000D03*
D12*
G04 #@! TO.P,D14,1*
G04 #@! TO.N,/BA2*
X86360000Y-38100000D03*
G04 #@! TD*
D13*
G04 #@! TO.P,D15,4*
G04 #@! TO.N,/RA3*
X102870000Y-38100000D03*
G04 #@! TO.P,D15,3*
G04 #@! TO.N,/GA3*
X101600000Y-38100000D03*
G04 #@! TO.P,D15,2*
G04 #@! TO.N,/K2*
X100330000Y-38100000D03*
D12*
G04 #@! TO.P,D15,1*
G04 #@! TO.N,/BA3*
X99060000Y-38100000D03*
G04 #@! TD*
G04 #@! TO.P,D16,1*
G04 #@! TO.N,/BA4*
X111760000Y-38100000D03*
D13*
G04 #@! TO.P,D16,2*
G04 #@! TO.N,/K2*
X113030000Y-38100000D03*
G04 #@! TO.P,D16,3*
G04 #@! TO.N,/GA4*
X114300000Y-38100000D03*
G04 #@! TO.P,D16,4*
G04 #@! TO.N,/RA4*
X115570000Y-38100000D03*
G04 #@! TD*
G04 #@! TO.P,D17,4*
G04 #@! TO.N,/RA5*
X128270000Y-38100000D03*
G04 #@! TO.P,D17,3*
G04 #@! TO.N,/GA5*
X127000000Y-38100000D03*
G04 #@! TO.P,D17,2*
G04 #@! TO.N,/K2*
X125730000Y-38100000D03*
D12*
G04 #@! TO.P,D17,1*
G04 #@! TO.N,/BA5*
X124460000Y-38100000D03*
G04 #@! TD*
G04 #@! TO.P,D18,1*
G04 #@! TO.N,/BA6*
X137160000Y-38100000D03*
D13*
G04 #@! TO.P,D18,2*
G04 #@! TO.N,/K2*
X138430000Y-38100000D03*
G04 #@! TO.P,D18,3*
G04 #@! TO.N,/GA6*
X139700000Y-38100000D03*
G04 #@! TO.P,D18,4*
G04 #@! TO.N,/RA6*
X140970000Y-38100000D03*
G04 #@! TD*
G04 #@! TO.P,D19,4*
G04 #@! TO.N,/RA7*
X153670000Y-38100000D03*
G04 #@! TO.P,D19,3*
G04 #@! TO.N,/GA7*
X152400000Y-38100000D03*
G04 #@! TO.P,D19,2*
G04 #@! TO.N,/K2*
X151130000Y-38100000D03*
D12*
G04 #@! TO.P,D19,1*
G04 #@! TO.N,/BA7*
X149860000Y-38100000D03*
G04 #@! TD*
G04 #@! TO.P,D20,1*
G04 #@! TO.N,/BA8*
X162560000Y-38100000D03*
D13*
G04 #@! TO.P,D20,2*
G04 #@! TO.N,/K2*
X163830000Y-38100000D03*
G04 #@! TO.P,D20,3*
G04 #@! TO.N,/GA8*
X165100000Y-38100000D03*
G04 #@! TO.P,D20,4*
G04 #@! TO.N,/RA8*
X166370000Y-38100000D03*
G04 #@! TD*
D12*
G04 #@! TO.P,D21,1*
G04 #@! TO.N,/BA9*
X175260000Y-38100000D03*
D13*
G04 #@! TO.P,D21,2*
G04 #@! TO.N,/K2*
X176530000Y-38100000D03*
G04 #@! TO.P,D21,3*
G04 #@! TO.N,/GA9*
X177800000Y-38100000D03*
G04 #@! TO.P,D21,4*
G04 #@! TO.N,/RA9*
X179070000Y-38100000D03*
G04 #@! TD*
G04 #@! TO.P,D22,4*
G04 #@! TO.N,/RA10*
X191770000Y-38100000D03*
G04 #@! TO.P,D22,3*
G04 #@! TO.N,/GA10*
X190500000Y-38100000D03*
G04 #@! TO.P,D22,2*
G04 #@! TO.N,/K2*
X189230000Y-38100000D03*
D12*
G04 #@! TO.P,D22,1*
G04 #@! TO.N,/BA10*
X187960000Y-38100000D03*
G04 #@! TD*
G04 #@! TO.P,D23,1*
G04 #@! TO.N,/BA11*
X200660000Y-38100000D03*
D13*
G04 #@! TO.P,D23,2*
G04 #@! TO.N,/K2*
X201930000Y-38100000D03*
G04 #@! TO.P,D23,3*
G04 #@! TO.N,/GA11*
X203200000Y-38100000D03*
G04 #@! TO.P,D23,4*
G04 #@! TO.N,/RA11*
X204470000Y-38100000D03*
G04 #@! TD*
D12*
G04 #@! TO.P,D24,1*
G04 #@! TO.N,/BA12*
X213360000Y-38100000D03*
D13*
G04 #@! TO.P,D24,2*
G04 #@! TO.N,/K2*
X214630000Y-38100000D03*
G04 #@! TO.P,D24,3*
G04 #@! TO.N,/GA12*
X215900000Y-38100000D03*
G04 #@! TO.P,D24,4*
G04 #@! TO.N,/RA12*
X217170000Y-38100000D03*
G04 #@! TD*
D12*
G04 #@! TO.P,D25,1*
G04 #@! TO.N,/BA1*
X73660000Y-50800000D03*
D13*
G04 #@! TO.P,D25,2*
G04 #@! TO.N,/K3*
X74930000Y-50800000D03*
G04 #@! TO.P,D25,3*
G04 #@! TO.N,/GA1*
X76200000Y-50800000D03*
G04 #@! TO.P,D25,4*
G04 #@! TO.N,/RA1*
X77470000Y-50800000D03*
G04 #@! TD*
G04 #@! TO.P,D26,4*
G04 #@! TO.N,/RA2*
X90170000Y-50800000D03*
G04 #@! TO.P,D26,3*
G04 #@! TO.N,/GA2*
X88900000Y-50800000D03*
G04 #@! TO.P,D26,2*
G04 #@! TO.N,/K3*
X87630000Y-50800000D03*
D12*
G04 #@! TO.P,D26,1*
G04 #@! TO.N,/BA2*
X86360000Y-50800000D03*
G04 #@! TD*
D13*
G04 #@! TO.P,D27,4*
G04 #@! TO.N,/RA3*
X102870000Y-50800000D03*
G04 #@! TO.P,D27,3*
G04 #@! TO.N,/GA3*
X101600000Y-50800000D03*
G04 #@! TO.P,D27,2*
G04 #@! TO.N,/K3*
X100330000Y-50800000D03*
D12*
G04 #@! TO.P,D27,1*
G04 #@! TO.N,/BA3*
X99060000Y-50800000D03*
G04 #@! TD*
G04 #@! TO.P,D28,1*
G04 #@! TO.N,/BA4*
X111760000Y-50800000D03*
D13*
G04 #@! TO.P,D28,2*
G04 #@! TO.N,/K3*
X113030000Y-50800000D03*
G04 #@! TO.P,D28,3*
G04 #@! TO.N,/GA4*
X114300000Y-50800000D03*
G04 #@! TO.P,D28,4*
G04 #@! TO.N,/RA4*
X115570000Y-50800000D03*
G04 #@! TD*
D12*
G04 #@! TO.P,D29,1*
G04 #@! TO.N,/BA5*
X124460000Y-50800000D03*
D13*
G04 #@! TO.P,D29,2*
G04 #@! TO.N,/K3*
X125730000Y-50800000D03*
G04 #@! TO.P,D29,3*
G04 #@! TO.N,/GA5*
X127000000Y-50800000D03*
G04 #@! TO.P,D29,4*
G04 #@! TO.N,/RA5*
X128270000Y-50800000D03*
G04 #@! TD*
D12*
G04 #@! TO.P,D30,1*
G04 #@! TO.N,/BA6*
X137160000Y-50800000D03*
D13*
G04 #@! TO.P,D30,2*
G04 #@! TO.N,/K3*
X138430000Y-50800000D03*
G04 #@! TO.P,D30,3*
G04 #@! TO.N,/GA6*
X139700000Y-50800000D03*
G04 #@! TO.P,D30,4*
G04 #@! TO.N,/RA6*
X140970000Y-50800000D03*
G04 #@! TD*
G04 #@! TO.P,D31,4*
G04 #@! TO.N,/RA7*
X153670000Y-50800000D03*
G04 #@! TO.P,D31,3*
G04 #@! TO.N,/GA7*
X152400000Y-50800000D03*
G04 #@! TO.P,D31,2*
G04 #@! TO.N,/K3*
X151130000Y-50800000D03*
D12*
G04 #@! TO.P,D31,1*
G04 #@! TO.N,/BA7*
X149860000Y-50800000D03*
G04 #@! TD*
G04 #@! TO.P,D32,1*
G04 #@! TO.N,/BA8*
X162560000Y-50800000D03*
D13*
G04 #@! TO.P,D32,2*
G04 #@! TO.N,/K3*
X163830000Y-50800000D03*
G04 #@! TO.P,D32,3*
G04 #@! TO.N,/GA8*
X165100000Y-50800000D03*
G04 #@! TO.P,D32,4*
G04 #@! TO.N,/RA8*
X166370000Y-50800000D03*
G04 #@! TD*
D12*
G04 #@! TO.P,D33,1*
G04 #@! TO.N,/BA9*
X175260000Y-50800000D03*
D13*
G04 #@! TO.P,D33,2*
G04 #@! TO.N,/K3*
X176530000Y-50800000D03*
G04 #@! TO.P,D33,3*
G04 #@! TO.N,/GA9*
X177800000Y-50800000D03*
G04 #@! TO.P,D33,4*
G04 #@! TO.N,/RA9*
X179070000Y-50800000D03*
G04 #@! TD*
G04 #@! TO.P,D34,4*
G04 #@! TO.N,/RA10*
X191770000Y-50800000D03*
G04 #@! TO.P,D34,3*
G04 #@! TO.N,/GA10*
X190500000Y-50800000D03*
G04 #@! TO.P,D34,2*
G04 #@! TO.N,/K3*
X189230000Y-50800000D03*
D12*
G04 #@! TO.P,D34,1*
G04 #@! TO.N,/BA10*
X187960000Y-50800000D03*
G04 #@! TD*
G04 #@! TO.P,D35,1*
G04 #@! TO.N,/BA11*
X200660000Y-50800000D03*
D13*
G04 #@! TO.P,D35,2*
G04 #@! TO.N,/K3*
X201930000Y-50800000D03*
G04 #@! TO.P,D35,3*
G04 #@! TO.N,/GA11*
X203200000Y-50800000D03*
G04 #@! TO.P,D35,4*
G04 #@! TO.N,/RA11*
X204470000Y-50800000D03*
G04 #@! TD*
G04 #@! TO.P,D36,4*
G04 #@! TO.N,/RA12*
X217170000Y-50800000D03*
G04 #@! TO.P,D36,3*
G04 #@! TO.N,/GA12*
X215900000Y-50800000D03*
G04 #@! TO.P,D36,2*
G04 #@! TO.N,/K3*
X214630000Y-50800000D03*
D12*
G04 #@! TO.P,D36,1*
G04 #@! TO.N,/BA12*
X213360000Y-50800000D03*
G04 #@! TD*
G04 #@! TO.P,D37,1*
G04 #@! TO.N,/BA1*
X73660000Y-63500000D03*
D13*
G04 #@! TO.P,D37,2*
G04 #@! TO.N,/K4*
X74930000Y-63500000D03*
G04 #@! TO.P,D37,3*
G04 #@! TO.N,/GA1*
X76200000Y-63500000D03*
G04 #@! TO.P,D37,4*
G04 #@! TO.N,/RA1*
X77470000Y-63500000D03*
G04 #@! TD*
G04 #@! TO.P,D38,4*
G04 #@! TO.N,/RA2*
X90170000Y-63500000D03*
G04 #@! TO.P,D38,3*
G04 #@! TO.N,/GA2*
X88900000Y-63500000D03*
G04 #@! TO.P,D38,2*
G04 #@! TO.N,/K4*
X87630000Y-63500000D03*
D12*
G04 #@! TO.P,D38,1*
G04 #@! TO.N,/BA2*
X86360000Y-63500000D03*
G04 #@! TD*
D13*
G04 #@! TO.P,D39,4*
G04 #@! TO.N,/RA3*
X102870000Y-63500000D03*
G04 #@! TO.P,D39,3*
G04 #@! TO.N,/GA3*
X101600000Y-63500000D03*
G04 #@! TO.P,D39,2*
G04 #@! TO.N,/K4*
X100330000Y-63500000D03*
D12*
G04 #@! TO.P,D39,1*
G04 #@! TO.N,/BA3*
X99060000Y-63500000D03*
G04 #@! TD*
G04 #@! TO.P,D40,1*
G04 #@! TO.N,/BA4*
X111760000Y-63500000D03*
D13*
G04 #@! TO.P,D40,2*
G04 #@! TO.N,/K4*
X113030000Y-63500000D03*
G04 #@! TO.P,D40,3*
G04 #@! TO.N,/GA4*
X114300000Y-63500000D03*
G04 #@! TO.P,D40,4*
G04 #@! TO.N,/RA4*
X115570000Y-63500000D03*
G04 #@! TD*
G04 #@! TO.P,D41,4*
G04 #@! TO.N,/RA5*
X128270000Y-63500000D03*
G04 #@! TO.P,D41,3*
G04 #@! TO.N,/GA5*
X127000000Y-63500000D03*
G04 #@! TO.P,D41,2*
G04 #@! TO.N,/K4*
X125730000Y-63500000D03*
D12*
G04 #@! TO.P,D41,1*
G04 #@! TO.N,/BA5*
X124460000Y-63500000D03*
G04 #@! TD*
G04 #@! TO.P,D42,1*
G04 #@! TO.N,/BA6*
X137160000Y-63500000D03*
D13*
G04 #@! TO.P,D42,2*
G04 #@! TO.N,/K4*
X138430000Y-63500000D03*
G04 #@! TO.P,D42,3*
G04 #@! TO.N,/GA6*
X139700000Y-63500000D03*
G04 #@! TO.P,D42,4*
G04 #@! TO.N,/RA6*
X140970000Y-63500000D03*
G04 #@! TD*
G04 #@! TO.P,D43,4*
G04 #@! TO.N,/RA7*
X153670000Y-63500000D03*
G04 #@! TO.P,D43,3*
G04 #@! TO.N,/GA7*
X152400000Y-63500000D03*
G04 #@! TO.P,D43,2*
G04 #@! TO.N,/K4*
X151130000Y-63500000D03*
D12*
G04 #@! TO.P,D43,1*
G04 #@! TO.N,/BA7*
X149860000Y-63500000D03*
G04 #@! TD*
G04 #@! TO.P,D44,1*
G04 #@! TO.N,/BA8*
X162560000Y-63500000D03*
D13*
G04 #@! TO.P,D44,2*
G04 #@! TO.N,/K4*
X163830000Y-63500000D03*
G04 #@! TO.P,D44,3*
G04 #@! TO.N,/GA8*
X165100000Y-63500000D03*
G04 #@! TO.P,D44,4*
G04 #@! TO.N,/RA8*
X166370000Y-63500000D03*
G04 #@! TD*
G04 #@! TO.P,D45,4*
G04 #@! TO.N,/RA9*
X179070000Y-63500000D03*
G04 #@! TO.P,D45,3*
G04 #@! TO.N,/GA9*
X177800000Y-63500000D03*
G04 #@! TO.P,D45,2*
G04 #@! TO.N,/K4*
X176530000Y-63500000D03*
D12*
G04 #@! TO.P,D45,1*
G04 #@! TO.N,/BA9*
X175260000Y-63500000D03*
G04 #@! TD*
G04 #@! TO.P,D46,1*
G04 #@! TO.N,/BA10*
X187960000Y-63500000D03*
D13*
G04 #@! TO.P,D46,2*
G04 #@! TO.N,/K4*
X189230000Y-63500000D03*
G04 #@! TO.P,D46,3*
G04 #@! TO.N,/GA10*
X190500000Y-63500000D03*
G04 #@! TO.P,D46,4*
G04 #@! TO.N,/RA10*
X191770000Y-63500000D03*
G04 #@! TD*
G04 #@! TO.P,D48,4*
G04 #@! TO.N,/RA12*
X217170000Y-63500000D03*
G04 #@! TO.P,D48,3*
G04 #@! TO.N,/GA12*
X215900000Y-63500000D03*
G04 #@! TO.P,D48,2*
G04 #@! TO.N,/K4*
X214630000Y-63500000D03*
D12*
G04 #@! TO.P,D48,1*
G04 #@! TO.N,/BA12*
X213360000Y-63500000D03*
G04 #@! TD*
D13*
G04 #@! TO.P,D49,4*
G04 #@! TO.N,/RA1*
X77470000Y-76200000D03*
G04 #@! TO.P,D49,3*
G04 #@! TO.N,/GA1*
X76200000Y-76200000D03*
G04 #@! TO.P,D49,2*
G04 #@! TO.N,/K5*
X74930000Y-76200000D03*
D12*
G04 #@! TO.P,D49,1*
G04 #@! TO.N,/BA1*
X73660000Y-76200000D03*
G04 #@! TD*
D13*
G04 #@! TO.P,D50,4*
G04 #@! TO.N,/RA2*
X90170000Y-76200000D03*
G04 #@! TO.P,D50,3*
G04 #@! TO.N,/GA2*
X88900000Y-76200000D03*
G04 #@! TO.P,D50,2*
G04 #@! TO.N,/K5*
X87630000Y-76200000D03*
D12*
G04 #@! TO.P,D50,1*
G04 #@! TO.N,/BA2*
X86360000Y-76200000D03*
G04 #@! TD*
D13*
G04 #@! TO.P,D51,4*
G04 #@! TO.N,/RA3*
X102870000Y-76200000D03*
G04 #@! TO.P,D51,3*
G04 #@! TO.N,/GA3*
X101600000Y-76200000D03*
G04 #@! TO.P,D51,2*
G04 #@! TO.N,/K5*
X100330000Y-76200000D03*
D12*
G04 #@! TO.P,D51,1*
G04 #@! TO.N,/BA3*
X99060000Y-76200000D03*
G04 #@! TD*
G04 #@! TO.P,D52,1*
G04 #@! TO.N,/BA4*
X111760000Y-76200000D03*
D13*
G04 #@! TO.P,D52,2*
G04 #@! TO.N,/K5*
X113030000Y-76200000D03*
G04 #@! TO.P,D52,3*
G04 #@! TO.N,/GA4*
X114300000Y-76200000D03*
G04 #@! TO.P,D52,4*
G04 #@! TO.N,/RA4*
X115570000Y-76200000D03*
G04 #@! TD*
G04 #@! TO.P,D53,4*
G04 #@! TO.N,/RA5*
X128270000Y-76200000D03*
G04 #@! TO.P,D53,3*
G04 #@! TO.N,/GA5*
X127000000Y-76200000D03*
G04 #@! TO.P,D53,2*
G04 #@! TO.N,/K5*
X125730000Y-76200000D03*
D12*
G04 #@! TO.P,D53,1*
G04 #@! TO.N,/BA5*
X124460000Y-76200000D03*
G04 #@! TD*
G04 #@! TO.P,D54,1*
G04 #@! TO.N,/BA6*
X137160000Y-76200000D03*
D13*
G04 #@! TO.P,D54,2*
G04 #@! TO.N,/K5*
X138430000Y-76200000D03*
G04 #@! TO.P,D54,3*
G04 #@! TO.N,/GA6*
X139700000Y-76200000D03*
G04 #@! TO.P,D54,4*
G04 #@! TO.N,/RA6*
X140970000Y-76200000D03*
G04 #@! TD*
G04 #@! TO.P,D55,4*
G04 #@! TO.N,/RA7*
X153670000Y-76200000D03*
G04 #@! TO.P,D55,3*
G04 #@! TO.N,/GA7*
X152400000Y-76200000D03*
G04 #@! TO.P,D55,2*
G04 #@! TO.N,/K5*
X151130000Y-76200000D03*
D12*
G04 #@! TO.P,D55,1*
G04 #@! TO.N,/BA7*
X149860000Y-76200000D03*
G04 #@! TD*
G04 #@! TO.P,D56,1*
G04 #@! TO.N,/BA8*
X162560000Y-76200000D03*
D13*
G04 #@! TO.P,D56,2*
G04 #@! TO.N,/K5*
X163830000Y-76200000D03*
G04 #@! TO.P,D56,3*
G04 #@! TO.N,/GA8*
X165100000Y-76200000D03*
G04 #@! TO.P,D56,4*
G04 #@! TO.N,/RA8*
X166370000Y-76200000D03*
G04 #@! TD*
D12*
G04 #@! TO.P,D57,1*
G04 #@! TO.N,/BA9*
X175260000Y-76200000D03*
D13*
G04 #@! TO.P,D57,2*
G04 #@! TO.N,/K5*
X176530000Y-76200000D03*
G04 #@! TO.P,D57,3*
G04 #@! TO.N,/GA9*
X177800000Y-76200000D03*
G04 #@! TO.P,D57,4*
G04 #@! TO.N,/RA9*
X179070000Y-76200000D03*
G04 #@! TD*
G04 #@! TO.P,D58,4*
G04 #@! TO.N,/RA10*
X191770000Y-76200000D03*
G04 #@! TO.P,D58,3*
G04 #@! TO.N,/GA10*
X190500000Y-76200000D03*
G04 #@! TO.P,D58,2*
G04 #@! TO.N,/K5*
X189230000Y-76200000D03*
D12*
G04 #@! TO.P,D58,1*
G04 #@! TO.N,/BA10*
X187960000Y-76200000D03*
G04 #@! TD*
G04 #@! TO.P,D59,1*
G04 #@! TO.N,/BA11*
X200660000Y-76200000D03*
D13*
G04 #@! TO.P,D59,2*
G04 #@! TO.N,/K5*
X201930000Y-76200000D03*
G04 #@! TO.P,D59,3*
G04 #@! TO.N,/GA11*
X203200000Y-76200000D03*
G04 #@! TO.P,D59,4*
G04 #@! TO.N,/RA11*
X204470000Y-76200000D03*
G04 #@! TD*
D12*
G04 #@! TO.P,D61,1*
G04 #@! TO.N,/BA1*
X73660000Y-88900000D03*
D13*
G04 #@! TO.P,D61,2*
G04 #@! TO.N,/K6*
X74930000Y-88900000D03*
G04 #@! TO.P,D61,3*
G04 #@! TO.N,/GA1*
X76200000Y-88900000D03*
G04 #@! TO.P,D61,4*
G04 #@! TO.N,/RA1*
X77470000Y-88900000D03*
G04 #@! TD*
G04 #@! TO.P,D62,4*
G04 #@! TO.N,/RA2*
X90170000Y-88900000D03*
G04 #@! TO.P,D62,3*
G04 #@! TO.N,/GA2*
X88900000Y-88900000D03*
G04 #@! TO.P,D62,2*
G04 #@! TO.N,/K6*
X87630000Y-88900000D03*
D12*
G04 #@! TO.P,D62,1*
G04 #@! TO.N,/BA2*
X86360000Y-88900000D03*
G04 #@! TD*
D13*
G04 #@! TO.P,D63,4*
G04 #@! TO.N,/RA3*
X102870000Y-88900000D03*
G04 #@! TO.P,D63,3*
G04 #@! TO.N,/GA3*
X101600000Y-88900000D03*
G04 #@! TO.P,D63,2*
G04 #@! TO.N,/K6*
X100330000Y-88900000D03*
D12*
G04 #@! TO.P,D63,1*
G04 #@! TO.N,/BA3*
X99060000Y-88900000D03*
G04 #@! TD*
G04 #@! TO.P,D64,1*
G04 #@! TO.N,/BA4*
X111760000Y-88900000D03*
D13*
G04 #@! TO.P,D64,2*
G04 #@! TO.N,/K6*
X113030000Y-88900000D03*
G04 #@! TO.P,D64,3*
G04 #@! TO.N,/GA4*
X114300000Y-88900000D03*
G04 #@! TO.P,D64,4*
G04 #@! TO.N,/RA4*
X115570000Y-88900000D03*
G04 #@! TD*
D12*
G04 #@! TO.P,D65,1*
G04 #@! TO.N,/BA5*
X124460000Y-88900000D03*
D13*
G04 #@! TO.P,D65,2*
G04 #@! TO.N,/K6*
X125730000Y-88900000D03*
G04 #@! TO.P,D65,3*
G04 #@! TO.N,/GA5*
X127000000Y-88900000D03*
G04 #@! TO.P,D65,4*
G04 #@! TO.N,/RA5*
X128270000Y-88900000D03*
G04 #@! TD*
D12*
G04 #@! TO.P,D66,1*
G04 #@! TO.N,/BA6*
X137160000Y-88900000D03*
D13*
G04 #@! TO.P,D66,2*
G04 #@! TO.N,/K6*
X138430000Y-88900000D03*
G04 #@! TO.P,D66,3*
G04 #@! TO.N,/GA6*
X139700000Y-88900000D03*
G04 #@! TO.P,D66,4*
G04 #@! TO.N,/RA6*
X140970000Y-88900000D03*
G04 #@! TD*
G04 #@! TO.P,D67,4*
G04 #@! TO.N,/RA7*
X153670000Y-88900000D03*
G04 #@! TO.P,D67,3*
G04 #@! TO.N,/GA7*
X152400000Y-88900000D03*
G04 #@! TO.P,D67,2*
G04 #@! TO.N,/K6*
X151130000Y-88900000D03*
D12*
G04 #@! TO.P,D67,1*
G04 #@! TO.N,/BA7*
X149860000Y-88900000D03*
G04 #@! TD*
G04 #@! TO.P,D68,1*
G04 #@! TO.N,/BA8*
X162560000Y-88900000D03*
D13*
G04 #@! TO.P,D68,2*
G04 #@! TO.N,/K6*
X163830000Y-88900000D03*
G04 #@! TO.P,D68,3*
G04 #@! TO.N,/GA8*
X165100000Y-88900000D03*
G04 #@! TO.P,D68,4*
G04 #@! TO.N,/RA8*
X166370000Y-88900000D03*
G04 #@! TD*
D12*
G04 #@! TO.P,D69,1*
G04 #@! TO.N,/BA9*
X175260000Y-88900000D03*
D13*
G04 #@! TO.P,D69,2*
G04 #@! TO.N,/K6*
X176530000Y-88900000D03*
G04 #@! TO.P,D69,3*
G04 #@! TO.N,/GA9*
X177800000Y-88900000D03*
G04 #@! TO.P,D69,4*
G04 #@! TO.N,/RA9*
X179070000Y-88900000D03*
G04 #@! TD*
G04 #@! TO.P,D70,4*
G04 #@! TO.N,/RA10*
X191770000Y-88900000D03*
G04 #@! TO.P,D70,3*
G04 #@! TO.N,/GA10*
X190500000Y-88900000D03*
G04 #@! TO.P,D70,2*
G04 #@! TO.N,/K6*
X189230000Y-88900000D03*
D12*
G04 #@! TO.P,D70,1*
G04 #@! TO.N,/BA10*
X187960000Y-88900000D03*
G04 #@! TD*
G04 #@! TO.P,D71,1*
G04 #@! TO.N,/BA11*
X200660000Y-88900000D03*
D13*
G04 #@! TO.P,D71,2*
G04 #@! TO.N,/K6*
X201930000Y-88900000D03*
G04 #@! TO.P,D71,3*
G04 #@! TO.N,/GA11*
X203200000Y-88900000D03*
G04 #@! TO.P,D71,4*
G04 #@! TO.N,/RA11*
X204470000Y-88900000D03*
G04 #@! TD*
G04 #@! TO.P,D72,4*
G04 #@! TO.N,/RA12*
X217170000Y-88900000D03*
G04 #@! TO.P,D72,3*
G04 #@! TO.N,/GA12*
X215900000Y-88900000D03*
G04 #@! TO.P,D72,2*
G04 #@! TO.N,/K6*
X214630000Y-88900000D03*
D12*
G04 #@! TO.P,D72,1*
G04 #@! TO.N,/BA12*
X213360000Y-88900000D03*
G04 #@! TD*
G04 #@! TO.P,D73,1*
G04 #@! TO.N,/BA1*
X73660000Y-101600000D03*
D13*
G04 #@! TO.P,D73,2*
G04 #@! TO.N,/K7*
X74930000Y-101600000D03*
G04 #@! TO.P,D73,3*
G04 #@! TO.N,/GA1*
X76200000Y-101600000D03*
G04 #@! TO.P,D73,4*
G04 #@! TO.N,/RA1*
X77470000Y-101600000D03*
G04 #@! TD*
G04 #@! TO.P,D74,4*
G04 #@! TO.N,/RA2*
X90170000Y-101600000D03*
G04 #@! TO.P,D74,3*
G04 #@! TO.N,/GA2*
X88900000Y-101600000D03*
G04 #@! TO.P,D74,2*
G04 #@! TO.N,/K7*
X87630000Y-101600000D03*
D12*
G04 #@! TO.P,D74,1*
G04 #@! TO.N,/BA2*
X86360000Y-101600000D03*
G04 #@! TD*
D13*
G04 #@! TO.P,D75,4*
G04 #@! TO.N,/RA3*
X102870000Y-101600000D03*
G04 #@! TO.P,D75,3*
G04 #@! TO.N,/GA3*
X101600000Y-101600000D03*
G04 #@! TO.P,D75,2*
G04 #@! TO.N,/K7*
X100330000Y-101600000D03*
D12*
G04 #@! TO.P,D75,1*
G04 #@! TO.N,/BA3*
X99060000Y-101600000D03*
G04 #@! TD*
G04 #@! TO.P,D76,1*
G04 #@! TO.N,/BA4*
X111760000Y-101600000D03*
D13*
G04 #@! TO.P,D76,2*
G04 #@! TO.N,/K7*
X113030000Y-101600000D03*
G04 #@! TO.P,D76,3*
G04 #@! TO.N,/GA4*
X114300000Y-101600000D03*
G04 #@! TO.P,D76,4*
G04 #@! TO.N,/RA4*
X115570000Y-101600000D03*
G04 #@! TD*
G04 #@! TO.P,D77,4*
G04 #@! TO.N,/RA5*
X128270000Y-101600000D03*
G04 #@! TO.P,D77,3*
G04 #@! TO.N,/GA5*
X127000000Y-101600000D03*
G04 #@! TO.P,D77,2*
G04 #@! TO.N,/K7*
X125730000Y-101600000D03*
D12*
G04 #@! TO.P,D77,1*
G04 #@! TO.N,/BA5*
X124460000Y-101600000D03*
G04 #@! TD*
G04 #@! TO.P,D78,1*
G04 #@! TO.N,/BA6*
X137160000Y-101600000D03*
D13*
G04 #@! TO.P,D78,2*
G04 #@! TO.N,/K7*
X138430000Y-101600000D03*
G04 #@! TO.P,D78,3*
G04 #@! TO.N,/GA6*
X139700000Y-101600000D03*
G04 #@! TO.P,D78,4*
G04 #@! TO.N,/RA6*
X140970000Y-101600000D03*
G04 #@! TD*
G04 #@! TO.P,D79,4*
G04 #@! TO.N,/RA7*
X153670000Y-101600000D03*
G04 #@! TO.P,D79,3*
G04 #@! TO.N,/GA7*
X152400000Y-101600000D03*
G04 #@! TO.P,D79,2*
G04 #@! TO.N,/K7*
X151130000Y-101600000D03*
D12*
G04 #@! TO.P,D79,1*
G04 #@! TO.N,/BA7*
X149860000Y-101600000D03*
G04 #@! TD*
G04 #@! TO.P,D80,1*
G04 #@! TO.N,/BA8*
X162560000Y-101600000D03*
D13*
G04 #@! TO.P,D80,2*
G04 #@! TO.N,/K7*
X163830000Y-101600000D03*
G04 #@! TO.P,D80,3*
G04 #@! TO.N,/GA8*
X165100000Y-101600000D03*
G04 #@! TO.P,D80,4*
G04 #@! TO.N,/RA8*
X166370000Y-101600000D03*
G04 #@! TD*
G04 #@! TO.P,D81,4*
G04 #@! TO.N,/RA9*
X179070000Y-101600000D03*
G04 #@! TO.P,D81,3*
G04 #@! TO.N,/GA9*
X177800000Y-101600000D03*
G04 #@! TO.P,D81,2*
G04 #@! TO.N,/K7*
X176530000Y-101600000D03*
D12*
G04 #@! TO.P,D81,1*
G04 #@! TO.N,/BA9*
X175260000Y-101600000D03*
G04 #@! TD*
D13*
G04 #@! TO.P,D82,4*
G04 #@! TO.N,/RA10*
X191770000Y-101600000D03*
G04 #@! TO.P,D82,3*
G04 #@! TO.N,/GA10*
X190500000Y-101600000D03*
G04 #@! TO.P,D82,2*
G04 #@! TO.N,/K7*
X189230000Y-101600000D03*
D12*
G04 #@! TO.P,D82,1*
G04 #@! TO.N,/BA10*
X187960000Y-101600000D03*
G04 #@! TD*
G04 #@! TO.P,D83,1*
G04 #@! TO.N,/BA11*
X200660000Y-101600000D03*
D13*
G04 #@! TO.P,D83,2*
G04 #@! TO.N,/K7*
X201930000Y-101600000D03*
G04 #@! TO.P,D83,3*
G04 #@! TO.N,/GA11*
X203200000Y-101600000D03*
G04 #@! TO.P,D83,4*
G04 #@! TO.N,/RA11*
X204470000Y-101600000D03*
G04 #@! TD*
G04 #@! TO.P,D84,4*
G04 #@! TO.N,/RA12*
X217170000Y-101600000D03*
G04 #@! TO.P,D84,3*
G04 #@! TO.N,/GA12*
X215900000Y-101600000D03*
G04 #@! TO.P,D84,2*
G04 #@! TO.N,/K7*
X214630000Y-101600000D03*
D12*
G04 #@! TO.P,D84,1*
G04 #@! TO.N,/BA12*
X213360000Y-101600000D03*
G04 #@! TD*
D13*
G04 #@! TO.P,D85,4*
G04 #@! TO.N,/RA1*
X77470000Y-114300000D03*
G04 #@! TO.P,D85,3*
G04 #@! TO.N,/GA1*
X76200000Y-114300000D03*
G04 #@! TO.P,D85,2*
G04 #@! TO.N,/K8*
X74930000Y-114300000D03*
D12*
G04 #@! TO.P,D85,1*
G04 #@! TO.N,/BA1*
X73660000Y-114300000D03*
G04 #@! TD*
D13*
G04 #@! TO.P,D86,4*
G04 #@! TO.N,/RA2*
X90170000Y-114300000D03*
G04 #@! TO.P,D86,3*
G04 #@! TO.N,/GA2*
X88900000Y-114300000D03*
G04 #@! TO.P,D86,2*
G04 #@! TO.N,/K8*
X87630000Y-114300000D03*
D12*
G04 #@! TO.P,D86,1*
G04 #@! TO.N,/BA2*
X86360000Y-114300000D03*
G04 #@! TD*
D13*
G04 #@! TO.P,D87,4*
G04 #@! TO.N,/RA3*
X102870000Y-114300000D03*
G04 #@! TO.P,D87,3*
G04 #@! TO.N,/GA3*
X101600000Y-114300000D03*
G04 #@! TO.P,D87,2*
G04 #@! TO.N,/K8*
X100330000Y-114300000D03*
D12*
G04 #@! TO.P,D87,1*
G04 #@! TO.N,/BA3*
X99060000Y-114300000D03*
G04 #@! TD*
G04 #@! TO.P,D88,1*
G04 #@! TO.N,/BA4*
X111760000Y-114300000D03*
D13*
G04 #@! TO.P,D88,2*
G04 #@! TO.N,/K8*
X113030000Y-114300000D03*
G04 #@! TO.P,D88,3*
G04 #@! TO.N,/GA4*
X114300000Y-114300000D03*
G04 #@! TO.P,D88,4*
G04 #@! TO.N,/RA4*
X115570000Y-114300000D03*
G04 #@! TD*
G04 #@! TO.P,D89,4*
G04 #@! TO.N,/RA5*
X128270000Y-114300000D03*
G04 #@! TO.P,D89,3*
G04 #@! TO.N,/GA5*
X127000000Y-114300000D03*
G04 #@! TO.P,D89,2*
G04 #@! TO.N,/K8*
X125730000Y-114300000D03*
D12*
G04 #@! TO.P,D89,1*
G04 #@! TO.N,/BA5*
X124460000Y-114300000D03*
G04 #@! TD*
G04 #@! TO.P,D90,1*
G04 #@! TO.N,/BA6*
X137160000Y-114300000D03*
D13*
G04 #@! TO.P,D90,2*
G04 #@! TO.N,/K8*
X138430000Y-114300000D03*
G04 #@! TO.P,D90,3*
G04 #@! TO.N,/GA6*
X139700000Y-114300000D03*
G04 #@! TO.P,D90,4*
G04 #@! TO.N,/RA6*
X140970000Y-114300000D03*
G04 #@! TD*
G04 #@! TO.P,D91,4*
G04 #@! TO.N,/RA7*
X153670000Y-114300000D03*
G04 #@! TO.P,D91,3*
G04 #@! TO.N,/GA7*
X152400000Y-114300000D03*
G04 #@! TO.P,D91,2*
G04 #@! TO.N,/K8*
X151130000Y-114300000D03*
D12*
G04 #@! TO.P,D91,1*
G04 #@! TO.N,/BA7*
X149860000Y-114300000D03*
G04 #@! TD*
G04 #@! TO.P,D92,1*
G04 #@! TO.N,/BA8*
X162560000Y-114300000D03*
D13*
G04 #@! TO.P,D92,2*
G04 #@! TO.N,/K8*
X163830000Y-114300000D03*
G04 #@! TO.P,D92,3*
G04 #@! TO.N,/GA8*
X165100000Y-114300000D03*
G04 #@! TO.P,D92,4*
G04 #@! TO.N,/RA8*
X166370000Y-114300000D03*
G04 #@! TD*
D12*
G04 #@! TO.P,D93,1*
G04 #@! TO.N,/BA9*
X175260000Y-114300000D03*
D13*
G04 #@! TO.P,D93,2*
G04 #@! TO.N,/K8*
X176530000Y-114300000D03*
G04 #@! TO.P,D93,3*
G04 #@! TO.N,/GA9*
X177800000Y-114300000D03*
G04 #@! TO.P,D93,4*
G04 #@! TO.N,/RA9*
X179070000Y-114300000D03*
G04 #@! TD*
G04 #@! TO.P,D94,4*
G04 #@! TO.N,/RA10*
X191770000Y-114300000D03*
G04 #@! TO.P,D94,3*
G04 #@! TO.N,/GA10*
X190500000Y-114300000D03*
G04 #@! TO.P,D94,2*
G04 #@! TO.N,/K8*
X189230000Y-114300000D03*
D12*
G04 #@! TO.P,D94,1*
G04 #@! TO.N,/BA10*
X187960000Y-114300000D03*
G04 #@! TD*
G04 #@! TO.P,D95,1*
G04 #@! TO.N,/BA11*
X200660000Y-114300000D03*
D13*
G04 #@! TO.P,D95,2*
G04 #@! TO.N,/K8*
X201930000Y-114300000D03*
G04 #@! TO.P,D95,3*
G04 #@! TO.N,/GA11*
X203200000Y-114300000D03*
G04 #@! TO.P,D95,4*
G04 #@! TO.N,/RA11*
X204470000Y-114300000D03*
G04 #@! TD*
D12*
G04 #@! TO.P,D96,1*
G04 #@! TO.N,/BA12*
X213360000Y-114300000D03*
D13*
G04 #@! TO.P,D96,2*
G04 #@! TO.N,/K8*
X214630000Y-114300000D03*
G04 #@! TO.P,D96,3*
G04 #@! TO.N,/GA12*
X215900000Y-114300000D03*
G04 #@! TO.P,D96,4*
G04 #@! TO.N,/RA12*
X217170000Y-114300000D03*
G04 #@! TD*
D12*
G04 #@! TO.P,D97,1*
G04 #@! TO.N,/BA1*
X73660000Y-127000000D03*
D13*
G04 #@! TO.P,D97,2*
G04 #@! TO.N,/K9*
X74930000Y-127000000D03*
G04 #@! TO.P,D97,3*
G04 #@! TO.N,/GA1*
X76200000Y-127000000D03*
G04 #@! TO.P,D97,4*
G04 #@! TO.N,/RA1*
X77470000Y-127000000D03*
G04 #@! TD*
G04 #@! TO.P,D98,4*
G04 #@! TO.N,/RA2*
X90170000Y-127000000D03*
G04 #@! TO.P,D98,3*
G04 #@! TO.N,/GA2*
X88900000Y-127000000D03*
G04 #@! TO.P,D98,2*
G04 #@! TO.N,/K9*
X87630000Y-127000000D03*
D12*
G04 #@! TO.P,D98,1*
G04 #@! TO.N,/BA2*
X86360000Y-127000000D03*
G04 #@! TD*
D13*
G04 #@! TO.P,D99,4*
G04 #@! TO.N,/RA3*
X102870000Y-127000000D03*
G04 #@! TO.P,D99,3*
G04 #@! TO.N,/GA3*
X101600000Y-127000000D03*
G04 #@! TO.P,D99,2*
G04 #@! TO.N,/K9*
X100330000Y-127000000D03*
D12*
G04 #@! TO.P,D99,1*
G04 #@! TO.N,/BA3*
X99060000Y-127000000D03*
G04 #@! TD*
G04 #@! TO.P,D100,1*
G04 #@! TO.N,/BA4*
X111760000Y-127000000D03*
D13*
G04 #@! TO.P,D100,2*
G04 #@! TO.N,/K9*
X113030000Y-127000000D03*
G04 #@! TO.P,D100,3*
G04 #@! TO.N,/GA4*
X114300000Y-127000000D03*
G04 #@! TO.P,D100,4*
G04 #@! TO.N,/RA4*
X115570000Y-127000000D03*
G04 #@! TD*
D12*
G04 #@! TO.P,D101,1*
G04 #@! TO.N,/BA5*
X124460000Y-127000000D03*
D13*
G04 #@! TO.P,D101,2*
G04 #@! TO.N,/K9*
X125730000Y-127000000D03*
G04 #@! TO.P,D101,3*
G04 #@! TO.N,/GA5*
X127000000Y-127000000D03*
G04 #@! TO.P,D101,4*
G04 #@! TO.N,/RA5*
X128270000Y-127000000D03*
G04 #@! TD*
D12*
G04 #@! TO.P,D102,1*
G04 #@! TO.N,/BA6*
X137160000Y-127000000D03*
D13*
G04 #@! TO.P,D102,2*
G04 #@! TO.N,/K9*
X138430000Y-127000000D03*
G04 #@! TO.P,D102,3*
G04 #@! TO.N,/GA6*
X139700000Y-127000000D03*
G04 #@! TO.P,D102,4*
G04 #@! TO.N,/RA6*
X140970000Y-127000000D03*
G04 #@! TD*
G04 #@! TO.P,D103,4*
G04 #@! TO.N,/RA7*
X153670000Y-127000000D03*
G04 #@! TO.P,D103,3*
G04 #@! TO.N,/GA7*
X152400000Y-127000000D03*
G04 #@! TO.P,D103,2*
G04 #@! TO.N,/K9*
X151130000Y-127000000D03*
D12*
G04 #@! TO.P,D103,1*
G04 #@! TO.N,/BA7*
X149860000Y-127000000D03*
G04 #@! TD*
G04 #@! TO.P,D104,1*
G04 #@! TO.N,/BA8*
X162560000Y-127000000D03*
D13*
G04 #@! TO.P,D104,2*
G04 #@! TO.N,/K9*
X163830000Y-127000000D03*
G04 #@! TO.P,D104,3*
G04 #@! TO.N,/GA8*
X165100000Y-127000000D03*
G04 #@! TO.P,D104,4*
G04 #@! TO.N,/RA8*
X166370000Y-127000000D03*
G04 #@! TD*
D12*
G04 #@! TO.P,D105,1*
G04 #@! TO.N,/BA9*
X175260000Y-127000000D03*
D13*
G04 #@! TO.P,D105,2*
G04 #@! TO.N,/K9*
X176530000Y-127000000D03*
G04 #@! TO.P,D105,3*
G04 #@! TO.N,/GA9*
X177800000Y-127000000D03*
G04 #@! TO.P,D105,4*
G04 #@! TO.N,/RA9*
X179070000Y-127000000D03*
G04 #@! TD*
G04 #@! TO.P,D106,4*
G04 #@! TO.N,/RA10*
X191770000Y-127000000D03*
G04 #@! TO.P,D106,3*
G04 #@! TO.N,/GA10*
X190500000Y-127000000D03*
G04 #@! TO.P,D106,2*
G04 #@! TO.N,/K9*
X189230000Y-127000000D03*
D12*
G04 #@! TO.P,D106,1*
G04 #@! TO.N,/BA10*
X187960000Y-127000000D03*
G04 #@! TD*
G04 #@! TO.P,D107,1*
G04 #@! TO.N,/BA11*
X200660000Y-127000000D03*
D13*
G04 #@! TO.P,D107,2*
G04 #@! TO.N,/K9*
X201930000Y-127000000D03*
G04 #@! TO.P,D107,3*
G04 #@! TO.N,/GA11*
X203200000Y-127000000D03*
G04 #@! TO.P,D107,4*
G04 #@! TO.N,/RA11*
X204470000Y-127000000D03*
G04 #@! TD*
G04 #@! TO.P,D108,4*
G04 #@! TO.N,/RA12*
X217170000Y-127000000D03*
G04 #@! TO.P,D108,3*
G04 #@! TO.N,/GA12*
X215900000Y-127000000D03*
G04 #@! TO.P,D108,2*
G04 #@! TO.N,/K9*
X214630000Y-127000000D03*
D12*
G04 #@! TO.P,D108,1*
G04 #@! TO.N,/BA12*
X213360000Y-127000000D03*
G04 #@! TD*
G04 #@! TO.P,D109,1*
G04 #@! TO.N,/BA1*
X73660000Y-139700000D03*
D13*
G04 #@! TO.P,D109,2*
G04 #@! TO.N,/K10*
X74930000Y-139700000D03*
G04 #@! TO.P,D109,3*
G04 #@! TO.N,/GA1*
X76200000Y-139700000D03*
G04 #@! TO.P,D109,4*
G04 #@! TO.N,/RA1*
X77470000Y-139700000D03*
G04 #@! TD*
G04 #@! TO.P,D110,4*
G04 #@! TO.N,/RA2*
X90170000Y-139700000D03*
G04 #@! TO.P,D110,3*
G04 #@! TO.N,/GA2*
X88900000Y-139700000D03*
G04 #@! TO.P,D110,2*
G04 #@! TO.N,/K10*
X87630000Y-139700000D03*
D12*
G04 #@! TO.P,D110,1*
G04 #@! TO.N,/BA2*
X86360000Y-139700000D03*
G04 #@! TD*
D13*
G04 #@! TO.P,D111,4*
G04 #@! TO.N,/RA3*
X102870000Y-139700000D03*
G04 #@! TO.P,D111,3*
G04 #@! TO.N,/GA3*
X101600000Y-139700000D03*
G04 #@! TO.P,D111,2*
G04 #@! TO.N,/K10*
X100330000Y-139700000D03*
D12*
G04 #@! TO.P,D111,1*
G04 #@! TO.N,/BA3*
X99060000Y-139700000D03*
G04 #@! TD*
G04 #@! TO.P,D112,1*
G04 #@! TO.N,/BA4*
X111760000Y-139700000D03*
D13*
G04 #@! TO.P,D112,2*
G04 #@! TO.N,/K10*
X113030000Y-139700000D03*
G04 #@! TO.P,D112,3*
G04 #@! TO.N,/GA4*
X114300000Y-139700000D03*
G04 #@! TO.P,D112,4*
G04 #@! TO.N,/RA4*
X115570000Y-139700000D03*
G04 #@! TD*
G04 #@! TO.P,D113,4*
G04 #@! TO.N,/RA5*
X128270000Y-139700000D03*
G04 #@! TO.P,D113,3*
G04 #@! TO.N,/GA5*
X127000000Y-139700000D03*
G04 #@! TO.P,D113,2*
G04 #@! TO.N,/K10*
X125730000Y-139700000D03*
D12*
G04 #@! TO.P,D113,1*
G04 #@! TO.N,/BA5*
X124460000Y-139700000D03*
G04 #@! TD*
G04 #@! TO.P,D114,1*
G04 #@! TO.N,/BA6*
X137160000Y-139700000D03*
D13*
G04 #@! TO.P,D114,2*
G04 #@! TO.N,/K10*
X138430000Y-139700000D03*
G04 #@! TO.P,D114,3*
G04 #@! TO.N,/GA6*
X139700000Y-139700000D03*
G04 #@! TO.P,D114,4*
G04 #@! TO.N,/RA6*
X140970000Y-139700000D03*
G04 #@! TD*
G04 #@! TO.P,D115,4*
G04 #@! TO.N,/RA7*
X153670000Y-139700000D03*
G04 #@! TO.P,D115,3*
G04 #@! TO.N,/GA7*
X152400000Y-139700000D03*
G04 #@! TO.P,D115,2*
G04 #@! TO.N,/K10*
X151130000Y-139700000D03*
D12*
G04 #@! TO.P,D115,1*
G04 #@! TO.N,/BA7*
X149860000Y-139700000D03*
G04 #@! TD*
G04 #@! TO.P,D116,1*
G04 #@! TO.N,/BA8*
X162560000Y-139700000D03*
D13*
G04 #@! TO.P,D116,2*
G04 #@! TO.N,/K10*
X163830000Y-139700000D03*
G04 #@! TO.P,D116,3*
G04 #@! TO.N,/GA8*
X165100000Y-139700000D03*
G04 #@! TO.P,D116,4*
G04 #@! TO.N,/RA8*
X166370000Y-139700000D03*
G04 #@! TD*
G04 #@! TO.P,D117,4*
G04 #@! TO.N,/RA9*
X179070000Y-139700000D03*
G04 #@! TO.P,D117,3*
G04 #@! TO.N,/GA9*
X177800000Y-139700000D03*
G04 #@! TO.P,D117,2*
G04 #@! TO.N,/K10*
X176530000Y-139700000D03*
D12*
G04 #@! TO.P,D117,1*
G04 #@! TO.N,/BA9*
X175260000Y-139700000D03*
G04 #@! TD*
D13*
G04 #@! TO.P,D118,4*
G04 #@! TO.N,/RA10*
X191770000Y-139700000D03*
G04 #@! TO.P,D118,3*
G04 #@! TO.N,/GA10*
X190500000Y-139700000D03*
G04 #@! TO.P,D118,2*
G04 #@! TO.N,/K10*
X189230000Y-139700000D03*
D12*
G04 #@! TO.P,D118,1*
G04 #@! TO.N,/BA10*
X187960000Y-139700000D03*
G04 #@! TD*
G04 #@! TO.P,D119,1*
G04 #@! TO.N,/BA11*
X200660000Y-139700000D03*
D13*
G04 #@! TO.P,D119,2*
G04 #@! TO.N,/K10*
X201930000Y-139700000D03*
G04 #@! TO.P,D119,3*
G04 #@! TO.N,/GA11*
X203200000Y-139700000D03*
G04 #@! TO.P,D119,4*
G04 #@! TO.N,/RA11*
X204470000Y-139700000D03*
G04 #@! TD*
G04 #@! TO.P,D120,4*
G04 #@! TO.N,/RA12*
X217170000Y-139700000D03*
G04 #@! TO.P,D120,3*
G04 #@! TO.N,/GA12*
X215900000Y-139700000D03*
G04 #@! TO.P,D120,2*
G04 #@! TO.N,/K10*
X214630000Y-139700000D03*
D12*
G04 #@! TO.P,D120,1*
G04 #@! TO.N,/BA12*
X213360000Y-139700000D03*
G04 #@! TD*
D13*
G04 #@! TO.P,D121,4*
G04 #@! TO.N,/RA1*
X77470000Y-152400000D03*
G04 #@! TO.P,D121,3*
G04 #@! TO.N,/GA1*
X76200000Y-152400000D03*
G04 #@! TO.P,D121,2*
G04 #@! TO.N,/K11*
X74930000Y-152400000D03*
D12*
G04 #@! TO.P,D121,1*
G04 #@! TO.N,/BA1*
X73660000Y-152400000D03*
G04 #@! TD*
D13*
G04 #@! TO.P,D122,4*
G04 #@! TO.N,/RA2*
X90170000Y-152400000D03*
G04 #@! TO.P,D122,3*
G04 #@! TO.N,/GA2*
X88900000Y-152400000D03*
G04 #@! TO.P,D122,2*
G04 #@! TO.N,/K11*
X87630000Y-152400000D03*
D12*
G04 #@! TO.P,D122,1*
G04 #@! TO.N,/BA2*
X86360000Y-152400000D03*
G04 #@! TD*
D13*
G04 #@! TO.P,D123,4*
G04 #@! TO.N,/RA3*
X102870000Y-152400000D03*
G04 #@! TO.P,D123,3*
G04 #@! TO.N,/GA3*
X101600000Y-152400000D03*
G04 #@! TO.P,D123,2*
G04 #@! TO.N,/K11*
X100330000Y-152400000D03*
D12*
G04 #@! TO.P,D123,1*
G04 #@! TO.N,/BA3*
X99060000Y-152400000D03*
G04 #@! TD*
G04 #@! TO.P,D124,1*
G04 #@! TO.N,/BA4*
X111760000Y-152400000D03*
D13*
G04 #@! TO.P,D124,2*
G04 #@! TO.N,/K11*
X113030000Y-152400000D03*
G04 #@! TO.P,D124,3*
G04 #@! TO.N,/GA4*
X114300000Y-152400000D03*
G04 #@! TO.P,D124,4*
G04 #@! TO.N,/RA4*
X115570000Y-152400000D03*
G04 #@! TD*
G04 #@! TO.P,D125,4*
G04 #@! TO.N,/RA5*
X128270000Y-152400000D03*
G04 #@! TO.P,D125,3*
G04 #@! TO.N,/GA5*
X127000000Y-152400000D03*
G04 #@! TO.P,D125,2*
G04 #@! TO.N,/K11*
X125730000Y-152400000D03*
D12*
G04 #@! TO.P,D125,1*
G04 #@! TO.N,/BA5*
X124460000Y-152400000D03*
G04 #@! TD*
G04 #@! TO.P,D126,1*
G04 #@! TO.N,/BA6*
X137160000Y-152400000D03*
D13*
G04 #@! TO.P,D126,2*
G04 #@! TO.N,/K11*
X138430000Y-152400000D03*
G04 #@! TO.P,D126,3*
G04 #@! TO.N,/GA6*
X139700000Y-152400000D03*
G04 #@! TO.P,D126,4*
G04 #@! TO.N,/RA6*
X140970000Y-152400000D03*
G04 #@! TD*
G04 #@! TO.P,D127,4*
G04 #@! TO.N,/RA7*
X153670000Y-152400000D03*
G04 #@! TO.P,D127,3*
G04 #@! TO.N,/GA7*
X152400000Y-152400000D03*
G04 #@! TO.P,D127,2*
G04 #@! TO.N,/K11*
X151130000Y-152400000D03*
D12*
G04 #@! TO.P,D127,1*
G04 #@! TO.N,/BA7*
X149860000Y-152400000D03*
G04 #@! TD*
G04 #@! TO.P,D128,1*
G04 #@! TO.N,/BA8*
X162560000Y-152400000D03*
D13*
G04 #@! TO.P,D128,2*
G04 #@! TO.N,/K11*
X163830000Y-152400000D03*
G04 #@! TO.P,D128,3*
G04 #@! TO.N,/GA8*
X165100000Y-152400000D03*
G04 #@! TO.P,D128,4*
G04 #@! TO.N,/RA8*
X166370000Y-152400000D03*
G04 #@! TD*
D12*
G04 #@! TO.P,D129,1*
G04 #@! TO.N,/BA9*
X175260000Y-152400000D03*
D13*
G04 #@! TO.P,D129,2*
G04 #@! TO.N,/K11*
X176530000Y-152400000D03*
G04 #@! TO.P,D129,3*
G04 #@! TO.N,/GA9*
X177800000Y-152400000D03*
G04 #@! TO.P,D129,4*
G04 #@! TO.N,/RA9*
X179070000Y-152400000D03*
G04 #@! TD*
G04 #@! TO.P,D130,4*
G04 #@! TO.N,/RA10*
X191770000Y-152400000D03*
G04 #@! TO.P,D130,3*
G04 #@! TO.N,/GA10*
X190500000Y-152400000D03*
G04 #@! TO.P,D130,2*
G04 #@! TO.N,/K11*
X189230000Y-152400000D03*
D12*
G04 #@! TO.P,D130,1*
G04 #@! TO.N,/BA10*
X187960000Y-152400000D03*
G04 #@! TD*
G04 #@! TO.P,D131,1*
G04 #@! TO.N,/BA11*
X200660000Y-152400000D03*
D13*
G04 #@! TO.P,D131,2*
G04 #@! TO.N,/K11*
X201930000Y-152400000D03*
G04 #@! TO.P,D131,3*
G04 #@! TO.N,/GA11*
X203200000Y-152400000D03*
G04 #@! TO.P,D131,4*
G04 #@! TO.N,/RA11*
X204470000Y-152400000D03*
G04 #@! TD*
D12*
G04 #@! TO.P,D132,1*
G04 #@! TO.N,/BA12*
X213360000Y-152400000D03*
D13*
G04 #@! TO.P,D132,2*
G04 #@! TO.N,/K11*
X214630000Y-152400000D03*
G04 #@! TO.P,D132,3*
G04 #@! TO.N,/GA12*
X215900000Y-152400000D03*
G04 #@! TO.P,D132,4*
G04 #@! TO.N,/RA12*
X217170000Y-152400000D03*
G04 #@! TD*
D12*
G04 #@! TO.P,D133,1*
G04 #@! TO.N,/BA1*
X73660000Y-165100000D03*
D13*
G04 #@! TO.P,D133,2*
G04 #@! TO.N,/K12*
X74930000Y-165100000D03*
G04 #@! TO.P,D133,3*
G04 #@! TO.N,/GA1*
X76200000Y-165100000D03*
G04 #@! TO.P,D133,4*
G04 #@! TO.N,/RA1*
X77470000Y-165100000D03*
G04 #@! TD*
G04 #@! TO.P,D134,4*
G04 #@! TO.N,/RA2*
X90170000Y-165100000D03*
G04 #@! TO.P,D134,3*
G04 #@! TO.N,/GA2*
X88900000Y-165100000D03*
G04 #@! TO.P,D134,2*
G04 #@! TO.N,/K12*
X87630000Y-165100000D03*
D12*
G04 #@! TO.P,D134,1*
G04 #@! TO.N,/BA2*
X86360000Y-165100000D03*
G04 #@! TD*
D13*
G04 #@! TO.P,D135,4*
G04 #@! TO.N,/RA3*
X102870000Y-165100000D03*
G04 #@! TO.P,D135,3*
G04 #@! TO.N,/GA3*
X101600000Y-165100000D03*
G04 #@! TO.P,D135,2*
G04 #@! TO.N,/K12*
X100330000Y-165100000D03*
D12*
G04 #@! TO.P,D135,1*
G04 #@! TO.N,/BA3*
X99060000Y-165100000D03*
G04 #@! TD*
G04 #@! TO.P,D136,1*
G04 #@! TO.N,/BA4*
X111760000Y-165100000D03*
D13*
G04 #@! TO.P,D136,2*
G04 #@! TO.N,/K12*
X113030000Y-165100000D03*
G04 #@! TO.P,D136,3*
G04 #@! TO.N,/GA4*
X114300000Y-165100000D03*
G04 #@! TO.P,D136,4*
G04 #@! TO.N,/RA4*
X115570000Y-165100000D03*
G04 #@! TD*
D12*
G04 #@! TO.P,D137,1*
G04 #@! TO.N,/BA5*
X124460000Y-165100000D03*
D13*
G04 #@! TO.P,D137,2*
G04 #@! TO.N,/K12*
X125730000Y-165100000D03*
G04 #@! TO.P,D137,3*
G04 #@! TO.N,/GA5*
X127000000Y-165100000D03*
G04 #@! TO.P,D137,4*
G04 #@! TO.N,/RA5*
X128270000Y-165100000D03*
G04 #@! TD*
D12*
G04 #@! TO.P,D138,1*
G04 #@! TO.N,/BA6*
X137160000Y-165100000D03*
D13*
G04 #@! TO.P,D138,2*
G04 #@! TO.N,/K12*
X138430000Y-165100000D03*
G04 #@! TO.P,D138,3*
G04 #@! TO.N,/GA6*
X139700000Y-165100000D03*
G04 #@! TO.P,D138,4*
G04 #@! TO.N,/RA6*
X140970000Y-165100000D03*
G04 #@! TD*
G04 #@! TO.P,D139,4*
G04 #@! TO.N,/RA7*
X153670000Y-165100000D03*
G04 #@! TO.P,D139,3*
G04 #@! TO.N,/GA7*
X152400000Y-165100000D03*
G04 #@! TO.P,D139,2*
G04 #@! TO.N,/K12*
X151130000Y-165100000D03*
D12*
G04 #@! TO.P,D139,1*
G04 #@! TO.N,/BA7*
X149860000Y-165100000D03*
G04 #@! TD*
G04 #@! TO.P,D140,1*
G04 #@! TO.N,/BA8*
X162560000Y-165100000D03*
D13*
G04 #@! TO.P,D140,2*
G04 #@! TO.N,/K12*
X163830000Y-165100000D03*
G04 #@! TO.P,D140,3*
G04 #@! TO.N,/GA8*
X165100000Y-165100000D03*
G04 #@! TO.P,D140,4*
G04 #@! TO.N,/RA8*
X166370000Y-165100000D03*
G04 #@! TD*
D12*
G04 #@! TO.P,D141,1*
G04 #@! TO.N,/BA9*
X175260000Y-165100000D03*
D13*
G04 #@! TO.P,D141,2*
G04 #@! TO.N,/K12*
X176530000Y-165100000D03*
G04 #@! TO.P,D141,3*
G04 #@! TO.N,/GA9*
X177800000Y-165100000D03*
G04 #@! TO.P,D141,4*
G04 #@! TO.N,/RA9*
X179070000Y-165100000D03*
G04 #@! TD*
G04 #@! TO.P,D142,4*
G04 #@! TO.N,/RA10*
X191770000Y-165100000D03*
G04 #@! TO.P,D142,3*
G04 #@! TO.N,/GA10*
X190500000Y-165100000D03*
G04 #@! TO.P,D142,2*
G04 #@! TO.N,/K12*
X189230000Y-165100000D03*
D12*
G04 #@! TO.P,D142,1*
G04 #@! TO.N,/BA10*
X187960000Y-165100000D03*
G04 #@! TD*
G04 #@! TO.P,D143,1*
G04 #@! TO.N,/BA11*
X200660000Y-165100000D03*
D13*
G04 #@! TO.P,D143,2*
G04 #@! TO.N,/K12*
X201930000Y-165100000D03*
G04 #@! TO.P,D143,3*
G04 #@! TO.N,/GA11*
X203200000Y-165100000D03*
G04 #@! TO.P,D143,4*
G04 #@! TO.N,/RA11*
X204470000Y-165100000D03*
G04 #@! TD*
G04 #@! TO.P,D144,4*
G04 #@! TO.N,/RA12*
X217170000Y-165100000D03*
G04 #@! TO.P,D144,3*
G04 #@! TO.N,/GA12*
X215900000Y-165100000D03*
G04 #@! TO.P,D144,2*
G04 #@! TO.N,/K12*
X214630000Y-165100000D03*
D12*
G04 #@! TO.P,D144,1*
G04 #@! TO.N,/BA12*
X213360000Y-165100000D03*
G04 #@! TD*
D14*
G04 #@! TO.N,/Gnd*
G04 #@! TO.C,C1*
G36*
X58900142Y-123036174D02*
X58923803Y-123039684D01*
X58947007Y-123045496D01*
X58969529Y-123053554D01*
X58991153Y-123063782D01*
X59011670Y-123076079D01*
X59030883Y-123090329D01*
X59048607Y-123106393D01*
X59064671Y-123124117D01*
X59078921Y-123143330D01*
X59091218Y-123163847D01*
X59101446Y-123185471D01*
X59109504Y-123207993D01*
X59115316Y-123231197D01*
X59118826Y-123254858D01*
X59120000Y-123278750D01*
X59120000Y-123766250D01*
X59118826Y-123790142D01*
X59115316Y-123813803D01*
X59109504Y-123837007D01*
X59101446Y-123859529D01*
X59091218Y-123881153D01*
X59078921Y-123901670D01*
X59064671Y-123920883D01*
X59048607Y-123938607D01*
X59030883Y-123954671D01*
X59011670Y-123968921D01*
X58991153Y-123981218D01*
X58969529Y-123991446D01*
X58947007Y-123999504D01*
X58923803Y-124005316D01*
X58900142Y-124008826D01*
X58876250Y-124010000D01*
X57963750Y-124010000D01*
X57939858Y-124008826D01*
X57916197Y-124005316D01*
X57892993Y-123999504D01*
X57870471Y-123991446D01*
X57848847Y-123981218D01*
X57828330Y-123968921D01*
X57809117Y-123954671D01*
X57791393Y-123938607D01*
X57775329Y-123920883D01*
X57761079Y-123901670D01*
X57748782Y-123881153D01*
X57738554Y-123859529D01*
X57730496Y-123837007D01*
X57724684Y-123813803D01*
X57721174Y-123790142D01*
X57720000Y-123766250D01*
X57720000Y-123278750D01*
X57721174Y-123254858D01*
X57724684Y-123231197D01*
X57730496Y-123207993D01*
X57738554Y-123185471D01*
X57748782Y-123163847D01*
X57761079Y-123143330D01*
X57775329Y-123124117D01*
X57791393Y-123106393D01*
X57809117Y-123090329D01*
X57828330Y-123076079D01*
X57848847Y-123063782D01*
X57870471Y-123053554D01*
X57892993Y-123045496D01*
X57916197Y-123039684D01*
X57939858Y-123036174D01*
X57963750Y-123035000D01*
X58876250Y-123035000D01*
X58900142Y-123036174D01*
X58900142Y-123036174D01*
G37*
D15*
G04 #@! TD*
G04 #@! TO.P,C1,1*
G04 #@! TO.N,/Gnd*
X58420000Y-123522500D03*
D14*
G04 #@! TO.N,/Vcc*
G04 #@! TO.C,C1*
G36*
X58900142Y-124911174D02*
X58923803Y-124914684D01*
X58947007Y-124920496D01*
X58969529Y-124928554D01*
X58991153Y-124938782D01*
X59011670Y-124951079D01*
X59030883Y-124965329D01*
X59048607Y-124981393D01*
X59064671Y-124999117D01*
X59078921Y-125018330D01*
X59091218Y-125038847D01*
X59101446Y-125060471D01*
X59109504Y-125082993D01*
X59115316Y-125106197D01*
X59118826Y-125129858D01*
X59120000Y-125153750D01*
X59120000Y-125641250D01*
X59118826Y-125665142D01*
X59115316Y-125688803D01*
X59109504Y-125712007D01*
X59101446Y-125734529D01*
X59091218Y-125756153D01*
X59078921Y-125776670D01*
X59064671Y-125795883D01*
X59048607Y-125813607D01*
X59030883Y-125829671D01*
X59011670Y-125843921D01*
X58991153Y-125856218D01*
X58969529Y-125866446D01*
X58947007Y-125874504D01*
X58923803Y-125880316D01*
X58900142Y-125883826D01*
X58876250Y-125885000D01*
X57963750Y-125885000D01*
X57939858Y-125883826D01*
X57916197Y-125880316D01*
X57892993Y-125874504D01*
X57870471Y-125866446D01*
X57848847Y-125856218D01*
X57828330Y-125843921D01*
X57809117Y-125829671D01*
X57791393Y-125813607D01*
X57775329Y-125795883D01*
X57761079Y-125776670D01*
X57748782Y-125756153D01*
X57738554Y-125734529D01*
X57730496Y-125712007D01*
X57724684Y-125688803D01*
X57721174Y-125665142D01*
X57720000Y-125641250D01*
X57720000Y-125153750D01*
X57721174Y-125129858D01*
X57724684Y-125106197D01*
X57730496Y-125082993D01*
X57738554Y-125060471D01*
X57748782Y-125038847D01*
X57761079Y-125018330D01*
X57775329Y-124999117D01*
X57791393Y-124981393D01*
X57809117Y-124965329D01*
X57828330Y-124951079D01*
X57848847Y-124938782D01*
X57870471Y-124928554D01*
X57892993Y-124920496D01*
X57916197Y-124914684D01*
X57939858Y-124911174D01*
X57963750Y-124910000D01*
X58876250Y-124910000D01*
X58900142Y-124911174D01*
X58900142Y-124911174D01*
G37*
D15*
G04 #@! TD*
G04 #@! TO.P,C1,2*
G04 #@! TO.N,/Vcc*
X58420000Y-125397500D03*
D14*
G04 #@! TO.N,/Gnd*
G04 #@! TO.C,C2*
G36*
X65370142Y-20891174D02*
X65393803Y-20894684D01*
X65417007Y-20900496D01*
X65439529Y-20908554D01*
X65461153Y-20918782D01*
X65481670Y-20931079D01*
X65500883Y-20945329D01*
X65518607Y-20961393D01*
X65534671Y-20979117D01*
X65548921Y-20998330D01*
X65561218Y-21018847D01*
X65571446Y-21040471D01*
X65579504Y-21062993D01*
X65585316Y-21086197D01*
X65588826Y-21109858D01*
X65590000Y-21133750D01*
X65590000Y-22046250D01*
X65588826Y-22070142D01*
X65585316Y-22093803D01*
X65579504Y-22117007D01*
X65571446Y-22139529D01*
X65561218Y-22161153D01*
X65548921Y-22181670D01*
X65534671Y-22200883D01*
X65518607Y-22218607D01*
X65500883Y-22234671D01*
X65481670Y-22248921D01*
X65461153Y-22261218D01*
X65439529Y-22271446D01*
X65417007Y-22279504D01*
X65393803Y-22285316D01*
X65370142Y-22288826D01*
X65346250Y-22290000D01*
X64858750Y-22290000D01*
X64834858Y-22288826D01*
X64811197Y-22285316D01*
X64787993Y-22279504D01*
X64765471Y-22271446D01*
X64743847Y-22261218D01*
X64723330Y-22248921D01*
X64704117Y-22234671D01*
X64686393Y-22218607D01*
X64670329Y-22200883D01*
X64656079Y-22181670D01*
X64643782Y-22161153D01*
X64633554Y-22139529D01*
X64625496Y-22117007D01*
X64619684Y-22093803D01*
X64616174Y-22070142D01*
X64615000Y-22046250D01*
X64615000Y-21133750D01*
X64616174Y-21109858D01*
X64619684Y-21086197D01*
X64625496Y-21062993D01*
X64633554Y-21040471D01*
X64643782Y-21018847D01*
X64656079Y-20998330D01*
X64670329Y-20979117D01*
X64686393Y-20961393D01*
X64704117Y-20945329D01*
X64723330Y-20931079D01*
X64743847Y-20918782D01*
X64765471Y-20908554D01*
X64787993Y-20900496D01*
X64811197Y-20894684D01*
X64834858Y-20891174D01*
X64858750Y-20890000D01*
X65346250Y-20890000D01*
X65370142Y-20891174D01*
X65370142Y-20891174D01*
G37*
D15*
G04 #@! TD*
G04 #@! TO.P,C2,1*
G04 #@! TO.N,/Gnd*
X65102500Y-21590000D03*
D14*
G04 #@! TO.N,/Vcc*
G04 #@! TO.C,C2*
G36*
X67245142Y-20891174D02*
X67268803Y-20894684D01*
X67292007Y-20900496D01*
X67314529Y-20908554D01*
X67336153Y-20918782D01*
X67356670Y-20931079D01*
X67375883Y-20945329D01*
X67393607Y-20961393D01*
X67409671Y-20979117D01*
X67423921Y-20998330D01*
X67436218Y-21018847D01*
X67446446Y-21040471D01*
X67454504Y-21062993D01*
X67460316Y-21086197D01*
X67463826Y-21109858D01*
X67465000Y-21133750D01*
X67465000Y-22046250D01*
X67463826Y-22070142D01*
X67460316Y-22093803D01*
X67454504Y-22117007D01*
X67446446Y-22139529D01*
X67436218Y-22161153D01*
X67423921Y-22181670D01*
X67409671Y-22200883D01*
X67393607Y-22218607D01*
X67375883Y-22234671D01*
X67356670Y-22248921D01*
X67336153Y-22261218D01*
X67314529Y-22271446D01*
X67292007Y-22279504D01*
X67268803Y-22285316D01*
X67245142Y-22288826D01*
X67221250Y-22290000D01*
X66733750Y-22290000D01*
X66709858Y-22288826D01*
X66686197Y-22285316D01*
X66662993Y-22279504D01*
X66640471Y-22271446D01*
X66618847Y-22261218D01*
X66598330Y-22248921D01*
X66579117Y-22234671D01*
X66561393Y-22218607D01*
X66545329Y-22200883D01*
X66531079Y-22181670D01*
X66518782Y-22161153D01*
X66508554Y-22139529D01*
X66500496Y-22117007D01*
X66494684Y-22093803D01*
X66491174Y-22070142D01*
X66490000Y-22046250D01*
X66490000Y-21133750D01*
X66491174Y-21109858D01*
X66494684Y-21086197D01*
X66500496Y-21062993D01*
X66508554Y-21040471D01*
X66518782Y-21018847D01*
X66531079Y-20998330D01*
X66545329Y-20979117D01*
X66561393Y-20961393D01*
X66579117Y-20945329D01*
X66598330Y-20931079D01*
X66618847Y-20918782D01*
X66640471Y-20908554D01*
X66662993Y-20900496D01*
X66686197Y-20894684D01*
X66709858Y-20891174D01*
X66733750Y-20890000D01*
X67221250Y-20890000D01*
X67245142Y-20891174D01*
X67245142Y-20891174D01*
G37*
D15*
G04 #@! TD*
G04 #@! TO.P,C2,2*
G04 #@! TO.N,/Vcc*
X66977500Y-21590000D03*
D14*
G04 #@! TO.N,/Vcc*
G04 #@! TO.C,C3*
G36*
X67245142Y-46291174D02*
X67268803Y-46294684D01*
X67292007Y-46300496D01*
X67314529Y-46308554D01*
X67336153Y-46318782D01*
X67356670Y-46331079D01*
X67375883Y-46345329D01*
X67393607Y-46361393D01*
X67409671Y-46379117D01*
X67423921Y-46398330D01*
X67436218Y-46418847D01*
X67446446Y-46440471D01*
X67454504Y-46462993D01*
X67460316Y-46486197D01*
X67463826Y-46509858D01*
X67465000Y-46533750D01*
X67465000Y-47446250D01*
X67463826Y-47470142D01*
X67460316Y-47493803D01*
X67454504Y-47517007D01*
X67446446Y-47539529D01*
X67436218Y-47561153D01*
X67423921Y-47581670D01*
X67409671Y-47600883D01*
X67393607Y-47618607D01*
X67375883Y-47634671D01*
X67356670Y-47648921D01*
X67336153Y-47661218D01*
X67314529Y-47671446D01*
X67292007Y-47679504D01*
X67268803Y-47685316D01*
X67245142Y-47688826D01*
X67221250Y-47690000D01*
X66733750Y-47690000D01*
X66709858Y-47688826D01*
X66686197Y-47685316D01*
X66662993Y-47679504D01*
X66640471Y-47671446D01*
X66618847Y-47661218D01*
X66598330Y-47648921D01*
X66579117Y-47634671D01*
X66561393Y-47618607D01*
X66545329Y-47600883D01*
X66531079Y-47581670D01*
X66518782Y-47561153D01*
X66508554Y-47539529D01*
X66500496Y-47517007D01*
X66494684Y-47493803D01*
X66491174Y-47470142D01*
X66490000Y-47446250D01*
X66490000Y-46533750D01*
X66491174Y-46509858D01*
X66494684Y-46486197D01*
X66500496Y-46462993D01*
X66508554Y-46440471D01*
X66518782Y-46418847D01*
X66531079Y-46398330D01*
X66545329Y-46379117D01*
X66561393Y-46361393D01*
X66579117Y-46345329D01*
X66598330Y-46331079D01*
X66618847Y-46318782D01*
X66640471Y-46308554D01*
X66662993Y-46300496D01*
X66686197Y-46294684D01*
X66709858Y-46291174D01*
X66733750Y-46290000D01*
X67221250Y-46290000D01*
X67245142Y-46291174D01*
X67245142Y-46291174D01*
G37*
D15*
G04 #@! TD*
G04 #@! TO.P,C3,2*
G04 #@! TO.N,/Vcc*
X66977500Y-46990000D03*
D14*
G04 #@! TO.N,/Gnd*
G04 #@! TO.C,C3*
G36*
X65370142Y-46291174D02*
X65393803Y-46294684D01*
X65417007Y-46300496D01*
X65439529Y-46308554D01*
X65461153Y-46318782D01*
X65481670Y-46331079D01*
X65500883Y-46345329D01*
X65518607Y-46361393D01*
X65534671Y-46379117D01*
X65548921Y-46398330D01*
X65561218Y-46418847D01*
X65571446Y-46440471D01*
X65579504Y-46462993D01*
X65585316Y-46486197D01*
X65588826Y-46509858D01*
X65590000Y-46533750D01*
X65590000Y-47446250D01*
X65588826Y-47470142D01*
X65585316Y-47493803D01*
X65579504Y-47517007D01*
X65571446Y-47539529D01*
X65561218Y-47561153D01*
X65548921Y-47581670D01*
X65534671Y-47600883D01*
X65518607Y-47618607D01*
X65500883Y-47634671D01*
X65481670Y-47648921D01*
X65461153Y-47661218D01*
X65439529Y-47671446D01*
X65417007Y-47679504D01*
X65393803Y-47685316D01*
X65370142Y-47688826D01*
X65346250Y-47690000D01*
X64858750Y-47690000D01*
X64834858Y-47688826D01*
X64811197Y-47685316D01*
X64787993Y-47679504D01*
X64765471Y-47671446D01*
X64743847Y-47661218D01*
X64723330Y-47648921D01*
X64704117Y-47634671D01*
X64686393Y-47618607D01*
X64670329Y-47600883D01*
X64656079Y-47581670D01*
X64643782Y-47561153D01*
X64633554Y-47539529D01*
X64625496Y-47517007D01*
X64619684Y-47493803D01*
X64616174Y-47470142D01*
X64615000Y-47446250D01*
X64615000Y-46533750D01*
X64616174Y-46509858D01*
X64619684Y-46486197D01*
X64625496Y-46462993D01*
X64633554Y-46440471D01*
X64643782Y-46418847D01*
X64656079Y-46398330D01*
X64670329Y-46379117D01*
X64686393Y-46361393D01*
X64704117Y-46345329D01*
X64723330Y-46331079D01*
X64743847Y-46318782D01*
X64765471Y-46308554D01*
X64787993Y-46300496D01*
X64811197Y-46294684D01*
X64834858Y-46291174D01*
X64858750Y-46290000D01*
X65346250Y-46290000D01*
X65370142Y-46291174D01*
X65370142Y-46291174D01*
G37*
D15*
G04 #@! TD*
G04 #@! TO.P,C3,1*
G04 #@! TO.N,/Gnd*
X65102500Y-46990000D03*
D14*
G04 #@! TO.N,/Gnd*
G04 #@! TO.C,C4*
G36*
X65370142Y-71691174D02*
X65393803Y-71694684D01*
X65417007Y-71700496D01*
X65439529Y-71708554D01*
X65461153Y-71718782D01*
X65481670Y-71731079D01*
X65500883Y-71745329D01*
X65518607Y-71761393D01*
X65534671Y-71779117D01*
X65548921Y-71798330D01*
X65561218Y-71818847D01*
X65571446Y-71840471D01*
X65579504Y-71862993D01*
X65585316Y-71886197D01*
X65588826Y-71909858D01*
X65590000Y-71933750D01*
X65590000Y-72846250D01*
X65588826Y-72870142D01*
X65585316Y-72893803D01*
X65579504Y-72917007D01*
X65571446Y-72939529D01*
X65561218Y-72961153D01*
X65548921Y-72981670D01*
X65534671Y-73000883D01*
X65518607Y-73018607D01*
X65500883Y-73034671D01*
X65481670Y-73048921D01*
X65461153Y-73061218D01*
X65439529Y-73071446D01*
X65417007Y-73079504D01*
X65393803Y-73085316D01*
X65370142Y-73088826D01*
X65346250Y-73090000D01*
X64858750Y-73090000D01*
X64834858Y-73088826D01*
X64811197Y-73085316D01*
X64787993Y-73079504D01*
X64765471Y-73071446D01*
X64743847Y-73061218D01*
X64723330Y-73048921D01*
X64704117Y-73034671D01*
X64686393Y-73018607D01*
X64670329Y-73000883D01*
X64656079Y-72981670D01*
X64643782Y-72961153D01*
X64633554Y-72939529D01*
X64625496Y-72917007D01*
X64619684Y-72893803D01*
X64616174Y-72870142D01*
X64615000Y-72846250D01*
X64615000Y-71933750D01*
X64616174Y-71909858D01*
X64619684Y-71886197D01*
X64625496Y-71862993D01*
X64633554Y-71840471D01*
X64643782Y-71818847D01*
X64656079Y-71798330D01*
X64670329Y-71779117D01*
X64686393Y-71761393D01*
X64704117Y-71745329D01*
X64723330Y-71731079D01*
X64743847Y-71718782D01*
X64765471Y-71708554D01*
X64787993Y-71700496D01*
X64811197Y-71694684D01*
X64834858Y-71691174D01*
X64858750Y-71690000D01*
X65346250Y-71690000D01*
X65370142Y-71691174D01*
X65370142Y-71691174D01*
G37*
D15*
G04 #@! TD*
G04 #@! TO.P,C4,1*
G04 #@! TO.N,/Gnd*
X65102500Y-72390000D03*
D14*
G04 #@! TO.N,/Vcc*
G04 #@! TO.C,C4*
G36*
X67245142Y-71691174D02*
X67268803Y-71694684D01*
X67292007Y-71700496D01*
X67314529Y-71708554D01*
X67336153Y-71718782D01*
X67356670Y-71731079D01*
X67375883Y-71745329D01*
X67393607Y-71761393D01*
X67409671Y-71779117D01*
X67423921Y-71798330D01*
X67436218Y-71818847D01*
X67446446Y-71840471D01*
X67454504Y-71862993D01*
X67460316Y-71886197D01*
X67463826Y-71909858D01*
X67465000Y-71933750D01*
X67465000Y-72846250D01*
X67463826Y-72870142D01*
X67460316Y-72893803D01*
X67454504Y-72917007D01*
X67446446Y-72939529D01*
X67436218Y-72961153D01*
X67423921Y-72981670D01*
X67409671Y-73000883D01*
X67393607Y-73018607D01*
X67375883Y-73034671D01*
X67356670Y-73048921D01*
X67336153Y-73061218D01*
X67314529Y-73071446D01*
X67292007Y-73079504D01*
X67268803Y-73085316D01*
X67245142Y-73088826D01*
X67221250Y-73090000D01*
X66733750Y-73090000D01*
X66709858Y-73088826D01*
X66686197Y-73085316D01*
X66662993Y-73079504D01*
X66640471Y-73071446D01*
X66618847Y-73061218D01*
X66598330Y-73048921D01*
X66579117Y-73034671D01*
X66561393Y-73018607D01*
X66545329Y-73000883D01*
X66531079Y-72981670D01*
X66518782Y-72961153D01*
X66508554Y-72939529D01*
X66500496Y-72917007D01*
X66494684Y-72893803D01*
X66491174Y-72870142D01*
X66490000Y-72846250D01*
X66490000Y-71933750D01*
X66491174Y-71909858D01*
X66494684Y-71886197D01*
X66500496Y-71862993D01*
X66508554Y-71840471D01*
X66518782Y-71818847D01*
X66531079Y-71798330D01*
X66545329Y-71779117D01*
X66561393Y-71761393D01*
X66579117Y-71745329D01*
X66598330Y-71731079D01*
X66618847Y-71718782D01*
X66640471Y-71708554D01*
X66662993Y-71700496D01*
X66686197Y-71694684D01*
X66709858Y-71691174D01*
X66733750Y-71690000D01*
X67221250Y-71690000D01*
X67245142Y-71691174D01*
X67245142Y-71691174D01*
G37*
D15*
G04 #@! TD*
G04 #@! TO.P,C4,2*
G04 #@! TO.N,/Vcc*
X66977500Y-72390000D03*
D14*
G04 #@! TO.N,/Vcc*
G04 #@! TO.C,C5*
G36*
X67245142Y-97091174D02*
X67268803Y-97094684D01*
X67292007Y-97100496D01*
X67314529Y-97108554D01*
X67336153Y-97118782D01*
X67356670Y-97131079D01*
X67375883Y-97145329D01*
X67393607Y-97161393D01*
X67409671Y-97179117D01*
X67423921Y-97198330D01*
X67436218Y-97218847D01*
X67446446Y-97240471D01*
X67454504Y-97262993D01*
X67460316Y-97286197D01*
X67463826Y-97309858D01*
X67465000Y-97333750D01*
X67465000Y-98246250D01*
X67463826Y-98270142D01*
X67460316Y-98293803D01*
X67454504Y-98317007D01*
X67446446Y-98339529D01*
X67436218Y-98361153D01*
X67423921Y-98381670D01*
X67409671Y-98400883D01*
X67393607Y-98418607D01*
X67375883Y-98434671D01*
X67356670Y-98448921D01*
X67336153Y-98461218D01*
X67314529Y-98471446D01*
X67292007Y-98479504D01*
X67268803Y-98485316D01*
X67245142Y-98488826D01*
X67221250Y-98490000D01*
X66733750Y-98490000D01*
X66709858Y-98488826D01*
X66686197Y-98485316D01*
X66662993Y-98479504D01*
X66640471Y-98471446D01*
X66618847Y-98461218D01*
X66598330Y-98448921D01*
X66579117Y-98434671D01*
X66561393Y-98418607D01*
X66545329Y-98400883D01*
X66531079Y-98381670D01*
X66518782Y-98361153D01*
X66508554Y-98339529D01*
X66500496Y-98317007D01*
X66494684Y-98293803D01*
X66491174Y-98270142D01*
X66490000Y-98246250D01*
X66490000Y-97333750D01*
X66491174Y-97309858D01*
X66494684Y-97286197D01*
X66500496Y-97262993D01*
X66508554Y-97240471D01*
X66518782Y-97218847D01*
X66531079Y-97198330D01*
X66545329Y-97179117D01*
X66561393Y-97161393D01*
X66579117Y-97145329D01*
X66598330Y-97131079D01*
X66618847Y-97118782D01*
X66640471Y-97108554D01*
X66662993Y-97100496D01*
X66686197Y-97094684D01*
X66709858Y-97091174D01*
X66733750Y-97090000D01*
X67221250Y-97090000D01*
X67245142Y-97091174D01*
X67245142Y-97091174D01*
G37*
D15*
G04 #@! TD*
G04 #@! TO.P,C5,2*
G04 #@! TO.N,/Vcc*
X66977500Y-97790000D03*
D14*
G04 #@! TO.N,/Gnd*
G04 #@! TO.C,C5*
G36*
X65370142Y-97091174D02*
X65393803Y-97094684D01*
X65417007Y-97100496D01*
X65439529Y-97108554D01*
X65461153Y-97118782D01*
X65481670Y-97131079D01*
X65500883Y-97145329D01*
X65518607Y-97161393D01*
X65534671Y-97179117D01*
X65548921Y-97198330D01*
X65561218Y-97218847D01*
X65571446Y-97240471D01*
X65579504Y-97262993D01*
X65585316Y-97286197D01*
X65588826Y-97309858D01*
X65590000Y-97333750D01*
X65590000Y-98246250D01*
X65588826Y-98270142D01*
X65585316Y-98293803D01*
X65579504Y-98317007D01*
X65571446Y-98339529D01*
X65561218Y-98361153D01*
X65548921Y-98381670D01*
X65534671Y-98400883D01*
X65518607Y-98418607D01*
X65500883Y-98434671D01*
X65481670Y-98448921D01*
X65461153Y-98461218D01*
X65439529Y-98471446D01*
X65417007Y-98479504D01*
X65393803Y-98485316D01*
X65370142Y-98488826D01*
X65346250Y-98490000D01*
X64858750Y-98490000D01*
X64834858Y-98488826D01*
X64811197Y-98485316D01*
X64787993Y-98479504D01*
X64765471Y-98471446D01*
X64743847Y-98461218D01*
X64723330Y-98448921D01*
X64704117Y-98434671D01*
X64686393Y-98418607D01*
X64670329Y-98400883D01*
X64656079Y-98381670D01*
X64643782Y-98361153D01*
X64633554Y-98339529D01*
X64625496Y-98317007D01*
X64619684Y-98293803D01*
X64616174Y-98270142D01*
X64615000Y-98246250D01*
X64615000Y-97333750D01*
X64616174Y-97309858D01*
X64619684Y-97286197D01*
X64625496Y-97262993D01*
X64633554Y-97240471D01*
X64643782Y-97218847D01*
X64656079Y-97198330D01*
X64670329Y-97179117D01*
X64686393Y-97161393D01*
X64704117Y-97145329D01*
X64723330Y-97131079D01*
X64743847Y-97118782D01*
X64765471Y-97108554D01*
X64787993Y-97100496D01*
X64811197Y-97094684D01*
X64834858Y-97091174D01*
X64858750Y-97090000D01*
X65346250Y-97090000D01*
X65370142Y-97091174D01*
X65370142Y-97091174D01*
G37*
D15*
G04 #@! TD*
G04 #@! TO.P,C5,1*
G04 #@! TO.N,/Gnd*
X65102500Y-97790000D03*
D14*
G04 #@! TO.N,/Gnd*
G04 #@! TO.C,C6*
G36*
X230470142Y-20891174D02*
X230493803Y-20894684D01*
X230517007Y-20900496D01*
X230539529Y-20908554D01*
X230561153Y-20918782D01*
X230581670Y-20931079D01*
X230600883Y-20945329D01*
X230618607Y-20961393D01*
X230634671Y-20979117D01*
X230648921Y-20998330D01*
X230661218Y-21018847D01*
X230671446Y-21040471D01*
X230679504Y-21062993D01*
X230685316Y-21086197D01*
X230688826Y-21109858D01*
X230690000Y-21133750D01*
X230690000Y-22046250D01*
X230688826Y-22070142D01*
X230685316Y-22093803D01*
X230679504Y-22117007D01*
X230671446Y-22139529D01*
X230661218Y-22161153D01*
X230648921Y-22181670D01*
X230634671Y-22200883D01*
X230618607Y-22218607D01*
X230600883Y-22234671D01*
X230581670Y-22248921D01*
X230561153Y-22261218D01*
X230539529Y-22271446D01*
X230517007Y-22279504D01*
X230493803Y-22285316D01*
X230470142Y-22288826D01*
X230446250Y-22290000D01*
X229958750Y-22290000D01*
X229934858Y-22288826D01*
X229911197Y-22285316D01*
X229887993Y-22279504D01*
X229865471Y-22271446D01*
X229843847Y-22261218D01*
X229823330Y-22248921D01*
X229804117Y-22234671D01*
X229786393Y-22218607D01*
X229770329Y-22200883D01*
X229756079Y-22181670D01*
X229743782Y-22161153D01*
X229733554Y-22139529D01*
X229725496Y-22117007D01*
X229719684Y-22093803D01*
X229716174Y-22070142D01*
X229715000Y-22046250D01*
X229715000Y-21133750D01*
X229716174Y-21109858D01*
X229719684Y-21086197D01*
X229725496Y-21062993D01*
X229733554Y-21040471D01*
X229743782Y-21018847D01*
X229756079Y-20998330D01*
X229770329Y-20979117D01*
X229786393Y-20961393D01*
X229804117Y-20945329D01*
X229823330Y-20931079D01*
X229843847Y-20918782D01*
X229865471Y-20908554D01*
X229887993Y-20900496D01*
X229911197Y-20894684D01*
X229934858Y-20891174D01*
X229958750Y-20890000D01*
X230446250Y-20890000D01*
X230470142Y-20891174D01*
X230470142Y-20891174D01*
G37*
D15*
G04 #@! TD*
G04 #@! TO.P,C6,1*
G04 #@! TO.N,/Gnd*
X230202500Y-21590000D03*
D14*
G04 #@! TO.N,/Vcc*
G04 #@! TO.C,C6*
G36*
X232345142Y-20891174D02*
X232368803Y-20894684D01*
X232392007Y-20900496D01*
X232414529Y-20908554D01*
X232436153Y-20918782D01*
X232456670Y-20931079D01*
X232475883Y-20945329D01*
X232493607Y-20961393D01*
X232509671Y-20979117D01*
X232523921Y-20998330D01*
X232536218Y-21018847D01*
X232546446Y-21040471D01*
X232554504Y-21062993D01*
X232560316Y-21086197D01*
X232563826Y-21109858D01*
X232565000Y-21133750D01*
X232565000Y-22046250D01*
X232563826Y-22070142D01*
X232560316Y-22093803D01*
X232554504Y-22117007D01*
X232546446Y-22139529D01*
X232536218Y-22161153D01*
X232523921Y-22181670D01*
X232509671Y-22200883D01*
X232493607Y-22218607D01*
X232475883Y-22234671D01*
X232456670Y-22248921D01*
X232436153Y-22261218D01*
X232414529Y-22271446D01*
X232392007Y-22279504D01*
X232368803Y-22285316D01*
X232345142Y-22288826D01*
X232321250Y-22290000D01*
X231833750Y-22290000D01*
X231809858Y-22288826D01*
X231786197Y-22285316D01*
X231762993Y-22279504D01*
X231740471Y-22271446D01*
X231718847Y-22261218D01*
X231698330Y-22248921D01*
X231679117Y-22234671D01*
X231661393Y-22218607D01*
X231645329Y-22200883D01*
X231631079Y-22181670D01*
X231618782Y-22161153D01*
X231608554Y-22139529D01*
X231600496Y-22117007D01*
X231594684Y-22093803D01*
X231591174Y-22070142D01*
X231590000Y-22046250D01*
X231590000Y-21133750D01*
X231591174Y-21109858D01*
X231594684Y-21086197D01*
X231600496Y-21062993D01*
X231608554Y-21040471D01*
X231618782Y-21018847D01*
X231631079Y-20998330D01*
X231645329Y-20979117D01*
X231661393Y-20961393D01*
X231679117Y-20945329D01*
X231698330Y-20931079D01*
X231718847Y-20918782D01*
X231740471Y-20908554D01*
X231762993Y-20900496D01*
X231786197Y-20894684D01*
X231809858Y-20891174D01*
X231833750Y-20890000D01*
X232321250Y-20890000D01*
X232345142Y-20891174D01*
X232345142Y-20891174D01*
G37*
D15*
G04 #@! TD*
G04 #@! TO.P,C6,2*
G04 #@! TO.N,/Vcc*
X232077500Y-21590000D03*
D14*
G04 #@! TO.N,/Vcc*
G04 #@! TO.C,C7*
G36*
X232677642Y-46291174D02*
X232701303Y-46294684D01*
X232724507Y-46300496D01*
X232747029Y-46308554D01*
X232768653Y-46318782D01*
X232789170Y-46331079D01*
X232808383Y-46345329D01*
X232826107Y-46361393D01*
X232842171Y-46379117D01*
X232856421Y-46398330D01*
X232868718Y-46418847D01*
X232878946Y-46440471D01*
X232887004Y-46462993D01*
X232892816Y-46486197D01*
X232896326Y-46509858D01*
X232897500Y-46533750D01*
X232897500Y-47446250D01*
X232896326Y-47470142D01*
X232892816Y-47493803D01*
X232887004Y-47517007D01*
X232878946Y-47539529D01*
X232868718Y-47561153D01*
X232856421Y-47581670D01*
X232842171Y-47600883D01*
X232826107Y-47618607D01*
X232808383Y-47634671D01*
X232789170Y-47648921D01*
X232768653Y-47661218D01*
X232747029Y-47671446D01*
X232724507Y-47679504D01*
X232701303Y-47685316D01*
X232677642Y-47688826D01*
X232653750Y-47690000D01*
X232166250Y-47690000D01*
X232142358Y-47688826D01*
X232118697Y-47685316D01*
X232095493Y-47679504D01*
X232072971Y-47671446D01*
X232051347Y-47661218D01*
X232030830Y-47648921D01*
X232011617Y-47634671D01*
X231993893Y-47618607D01*
X231977829Y-47600883D01*
X231963579Y-47581670D01*
X231951282Y-47561153D01*
X231941054Y-47539529D01*
X231932996Y-47517007D01*
X231927184Y-47493803D01*
X231923674Y-47470142D01*
X231922500Y-47446250D01*
X231922500Y-46533750D01*
X231923674Y-46509858D01*
X231927184Y-46486197D01*
X231932996Y-46462993D01*
X231941054Y-46440471D01*
X231951282Y-46418847D01*
X231963579Y-46398330D01*
X231977829Y-46379117D01*
X231993893Y-46361393D01*
X232011617Y-46345329D01*
X232030830Y-46331079D01*
X232051347Y-46318782D01*
X232072971Y-46308554D01*
X232095493Y-46300496D01*
X232118697Y-46294684D01*
X232142358Y-46291174D01*
X232166250Y-46290000D01*
X232653750Y-46290000D01*
X232677642Y-46291174D01*
X232677642Y-46291174D01*
G37*
D15*
G04 #@! TD*
G04 #@! TO.P,C7,2*
G04 #@! TO.N,/Vcc*
X232410000Y-46990000D03*
D14*
G04 #@! TO.N,/Gnd*
G04 #@! TO.C,C7*
G36*
X230802642Y-46291174D02*
X230826303Y-46294684D01*
X230849507Y-46300496D01*
X230872029Y-46308554D01*
X230893653Y-46318782D01*
X230914170Y-46331079D01*
X230933383Y-46345329D01*
X230951107Y-46361393D01*
X230967171Y-46379117D01*
X230981421Y-46398330D01*
X230993718Y-46418847D01*
X231003946Y-46440471D01*
X231012004Y-46462993D01*
X231017816Y-46486197D01*
X231021326Y-46509858D01*
X231022500Y-46533750D01*
X231022500Y-47446250D01*
X231021326Y-47470142D01*
X231017816Y-47493803D01*
X231012004Y-47517007D01*
X231003946Y-47539529D01*
X230993718Y-47561153D01*
X230981421Y-47581670D01*
X230967171Y-47600883D01*
X230951107Y-47618607D01*
X230933383Y-47634671D01*
X230914170Y-47648921D01*
X230893653Y-47661218D01*
X230872029Y-47671446D01*
X230849507Y-47679504D01*
X230826303Y-47685316D01*
X230802642Y-47688826D01*
X230778750Y-47690000D01*
X230291250Y-47690000D01*
X230267358Y-47688826D01*
X230243697Y-47685316D01*
X230220493Y-47679504D01*
X230197971Y-47671446D01*
X230176347Y-47661218D01*
X230155830Y-47648921D01*
X230136617Y-47634671D01*
X230118893Y-47618607D01*
X230102829Y-47600883D01*
X230088579Y-47581670D01*
X230076282Y-47561153D01*
X230066054Y-47539529D01*
X230057996Y-47517007D01*
X230052184Y-47493803D01*
X230048674Y-47470142D01*
X230047500Y-47446250D01*
X230047500Y-46533750D01*
X230048674Y-46509858D01*
X230052184Y-46486197D01*
X230057996Y-46462993D01*
X230066054Y-46440471D01*
X230076282Y-46418847D01*
X230088579Y-46398330D01*
X230102829Y-46379117D01*
X230118893Y-46361393D01*
X230136617Y-46345329D01*
X230155830Y-46331079D01*
X230176347Y-46318782D01*
X230197971Y-46308554D01*
X230220493Y-46300496D01*
X230243697Y-46294684D01*
X230267358Y-46291174D01*
X230291250Y-46290000D01*
X230778750Y-46290000D01*
X230802642Y-46291174D01*
X230802642Y-46291174D01*
G37*
D15*
G04 #@! TD*
G04 #@! TO.P,C7,1*
G04 #@! TO.N,/Gnd*
X230535000Y-46990000D03*
D16*
G04 #@! TO.P,J1,1*
G04 #@! TO.N,/Vcc*
X58420000Y-129540000D03*
G04 #@! TD*
G04 #@! TO.P,J2,1*
G04 #@! TO.N,/Vcc*
X58420000Y-133350000D03*
G04 #@! TD*
G04 #@! TO.P,J3,1*
G04 #@! TO.N,/SIG*
X58420000Y-158750000D03*
D17*
G04 #@! TO.P,J3,2*
G04 #@! TO.N,/SEN*
X58420000Y-161290000D03*
G04 #@! TO.P,J3,3*
G04 #@! TO.N,/SLT*
X58420000Y-163830000D03*
G04 #@! TO.P,J3,4*
G04 #@! TO.N,/SCK*
X58420000Y-166370000D03*
G04 #@! TD*
D16*
G04 #@! TO.P,J4,1*
G04 #@! TO.N,/Gnd*
X58420000Y-137160000D03*
G04 #@! TD*
G04 #@! TO.P,J5,1*
G04 #@! TO.N,/Gnd*
X58420000Y-140970000D03*
G04 #@! TD*
D18*
G04 #@! TO.P,Q1,1*
G04 #@! TO.N,/Gnd*
X224790000Y-74930000D03*
D19*
G04 #@! TO.P,Q1,3*
G04 #@! TO.N,/K1*
X222250000Y-74930000D03*
G04 #@! TO.P,Q1,2*
G04 #@! TO.N,/KQ1*
X223520000Y-74930000D03*
G04 #@! TD*
D18*
G04 #@! TO.P,Q2,1*
G04 #@! TO.N,/Gnd*
X224790000Y-82550000D03*
D19*
G04 #@! TO.P,Q2,3*
G04 #@! TO.N,/K2*
X222250000Y-82550000D03*
G04 #@! TO.P,Q2,2*
G04 #@! TO.N,/KQ2*
X223520000Y-82550000D03*
G04 #@! TD*
G04 #@! TO.P,Q3,2*
G04 #@! TO.N,/KQ3*
X223520000Y-90170000D03*
G04 #@! TO.P,Q3,3*
G04 #@! TO.N,/K3*
X222250000Y-90170000D03*
D18*
G04 #@! TO.P,Q3,1*
G04 #@! TO.N,/Gnd*
X224790000Y-90170000D03*
G04 #@! TD*
G04 #@! TO.P,Q4,1*
G04 #@! TO.N,/Gnd*
X224790000Y-97790000D03*
D19*
G04 #@! TO.P,Q4,3*
G04 #@! TO.N,/K4*
X222250000Y-97790000D03*
G04 #@! TO.P,Q4,2*
G04 #@! TO.N,/KQ4*
X223520000Y-97790000D03*
G04 #@! TD*
D18*
G04 #@! TO.P,Q5,1*
G04 #@! TO.N,/Gnd*
X224790000Y-105410000D03*
D19*
G04 #@! TO.P,Q5,3*
G04 #@! TO.N,/K5*
X222250000Y-105410000D03*
G04 #@! TO.P,Q5,2*
G04 #@! TO.N,/KQ5*
X223520000Y-105410000D03*
G04 #@! TD*
G04 #@! TO.P,Q6,2*
G04 #@! TO.N,/KQ6*
X223520000Y-113030000D03*
G04 #@! TO.P,Q6,3*
G04 #@! TO.N,/K6*
X222250000Y-113030000D03*
D18*
G04 #@! TO.P,Q6,1*
G04 #@! TO.N,/Gnd*
X224790000Y-113030000D03*
G04 #@! TD*
G04 #@! TO.P,Q7,1*
G04 #@! TO.N,/Gnd*
X224790000Y-120650000D03*
D19*
G04 #@! TO.P,Q7,3*
G04 #@! TO.N,/K7*
X222250000Y-120650000D03*
G04 #@! TO.P,Q7,2*
G04 #@! TO.N,/KQ7*
X223520000Y-120650000D03*
G04 #@! TD*
G04 #@! TO.P,Q8,2*
G04 #@! TO.N,/KQ8*
X223520000Y-128270000D03*
G04 #@! TO.P,Q8,3*
G04 #@! TO.N,/K8*
X222250000Y-128270000D03*
D18*
G04 #@! TO.P,Q8,1*
G04 #@! TO.N,/Gnd*
X224790000Y-128270000D03*
G04 #@! TD*
G04 #@! TO.P,Q9,1*
G04 #@! TO.N,/Gnd*
X224790000Y-135890000D03*
D19*
G04 #@! TO.P,Q9,3*
G04 #@! TO.N,/K9*
X222250000Y-135890000D03*
G04 #@! TO.P,Q9,2*
G04 #@! TO.N,/KQ9*
X223520000Y-135890000D03*
G04 #@! TD*
G04 #@! TO.P,Q10,2*
G04 #@! TO.N,/KQ10*
X223520000Y-143510000D03*
G04 #@! TO.P,Q10,3*
G04 #@! TO.N,/K10*
X222250000Y-143510000D03*
D18*
G04 #@! TO.P,Q10,1*
G04 #@! TO.N,/Gnd*
X224790000Y-143510000D03*
G04 #@! TD*
G04 #@! TO.P,Q11,1*
G04 #@! TO.N,/Gnd*
X224790000Y-151130000D03*
D19*
G04 #@! TO.P,Q11,3*
G04 #@! TO.N,/K11*
X222250000Y-151130000D03*
G04 #@! TO.P,Q11,2*
G04 #@! TO.N,/KQ11*
X223520000Y-151130000D03*
G04 #@! TD*
G04 #@! TO.P,Q12,2*
G04 #@! TO.N,/KQ12*
X223520000Y-158750000D03*
G04 #@! TO.P,Q12,3*
G04 #@! TO.N,/K12*
X222250000Y-158750000D03*
D18*
G04 #@! TO.P,Q12,1*
G04 #@! TO.N,/Gnd*
X224790000Y-158750000D03*
G04 #@! TD*
D10*
G04 #@! TO.P,R2,1*
G04 #@! TO.N,Net-(R2-Pad1)*
X80645000Y-33020000D03*
D11*
G04 #@! TO.P,R2,2*
G04 #@! TO.N,/RA1*
X80645000Y-25400000D03*
G04 #@! TD*
D10*
G04 #@! TO.P,R3,1*
G04 #@! TO.N,Net-(R3-Pad1)*
X182880000Y-33020000D03*
D11*
G04 #@! TO.P,R3,2*
G04 #@! TO.N,/RA9*
X182880000Y-25400000D03*
G04 #@! TD*
G04 #@! TO.P,R4,2*
G04 #@! TO.N,/GA5*
X132080000Y-76200000D03*
D10*
G04 #@! TO.P,R4,1*
G04 #@! TO.N,Net-(R4-Pad1)*
X132080000Y-83820000D03*
G04 #@! TD*
G04 #@! TO.P,R5,1*
G04 #@! TO.N,Net-(R5-Pad1)*
X81280000Y-134620000D03*
D11*
G04 #@! TO.P,R5,2*
G04 #@! TO.N,/BA1*
X81280000Y-127000000D03*
G04 #@! TD*
G04 #@! TO.P,R6,2*
G04 #@! TO.N,/BA9*
X182880000Y-127000000D03*
D10*
G04 #@! TO.P,R6,1*
G04 #@! TO.N,Net-(R6-Pad1)*
X182880000Y-134620000D03*
G04 #@! TD*
G04 #@! TO.P,R7,1*
G04 #@! TO.N,Net-(R7-Pad1)*
X228600000Y-104140000D03*
D11*
G04 #@! TO.P,R7,2*
G04 #@! TO.N,/KQ5*
X228600000Y-111760000D03*
G04 #@! TD*
G04 #@! TO.P,R9,2*
G04 #@! TO.N,/RA2*
X93980000Y-25400000D03*
D10*
G04 #@! TO.P,R9,1*
G04 #@! TO.N,Net-(R9-Pad1)*
X93980000Y-33020000D03*
G04 #@! TD*
D11*
G04 #@! TO.P,R10,2*
G04 #@! TO.N,/RA10*
X195580000Y-25400000D03*
D10*
G04 #@! TO.P,R10,1*
G04 #@! TO.N,Net-(R10-Pad1)*
X195580000Y-33020000D03*
G04 #@! TD*
G04 #@! TO.P,R11,1*
G04 #@! TO.N,Net-(R11-Pad1)*
X144780000Y-83820000D03*
D11*
G04 #@! TO.P,R11,2*
G04 #@! TO.N,/GA6*
X144780000Y-76200000D03*
G04 #@! TD*
D10*
G04 #@! TO.P,R12,1*
G04 #@! TO.N,Net-(R12-Pad1)*
X93980000Y-134620000D03*
D11*
G04 #@! TO.P,R12,2*
G04 #@! TO.N,/BA2*
X93980000Y-127000000D03*
G04 #@! TD*
D10*
G04 #@! TO.P,R13,1*
G04 #@! TO.N,Net-(R13-Pad1)*
X195580000Y-134620000D03*
D11*
G04 #@! TO.P,R13,2*
G04 #@! TO.N,/BA10*
X195580000Y-127000000D03*
G04 #@! TD*
G04 #@! TO.P,R14,2*
G04 #@! TO.N,/KQ6*
X231140000Y-111760000D03*
D10*
G04 #@! TO.P,R14,1*
G04 #@! TO.N,Net-(R14-Pad1)*
X231140000Y-104140000D03*
G04 #@! TD*
G04 #@! TO.P,R16,1*
G04 #@! TO.N,Net-(R16-Pad1)*
X106680000Y-33020000D03*
D11*
G04 #@! TO.P,R16,2*
G04 #@! TO.N,/RA3*
X106680000Y-25400000D03*
G04 #@! TD*
D10*
G04 #@! TO.P,R17,1*
G04 #@! TO.N,Net-(R17-Pad1)*
X208280000Y-33020000D03*
D11*
G04 #@! TO.P,R17,2*
G04 #@! TO.N,/RA11*
X208280000Y-25400000D03*
G04 #@! TD*
G04 #@! TO.P,R18,2*
G04 #@! TO.N,/GA7*
X157480000Y-76200000D03*
D10*
G04 #@! TO.P,R18,1*
G04 #@! TO.N,Net-(R18-Pad1)*
X157480000Y-83820000D03*
G04 #@! TD*
G04 #@! TO.P,R19,1*
G04 #@! TO.N,Net-(R19-Pad1)*
X106680000Y-134620000D03*
D11*
G04 #@! TO.P,R19,2*
G04 #@! TO.N,/BA3*
X106680000Y-127000000D03*
G04 #@! TD*
G04 #@! TO.P,R20,2*
G04 #@! TO.N,/BA11*
X208280000Y-127000000D03*
D10*
G04 #@! TO.P,R20,1*
G04 #@! TO.N,Net-(R20-Pad1)*
X208280000Y-134620000D03*
G04 #@! TD*
G04 #@! TO.P,R21,1*
G04 #@! TO.N,Net-(R21-Pad1)*
X228600000Y-119380000D03*
D11*
G04 #@! TO.P,R21,2*
G04 #@! TO.N,/KQ7*
X228600000Y-127000000D03*
G04 #@! TD*
G04 #@! TO.P,R23,2*
G04 #@! TO.N,/RA4*
X119380000Y-25400000D03*
D10*
G04 #@! TO.P,R23,1*
G04 #@! TO.N,Net-(R23-Pad1)*
X119380000Y-33020000D03*
G04 #@! TD*
D11*
G04 #@! TO.P,R24,2*
G04 #@! TO.N,/RA12*
X212725000Y-20955000D03*
D10*
G04 #@! TO.P,R24,1*
G04 #@! TO.N,Net-(R24-Pad1)*
X205105000Y-20955000D03*
G04 #@! TD*
G04 #@! TO.P,R25,1*
G04 #@! TO.N,Net-(R25-Pad1)*
X170180000Y-83820000D03*
D11*
G04 #@! TO.P,R25,2*
G04 #@! TO.N,/GA8*
X170180000Y-76200000D03*
G04 #@! TD*
G04 #@! TO.P,R26,2*
G04 #@! TO.N,/BA4*
X119380000Y-127000000D03*
D10*
G04 #@! TO.P,R26,1*
G04 #@! TO.N,Net-(R26-Pad1)*
X119380000Y-134620000D03*
G04 #@! TD*
G04 #@! TO.P,R27,1*
G04 #@! TO.N,Net-(R27-Pad1)*
X205105000Y-122555000D03*
D11*
G04 #@! TO.P,R27,2*
G04 #@! TO.N,/BA12*
X212725000Y-122555000D03*
G04 #@! TD*
G04 #@! TO.P,R28,2*
G04 #@! TO.N,/KQ8*
X231140000Y-127000000D03*
D10*
G04 #@! TO.P,R28,1*
G04 #@! TO.N,Net-(R28-Pad1)*
X231140000Y-119380000D03*
G04 #@! TD*
G04 #@! TO.P,R30,1*
G04 #@! TO.N,Net-(R30-Pad1)*
X132080000Y-33020000D03*
D11*
G04 #@! TO.P,R30,2*
G04 #@! TO.N,/RA5*
X132080000Y-25400000D03*
G04 #@! TD*
G04 #@! TO.P,R31,2*
G04 #@! TO.N,/GA1*
X81280000Y-76200000D03*
D10*
G04 #@! TO.P,R31,1*
G04 #@! TO.N,Net-(R31-Pad1)*
X81280000Y-83820000D03*
G04 #@! TD*
D11*
G04 #@! TO.P,R32,2*
G04 #@! TO.N,/GA9*
X182880000Y-76200000D03*
D10*
G04 #@! TO.P,R32,1*
G04 #@! TO.N,Net-(R32-Pad1)*
X182880000Y-83820000D03*
G04 #@! TD*
G04 #@! TO.P,R33,1*
G04 #@! TO.N,Net-(R33-Pad1)*
X132080000Y-134620000D03*
D11*
G04 #@! TO.P,R33,2*
G04 #@! TO.N,/BA5*
X132080000Y-127000000D03*
G04 #@! TD*
G04 #@! TO.P,R34,2*
G04 #@! TO.N,/KQ1*
X228600000Y-81280000D03*
D10*
G04 #@! TO.P,R34,1*
G04 #@! TO.N,Net-(R34-Pad1)*
X228600000Y-73660000D03*
G04 #@! TD*
G04 #@! TO.P,R35,1*
G04 #@! TO.N,Net-(R35-Pad1)*
X228600000Y-134620000D03*
D11*
G04 #@! TO.P,R35,2*
G04 #@! TO.N,/KQ9*
X228600000Y-142240000D03*
G04 #@! TD*
G04 #@! TO.P,R37,2*
G04 #@! TO.N,/RA6*
X144780000Y-25400000D03*
D10*
G04 #@! TO.P,R37,1*
G04 #@! TO.N,Net-(R37-Pad1)*
X144780000Y-33020000D03*
G04 #@! TD*
G04 #@! TO.P,R38,1*
G04 #@! TO.N,Net-(R38-Pad1)*
X93980000Y-83820000D03*
D11*
G04 #@! TO.P,R38,2*
G04 #@! TO.N,/GA2*
X93980000Y-76200000D03*
G04 #@! TD*
D10*
G04 #@! TO.P,R39,1*
G04 #@! TO.N,Net-(R39-Pad1)*
X195580000Y-83820000D03*
D11*
G04 #@! TO.P,R39,2*
G04 #@! TO.N,/GA10*
X195580000Y-76200000D03*
G04 #@! TD*
G04 #@! TO.P,R40,2*
G04 #@! TO.N,/BA6*
X144780000Y-127000000D03*
D10*
G04 #@! TO.P,R40,1*
G04 #@! TO.N,Net-(R40-Pad1)*
X144780000Y-134620000D03*
G04 #@! TD*
D11*
G04 #@! TO.P,R41,2*
G04 #@! TO.N,/KQ2*
X231140000Y-81280000D03*
D10*
G04 #@! TO.P,R41,1*
G04 #@! TO.N,Net-(R41-Pad1)*
X231140000Y-73660000D03*
G04 #@! TD*
D11*
G04 #@! TO.P,R42,2*
G04 #@! TO.N,/KQ10*
X231140000Y-142240000D03*
D10*
G04 #@! TO.P,R42,1*
G04 #@! TO.N,Net-(R42-Pad1)*
X231140000Y-134620000D03*
G04 #@! TD*
G04 #@! TO.P,R44,1*
G04 #@! TO.N,Net-(R44-Pad1)*
X157480000Y-33020000D03*
D11*
G04 #@! TO.P,R44,2*
G04 #@! TO.N,/RA7*
X157480000Y-25400000D03*
G04 #@! TD*
G04 #@! TO.P,R45,2*
G04 #@! TO.N,/GA3*
X106680000Y-76200000D03*
D10*
G04 #@! TO.P,R45,1*
G04 #@! TO.N,Net-(R45-Pad1)*
X106680000Y-83820000D03*
G04 #@! TD*
D11*
G04 #@! TO.P,R46,2*
G04 #@! TO.N,/GA11*
X208280000Y-76200000D03*
D10*
G04 #@! TO.P,R46,1*
G04 #@! TO.N,Net-(R46-Pad1)*
X208280000Y-83820000D03*
G04 #@! TD*
G04 #@! TO.P,R47,1*
G04 #@! TO.N,Net-(R47-Pad1)*
X157480000Y-134620000D03*
D11*
G04 #@! TO.P,R47,2*
G04 #@! TO.N,/BA7*
X157480000Y-127000000D03*
G04 #@! TD*
G04 #@! TO.P,R48,2*
G04 #@! TO.N,/KQ3*
X228600000Y-96520000D03*
D10*
G04 #@! TO.P,R48,1*
G04 #@! TO.N,Net-(R48-Pad1)*
X228600000Y-88900000D03*
G04 #@! TD*
G04 #@! TO.P,R49,1*
G04 #@! TO.N,Net-(R49-Pad1)*
X228600000Y-149860000D03*
D11*
G04 #@! TO.P,R49,2*
G04 #@! TO.N,/KQ11*
X228600000Y-157480000D03*
G04 #@! TD*
G04 #@! TO.P,R51,2*
G04 #@! TO.N,/RA8*
X170180000Y-25400000D03*
D10*
G04 #@! TO.P,R51,1*
G04 #@! TO.N,Net-(R51-Pad1)*
X170180000Y-33020000D03*
G04 #@! TD*
G04 #@! TO.P,R52,1*
G04 #@! TO.N,Net-(R52-Pad1)*
X119380000Y-83820000D03*
D11*
G04 #@! TO.P,R52,2*
G04 #@! TO.N,/GA4*
X119380000Y-76200000D03*
G04 #@! TD*
G04 #@! TO.P,R54,2*
G04 #@! TO.N,/BA8*
X170180000Y-127000000D03*
D10*
G04 #@! TO.P,R54,1*
G04 #@! TO.N,Net-(R54-Pad1)*
X170180000Y-134620000D03*
G04 #@! TD*
G04 #@! TO.P,R55,1*
G04 #@! TO.N,Net-(R55-Pad1)*
X231140000Y-88900000D03*
D11*
G04 #@! TO.P,R55,2*
G04 #@! TO.N,/KQ4*
X231140000Y-96520000D03*
G04 #@! TD*
G04 #@! TO.P,R56,2*
G04 #@! TO.N,/KQ12*
X231140000Y-157480000D03*
D10*
G04 #@! TO.P,R56,1*
G04 #@! TO.N,Net-(R56-Pad1)*
X231140000Y-149860000D03*
G04 #@! TD*
D20*
G04 #@! TO.P,U1,16*
G04 #@! TO.N,/Vcc*
X66040000Y-25400000D03*
G04 #@! TO.P,U1,8*
G04 #@! TO.N,/Gnd*
X58420000Y-43180000D03*
G04 #@! TO.P,U1,15*
G04 #@! TO.N,Net-(R2-Pad1)*
X66040000Y-27940000D03*
G04 #@! TO.P,U1,7*
G04 #@! TO.N,Net-(R51-Pad1)*
X58420000Y-40640000D03*
G04 #@! TO.P,U1,14*
G04 #@! TO.N,/SIG*
X66040000Y-30480000D03*
G04 #@! TO.P,U1,6*
G04 #@! TO.N,Net-(R44-Pad1)*
X58420000Y-38100000D03*
G04 #@! TO.P,U1,13*
G04 #@! TO.N,/SEN*
X66040000Y-33020000D03*
G04 #@! TO.P,U1,5*
G04 #@! TO.N,Net-(R37-Pad1)*
X58420000Y-35560000D03*
G04 #@! TO.P,U1,12*
G04 #@! TO.N,/SLT*
X66040000Y-35560000D03*
G04 #@! TO.P,U1,4*
G04 #@! TO.N,Net-(R30-Pad1)*
X58420000Y-33020000D03*
G04 #@! TO.P,U1,11*
G04 #@! TO.N,/SCK*
X66040000Y-38100000D03*
G04 #@! TO.P,U1,3*
G04 #@! TO.N,Net-(R23-Pad1)*
X58420000Y-30480000D03*
G04 #@! TO.P,U1,10*
G04 #@! TO.N,/Vcc*
X66040000Y-40640000D03*
G04 #@! TO.P,U1,2*
G04 #@! TO.N,Net-(R16-Pad1)*
X58420000Y-27940000D03*
G04 #@! TO.P,U1,9*
G04 #@! TO.N,Net-(U1-Pad9)*
X66040000Y-43180000D03*
D21*
G04 #@! TO.P,U1,1*
G04 #@! TO.N,Net-(R9-Pad1)*
X58420000Y-25400000D03*
G04 #@! TD*
D20*
G04 #@! TO.P,U2,16*
G04 #@! TO.N,/Vcc*
X66040000Y-50800000D03*
G04 #@! TO.P,U2,8*
G04 #@! TO.N,/Gnd*
X58420000Y-68580000D03*
G04 #@! TO.P,U2,15*
G04 #@! TO.N,Net-(R3-Pad1)*
X66040000Y-53340000D03*
G04 #@! TO.P,U2,7*
G04 #@! TO.N,Net-(R52-Pad1)*
X58420000Y-66040000D03*
G04 #@! TO.P,U2,14*
G04 #@! TO.N,Net-(U1-Pad9)*
X66040000Y-55880000D03*
G04 #@! TO.P,U2,6*
G04 #@! TO.N,Net-(R45-Pad1)*
X58420000Y-63500000D03*
G04 #@! TO.P,U2,13*
G04 #@! TO.N,/SEN*
X66040000Y-58420000D03*
G04 #@! TO.P,U2,5*
G04 #@! TO.N,Net-(R38-Pad1)*
X58420000Y-60960000D03*
G04 #@! TO.P,U2,12*
G04 #@! TO.N,/SLT*
X66040000Y-60960000D03*
G04 #@! TO.P,U2,4*
G04 #@! TO.N,Net-(R31-Pad1)*
X58420000Y-58420000D03*
G04 #@! TO.P,U2,11*
G04 #@! TO.N,/SCK*
X66040000Y-63500000D03*
G04 #@! TO.P,U2,3*
G04 #@! TO.N,Net-(R24-Pad1)*
X58420000Y-55880000D03*
G04 #@! TO.P,U2,10*
G04 #@! TO.N,/Vcc*
X66040000Y-66040000D03*
G04 #@! TO.P,U2,2*
G04 #@! TO.N,Net-(R17-Pad1)*
X58420000Y-53340000D03*
G04 #@! TO.P,U2,9*
G04 #@! TO.N,Net-(U2-Pad9)*
X66040000Y-68580000D03*
D21*
G04 #@! TO.P,U2,1*
G04 #@! TO.N,Net-(R10-Pad1)*
X58420000Y-50800000D03*
G04 #@! TD*
G04 #@! TO.P,U3,1*
G04 #@! TO.N,Net-(R11-Pad1)*
X58420000Y-76200000D03*
D20*
G04 #@! TO.P,U3,9*
G04 #@! TO.N,Net-(U3-Pad9)*
X66040000Y-93980000D03*
G04 #@! TO.P,U3,2*
G04 #@! TO.N,Net-(R18-Pad1)*
X58420000Y-78740000D03*
G04 #@! TO.P,U3,10*
G04 #@! TO.N,/Vcc*
X66040000Y-91440000D03*
G04 #@! TO.P,U3,3*
G04 #@! TO.N,Net-(R25-Pad1)*
X58420000Y-81280000D03*
G04 #@! TO.P,U3,11*
G04 #@! TO.N,/SCK*
X66040000Y-88900000D03*
G04 #@! TO.P,U3,4*
G04 #@! TO.N,Net-(R32-Pad1)*
X58420000Y-83820000D03*
G04 #@! TO.P,U3,12*
G04 #@! TO.N,/SLT*
X66040000Y-86360000D03*
G04 #@! TO.P,U3,5*
G04 #@! TO.N,Net-(R39-Pad1)*
X58420000Y-86360000D03*
G04 #@! TO.P,U3,13*
G04 #@! TO.N,/SEN*
X66040000Y-83820000D03*
G04 #@! TO.P,U3,6*
G04 #@! TO.N,Net-(R46-Pad1)*
X58420000Y-88900000D03*
G04 #@! TO.P,U3,14*
G04 #@! TO.N,Net-(U2-Pad9)*
X66040000Y-81280000D03*
G04 #@! TO.P,U3,7*
G04 #@! TO.N,Net-(R53-Pad1)*
X58420000Y-91440000D03*
G04 #@! TO.P,U3,15*
G04 #@! TO.N,Net-(R4-Pad1)*
X66040000Y-78740000D03*
G04 #@! TO.P,U3,8*
G04 #@! TO.N,/Gnd*
X58420000Y-93980000D03*
G04 #@! TO.P,U3,16*
G04 #@! TO.N,/Vcc*
X66040000Y-76200000D03*
G04 #@! TD*
D21*
G04 #@! TO.P,U4,1*
G04 #@! TO.N,Net-(R12-Pad1)*
X58420000Y-101600000D03*
D20*
G04 #@! TO.P,U4,9*
G04 #@! TO.N,Net-(U4-Pad9)*
X66040000Y-119380000D03*
G04 #@! TO.P,U4,2*
G04 #@! TO.N,Net-(R19-Pad1)*
X58420000Y-104140000D03*
G04 #@! TO.P,U4,10*
G04 #@! TO.N,/Vcc*
X66040000Y-116840000D03*
G04 #@! TO.P,U4,3*
G04 #@! TO.N,Net-(R26-Pad1)*
X58420000Y-106680000D03*
G04 #@! TO.P,U4,11*
G04 #@! TO.N,/SCK*
X66040000Y-114300000D03*
G04 #@! TO.P,U4,4*
G04 #@! TO.N,Net-(R33-Pad1)*
X58420000Y-109220000D03*
G04 #@! TO.P,U4,12*
G04 #@! TO.N,/SLT*
X66040000Y-111760000D03*
G04 #@! TO.P,U4,5*
G04 #@! TO.N,Net-(R40-Pad1)*
X58420000Y-111760000D03*
G04 #@! TO.P,U4,13*
G04 #@! TO.N,/SEN*
X66040000Y-109220000D03*
G04 #@! TO.P,U4,6*
G04 #@! TO.N,Net-(R47-Pad1)*
X58420000Y-114300000D03*
G04 #@! TO.P,U4,14*
G04 #@! TO.N,Net-(U3-Pad9)*
X66040000Y-106680000D03*
G04 #@! TO.P,U4,7*
G04 #@! TO.N,Net-(R54-Pad1)*
X58420000Y-116840000D03*
G04 #@! TO.P,U4,15*
G04 #@! TO.N,Net-(R5-Pad1)*
X66040000Y-104140000D03*
G04 #@! TO.P,U4,8*
G04 #@! TO.N,/Gnd*
X58420000Y-119380000D03*
G04 #@! TO.P,U4,16*
G04 #@! TO.N,/Vcc*
X66040000Y-101600000D03*
G04 #@! TD*
G04 #@! TO.P,U5,16*
G04 #@! TO.N,/Vcc*
X231140000Y-25400000D03*
G04 #@! TO.P,U5,8*
G04 #@! TO.N,/Gnd*
X223520000Y-43180000D03*
G04 #@! TO.P,U5,15*
G04 #@! TO.N,Net-(R6-Pad1)*
X231140000Y-27940000D03*
G04 #@! TO.P,U5,7*
G04 #@! TO.N,Net-(R55-Pad1)*
X223520000Y-40640000D03*
G04 #@! TO.P,U5,14*
G04 #@! TO.N,Net-(U4-Pad9)*
X231140000Y-30480000D03*
G04 #@! TO.P,U5,6*
G04 #@! TO.N,Net-(R48-Pad1)*
X223520000Y-38100000D03*
G04 #@! TO.P,U5,13*
G04 #@! TO.N,/SEN*
X231140000Y-33020000D03*
G04 #@! TO.P,U5,5*
G04 #@! TO.N,Net-(R41-Pad1)*
X223520000Y-35560000D03*
G04 #@! TO.P,U5,12*
G04 #@! TO.N,/SLT*
X231140000Y-35560000D03*
G04 #@! TO.P,U5,4*
G04 #@! TO.N,Net-(R34-Pad1)*
X223520000Y-33020000D03*
G04 #@! TO.P,U5,11*
G04 #@! TO.N,/SCK*
X231140000Y-38100000D03*
G04 #@! TO.P,U5,3*
G04 #@! TO.N,Net-(R27-Pad1)*
X223520000Y-30480000D03*
G04 #@! TO.P,U5,10*
G04 #@! TO.N,/Vcc*
X231140000Y-40640000D03*
G04 #@! TO.P,U5,2*
G04 #@! TO.N,Net-(R20-Pad1)*
X223520000Y-27940000D03*
G04 #@! TO.P,U5,9*
G04 #@! TO.N,Net-(U5-Pad9)*
X231140000Y-43180000D03*
D21*
G04 #@! TO.P,U5,1*
G04 #@! TO.N,Net-(R13-Pad1)*
X223520000Y-25400000D03*
G04 #@! TD*
G04 #@! TO.P,U6,1*
G04 #@! TO.N,Net-(R14-Pad1)*
X223520000Y-50800000D03*
D20*
G04 #@! TO.P,U6,9*
G04 #@! TO.N,N/C*
X231140000Y-68580000D03*
G04 #@! TO.P,U6,2*
G04 #@! TO.N,Net-(R21-Pad1)*
X223520000Y-53340000D03*
G04 #@! TO.P,U6,10*
G04 #@! TO.N,/Vcc*
X231140000Y-66040000D03*
G04 #@! TO.P,U6,3*
G04 #@! TO.N,Net-(R28-Pad1)*
X223520000Y-55880000D03*
G04 #@! TO.P,U6,11*
G04 #@! TO.N,/SCK*
X231140000Y-63500000D03*
G04 #@! TO.P,U6,4*
G04 #@! TO.N,Net-(R35-Pad1)*
X223520000Y-58420000D03*
G04 #@! TO.P,U6,12*
G04 #@! TO.N,/SLT*
X231140000Y-60960000D03*
G04 #@! TO.P,U6,5*
G04 #@! TO.N,Net-(R42-Pad1)*
X223520000Y-60960000D03*
G04 #@! TO.P,U6,13*
G04 #@! TO.N,/SEN*
X231140000Y-58420000D03*
G04 #@! TO.P,U6,6*
G04 #@! TO.N,Net-(R49-Pad1)*
X223520000Y-63500000D03*
G04 #@! TO.P,U6,14*
G04 #@! TO.N,Net-(U5-Pad9)*
X231140000Y-55880000D03*
G04 #@! TO.P,U6,7*
G04 #@! TO.N,Net-(R56-Pad1)*
X223520000Y-66040000D03*
G04 #@! TO.P,U6,15*
G04 #@! TO.N,Net-(R7-Pad1)*
X231140000Y-53340000D03*
G04 #@! TO.P,U6,8*
G04 #@! TO.N,/Gnd*
X223520000Y-68580000D03*
G04 #@! TO.P,U6,16*
G04 #@! TO.N,/Vcc*
X231140000Y-50800000D03*
G04 #@! TD*
D14*
G04 #@! TO.N,/SLT*
G04 #@! TO.C,C8*
G36*
X232145143Y-165376175D02*
X232168804Y-165379685D01*
X232192008Y-165385497D01*
X232214530Y-165393555D01*
X232236154Y-165403783D01*
X232256671Y-165416080D01*
X232275884Y-165430330D01*
X232293608Y-165446394D01*
X232309672Y-165464118D01*
X232323922Y-165483331D01*
X232336219Y-165503848D01*
X232346447Y-165525472D01*
X232354505Y-165547994D01*
X232360317Y-165571198D01*
X232363827Y-165594859D01*
X232365001Y-165618751D01*
X232365001Y-166531251D01*
X232363827Y-166555143D01*
X232360317Y-166578804D01*
X232354505Y-166602008D01*
X232346447Y-166624530D01*
X232336219Y-166646154D01*
X232323922Y-166666671D01*
X232309672Y-166685884D01*
X232293608Y-166703608D01*
X232275884Y-166719672D01*
X232256671Y-166733922D01*
X232236154Y-166746219D01*
X232214530Y-166756447D01*
X232192008Y-166764505D01*
X232168804Y-166770317D01*
X232145143Y-166773827D01*
X232121251Y-166775001D01*
X231633751Y-166775001D01*
X231609859Y-166773827D01*
X231586198Y-166770317D01*
X231562994Y-166764505D01*
X231540472Y-166756447D01*
X231518848Y-166746219D01*
X231498331Y-166733922D01*
X231479118Y-166719672D01*
X231461394Y-166703608D01*
X231445330Y-166685884D01*
X231431080Y-166666671D01*
X231418783Y-166646154D01*
X231408555Y-166624530D01*
X231400497Y-166602008D01*
X231394685Y-166578804D01*
X231391175Y-166555143D01*
X231390001Y-166531251D01*
X231390001Y-165618751D01*
X231391175Y-165594859D01*
X231394685Y-165571198D01*
X231400497Y-165547994D01*
X231408555Y-165525472D01*
X231418783Y-165503848D01*
X231431080Y-165483331D01*
X231445330Y-165464118D01*
X231461394Y-165446394D01*
X231479118Y-165430330D01*
X231498331Y-165416080D01*
X231518848Y-165403783D01*
X231540472Y-165393555D01*
X231562994Y-165385497D01*
X231586198Y-165379685D01*
X231609859Y-165376175D01*
X231633751Y-165375001D01*
X232121251Y-165375001D01*
X232145143Y-165376175D01*
X232145143Y-165376175D01*
G37*
D15*
G04 #@! TD*
G04 #@! TO.P,C8,2*
G04 #@! TO.N,/SLT*
X231877501Y-166075001D03*
D14*
G04 #@! TO.N,/Gnd*
G04 #@! TO.C,C8*
G36*
X230270143Y-165376175D02*
X230293804Y-165379685D01*
X230317008Y-165385497D01*
X230339530Y-165393555D01*
X230361154Y-165403783D01*
X230381671Y-165416080D01*
X230400884Y-165430330D01*
X230418608Y-165446394D01*
X230434672Y-165464118D01*
X230448922Y-165483331D01*
X230461219Y-165503848D01*
X230471447Y-165525472D01*
X230479505Y-165547994D01*
X230485317Y-165571198D01*
X230488827Y-165594859D01*
X230490001Y-165618751D01*
X230490001Y-166531251D01*
X230488827Y-166555143D01*
X230485317Y-166578804D01*
X230479505Y-166602008D01*
X230471447Y-166624530D01*
X230461219Y-166646154D01*
X230448922Y-166666671D01*
X230434672Y-166685884D01*
X230418608Y-166703608D01*
X230400884Y-166719672D01*
X230381671Y-166733922D01*
X230361154Y-166746219D01*
X230339530Y-166756447D01*
X230317008Y-166764505D01*
X230293804Y-166770317D01*
X230270143Y-166773827D01*
X230246251Y-166775001D01*
X229758751Y-166775001D01*
X229734859Y-166773827D01*
X229711198Y-166770317D01*
X229687994Y-166764505D01*
X229665472Y-166756447D01*
X229643848Y-166746219D01*
X229623331Y-166733922D01*
X229604118Y-166719672D01*
X229586394Y-166703608D01*
X229570330Y-166685884D01*
X229556080Y-166666671D01*
X229543783Y-166646154D01*
X229533555Y-166624530D01*
X229525497Y-166602008D01*
X229519685Y-166578804D01*
X229516175Y-166555143D01*
X229515001Y-166531251D01*
X229515001Y-165618751D01*
X229516175Y-165594859D01*
X229519685Y-165571198D01*
X229525497Y-165547994D01*
X229533555Y-165525472D01*
X229543783Y-165503848D01*
X229556080Y-165483331D01*
X229570330Y-165464118D01*
X229586394Y-165446394D01*
X229604118Y-165430330D01*
X229623331Y-165416080D01*
X229643848Y-165403783D01*
X229665472Y-165393555D01*
X229687994Y-165385497D01*
X229711198Y-165379685D01*
X229734859Y-165376175D01*
X229758751Y-165375001D01*
X230246251Y-165375001D01*
X230270143Y-165376175D01*
X230270143Y-165376175D01*
G37*
D15*
G04 #@! TD*
G04 #@! TO.P,C8,1*
G04 #@! TO.N,/Gnd*
X230002501Y-166075001D03*
D14*
G04 #@! TO.N,/Gnd*
G04 #@! TO.C,C9*
G36*
X230270143Y-167326175D02*
X230293804Y-167329685D01*
X230317008Y-167335497D01*
X230339530Y-167343555D01*
X230361154Y-167353783D01*
X230381671Y-167366080D01*
X230400884Y-167380330D01*
X230418608Y-167396394D01*
X230434672Y-167414118D01*
X230448922Y-167433331D01*
X230461219Y-167453848D01*
X230471447Y-167475472D01*
X230479505Y-167497994D01*
X230485317Y-167521198D01*
X230488827Y-167544859D01*
X230490001Y-167568751D01*
X230490001Y-168481251D01*
X230488827Y-168505143D01*
X230485317Y-168528804D01*
X230479505Y-168552008D01*
X230471447Y-168574530D01*
X230461219Y-168596154D01*
X230448922Y-168616671D01*
X230434672Y-168635884D01*
X230418608Y-168653608D01*
X230400884Y-168669672D01*
X230381671Y-168683922D01*
X230361154Y-168696219D01*
X230339530Y-168706447D01*
X230317008Y-168714505D01*
X230293804Y-168720317D01*
X230270143Y-168723827D01*
X230246251Y-168725001D01*
X229758751Y-168725001D01*
X229734859Y-168723827D01*
X229711198Y-168720317D01*
X229687994Y-168714505D01*
X229665472Y-168706447D01*
X229643848Y-168696219D01*
X229623331Y-168683922D01*
X229604118Y-168669672D01*
X229586394Y-168653608D01*
X229570330Y-168635884D01*
X229556080Y-168616671D01*
X229543783Y-168596154D01*
X229533555Y-168574530D01*
X229525497Y-168552008D01*
X229519685Y-168528804D01*
X229516175Y-168505143D01*
X229515001Y-168481251D01*
X229515001Y-167568751D01*
X229516175Y-167544859D01*
X229519685Y-167521198D01*
X229525497Y-167497994D01*
X229533555Y-167475472D01*
X229543783Y-167453848D01*
X229556080Y-167433331D01*
X229570330Y-167414118D01*
X229586394Y-167396394D01*
X229604118Y-167380330D01*
X229623331Y-167366080D01*
X229643848Y-167353783D01*
X229665472Y-167343555D01*
X229687994Y-167335497D01*
X229711198Y-167329685D01*
X229734859Y-167326175D01*
X229758751Y-167325001D01*
X230246251Y-167325001D01*
X230270143Y-167326175D01*
X230270143Y-167326175D01*
G37*
D15*
G04 #@! TD*
G04 #@! TO.P,C9,1*
G04 #@! TO.N,/Gnd*
X230002501Y-168025001D03*
D14*
G04 #@! TO.N,/SCK*
G04 #@! TO.C,C9*
G36*
X232145143Y-167326175D02*
X232168804Y-167329685D01*
X232192008Y-167335497D01*
X232214530Y-167343555D01*
X232236154Y-167353783D01*
X232256671Y-167366080D01*
X232275884Y-167380330D01*
X232293608Y-167396394D01*
X232309672Y-167414118D01*
X232323922Y-167433331D01*
X232336219Y-167453848D01*
X232346447Y-167475472D01*
X232354505Y-167497994D01*
X232360317Y-167521198D01*
X232363827Y-167544859D01*
X232365001Y-167568751D01*
X232365001Y-168481251D01*
X232363827Y-168505143D01*
X232360317Y-168528804D01*
X232354505Y-168552008D01*
X232346447Y-168574530D01*
X232336219Y-168596154D01*
X232323922Y-168616671D01*
X232309672Y-168635884D01*
X232293608Y-168653608D01*
X232275884Y-168669672D01*
X232256671Y-168683922D01*
X232236154Y-168696219D01*
X232214530Y-168706447D01*
X232192008Y-168714505D01*
X232168804Y-168720317D01*
X232145143Y-168723827D01*
X232121251Y-168725001D01*
X231633751Y-168725001D01*
X231609859Y-168723827D01*
X231586198Y-168720317D01*
X231562994Y-168714505D01*
X231540472Y-168706447D01*
X231518848Y-168696219D01*
X231498331Y-168683922D01*
X231479118Y-168669672D01*
X231461394Y-168653608D01*
X231445330Y-168635884D01*
X231431080Y-168616671D01*
X231418783Y-168596154D01*
X231408555Y-168574530D01*
X231400497Y-168552008D01*
X231394685Y-168528804D01*
X231391175Y-168505143D01*
X231390001Y-168481251D01*
X231390001Y-167568751D01*
X231391175Y-167544859D01*
X231394685Y-167521198D01*
X231400497Y-167497994D01*
X231408555Y-167475472D01*
X231418783Y-167453848D01*
X231431080Y-167433331D01*
X231445330Y-167414118D01*
X231461394Y-167396394D01*
X231479118Y-167380330D01*
X231498331Y-167366080D01*
X231518848Y-167353783D01*
X231540472Y-167343555D01*
X231562994Y-167335497D01*
X231586198Y-167329685D01*
X231609859Y-167326175D01*
X231633751Y-167325001D01*
X232121251Y-167325001D01*
X232145143Y-167326175D01*
X232145143Y-167326175D01*
G37*
D15*
G04 #@! TD*
G04 #@! TO.P,C9,2*
G04 #@! TO.N,/SCK*
X231877501Y-168025001D03*
D22*
G04 #@! TO.N,/Gnd*
X63500000Y-21590000D03*
X63500000Y-46990000D03*
X63500000Y-72390000D03*
X228648260Y-21531580D03*
X228592380Y-46972220D03*
X61192250Y-126365000D03*
X223520000Y-48260000D03*
X60960000Y-96520000D03*
X229070691Y-170606492D03*
G04 #@! TO.N,/Vcc*
X64246760Y-122349260D03*
X54795420Y-123065420D03*
X64038480Y-91678760D03*
X62390020Y-91094560D03*
X228600000Y-54813200D03*
G04 #@! TO.N,/SIG*
X57497980Y-47152560D03*
X52021740Y-47101760D03*
G04 #@! TO.N,/SEN*
X63642240Y-83708240D03*
X63060580Y-58455560D03*
X234833160Y-33020000D03*
X233440022Y-58404760D03*
X234721400Y-57068720D03*
G04 #@! TO.N,/SLT*
X67838320Y-108993940D03*
X69359780Y-109537500D03*
X68930520Y-62499240D03*
X69194680Y-84696300D03*
X67759580Y-83845400D03*
X235450380Y-35547300D03*
X55913020Y-166403020D03*
X233507280Y-61015880D03*
X235450380Y-59895740D03*
X231140000Y-163830000D03*
X230024940Y-162560000D03*
G04 #@! TO.N,/SCK*
X67546220Y-44665900D03*
X69408040Y-45463460D03*
X236260640Y-38006020D03*
X58392060Y-170350180D03*
X233507280Y-63512700D03*
X236260640Y-60843160D03*
G04 #@! TO.N,Net-(R3-Pad1)*
X182849520Y-42844720D03*
G04 #@! TO.N,Net-(R4-Pad1)*
X83969860Y-83880960D03*
X79923640Y-90843100D03*
G04 #@! TO.N,Net-(R10-Pad1)*
X195539360Y-52984400D03*
G04 #@! TO.N,Net-(R11-Pad1)*
X144716500Y-91973400D03*
G04 #@! TO.N,Net-(R13-Pad1)*
X199176640Y-32443420D03*
X218846400Y-33535620D03*
G04 #@! TO.N,Net-(R17-Pad1)*
X208241900Y-53370480D03*
G04 #@! TO.N,Net-(R18-Pad1)*
X58420000Y-78740000D03*
X157528260Y-92712540D03*
G04 #@! TO.N,Net-(R20-Pad1)*
X211602320Y-33271460D03*
X218838780Y-34899600D03*
G04 #@! TO.N,Net-(R24-Pad1)*
X209577940Y-53482240D03*
G04 #@! TO.N,Net-(R25-Pad1)*
X170228260Y-93456760D03*
G04 #@! TO.N,Net-(R27-Pad1)*
X218686380Y-125663960D03*
G04 #@! TO.N,Net-(R30-Pad1)*
X132100320Y-39478110D03*
G04 #@! TO.N,Net-(R32-Pad1)*
X182704740Y-94216220D03*
G04 #@! TO.N,Net-(R33-Pad1)*
X131960620Y-143138050D03*
G04 #@! TO.N,Net-(R37-Pad1)*
X144795240Y-40175180D03*
G04 #@! TO.N,Net-(R39-Pad1)*
X195633340Y-94960440D03*
G04 #@! TO.N,Net-(R40-Pad1)*
X144614900Y-143697960D03*
G04 #@! TO.N,Net-(R44-Pad1)*
X157480000Y-40939720D03*
G04 #@! TO.N,Net-(R46-Pad1)*
X208226660Y-95704660D03*
G04 #@! TO.N,Net-(R47-Pad1)*
X157452060Y-144454880D03*
G04 #@! TO.N,Net-(R49-Pad1)*
X228366320Y-63566040D03*
X228417120Y-70335140D03*
G04 #@! TO.N,Net-(R51-Pad1)*
X170190160Y-42054780D03*
G04 #@! TO.N,Net-(R53-Pad1)*
X210080860Y-96448880D03*
G04 #@! TO.N,Net-(R54-Pad1)*
X170218100Y-145206720D03*
G04 #@! TO.N,Net-(R56-Pad1)*
X228772720Y-66187320D03*
X232234740Y-70871080D03*
G04 #@! TO.N,Net-(U3-Pad9)*
X68707000Y-106700320D03*
G04 #@! TO.N,Net-(U4-Pad9)*
X234160060Y-30480000D03*
G04 #@! TD*
D23*
G04 #@! TO.N,/BA1*
X73660000Y-165100000D02*
X73660000Y-25400000D01*
G04 #@! TO.N,/GA1*
X76200000Y-25400000D02*
X76200000Y-165100000D01*
G04 #@! TO.N,/RA1*
X77470000Y-25400000D02*
X77470000Y-38100000D01*
X77470000Y-38100000D02*
X77470000Y-50800000D01*
X77470000Y-50800000D02*
X77470000Y-152400000D01*
X77470000Y-154300000D02*
X77470000Y-165100000D01*
X77470000Y-152400000D02*
X77470000Y-154300000D01*
X80645000Y-25400000D02*
X77470000Y-25400000D01*
G04 #@! TO.N,/RA2*
X90170000Y-152400000D02*
X90170000Y-38100000D01*
X90170000Y-165100000D02*
X90170000Y-152400000D01*
X90170000Y-38100000D02*
X90170000Y-25400000D01*
X93980000Y-25400000D02*
X90170000Y-25400000D01*
G04 #@! TO.N,/GA2*
X88900000Y-165100000D02*
X88900000Y-25400000D01*
G04 #@! TO.N,/BA2*
X86360000Y-25400000D02*
X86360000Y-165100000D01*
G04 #@! TO.N,/RA3*
X102870000Y-38100000D02*
X102870000Y-165100000D01*
X102870000Y-38100000D02*
X102870000Y-25400000D01*
X106680000Y-25400000D02*
X102870000Y-25400000D01*
G04 #@! TO.N,/GA3*
X101600000Y-88058433D02*
X101600000Y-25400000D01*
X101600000Y-165100000D02*
X101600000Y-88058433D01*
G04 #@! TO.N,/BA3*
X99060000Y-25400000D02*
X99060000Y-165100000D01*
G04 #@! TO.N,/BA4*
X111760000Y-165100000D02*
X111760000Y-163200000D01*
X111760000Y-163200000D02*
X111760000Y-25400000D01*
G04 #@! TO.N,/GA4*
X114300000Y-165100000D02*
X114300000Y-25400000D01*
G04 #@! TO.N,/RA4*
X115570000Y-165100000D02*
X115570000Y-25400000D01*
X119380000Y-25400000D02*
X115570000Y-25400000D01*
G04 #@! TO.N,/RA5*
X128270000Y-25400000D02*
X128270000Y-165100000D01*
X132080000Y-25400000D02*
X128270000Y-25400000D01*
G04 #@! TO.N,/GA5*
X127000000Y-25400000D02*
X127000000Y-165100000D01*
G04 #@! TO.N,/BA5*
X124460000Y-165100000D02*
X124460000Y-25400000D01*
G04 #@! TO.N,/BA6*
X137160000Y-25400000D02*
X137160000Y-165100000D01*
G04 #@! TO.N,/GA6*
X139700000Y-165100000D02*
X139700000Y-25400000D01*
G04 #@! TO.N,/RA6*
X140970000Y-25400000D02*
X140970000Y-165100000D01*
X144780000Y-25400000D02*
X140970000Y-25400000D01*
G04 #@! TO.N,/RA7*
X153670000Y-165100000D02*
X153670000Y-25400000D01*
X157480000Y-25400000D02*
X153670000Y-25400000D01*
G04 #@! TO.N,/GA7*
X152400000Y-25400000D02*
X152400000Y-165100000D01*
G04 #@! TO.N,/BA7*
X149860000Y-165100000D02*
X149860000Y-25400000D01*
G04 #@! TO.N,/BA8*
X162560000Y-25400000D02*
X162560000Y-165100000D01*
G04 #@! TO.N,/GA8*
X165100000Y-165100000D02*
X165100000Y-25400000D01*
G04 #@! TO.N,/RA8*
X166370000Y-25400000D02*
X166370000Y-165100000D01*
X170180000Y-25400000D02*
X166370000Y-25400000D01*
G04 #@! TO.N,/RA9*
X179070000Y-165100000D02*
X179070000Y-25400000D01*
X182880000Y-25400000D02*
X179070000Y-25400000D01*
G04 #@! TO.N,/GA9*
X177800000Y-25400000D02*
X177800000Y-165100000D01*
G04 #@! TO.N,/BA9*
X175260000Y-165100000D02*
X175260000Y-25400000D01*
G04 #@! TO.N,/RA10*
X191770000Y-25400000D02*
X191770000Y-165100000D01*
X195580000Y-25400000D02*
X191770000Y-25400000D01*
G04 #@! TO.N,/GA10*
X190500000Y-165100000D02*
X190500000Y-25400000D01*
G04 #@! TO.N,/BA10*
X187960000Y-25400000D02*
X187960000Y-165100000D01*
G04 #@! TO.N,/BA11*
X200660000Y-165100000D02*
X200660000Y-25400000D01*
G04 #@! TO.N,/GA11*
X203200000Y-73619073D02*
X203200000Y-163200000D01*
X203200000Y-163200000D02*
X203200000Y-165100000D01*
X203200000Y-69890927D02*
X202504988Y-70585939D01*
X203200000Y-25400000D02*
X203200000Y-69890927D01*
X202504988Y-72924061D02*
X203200000Y-73619073D01*
X202504988Y-70585939D02*
X202504988Y-72924061D01*
G04 #@! TO.N,/RA11*
X204470000Y-165100000D02*
X204470000Y-127000000D01*
X204470000Y-126635000D02*
X207010000Y-124095000D01*
X204470000Y-127000000D02*
X204470000Y-126635000D01*
X207010000Y-124095000D02*
X207010000Y-121285000D01*
X204470000Y-118745000D02*
X204470000Y-114300000D01*
X207010000Y-121285000D02*
X204470000Y-118745000D01*
X204470000Y-27300000D02*
X204470000Y-25400000D01*
X204470000Y-70317998D02*
X204470000Y-27300000D01*
X204470000Y-114300000D02*
X204470000Y-73192002D01*
X203704999Y-71082999D02*
X204470000Y-70317998D01*
X204470000Y-73192002D02*
X203704999Y-72427001D01*
X203704999Y-72427001D02*
X203704999Y-71082999D01*
X208280000Y-25400000D02*
X204470000Y-25400000D01*
G04 #@! TO.N,/RA12*
X217170000Y-25400000D02*
X217170000Y-165100000D01*
X212725000Y-20955000D02*
X215265000Y-20955000D01*
X217170000Y-22860000D02*
X217170000Y-25400000D01*
X215265000Y-20955000D02*
X217170000Y-22860000D01*
G04 #@! TO.N,/GA12*
X215900000Y-54181567D02*
X215900000Y-25400000D01*
X215900000Y-127000000D02*
X215900000Y-54181567D01*
X215900000Y-165100000D02*
X215900000Y-127000000D01*
G04 #@! TO.N,/BA12*
X213360000Y-87000000D02*
X213360000Y-88900000D01*
X213360000Y-74300000D02*
X213360000Y-87000000D01*
X214125001Y-73534999D02*
X213360000Y-74300000D01*
X214125001Y-71082999D02*
X214125001Y-73534999D01*
X213360000Y-70317998D02*
X214125001Y-71082999D01*
X213360000Y-25400000D02*
X213360000Y-70317998D01*
X213360000Y-121920000D02*
X212725000Y-122555000D01*
X213360000Y-88900000D02*
X213360000Y-121920000D01*
X212725000Y-122555000D02*
X213360000Y-123190000D01*
X213360000Y-123190000D02*
X213360000Y-127000000D01*
X213360000Y-127000000D02*
X213360000Y-165100000D01*
G04 #@! TO.N,/Gnd*
X65102500Y-21590000D02*
X63500000Y-21590000D01*
X65102500Y-46990000D02*
X63500000Y-46990000D01*
X65102500Y-72390000D02*
X63500000Y-72390000D01*
X230202500Y-21590000D02*
X228706680Y-21590000D01*
X228706680Y-21590000D02*
X228648260Y-21531580D01*
X230535000Y-46990000D02*
X228610160Y-46990000D01*
X228610160Y-46990000D02*
X228592380Y-46972220D01*
X58420000Y-123522500D02*
X59220000Y-123522500D01*
X59220000Y-123522500D02*
X60792851Y-125095351D01*
X60792851Y-125095351D02*
X60792851Y-125965601D01*
X60792851Y-125965601D02*
X61192250Y-126365000D01*
X222720001Y-67780001D02*
X223520000Y-68580000D01*
X222954315Y-48260000D02*
X222019999Y-49194316D01*
X222019999Y-49194316D02*
X222019999Y-67079999D01*
X222019999Y-67079999D02*
X222720001Y-67780001D01*
X223520000Y-48260000D02*
X222954315Y-48260000D01*
X65102500Y-97790000D02*
X62230000Y-97790000D01*
X62230000Y-97790000D02*
X60960000Y-96520000D01*
D24*
X230002501Y-166075001D02*
X230002501Y-169674682D01*
X230002501Y-169674682D02*
X229070691Y-170606492D01*
D23*
G04 #@! TO.N,/Vcc*
X66977500Y-24462500D02*
X66040000Y-25400000D01*
X66977500Y-21590000D02*
X66977500Y-24462500D01*
X66977500Y-49862500D02*
X66040000Y-50800000D01*
X66977500Y-46990000D02*
X66977500Y-49862500D01*
X66977500Y-75262500D02*
X66040000Y-76200000D01*
X66977500Y-72390000D02*
X66977500Y-75262500D01*
X58420000Y-125397500D02*
X58420000Y-133350000D01*
D25*
X64908630Y-76200000D02*
X62488010Y-73779380D01*
X66040000Y-76200000D02*
X64908630Y-76200000D01*
X57080618Y-73779380D02*
X54795420Y-76064578D01*
X62488010Y-73779380D02*
X57080618Y-73779380D01*
X64908630Y-101600000D02*
X66040000Y-101600000D01*
X63079998Y-101600000D02*
X64908630Y-101600000D01*
D26*
X54795420Y-76064578D02*
X54795420Y-93315422D01*
X54795420Y-93315422D02*
X54795420Y-123065420D01*
D25*
X64039999Y-48799999D02*
X65240001Y-50000001D01*
X65240001Y-50000001D02*
X66040000Y-50800000D01*
X54795420Y-50664578D02*
X56659999Y-48799999D01*
D26*
X54795420Y-76064578D02*
X54795420Y-50664578D01*
D25*
X54795420Y-25264578D02*
X56659999Y-23399999D01*
X65240001Y-24600001D02*
X66040000Y-25400000D01*
X64039999Y-23399999D02*
X65240001Y-24600001D01*
X56659999Y-23399999D02*
X64039999Y-23399999D01*
D26*
X54795420Y-50664578D02*
X54795420Y-25264578D01*
D25*
X54795420Y-123065420D02*
X54254280Y-123065420D01*
X54254280Y-123065420D02*
X53652420Y-122463560D01*
D26*
X54795420Y-23464578D02*
X59984698Y-18275300D01*
X54795420Y-25264578D02*
X54795420Y-23464578D01*
X60655064Y-17604935D02*
X233075739Y-17604999D01*
X59984698Y-18275300D02*
X60655064Y-17604935D01*
D23*
X232077500Y-21590000D02*
X233007159Y-21590000D01*
X233007159Y-21590000D02*
X233075739Y-21658580D01*
X233075739Y-17604999D02*
X233075739Y-21658580D01*
X233075739Y-21658580D02*
X233075739Y-23464261D01*
X232410000Y-49530000D02*
X231140000Y-50800000D01*
X232410000Y-46990000D02*
X232410000Y-49530000D01*
X232966237Y-42466237D02*
X231939999Y-41439999D01*
X232966237Y-46433763D02*
X232966237Y-42466237D01*
X231939999Y-41439999D02*
X231140000Y-40640000D01*
X232410000Y-46990000D02*
X232966237Y-46433763D01*
X232966237Y-17714501D02*
X233075739Y-17604999D01*
X232966237Y-28364180D02*
X232966237Y-17714501D01*
X231140000Y-25400000D02*
X232271370Y-25400000D01*
X232281530Y-25410160D02*
X232271370Y-25400000D01*
X232966237Y-27226237D02*
X232966237Y-28364180D01*
D27*
X231782620Y-25909070D02*
X232281530Y-25410160D01*
D23*
X231782620Y-26042620D02*
X231782620Y-25909070D01*
X231782620Y-26042620D02*
X232966237Y-27226237D01*
X232656380Y-25035310D02*
X232281530Y-25410160D01*
X232656380Y-23883620D02*
X232656380Y-25035310D01*
X233075739Y-23464261D02*
X232656380Y-23883620D01*
X232656380Y-23883620D02*
X231140000Y-25400000D01*
D25*
X54795420Y-132575420D02*
X55570000Y-133350000D01*
X54795420Y-123065420D02*
X54795420Y-132575420D01*
X55570000Y-133350000D02*
X58420000Y-133350000D01*
D24*
X66040000Y-116840000D02*
X64246760Y-118633240D01*
X64246760Y-118633240D02*
X64246760Y-122349260D01*
D23*
X66977500Y-97790000D02*
X66977500Y-100662500D01*
X66977500Y-100662500D02*
X66040000Y-101600000D01*
D24*
X64908630Y-66040000D02*
X64091820Y-65223190D01*
X66040000Y-66040000D02*
X64908630Y-66040000D01*
X64091820Y-52748180D02*
X66040000Y-50800000D01*
X64091820Y-65223190D02*
X64091820Y-52748180D01*
X64277240Y-91440000D02*
X64038480Y-91678760D01*
X66040000Y-91440000D02*
X64277240Y-91440000D01*
X62390020Y-91660245D02*
X58242200Y-95808065D01*
X58242200Y-95808065D02*
X58242200Y-96762202D01*
X62390020Y-91094560D02*
X62390020Y-91660245D01*
D25*
X54795420Y-93315422D02*
X58242200Y-96762202D01*
X58242200Y-96762202D02*
X63079998Y-101600000D01*
D23*
X232966237Y-42466237D02*
X232966237Y-28364180D01*
D24*
X230014999Y-56228199D02*
X228600000Y-54813200D01*
X231140000Y-66040000D02*
X230014999Y-64914999D01*
X230014999Y-64914999D02*
X230014999Y-56228199D01*
D23*
X60960000Y-45720000D02*
X60960000Y-48799999D01*
X66040000Y-40640000D02*
X60960000Y-45720000D01*
D25*
X56659999Y-48799999D02*
X60960000Y-48799999D01*
X60960000Y-48799999D02*
X64039999Y-48799999D01*
D24*
G04 #@! TO.N,/SIG*
X57320000Y-158750000D02*
X58420000Y-158750000D01*
X52021740Y-153451740D02*
X57320000Y-158750000D01*
X52021740Y-47101760D02*
X52021740Y-153451740D01*
X66040000Y-30480000D02*
X64908630Y-30480000D01*
X64810209Y-34966619D02*
X64810209Y-39840331D01*
X64464988Y-34621399D02*
X64810209Y-34966619D01*
X57897979Y-46752561D02*
X57497980Y-47152560D01*
X64464988Y-30923642D02*
X64464988Y-34621399D01*
X64810209Y-39840331D02*
X57897979Y-46752561D01*
X64908630Y-30480000D02*
X64464988Y-30923642D01*
G04 #@! TO.N,/SEN*
X58420000Y-161290000D02*
X60195021Y-159514979D01*
X65240001Y-110019999D02*
X66040000Y-109220000D01*
X60195021Y-159514979D02*
X60195021Y-156511389D01*
X60195021Y-156511389D02*
X62486971Y-154219440D01*
X62486971Y-154219440D02*
X62486971Y-112773029D01*
X62486971Y-112773029D02*
X65240001Y-110019999D01*
X68563322Y-109341942D02*
X68563322Y-108443069D01*
X71001051Y-94736049D02*
X66536602Y-90271600D01*
X64914999Y-84945001D02*
X65240001Y-84619999D01*
X65746598Y-90271600D02*
X64914999Y-89440001D01*
X64914999Y-89440001D02*
X64914999Y-84945001D01*
X66536602Y-90271600D02*
X65746598Y-90271600D01*
X67885265Y-110019999D02*
X68563322Y-109341942D01*
X66040000Y-109220000D02*
X66839999Y-110019999D01*
X71001051Y-106005340D02*
X71001051Y-94736049D01*
X65240001Y-84619999D02*
X66040000Y-83820000D01*
X66839999Y-110019999D02*
X67885265Y-110019999D01*
X68563322Y-108443069D02*
X71001051Y-106005340D01*
X68271222Y-44890865D02*
X68271222Y-44317898D01*
X66839999Y-33819999D02*
X66040000Y-33020000D01*
X68252521Y-35232521D02*
X66839999Y-33819999D01*
X68233028Y-44929059D02*
X68271222Y-44890865D01*
X68271222Y-44317898D02*
X68252521Y-44299197D01*
X68271222Y-46036055D02*
X68233028Y-45997861D01*
X66040000Y-58420000D02*
X68271222Y-56188778D01*
X68252521Y-44299197D02*
X68252521Y-35232521D01*
X68233028Y-45997861D02*
X68233028Y-44929059D01*
X68271222Y-56188778D02*
X68271222Y-46036055D01*
X63642240Y-83708240D02*
X63642240Y-78419960D01*
X66588837Y-77525010D02*
X66692107Y-77421740D01*
X63642240Y-78419960D02*
X64537190Y-77525010D01*
X64537190Y-77525010D02*
X66588837Y-77525010D01*
X66692107Y-77421740D02*
X67698620Y-77421740D01*
X67698620Y-77421740D02*
X67965320Y-77155040D01*
X67965320Y-71873470D02*
X66345710Y-70253860D01*
X67965320Y-77155040D02*
X67965320Y-71873470D01*
X63060580Y-67265582D02*
X63060580Y-58455560D01*
X66048858Y-70253860D02*
X63060580Y-67265582D01*
X66345710Y-70253860D02*
X66048858Y-70253860D01*
X234721400Y-33697445D02*
X234721400Y-34129980D01*
X234833160Y-33585685D02*
X234721400Y-33697445D01*
X234833160Y-33020000D02*
X234833160Y-33585685D01*
X234721400Y-33926045D02*
X234721400Y-34129980D01*
X233424782Y-58420000D02*
X233440022Y-58404760D01*
X231140000Y-58420000D02*
X233424782Y-58420000D01*
X57570001Y-162139999D02*
X58420000Y-161290000D01*
X57244999Y-162465001D02*
X57570001Y-162139999D01*
X57244999Y-166934001D02*
X57244999Y-162465001D01*
X220643598Y-170868340D02*
X61179338Y-170868340D01*
X61179338Y-170868340D02*
X57244999Y-166934001D01*
X234721400Y-156790538D02*
X220643598Y-170868340D01*
X234721400Y-34129980D02*
X234721400Y-156790538D01*
G04 #@! TO.N,/SLT*
X66040000Y-111760000D02*
X62964922Y-114835078D01*
X62964922Y-114835078D02*
X62964922Y-154377900D01*
X59269999Y-162980001D02*
X58420000Y-163830000D01*
X60667900Y-161582100D02*
X59269999Y-162980001D01*
X62964922Y-154377900D02*
X60667900Y-156674920D01*
X60667900Y-156674920D02*
X60667900Y-161582100D01*
X67137280Y-111760000D02*
X66040000Y-111760000D01*
X69359780Y-109537500D02*
X67137280Y-111760000D01*
X68721233Y-45077265D02*
X68721233Y-44131498D01*
X64914999Y-34434999D02*
X65240001Y-34760001D01*
X68702532Y-44112797D02*
X68702532Y-34017530D01*
X66580001Y-31894999D02*
X65133001Y-31894999D01*
X68702532Y-34017530D02*
X66580001Y-31894999D01*
X68683039Y-45811461D02*
X68683039Y-45115459D01*
X64914999Y-32113001D02*
X64914999Y-34434999D01*
X68683039Y-45115459D02*
X68721233Y-45077265D01*
X66040000Y-60960000D02*
X68721233Y-58278767D01*
X65240001Y-34760001D02*
X66040000Y-35560000D01*
X68721233Y-58278767D02*
X68721233Y-45849655D01*
X68721233Y-45849655D02*
X68683039Y-45811461D01*
X65133001Y-31894999D02*
X64914999Y-32113001D01*
X68721233Y-44131498D02*
X68702532Y-44112797D01*
X66716878Y-96321880D02*
X67013730Y-96321880D01*
X67475100Y-84924900D02*
X67475100Y-83590098D01*
X64429640Y-90214596D02*
X63313478Y-91330758D01*
X67838320Y-108428255D02*
X67838320Y-108993940D01*
X67475100Y-83590098D02*
X66577242Y-82692240D01*
X66577242Y-82692240D02*
X65502758Y-82692240D01*
X67013730Y-96321880D02*
X67838320Y-97146470D01*
X66040000Y-86360000D02*
X67475100Y-84924900D01*
X63313478Y-92918480D02*
X66716878Y-96321880D01*
X67838320Y-97146470D02*
X67838320Y-108428255D01*
X65502758Y-82692240D02*
X64429640Y-83765358D01*
X63313478Y-91330758D02*
X63313478Y-92918480D01*
X64429640Y-83765358D02*
X64429640Y-90214596D01*
X67759580Y-83845400D02*
X67546220Y-83632040D01*
X67517042Y-83632040D02*
X67475100Y-83590098D01*
X67546220Y-83632040D02*
X67517042Y-83632040D01*
X69194680Y-63329085D02*
X69194680Y-70292807D01*
X69620153Y-70718280D02*
X69620153Y-84270827D01*
X69620153Y-84270827D02*
X69594679Y-84296301D01*
X68930520Y-63064925D02*
X69194680Y-63329085D01*
X69594679Y-84296301D02*
X69194680Y-84696300D01*
X69194680Y-70292807D02*
X69620153Y-70718280D01*
X68930520Y-62499240D02*
X68930520Y-63064925D01*
X235450380Y-35547300D02*
X235450380Y-157134560D01*
X221208600Y-171376340D02*
X60886340Y-171376340D01*
X60886340Y-171376340D02*
X55913020Y-166403020D01*
X233451400Y-60960000D02*
X233507280Y-61015880D01*
X231140000Y-60960000D02*
X233451400Y-60960000D01*
X231877501Y-166075001D02*
X231877501Y-164567501D01*
X231877501Y-164567501D02*
X231140000Y-163830000D01*
X235450380Y-157134560D02*
X230024940Y-162560000D01*
X230024940Y-162560000D02*
X221208600Y-171376340D01*
G04 #@! TO.N,/SCK*
X63414933Y-161375067D02*
X63414933Y-116925067D01*
X65240001Y-115099999D02*
X66040000Y-114300000D01*
X63414933Y-116925067D02*
X65240001Y-115099999D01*
X58420000Y-166370000D02*
X63414933Y-161375067D01*
X71451062Y-108888938D02*
X71451062Y-94311062D01*
X66839999Y-89699999D02*
X66040000Y-88900000D01*
X71451062Y-94311062D02*
X66839999Y-89699999D01*
X66040000Y-114300000D02*
X71451062Y-108888938D01*
X67165001Y-44284681D02*
X67546220Y-44665900D01*
X67165001Y-39225001D02*
X67165001Y-44284681D01*
X66040000Y-38100000D02*
X67165001Y-39225001D01*
X69408040Y-60131960D02*
X66040000Y-63500000D01*
X69408040Y-45463460D02*
X69408040Y-60131960D01*
X68865342Y-77527840D02*
X68691329Y-77701853D01*
X68691329Y-77701853D02*
X68691329Y-84126647D01*
X68691329Y-84126647D02*
X68469678Y-84348298D01*
X68469678Y-86470322D02*
X66839999Y-88100001D01*
X68469678Y-84348298D02*
X68469678Y-86470322D01*
X66839999Y-88100001D02*
X66040000Y-88900000D01*
X68865342Y-70711640D02*
X68865342Y-77527840D01*
X68728180Y-66188180D02*
X68728180Y-70574478D01*
X66040000Y-63500000D02*
X68728180Y-66188180D01*
X68728180Y-70574478D02*
X68865342Y-70711640D01*
X59969400Y-171927520D02*
X58392060Y-170350180D01*
X233494580Y-63500000D02*
X233507280Y-63512700D01*
X231140000Y-63500000D02*
X233494580Y-63500000D01*
X231877501Y-168825001D02*
X228774982Y-171927520D01*
X228774982Y-171927520D02*
X219710000Y-171927520D01*
X231877501Y-168025001D02*
X231877501Y-168825001D01*
X219710000Y-171927520D02*
X59969400Y-171927520D01*
X236260640Y-38006020D02*
X236260640Y-157397302D01*
X236260640Y-157397302D02*
X221730422Y-171927520D01*
X221730422Y-171927520D02*
X219710000Y-171927520D01*
G04 #@! TO.N,/KQ1*
X223520000Y-76200000D02*
X228600000Y-81280000D01*
X223520000Y-74930000D02*
X223520000Y-76200000D01*
G04 #@! TO.N,/KQ2*
X230440001Y-81979999D02*
X231140000Y-81280000D01*
X228794999Y-83625001D02*
X230440001Y-81979999D01*
X223595001Y-83625001D02*
X228794999Y-83625001D01*
X223520000Y-83550000D02*
X223595001Y-83625001D01*
X223520000Y-82550000D02*
X223520000Y-83550000D01*
G04 #@! TO.N,/KQ3*
X223520000Y-91440000D02*
X228600000Y-96520000D01*
X223520000Y-90170000D02*
X223520000Y-91440000D01*
G04 #@! TO.N,/KQ4*
X229372160Y-98287840D02*
X227472240Y-98287840D01*
X231140000Y-96520000D02*
X229372160Y-98287840D01*
X223520000Y-96790000D02*
X223520000Y-97790000D01*
X223595001Y-96714999D02*
X223520000Y-96790000D01*
X225899399Y-96714999D02*
X223595001Y-96714999D01*
X227472240Y-98287840D02*
X225899399Y-96714999D01*
G04 #@! TO.N,/KQ5*
X223520000Y-106680000D02*
X228600000Y-111760000D01*
X223520000Y-105410000D02*
X223520000Y-106680000D01*
G04 #@! TO.N,/KQ6*
X228794999Y-114105001D02*
X230440001Y-112459999D01*
X230440001Y-112459999D02*
X231140000Y-111760000D01*
X223595001Y-114105001D02*
X228794999Y-114105001D01*
X223520000Y-114030000D02*
X223595001Y-114105001D01*
X223520000Y-113030000D02*
X223520000Y-114030000D01*
G04 #@! TO.N,/KQ7*
X223520000Y-121920000D02*
X228600000Y-127000000D01*
X223520000Y-120650000D02*
X223520000Y-121920000D01*
G04 #@! TO.N,/KQ8*
X230440001Y-127699999D02*
X231140000Y-127000000D01*
X230114999Y-128025001D02*
X230440001Y-127699999D01*
X228107999Y-128025001D02*
X230114999Y-128025001D01*
X227277997Y-127194999D02*
X228107999Y-128025001D01*
X223595001Y-127194999D02*
X227277997Y-127194999D01*
X223520000Y-127270000D02*
X223595001Y-127194999D01*
X223520000Y-128270000D02*
X223520000Y-127270000D01*
G04 #@! TO.N,/KQ9*
X223520000Y-137160000D02*
X228600000Y-142240000D01*
X223520000Y-135890000D02*
X223520000Y-137160000D01*
G04 #@! TO.N,/KQ10*
X223520000Y-144510000D02*
X223520000Y-143510000D01*
X223595001Y-144585001D02*
X223520000Y-144510000D01*
X228794999Y-144585001D02*
X223595001Y-144585001D01*
X231140000Y-142240000D02*
X228794999Y-144585001D01*
G04 #@! TO.N,/KQ11*
X223520000Y-152400000D02*
X228600000Y-157480000D01*
X223520000Y-151130000D02*
X223520000Y-152400000D01*
G04 #@! TO.N,/KQ12*
X230440001Y-158179999D02*
X231140000Y-157480000D01*
X230114999Y-158505001D02*
X230440001Y-158179999D01*
X228107999Y-158505001D02*
X230114999Y-158505001D01*
X227277997Y-157674999D02*
X228107999Y-158505001D01*
X223595001Y-157674999D02*
X227277997Y-157674999D01*
X223520000Y-157750000D02*
X223595001Y-157674999D01*
X223520000Y-158750000D02*
X223520000Y-157750000D01*
G04 #@! TO.N,Net-(R3-Pad1)*
X182849520Y-33050480D02*
X182880000Y-33020000D01*
X182849520Y-42844720D02*
X182849520Y-33050480D01*
G04 #@! TO.N,Net-(R4-Pad1)*
X83969860Y-83880960D02*
X79923640Y-87927180D01*
X79923640Y-87927180D02*
X79923640Y-90843100D01*
G04 #@! TO.N,Net-(R6-Pad1)*
X212232999Y-19929999D02*
X213217001Y-19929999D01*
X204162988Y-20380010D02*
X204612999Y-19929999D01*
X186441080Y-24898918D02*
X190959988Y-20380010D01*
X213217001Y-19929999D02*
X213416992Y-20129990D01*
X213416992Y-20129990D02*
X215606730Y-20129990D01*
X206047012Y-20380010D02*
X211782988Y-20380010D01*
X230340001Y-27140001D02*
X231140000Y-27940000D01*
X223580010Y-20380010D02*
X230340001Y-27140001D01*
X204612999Y-19929999D02*
X205597001Y-19929999D01*
X182880000Y-134620000D02*
X186441080Y-131058920D01*
X205597001Y-19929999D02*
X206047012Y-20380010D01*
X186441080Y-131058920D02*
X186441080Y-24898918D01*
X215606730Y-20129990D02*
X215856750Y-20380010D01*
X190959988Y-20380010D02*
X204162988Y-20380010D01*
X211782988Y-20380010D02*
X212232999Y-19929999D01*
X215856750Y-20380010D02*
X223580010Y-20380010D01*
G04 #@! TO.N,Net-(R10-Pad1)*
X195539360Y-33060640D02*
X195580000Y-33020000D01*
X195539360Y-52984400D02*
X195539360Y-33060640D01*
G04 #@! TO.N,Net-(R11-Pad1)*
X144716500Y-83883500D02*
X144780000Y-83820000D01*
X144716500Y-91973400D02*
X144716500Y-83883500D01*
G04 #@! TO.N,Net-(R13-Pad1)*
X195580000Y-134620000D02*
X199176640Y-131023360D01*
X199176640Y-131023360D02*
X199176640Y-32443420D01*
X218846400Y-33535620D02*
X218846400Y-27881580D01*
X221327980Y-25400000D02*
X223520000Y-25400000D01*
X218846400Y-27881580D02*
X221327980Y-25400000D01*
G04 #@! TO.N,Net-(R17-Pad1)*
X208241900Y-33058100D02*
X208280000Y-33020000D01*
X208241900Y-53370480D02*
X208241900Y-33058100D01*
G04 #@! TO.N,Net-(R18-Pad1)*
X157528260Y-92712540D02*
X157528260Y-83868260D01*
X157528260Y-83868260D02*
X157480000Y-83820000D01*
G04 #@! TO.N,Net-(R20-Pad1)*
X210451700Y-132448300D02*
X210451700Y-98704400D01*
X208280000Y-134620000D02*
X210451700Y-132448300D01*
X210451700Y-98704400D02*
X211249260Y-97906840D01*
X211249260Y-97906840D02*
X211249260Y-33624520D01*
X211249260Y-33624520D02*
X211602320Y-33271460D01*
X219238779Y-34499601D02*
X219238779Y-34497061D01*
X218838780Y-34899600D02*
X219238779Y-34499601D01*
X219238779Y-34497061D02*
X219770960Y-33964880D01*
X219770960Y-31689040D02*
X223520000Y-27940000D01*
X219770960Y-33964880D02*
X219770960Y-31689040D01*
G04 #@! TO.N,Net-(R24-Pad1)*
X209577940Y-53482240D02*
X210235800Y-52824380D01*
X210235800Y-52824380D02*
X210235800Y-23845520D01*
X207345280Y-20955000D02*
X205105000Y-20955000D01*
X210235800Y-23845520D02*
X207345280Y-20955000D01*
G04 #@! TO.N,Net-(R25-Pad1)*
X170228260Y-93456760D02*
X170228260Y-83868260D01*
X170228260Y-83868260D02*
X170180000Y-83820000D01*
G04 #@! TO.N,Net-(R27-Pad1)*
X218686380Y-125098275D02*
X218805760Y-124978895D01*
X220626940Y-34544000D02*
X220626940Y-33373060D01*
X218804956Y-49160930D02*
X218804956Y-47359070D01*
X220626940Y-33373060D02*
X222720001Y-31279999D01*
X222720001Y-31279999D02*
X223520000Y-30480000D01*
X218805760Y-49161734D02*
X218804956Y-49160930D01*
X218805760Y-36365180D02*
X220626940Y-34544000D01*
X218805760Y-124978895D02*
X218805760Y-49161734D01*
X218686380Y-125663960D02*
X218686380Y-125098275D01*
X218805760Y-47358266D02*
X218805760Y-36365180D01*
X218804956Y-47359070D02*
X218805760Y-47358266D01*
G04 #@! TO.N,Net-(R30-Pad1)*
X132080000Y-39457790D02*
X132100320Y-39478110D01*
X132080000Y-33020000D02*
X132080000Y-39457790D01*
G04 #@! TO.N,Net-(R32-Pad1)*
X182704740Y-94216220D02*
X182704740Y-94046040D01*
X182880000Y-93870780D02*
X182880000Y-83820000D01*
X182704740Y-94046040D02*
X182880000Y-93870780D01*
G04 #@! TO.N,Net-(R33-Pad1)*
X132080000Y-143018670D02*
X131960620Y-143138050D01*
X132080000Y-134620000D02*
X132080000Y-143018670D01*
G04 #@! TO.N,Net-(R34-Pad1)*
X221506627Y-73660000D02*
X227610051Y-73660000D01*
X219254967Y-47545470D02*
X219254967Y-48974530D01*
X223520000Y-33020000D02*
X219364129Y-37175871D01*
X219364129Y-71517502D02*
X221506627Y-73660000D01*
X219364129Y-47436308D02*
X219254967Y-47545470D01*
X219364129Y-37175871D02*
X219364129Y-47436308D01*
X219364129Y-49083692D02*
X219364129Y-71517502D01*
X227610051Y-73660000D02*
X228600000Y-73660000D01*
X219254967Y-48974530D02*
X219364129Y-49083692D01*
G04 #@! TO.N,Net-(R37-Pad1)*
X144795240Y-33035240D02*
X144780000Y-33020000D01*
X144795240Y-40175180D02*
X144795240Y-33035240D01*
G04 #@! TO.N,Net-(R39-Pad1)*
X195633340Y-83873340D02*
X195580000Y-83820000D01*
X195633340Y-94960440D02*
X195633340Y-83873340D01*
G04 #@! TO.N,Net-(R40-Pad1)*
X144614900Y-134785100D02*
X144780000Y-134620000D01*
X144614900Y-143697960D02*
X144614900Y-134785100D01*
G04 #@! TO.N,Net-(R41-Pad1)*
X219814140Y-39265860D02*
X222720001Y-36359999D01*
X231140000Y-73660000D02*
X230150051Y-73660000D01*
X220815480Y-72332442D02*
X219814140Y-71331102D01*
X219814140Y-71331102D02*
X219814140Y-48897292D01*
X228822493Y-72332442D02*
X220815480Y-72332442D01*
X222720001Y-36359999D02*
X223520000Y-35560000D01*
X219814140Y-48897292D02*
X219704978Y-48788130D01*
X219704978Y-48788130D02*
X219704978Y-47731870D01*
X219704978Y-47731870D02*
X219814140Y-47622708D01*
X219814140Y-47622708D02*
X219814140Y-39265860D01*
X230150051Y-73660000D02*
X228822493Y-72332442D01*
G04 #@! TO.N,Net-(R44-Pad1)*
X157480000Y-33020000D02*
X157480000Y-34009949D01*
X157480000Y-34009949D02*
X157480000Y-40939720D01*
G04 #@! TO.N,Net-(R46-Pad1)*
X208226660Y-83873340D02*
X208280000Y-83820000D01*
X208226660Y-95704660D02*
X208226660Y-83873340D01*
G04 #@! TO.N,Net-(R47-Pad1)*
X157452060Y-134647940D02*
X157480000Y-134620000D01*
X157452060Y-144454880D02*
X157452060Y-134647940D01*
G04 #@! TO.N,Net-(R48-Pad1)*
X220382669Y-41237331D02*
X220382669Y-47690590D01*
X231555504Y-72558502D02*
X232165001Y-73167999D01*
X220382669Y-71263220D02*
X221001880Y-71882431D01*
X229299999Y-88200001D02*
X228600000Y-88900000D01*
X220382669Y-47690590D02*
X220154989Y-47918270D01*
X232165001Y-85183729D02*
X231389988Y-85958741D01*
X229257274Y-71882431D02*
X229933345Y-72558502D01*
X229933345Y-72558502D02*
X231555504Y-72558502D01*
X220154989Y-47918270D02*
X220154989Y-48601730D01*
X231389988Y-85958741D02*
X231389988Y-86110012D01*
X221001880Y-71882431D02*
X229257274Y-71882431D01*
X220154989Y-48601730D02*
X220382669Y-48829410D01*
X223520000Y-38100000D02*
X220382669Y-41237331D01*
X220382669Y-48829410D02*
X220382669Y-71263220D01*
X231389988Y-86110012D02*
X229299999Y-88200001D01*
X232165001Y-73167999D02*
X232165001Y-85183729D01*
G04 #@! TO.N,Net-(R49-Pad1)*
X223520000Y-63500000D02*
X228300280Y-63500000D01*
X228300280Y-63500000D02*
X228366320Y-63566040D01*
X228600000Y-148463000D02*
X228600000Y-148870051D01*
X233065020Y-143997980D02*
X228600000Y-148463000D01*
X231865902Y-71596081D02*
X233065020Y-72795199D01*
X233065020Y-72795199D02*
X233065020Y-143997980D01*
X230470858Y-70335140D02*
X231731799Y-71596081D01*
X228600000Y-148870051D02*
X228600000Y-149860000D01*
X231731799Y-71596081D02*
X231865902Y-71596081D01*
X228417120Y-70335140D02*
X230470858Y-70335140D01*
G04 #@! TO.N,Net-(R51-Pad1)*
X170190160Y-33030160D02*
X170180000Y-33020000D01*
X170190160Y-42054780D02*
X170190160Y-33030160D01*
G04 #@! TO.N,Net-(R53-Pad1)*
X206094949Y-71755000D02*
X205105000Y-71755000D01*
X210480859Y-76140910D02*
X206094949Y-71755000D01*
X210480859Y-96048881D02*
X210480859Y-76140910D01*
X210080860Y-96448880D02*
X210480859Y-96048881D01*
G04 #@! TO.N,Net-(R54-Pad1)*
X170218100Y-134658100D02*
X170180000Y-134620000D01*
X170218100Y-145206720D02*
X170218100Y-134658100D01*
G04 #@! TO.N,Net-(R55-Pad1)*
X231140000Y-88900000D02*
X232615009Y-87424991D01*
X232615009Y-72981598D02*
X231679503Y-72046092D01*
X231679503Y-72046092D02*
X230580199Y-72046092D01*
X230580199Y-72046092D02*
X229610927Y-71076820D01*
X232615009Y-87424991D02*
X232615009Y-72981598D01*
X222720001Y-41439999D02*
X223520000Y-40640000D01*
X221137480Y-67862482D02*
X221137480Y-43022520D01*
X221137480Y-43022520D02*
X222720001Y-41439999D01*
X229610927Y-71076820D02*
X224351818Y-71076820D01*
X224351818Y-71076820D02*
X221137480Y-67862482D01*
G04 #@! TO.N,Net-(R56-Pad1)*
X223520000Y-66040000D02*
X228625400Y-66040000D01*
X228625400Y-66040000D02*
X228772720Y-66187320D01*
X233621149Y-72257489D02*
X232634739Y-71271079D01*
X231140000Y-149860000D02*
X233621149Y-147378851D01*
X232634739Y-71271079D02*
X232234740Y-70871080D01*
X233621149Y-147378851D02*
X233621149Y-72257489D01*
G04 #@! TO.N,Net-(U2-Pad9)*
X68224400Y-77532371D02*
X68415331Y-77341440D01*
X68415331Y-70898040D02*
X66897290Y-69379999D01*
X66897290Y-69379999D02*
X66839999Y-69379999D01*
X66839999Y-69379999D02*
X66040000Y-68580000D01*
X68224400Y-79095600D02*
X68224400Y-77532371D01*
X68415331Y-77341440D02*
X68415331Y-70898040D01*
X66040000Y-81280000D02*
X68224400Y-79095600D01*
G04 #@! TO.N,Net-(U3-Pad9)*
X66040000Y-93980000D02*
X67171370Y-93980000D01*
X67171370Y-93980000D02*
X70322440Y-97131070D01*
X70322440Y-105084880D02*
X68707000Y-106700320D01*
X70322440Y-97131070D02*
X70322440Y-105084880D01*
G04 #@! TO.N,Net-(U4-Pad9)*
X234232282Y-156643245D02*
X220492327Y-170383200D01*
X234160060Y-30480000D02*
X234160060Y-31045685D01*
X233996399Y-31209346D02*
X233996399Y-57907235D01*
X234160060Y-31045685D02*
X233996399Y-31209346D01*
X66040000Y-120511370D02*
X66040000Y-119380000D01*
X220492327Y-170383200D02*
X76923198Y-170383200D01*
X233996399Y-57907235D02*
X234232282Y-58143118D01*
X66040000Y-159500002D02*
X66040000Y-120511370D01*
X76923198Y-170383200D02*
X66040000Y-159500002D01*
X234232282Y-58143118D02*
X234232282Y-156643245D01*
G04 #@! TO.N,Net-(U5-Pad9)*
X230008630Y-43180000D02*
X227693220Y-45495410D01*
X231140000Y-43180000D02*
X230008630Y-43180000D01*
X227693220Y-52433220D02*
X231140000Y-55880000D01*
X227693220Y-45495410D02*
X227693220Y-52433220D01*
G04 #@! TO.N,Net-(U1-Pad9)*
X66040000Y-44441244D02*
X67802510Y-46203754D01*
X67802510Y-46203754D02*
X67802510Y-54117490D01*
X66040000Y-43180000D02*
X66040000Y-44441244D01*
X66839999Y-55080001D02*
X66040000Y-55880000D01*
X67802510Y-54117490D02*
X66839999Y-55080001D01*
G04 #@! TD*
M02*
