M48
;DRILL file {KiCad 5.0.2+dfsg1-1} date Mon 23 Nov 2020 02:33:19 PM MST
;FORMAT={-:-/ absolute / inch / decimal}
FMAT,2
INCH,TZ
T1C0.0118
T2C0.0157
T3C0.0276
T4C0.0295
T5C0.0315
T6C0.0354
T7C0.0394
T8C0.0433
T9C0.0472
T10C0.0394
%
G90
G05
T1
X1.7303Y-4.3553
X1.7303Y-4.3947
X1.75Y-4.375
X1.7697Y-4.3553
X1.7697Y-4.3947
T2
X0.825Y-1.65
X0.875Y-1.6
X0.875Y-1.65
X0.875Y-1.7
X0.925Y-1.65
X0.95Y-3.725
X0.9745Y-3.75
X1.05Y-2.55
X1.1Y-3.763
X1.138Y-3.763
X1.21Y-3.8935
X1.255Y-3.865
X1.275Y-1.525
X1.275Y-1.77
X1.3Y-2.725
X1.36Y-3.48
X1.36Y-3.6
X1.4Y-3.42
X1.4Y-3.54
X1.4Y-3.66
X1.44Y-3.48
X1.44Y-3.6
X1.45Y-4.305
X1.47Y-4.33
X1.47Y-4.33
X1.475Y-2.1
X1.4799Y-4.475
X1.48Y-3.42
X1.48Y-3.54
X1.48Y-3.66
X1.5049Y-4.45
X1.52Y-3.48
X1.52Y-3.6
X1.5299Y-4.425
X1.54Y-4.525
X1.56Y-3.42
X1.56Y-3.54
X1.56Y-3.66
X1.6Y-3.48
X1.6Y-3.6
X1.64Y-3.42
X1.64Y-3.54
X1.64Y-3.66
X1.68Y-3.48
X1.68Y-3.6
X1.775Y-3.4
X1.875Y-4.445
X1.9199Y-4.4035
X1.925Y-4.52
X1.96Y-4.35
X2.042Y-4.3416
X2.06Y-4.4
X2.075Y-4.075
X2.09Y-3.505
X2.15Y-2.925
X2.15Y-3.35
X2.175Y-2.9
X2.175Y-2.95
X2.175Y-3.
X2.175Y-3.325
X2.175Y-3.375
X2.175Y-3.425
X2.2Y-2.925
X2.2Y-3.35
X2.225Y-4.1
X2.375Y-3.35
X2.495Y-3.41
X2.665Y-3.05
X2.665Y-3.24
X2.75Y-3.1445
X2.75Y-3.29
X2.85Y-4.835
X2.97Y-4.165
X3.02Y-4.32
X3.075Y-3.1917
X3.2Y-5.175
X3.225Y-3.05
X3.25Y-3.275
X3.275Y-3.15
X3.275Y-3.675
X3.325Y-3.25
X3.4Y-3.35
X3.45Y-5.115
X3.525Y-3.975
X3.525Y-4.025
X3.63Y-2.855
X3.6545Y-2.9753
X3.675Y-3.675
X3.675Y-3.975
X3.675Y-4.025
X3.7Y-5.065
X3.7273Y-2.615
X3.825Y-3.675
X3.886Y-2.812
X3.9Y-3.35
X3.925Y-3.08
X3.995Y-4.125
X4.Y-3.925
X4.Y-4.075
X4.025Y-3.225
X4.07Y-4.1
X4.2Y-4.5
X4.31Y-4.445
X4.4Y-4.175
X4.6427Y-4.1147
X4.7Y-2.725
X4.76Y-4.535
X4.8Y-2.7585
X4.8Y-3.975
X4.85Y-3.925
X4.93Y-3.26
X4.95Y-4.325
X4.975Y-2.725
X4.975Y-2.775
X4.975Y-2.975
X4.975Y-3.375
X4.975Y-4.275
X5.Y-3.5
X5.025Y-4.7
X5.0292Y-2.8933
X5.05Y-3.625
X5.05Y-3.7
X5.05Y-4.225
X5.055Y-3.43
X5.1Y-2.575
X5.1Y-4.175
X5.15Y-3.4
X5.175Y-4.3
X5.2Y-3.15
X5.225Y-2.775
X5.225Y-5.05
X5.25Y-3.25
X5.25Y-4.025
X5.3Y-2.8
X5.35Y-2.335
X5.35Y-2.575
X5.35Y-3.3
X5.35Y-3.925
X5.35Y-3.975
X5.362Y-4.316
X5.362Y-4.474
X5.39Y-3.6877
X5.39Y-3.735
X5.4Y-3.35
X5.485Y-4.052
X5.525Y-4.025
X5.575Y-4.675
X5.6Y-2.28
X5.6Y-2.575
X5.6Y-3.15
X5.6Y-4.2
X5.625Y-2.8
X5.625Y-2.85
X5.645Y-4.38
X5.65Y-4.2415
X5.7Y-4.275
X5.71Y-4.145
X5.725Y-3.1028
X5.75Y-2.5
X5.8Y-4.05
X5.85Y-3.1
X5.85Y-4.
X5.85Y-4.45
X5.895Y-4.145
X5.9Y-3.85
X5.9Y-3.85
X5.9Y-3.85
X5.9Y-3.85
X5.9Y-3.85
X5.95Y-3.
X6.Y-3.775
X6.025Y-4.075
X6.06Y-3.69
X6.075Y-4.1
X6.0985Y-3.6535
X6.1Y-2.8
X6.1Y-2.85
X6.25Y-3.35
X6.25Y-3.55
X6.265Y-3.785
X6.3089Y-3.7234
X6.4Y-2.8
X6.425Y-2.85
X6.44Y-3.685
X6.65Y-3.4
X6.7Y-3.3
X6.84Y-3.997
X6.87Y-3.726
X6.875Y-3.2
X6.925Y-3.8013
X6.9362Y-3.1888
X6.9402Y-3.5652
X6.9752Y-3.5473
X7.Y-4.1
X7.009Y-3.9727
X7.047Y-3.8067
X7.05Y-3.35
X7.05Y-3.95
X7.075Y-3.3
X7.123Y-4.501
X7.125Y-4.025
X7.1403Y-3.3403
X7.144Y-3.648
X7.22Y-4.
X7.225Y-4.5
X7.2415Y-4.2846
X7.26Y-3.805
X7.2631Y-4.4165
X7.276Y-5.708
X7.3Y-3.3488
X7.302Y-4.4253
X7.3184Y-4.0025
X7.35Y-3.875
X7.35Y-4.625
X7.3639Y-3.9132
X7.4Y-3.725
X7.401Y-3.56
X7.425Y-3.7
X7.4258Y-3.8796
X7.454Y-3.9176
X7.478Y-3.469
X7.4853Y-4.0897
X7.492Y-4.771
X7.499Y-3.847
X7.542Y-3.7585
X7.5535Y-3.5871
X7.5607Y-3.6737
X7.5787Y-4.2
X7.632Y-3.167
X7.634Y-3.237
X7.6345Y-3.771
X7.639Y-3.811
X7.725Y-1.53
X7.725Y-1.77
X7.744Y-4.228
X7.75Y-3.3
X7.793Y-4.23
X7.8Y-3.3
X7.8Y-3.35
X7.8Y-4.35
X7.8Y-4.4
X7.802Y-3.734
X7.802Y-3.862
X7.8281Y-3.1746
X7.8715Y-3.1466
X7.9Y-3.1737
X7.98Y-3.62
X7.98Y-3.675
X7.991Y-3.824
X8.Y-1.525
X8.02Y-3.68
X8.1Y-1.475
X8.15Y-1.65
X8.175Y-3.675
X8.2Y-1.6
X8.2Y-1.65
X8.2Y-1.7
X8.225Y-4.6
X8.2274Y-3.675
X8.25Y-1.65
X8.2715Y-4.3
T3
X7.4Y-2.975
X7.7Y-2.975
X4.25Y-3.35
X4.55Y-3.35
X7.4Y-3.175
X7.7Y-3.175
X4.75Y-3.55
X4.75Y-3.85
X7.4Y-3.075
X7.7Y-3.075
X4.25Y-4.05
X4.55Y-4.05
X4.675Y-4.875
X4.675Y-5.175
X5.715Y-4.765
X6.015Y-4.765
X7.4Y-2.875
X7.7Y-2.875
T4
X6.85Y-2.15
X6.85Y-2.45
X6.6Y-2.15
X6.6Y-2.45
X5.35Y-2.15
X5.35Y-2.45
X7.Y-3.175
X7.3Y-3.175
X5.6Y-2.15
X5.6Y-2.45
X7.1Y-2.15
X7.1Y-2.45
X1.95Y-4.95
X1.95Y-5.25
X1.7Y-4.95
X1.7Y-5.25
X7.Y-2.875
X7.3Y-2.875
X5.85Y-2.15
X5.85Y-2.45
X4.85Y-2.15
X4.85Y-2.45
X4.2Y-4.95
X4.2Y-5.25
X3.95Y-4.95
X3.95Y-5.25
X5.1Y-2.15
X5.1Y-2.45
X1.2Y-4.95
X1.2Y-5.25
X7.35Y-2.15
X7.35Y-2.45
X4.2Y-3.55
X4.25Y-3.55
X4.3Y-3.55
X7.6Y-2.15
X7.6Y-2.45
X6.1Y-2.15
X6.1Y-2.45
X3.2Y-4.95
X3.2Y-5.25
X3.45Y-4.95
X3.45Y-5.25
X1.1Y-3.35
X1.15Y-3.35
X1.2Y-3.35
X2.2Y-4.95
X2.2Y-5.25
X3.7Y-4.95
X3.7Y-5.25
X2.95Y-4.95
X2.95Y-5.25
X2.7Y-4.95
X2.7Y-5.25
X6.35Y-2.15
X6.35Y-2.45
X4.2Y-3.85
X4.25Y-3.85
X4.3Y-3.85
X7.Y-2.975
X7.3Y-2.975
X4.045Y-2.9036
X4.095Y-2.9036
X4.145Y-2.9036
X7.85Y-2.15
X7.85Y-2.45
X7.Y-3.075
X7.3Y-3.075
X1.45Y-4.95
X1.45Y-5.25
X3.8281Y-2.9036
X3.8781Y-2.9036
X3.9281Y-2.9036
X2.45Y-4.95
X2.45Y-5.25
T5
X3.33Y-4.11
X3.63Y-4.11
X2.5058Y-4.1988
X2.8058Y-4.1988
X2.13Y-4.3
X2.43Y-4.3
X6.405Y-3.825
X6.705Y-3.825
X5.4Y-3.55
X5.4Y-3.85
X5.5Y-3.55
X5.5Y-3.85
X5.6Y-3.55
X5.6Y-3.85
X5.7Y-3.55
X5.7Y-3.85
X5.8Y-3.55
X5.8Y-3.85
X5.9Y-3.55
X5.9Y-3.85
X6.Y-3.55
X6.Y-3.85
X6.1Y-3.55
X6.1Y-3.85
X7.985Y-5.105
X8.285Y-5.105
X1.375Y-3.255
X1.675Y-3.255
X3.812Y-2.615
X4.112Y-2.615
X7.325Y-5.073
X7.325Y-5.373
X7.625Y-3.5
X7.925Y-3.5
X8.06Y-2.44
X8.06Y-2.74
X4.825Y-4.85
X4.825Y-5.15
X4.925Y-4.85
X4.925Y-5.15
X5.025Y-4.85
X5.025Y-5.15
X5.125Y-4.85
X5.125Y-5.15
X5.225Y-4.85
X5.225Y-5.15
X5.325Y-4.85
X5.325Y-5.15
X5.425Y-4.85
X5.425Y-5.15
X5.525Y-4.85
X5.525Y-5.15
X2.5058Y-4.0738
X2.8058Y-4.0738
X3.812Y-2.7351
X4.112Y-2.7351
X3.Y-3.55
X3.Y-3.85
X3.1Y-3.55
X3.1Y-3.85
X3.2Y-3.55
X3.2Y-3.85
X3.3Y-3.55
X3.3Y-3.85
X3.4Y-3.55
X3.4Y-3.85
X3.5Y-3.55
X3.5Y-3.85
X3.6Y-3.55
X3.6Y-3.85
X3.7Y-3.55
X3.7Y-3.85
X3.4273Y-2.9753
X3.7273Y-2.9753
X7.45Y-5.075
X7.45Y-5.375
X2.4Y-3.9
X2.7Y-3.9
X3.4273Y-2.8552
X3.7273Y-2.8552
X2.45Y-3.5516
X2.45Y-3.65
X7.595Y-5.105
X7.895Y-5.105
X2.025Y-3.5516
X2.025Y-3.65
X5.815Y-5.205
X6.115Y-5.205
X3.4273Y-2.7351
X3.7273Y-2.7351
X7.194Y-5.075
X7.194Y-5.375
X1.5Y-4.65
X1.8Y-4.65
X2.09Y-4.16
X2.39Y-4.16
X4.075Y-3.55
X4.075Y-3.85
T6
X4.4625Y-3.8425
X4.5125Y-3.8425
X4.5625Y-3.8425
X4.6125Y-3.8425
X4.4625Y-3.56
X4.5125Y-3.56
X4.5625Y-3.56
X4.6125Y-3.56
T7
X1.05Y-2.75
X1.05Y-2.85
X1.05Y-2.95
X1.05Y-3.05
X1.05Y-2.25
X1.05Y-2.35
X1.05Y-2.45
X1.05Y-2.55
X0.9Y-2.35
X0.9Y-2.45
X0.9Y-2.55
X0.9Y-2.65
X0.9Y-2.75
X0.9Y-2.85
X0.9Y-2.95
X0.9Y-3.05
X7.95Y-4.1
X7.95Y-4.2
X7.95Y-4.3
X7.95Y-4.4
X8.1Y-4.2
X8.1Y-4.3
X8.1Y-4.4
X8.1Y-4.5
X8.1Y-4.6
X8.1Y-4.7
X8.1Y-4.8
X8.1Y-4.9
X5.825Y-4.95
X5.825Y-5.05
X0.875Y-4.55
X0.875Y-4.65
X7.95Y-4.6
X7.95Y-4.7
X7.95Y-4.8
X7.95Y-4.9
X8.06Y-2.9
X8.06Y-3.
X8.06Y-3.1
X8.06Y-3.2
X8.06Y-3.3
X8.06Y-3.4
X8.06Y-3.5
X8.06Y-3.6
X2.696Y-4.445
X2.9913Y-4.445
T8
X7.8031Y-5.375
X7.8031Y-5.5719
X8.Y-5.375
X8.Y-5.5719
X1.415Y-3.895
X1.515Y-3.895
X1.615Y-3.895
X2.2024Y-6.06
X2.2024Y-6.2569
X2.3993Y-6.06
X2.3993Y-6.2569
X5.0326Y-1.1471
X5.0326Y-1.344
X5.2294Y-1.1471
X5.2294Y-1.344
X3.9326Y-1.1471
X3.9326Y-1.344
X4.1294Y-1.1471
X4.1294Y-1.344
X1.1024Y-6.06
X1.1024Y-6.2569
X1.2993Y-6.06
X1.2993Y-6.2569
X6.0524Y-6.06
X6.0524Y-6.2569
X6.2493Y-6.06
X6.2493Y-6.2569
X3.8524Y-6.06
X3.8524Y-6.2569
X4.0493Y-6.06
X4.0493Y-6.2569
X6.6826Y-1.1471
X6.6826Y-1.344
X6.8794Y-1.1471
X6.8794Y-1.344
X1.7326Y-1.1471
X1.7326Y-1.344
X1.9294Y-1.1471
X1.9294Y-1.344
X4.4024Y-6.06
X4.4024Y-6.2569
X4.5993Y-6.06
X4.5993Y-6.2569
X7.2326Y-1.1471
X7.2326Y-1.344
X7.4294Y-1.1471
X7.4294Y-1.344
X7.1524Y-6.06
X7.1524Y-6.2569
X7.3493Y-6.06
X7.3493Y-6.2569
X3.3024Y-6.06
X3.3024Y-6.2569
X3.4993Y-6.06
X3.4993Y-6.2569
X7.8024Y-6.06
X7.8024Y-6.2569
X7.9993Y-6.06
X7.9993Y-6.2569
X2.8326Y-1.1471
X2.8326Y-1.344
X3.0294Y-1.1471
X3.0294Y-1.344
X1.0781Y-1.15
X1.0781Y-1.3469
X1.275Y-1.15
X1.275Y-1.3469
X7.7826Y-1.1471
X7.7826Y-1.344
X7.9794Y-1.1471
X7.9794Y-1.344
X2.2826Y-1.1471
X2.2826Y-1.344
X2.4794Y-1.1471
X2.4794Y-1.344
X2.7524Y-6.06
X2.7524Y-6.2569
X2.9493Y-6.06
X2.9493Y-6.2569
X6.1326Y-1.1471
X6.1326Y-1.344
X6.3294Y-1.1471
X6.3294Y-1.344
X4.9524Y-6.06
X4.9524Y-6.2569
X5.1493Y-6.06
X5.1493Y-6.2569
X5.5024Y-6.06
X5.5024Y-6.2569
X5.6993Y-6.06
X5.6993Y-6.2569
X4.4826Y-1.1471
X4.4826Y-1.344
X4.6794Y-1.1471
X4.6794Y-1.344
X1.6524Y-6.06
X1.6524Y-6.2569
X1.8493Y-6.06
X1.8493Y-6.2569
X3.3826Y-1.1471
X3.3826Y-1.344
X3.5794Y-1.1471
X3.5794Y-1.344
X5.5826Y-1.1471
X5.5826Y-1.344
X5.7794Y-1.1471
X5.7794Y-1.344
X6.6024Y-6.06
X6.6024Y-6.2569
X6.7993Y-6.06
X6.7993Y-6.2569
T9
X7.186Y-5.593
X7.586Y-5.593
X1.775Y-3.95
X2.175Y-3.95
T10
X0.94Y-3.6134
X0.94Y-3.7866
T0
M30
