G04 #@! TF.GenerationSoftware,KiCad,Pcbnew,5.0.2+dfsg1-1*
G04 #@! TF.CreationDate,2020-11-23T14:32:56-07:00*
G04 #@! TF.ProjectId,BattleshipMain,42617474-6c65-4736-9869-704d61696e2e,rev?*
G04 #@! TF.SameCoordinates,Original*
G04 #@! TF.FileFunction,Copper,L1,Top*
G04 #@! TF.FilePolarity,Positive*
%FSLAX46Y46*%
G04 Gerber Fmt 4.6, Leading zero omitted, Abs format (unit mm)*
G04 Created by KiCad (PCBNEW 5.0.2+dfsg1-1) date Mon 23 Nov 2020 02:32:56 PM MST*
%MOMM*%
%LPD*%
G01*
G04 APERTURE LIST*
G04 #@! TA.AperFunction,EtchedComponent*
%ADD10C,0.200000*%
G04 #@! TD*
G04 #@! TA.AperFunction,SMDPad,CuDef*
%ADD11R,1.600000X0.550000*%
G04 #@! TD*
G04 #@! TA.AperFunction,SMDPad,CuDef*
%ADD12R,0.550000X1.600000*%
G04 #@! TD*
G04 #@! TA.AperFunction,ComponentPad*
%ADD13R,2.000000X2.000000*%
G04 #@! TD*
G04 #@! TA.AperFunction,ComponentPad*
%ADD14C,2.000000*%
G04 #@! TD*
G04 #@! TA.AperFunction,ComponentPad*
%ADD15R,2.400000X2.400000*%
G04 #@! TD*
G04 #@! TA.AperFunction,ComponentPad*
%ADD16O,2.400000X2.400000*%
G04 #@! TD*
G04 #@! TA.AperFunction,ComponentPad*
%ADD17O,1.600000X1.600000*%
G04 #@! TD*
G04 #@! TA.AperFunction,ComponentPad*
%ADD18C,1.600000*%
G04 #@! TD*
G04 #@! TA.AperFunction,ComponentPad*
%ADD19R,1.500000X1.500000*%
G04 #@! TD*
G04 #@! TA.AperFunction,ComponentPad*
%ADD20O,1.500000X1.500000*%
G04 #@! TD*
G04 #@! TA.AperFunction,ComponentPad*
%ADD21O,1.700000X1.700000*%
G04 #@! TD*
G04 #@! TA.AperFunction,ComponentPad*
%ADD22R,1.700000X1.700000*%
G04 #@! TD*
G04 #@! TA.AperFunction,ComponentPad*
%ADD23O,1.070000X1.800000*%
G04 #@! TD*
G04 #@! TA.AperFunction,ComponentPad*
%ADD24R,1.070000X1.800000*%
G04 #@! TD*
G04 #@! TA.AperFunction,ComponentPad*
%ADD25R,1.905000X2.000000*%
G04 #@! TD*
G04 #@! TA.AperFunction,ComponentPad*
%ADD26O,1.905000X2.000000*%
G04 #@! TD*
G04 #@! TA.AperFunction,ComponentPad*
%ADD27O,1.050000X1.500000*%
G04 #@! TD*
G04 #@! TA.AperFunction,ComponentPad*
%ADD28R,1.050000X1.500000*%
G04 #@! TD*
G04 #@! TA.AperFunction,ComponentPad*
%ADD29O,1.400000X1.400000*%
G04 #@! TD*
G04 #@! TA.AperFunction,ComponentPad*
%ADD30C,1.400000*%
G04 #@! TD*
G04 #@! TA.AperFunction,ComponentPad*
%ADD31R,1.600000X1.600000*%
G04 #@! TD*
G04 #@! TA.AperFunction,Conductor*
%ADD32C,0.100000*%
G04 #@! TD*
G04 #@! TA.AperFunction,SMDPad,CuDef*
%ADD33C,0.975000*%
G04 #@! TD*
G04 #@! TA.AperFunction,SMDPad,CuDef*
%ADD34R,2.000000X0.500000*%
G04 #@! TD*
G04 #@! TA.AperFunction,SMDPad,CuDef*
%ADD35R,1.700000X2.000000*%
G04 #@! TD*
G04 #@! TA.AperFunction,SMDPad,CuDef*
%ADD36R,1.550000X0.600000*%
G04 #@! TD*
G04 #@! TA.AperFunction,SMDPad,CuDef*
%ADD37R,0.250000X0.700000*%
G04 #@! TD*
G04 #@! TA.AperFunction,SMDPad,CuDef*
%ADD38O,0.850000X0.280000*%
G04 #@! TD*
G04 #@! TA.AperFunction,SMDPad,CuDef*
%ADD39R,0.280000X0.280000*%
G04 #@! TD*
G04 #@! TA.AperFunction,ComponentPad*
%ADD40C,0.600000*%
G04 #@! TD*
G04 #@! TA.AperFunction,SMDPad,CuDef*
%ADD41R,1.700000X2.150000*%
G04 #@! TD*
G04 #@! TA.AperFunction,SMDPad,CuDef*
%ADD42R,0.650000X0.900000*%
G04 #@! TD*
G04 #@! TA.AperFunction,SMDPad,CuDef*
%ADD43R,0.230000X0.600000*%
G04 #@! TD*
G04 #@! TA.AperFunction,SMDPad,CuDef*
%ADD44R,2.800000X3.000000*%
G04 #@! TD*
G04 #@! TA.AperFunction,SMDPad,CuDef*
%ADD45R,2.500000X2.500000*%
G04 #@! TD*
G04 #@! TA.AperFunction,ViaPad*
%ADD46C,0.800000*%
G04 #@! TD*
G04 #@! TA.AperFunction,Conductor*
%ADD47C,1.000000*%
G04 #@! TD*
G04 #@! TA.AperFunction,Conductor*
%ADD48C,0.250000*%
G04 #@! TD*
G04 #@! TA.AperFunction,Conductor*
%ADD49C,0.500000*%
G04 #@! TD*
G04 #@! TA.AperFunction,Conductor*
%ADD50C,4.000000*%
G04 #@! TD*
G04 #@! TA.AperFunction,Conductor*
%ADD51C,2.000000*%
G04 #@! TD*
G04 #@! TA.AperFunction,Conductor*
%ADD52C,0.300000*%
G04 #@! TD*
G04 #@! TA.AperFunction,Conductor*
%ADD53C,3.000000*%
G04 #@! TD*
G04 #@! TA.AperFunction,Conductor*
%ADD54C,0.254000*%
G04 #@! TD*
G04 APERTURE END LIST*
D10*
G04 #@! TO.C,SW1*
X28001306Y-154674940D02*
X28001306Y-157674940D01*
X28001306Y-157674940D02*
X32501306Y-157674940D01*
X33001306Y-154674940D02*
X33001306Y-157174940D01*
X33001306Y-157174940D02*
X28501306Y-157174940D01*
X28001306Y-156674940D02*
X32501306Y-156674940D01*
X33001306Y-156174940D02*
X28501306Y-156174940D01*
X28001306Y-155674940D02*
X32501306Y-155674940D01*
X33001306Y-155174940D02*
X28501306Y-155174940D01*
G04 #@! TO.C,SW2*
X46971306Y-155174940D02*
X42471306Y-155174940D01*
X41971306Y-155674940D02*
X46471306Y-155674940D01*
X46971306Y-156174940D02*
X42471306Y-156174940D01*
X41971306Y-156674940D02*
X46471306Y-156674940D01*
X46971306Y-157174940D02*
X42471306Y-157174940D01*
X46971306Y-154674940D02*
X46971306Y-157174940D01*
X41971306Y-157674940D02*
X46471306Y-157674940D01*
X41971306Y-154674940D02*
X41971306Y-157674940D01*
G04 #@! TO.C,SW3*
X55941306Y-154674940D02*
X55941306Y-157674940D01*
X55941306Y-157674940D02*
X60441306Y-157674940D01*
X60941306Y-154674940D02*
X60941306Y-157174940D01*
X60941306Y-157174940D02*
X56441306Y-157174940D01*
X55941306Y-156674940D02*
X60441306Y-156674940D01*
X60941306Y-156174940D02*
X56441306Y-156174940D01*
X55941306Y-155674940D02*
X60441306Y-155674940D01*
X60941306Y-155174940D02*
X56441306Y-155174940D01*
G04 #@! TO.C,SW4*
X74911306Y-155174940D02*
X70411306Y-155174940D01*
X69911306Y-155674940D02*
X74411306Y-155674940D01*
X74911306Y-156174940D02*
X70411306Y-156174940D01*
X69911306Y-156674940D02*
X74411306Y-156674940D01*
X74911306Y-157174940D02*
X70411306Y-157174940D01*
X74911306Y-154674940D02*
X74911306Y-157174940D01*
X69911306Y-157674940D02*
X74411306Y-157674940D01*
X69911306Y-154674940D02*
X69911306Y-157674940D01*
G04 #@! TO.C,SW5*
X83881306Y-154674940D02*
X83881306Y-157674940D01*
X83881306Y-157674940D02*
X88381306Y-157674940D01*
X88881306Y-154674940D02*
X88881306Y-157174940D01*
X88881306Y-157174940D02*
X84381306Y-157174940D01*
X83881306Y-156674940D02*
X88381306Y-156674940D01*
X88881306Y-156174940D02*
X84381306Y-156174940D01*
X83881306Y-155674940D02*
X88381306Y-155674940D01*
X88881306Y-155174940D02*
X84381306Y-155174940D01*
G04 #@! TO.C,SW6*
X102851306Y-155174940D02*
X98351306Y-155174940D01*
X97851306Y-155674940D02*
X102351306Y-155674940D01*
X102851306Y-156174940D02*
X98351306Y-156174940D01*
X97851306Y-156674940D02*
X102351306Y-156674940D01*
X102851306Y-157174940D02*
X98351306Y-157174940D01*
X102851306Y-154674940D02*
X102851306Y-157174940D01*
X97851306Y-157674940D02*
X102351306Y-157674940D01*
X97851306Y-154674940D02*
X97851306Y-157674940D01*
G04 #@! TO.C,SW7*
X111821306Y-154674940D02*
X111821306Y-157674940D01*
X111821306Y-157674940D02*
X116321306Y-157674940D01*
X116821306Y-154674940D02*
X116821306Y-157174940D01*
X116821306Y-157174940D02*
X112321306Y-157174940D01*
X111821306Y-156674940D02*
X116321306Y-156674940D01*
X116821306Y-156174940D02*
X112321306Y-156174940D01*
X111821306Y-155674940D02*
X116321306Y-155674940D01*
X116821306Y-155174940D02*
X112321306Y-155174940D01*
G04 #@! TO.C,SW8*
X130791306Y-155174940D02*
X126291306Y-155174940D01*
X125791306Y-155674940D02*
X130291306Y-155674940D01*
X130791306Y-156174940D02*
X126291306Y-156174940D01*
X125791306Y-156674940D02*
X130291306Y-156674940D01*
X130791306Y-157174940D02*
X126291306Y-157174940D01*
X130791306Y-154674940D02*
X130791306Y-157174940D01*
X125791306Y-157674940D02*
X130291306Y-157674940D01*
X125791306Y-154674940D02*
X125791306Y-157674940D01*
G04 #@! TO.C,SW9*
X139761306Y-154674940D02*
X139761306Y-157674940D01*
X139761306Y-157674940D02*
X144261306Y-157674940D01*
X144761306Y-154674940D02*
X144761306Y-157174940D01*
X144761306Y-157174940D02*
X140261306Y-157174940D01*
X139761306Y-156674940D02*
X144261306Y-156674940D01*
X144761306Y-156174940D02*
X140261306Y-156174940D01*
X139761306Y-155674940D02*
X144261306Y-155674940D01*
X144761306Y-155174940D02*
X140261306Y-155174940D01*
G04 #@! TO.C,SW10*
X158731306Y-155174940D02*
X154231306Y-155174940D01*
X153731306Y-155674940D02*
X158231306Y-155674940D01*
X158731306Y-156174940D02*
X154231306Y-156174940D01*
X153731306Y-156674940D02*
X158231306Y-156674940D01*
X158731306Y-157174940D02*
X154231306Y-157174940D01*
X158731306Y-154674940D02*
X158731306Y-157174940D01*
X153731306Y-157674940D02*
X158231306Y-157674940D01*
X153731306Y-154674940D02*
X153731306Y-157674940D01*
G04 #@! TO.C,SW11*
X167701306Y-154674940D02*
X167701306Y-157674940D01*
X167701306Y-157674940D02*
X172201306Y-157674940D01*
X172701306Y-154674940D02*
X172701306Y-157174940D01*
X172701306Y-157174940D02*
X168201306Y-157174940D01*
X167701306Y-156674940D02*
X172201306Y-156674940D01*
X172701306Y-156174940D02*
X168201306Y-156174940D01*
X167701306Y-155674940D02*
X172201306Y-155674940D01*
X172701306Y-155174940D02*
X168201306Y-155174940D01*
G04 #@! TO.C,SW12*
X186671306Y-155174940D02*
X182171306Y-155174940D01*
X181671306Y-155674940D02*
X186171306Y-155674940D01*
X186671306Y-156174940D02*
X182171306Y-156174940D01*
X181671306Y-156674940D02*
X186171306Y-156674940D01*
X186671306Y-157174940D02*
X182171306Y-157174940D01*
X186671306Y-154674940D02*
X186671306Y-157174940D01*
X181671306Y-157674940D02*
X186171306Y-157674940D01*
X181671306Y-154674940D02*
X181671306Y-157674940D01*
G04 #@! TO.C,SW13*
X198181306Y-154674940D02*
X198181306Y-157674940D01*
X198181306Y-157674940D02*
X202681306Y-157674940D01*
X203181306Y-154674940D02*
X203181306Y-157174940D01*
X203181306Y-157174940D02*
X198681306Y-157174940D01*
X198181306Y-156674940D02*
X202681306Y-156674940D01*
X203181306Y-156174940D02*
X198681306Y-156174940D01*
X198181306Y-155674940D02*
X202681306Y-155674940D01*
X203181306Y-155174940D02*
X198681306Y-155174940D01*
G04 #@! TO.C,SW14*
X202676781Y-33387184D02*
X202676781Y-30387184D01*
X202676781Y-30387184D02*
X198176781Y-30387184D01*
X197676781Y-33387184D02*
X197676781Y-30887184D01*
X197676781Y-30887184D02*
X202176781Y-30887184D01*
X202676781Y-31387184D02*
X198176781Y-31387184D01*
X197676781Y-31887184D02*
X202176781Y-31887184D01*
X202676781Y-32387184D02*
X198176781Y-32387184D01*
X197676781Y-32887184D02*
X202176781Y-32887184D01*
G04 #@! TO.C,SW15*
X183706781Y-32887184D02*
X188206781Y-32887184D01*
X188706781Y-32387184D02*
X184206781Y-32387184D01*
X183706781Y-31887184D02*
X188206781Y-31887184D01*
X188706781Y-31387184D02*
X184206781Y-31387184D01*
X183706781Y-30887184D02*
X188206781Y-30887184D01*
X183706781Y-33387184D02*
X183706781Y-30887184D01*
X188706781Y-30387184D02*
X184206781Y-30387184D01*
X188706781Y-33387184D02*
X188706781Y-30387184D01*
G04 #@! TO.C,SW16*
X174736781Y-33387184D02*
X174736781Y-30387184D01*
X174736781Y-30387184D02*
X170236781Y-30387184D01*
X169736781Y-33387184D02*
X169736781Y-30887184D01*
X169736781Y-30887184D02*
X174236781Y-30887184D01*
X174736781Y-31387184D02*
X170236781Y-31387184D01*
X169736781Y-31887184D02*
X174236781Y-31887184D01*
X174736781Y-32387184D02*
X170236781Y-32387184D01*
X169736781Y-32887184D02*
X174236781Y-32887184D01*
G04 #@! TO.C,SW17*
X155766781Y-32887184D02*
X160266781Y-32887184D01*
X160766781Y-32387184D02*
X156266781Y-32387184D01*
X155766781Y-31887184D02*
X160266781Y-31887184D01*
X160766781Y-31387184D02*
X156266781Y-31387184D01*
X155766781Y-30887184D02*
X160266781Y-30887184D01*
X155766781Y-33387184D02*
X155766781Y-30887184D01*
X160766781Y-30387184D02*
X156266781Y-30387184D01*
X160766781Y-33387184D02*
X160766781Y-30387184D01*
G04 #@! TO.C,SW18*
X146796781Y-33387184D02*
X146796781Y-30387184D01*
X146796781Y-30387184D02*
X142296781Y-30387184D01*
X141796781Y-33387184D02*
X141796781Y-30887184D01*
X141796781Y-30887184D02*
X146296781Y-30887184D01*
X146796781Y-31387184D02*
X142296781Y-31387184D01*
X141796781Y-31887184D02*
X146296781Y-31887184D01*
X146796781Y-32387184D02*
X142296781Y-32387184D01*
X141796781Y-32887184D02*
X146296781Y-32887184D01*
G04 #@! TO.C,SW19*
X127826781Y-32887184D02*
X132326781Y-32887184D01*
X132826781Y-32387184D02*
X128326781Y-32387184D01*
X127826781Y-31887184D02*
X132326781Y-31887184D01*
X132826781Y-31387184D02*
X128326781Y-31387184D01*
X127826781Y-30887184D02*
X132326781Y-30887184D01*
X127826781Y-33387184D02*
X127826781Y-30887184D01*
X132826781Y-30387184D02*
X128326781Y-30387184D01*
X132826781Y-33387184D02*
X132826781Y-30387184D01*
G04 #@! TO.C,SW20*
X118856781Y-33387184D02*
X118856781Y-30387184D01*
X118856781Y-30387184D02*
X114356781Y-30387184D01*
X113856781Y-33387184D02*
X113856781Y-30887184D01*
X113856781Y-30887184D02*
X118356781Y-30887184D01*
X118856781Y-31387184D02*
X114356781Y-31387184D01*
X113856781Y-31887184D02*
X118356781Y-31887184D01*
X118856781Y-32387184D02*
X114356781Y-32387184D01*
X113856781Y-32887184D02*
X118356781Y-32887184D01*
G04 #@! TO.C,SW21*
X99886781Y-32887184D02*
X104386781Y-32887184D01*
X104886781Y-32387184D02*
X100386781Y-32387184D01*
X99886781Y-31887184D02*
X104386781Y-31887184D01*
X104886781Y-31387184D02*
X100386781Y-31387184D01*
X99886781Y-30887184D02*
X104386781Y-30887184D01*
X99886781Y-33387184D02*
X99886781Y-30887184D01*
X104886781Y-30387184D02*
X100386781Y-30387184D01*
X104886781Y-33387184D02*
X104886781Y-30387184D01*
G04 #@! TO.C,SW22*
X90916781Y-33387184D02*
X90916781Y-30387184D01*
X90916781Y-30387184D02*
X86416781Y-30387184D01*
X85916781Y-33387184D02*
X85916781Y-30887184D01*
X85916781Y-30887184D02*
X90416781Y-30887184D01*
X90916781Y-31387184D02*
X86416781Y-31387184D01*
X85916781Y-31887184D02*
X90416781Y-31887184D01*
X90916781Y-32387184D02*
X86416781Y-32387184D01*
X85916781Y-32887184D02*
X90416781Y-32887184D01*
G04 #@! TO.C,SW23*
X71946781Y-32887184D02*
X76446781Y-32887184D01*
X76946781Y-32387184D02*
X72446781Y-32387184D01*
X71946781Y-31887184D02*
X76446781Y-31887184D01*
X76946781Y-31387184D02*
X72446781Y-31387184D01*
X71946781Y-30887184D02*
X76446781Y-30887184D01*
X71946781Y-33387184D02*
X71946781Y-30887184D01*
X76946781Y-30387184D02*
X72446781Y-30387184D01*
X76946781Y-33387184D02*
X76946781Y-30387184D01*
G04 #@! TO.C,SW24*
X62976781Y-33387184D02*
X62976781Y-30387184D01*
X62976781Y-30387184D02*
X58476781Y-30387184D01*
X57976781Y-33387184D02*
X57976781Y-30887184D01*
X57976781Y-30887184D02*
X62476781Y-30887184D01*
X62976781Y-31387184D02*
X58476781Y-31387184D01*
X57976781Y-31887184D02*
X62476781Y-31887184D01*
X62976781Y-32387184D02*
X58476781Y-32387184D01*
X57976781Y-32887184D02*
X62476781Y-32887184D01*
G04 #@! TO.C,SW25*
X44006781Y-32887184D02*
X48506781Y-32887184D01*
X49006781Y-32387184D02*
X44506781Y-32387184D01*
X44006781Y-31887184D02*
X48506781Y-31887184D01*
X49006781Y-31387184D02*
X44506781Y-31387184D01*
X44006781Y-30887184D02*
X48506781Y-30887184D01*
X44006781Y-33387184D02*
X44006781Y-30887184D01*
X49006781Y-30387184D02*
X44506781Y-30387184D01*
X49006781Y-33387184D02*
X49006781Y-30387184D01*
G04 #@! TO.C,SW26*
X32385000Y-33460000D02*
X32385000Y-30460000D01*
X32385000Y-30460000D02*
X27885000Y-30460000D01*
X27385000Y-33460000D02*
X27385000Y-30960000D01*
X27385000Y-30960000D02*
X31885000Y-30960000D01*
X32385000Y-31460000D02*
X27885000Y-31460000D01*
X27385000Y-31960000D02*
X31885000Y-31960000D01*
X32385000Y-32460000D02*
X27885000Y-32460000D01*
X27385000Y-32960000D02*
X31885000Y-32960000D01*
G04 #@! TO.C,SW27*
X198200000Y-137275000D02*
X198200000Y-140275000D01*
X198200000Y-140275000D02*
X202700000Y-140275000D01*
X203200000Y-137275000D02*
X203200000Y-139775000D01*
X203200000Y-139775000D02*
X198700000Y-139775000D01*
X198200000Y-139275000D02*
X202700000Y-139275000D01*
X203200000Y-138775000D02*
X198700000Y-138775000D01*
X198200000Y-138275000D02*
X202700000Y-138275000D01*
X203200000Y-137775000D02*
X198700000Y-137775000D01*
G04 #@! TD*
D11*
G04 #@! TO.P,U1,1*
G04 #@! TO.N,/SPKR*
X186285500Y-96775500D03*
G04 #@! TO.P,U1,2*
G04 #@! TO.N,/BTNK1_1*
X186285500Y-95975500D03*
G04 #@! TO.P,U1,3*
G04 #@! TO.N,GND*
X186285500Y-95175500D03*
G04 #@! TO.P,U1,4*
G04 #@! TO.N,/5v*
X186285500Y-94375500D03*
G04 #@! TO.P,U1,5*
G04 #@! TO.N,GND*
X186285500Y-93575500D03*
G04 #@! TO.P,U1,6*
G04 #@! TO.N,/5v*
X186285500Y-92775500D03*
G04 #@! TO.P,U1,7*
G04 #@! TO.N,/SLT_LED*
X186285500Y-91975500D03*
G04 #@! TO.P,U1,8*
G04 #@! TO.N,/SCK_LED*
X186285500Y-91175500D03*
D12*
G04 #@! TO.P,U1,9*
G04 #@! TO.N,/BTNK1_2*
X184835500Y-89725500D03*
G04 #@! TO.P,U1,10*
G04 #@! TO.N,/BTNK2_1*
X184035500Y-89725500D03*
G04 #@! TO.P,U1,11*
G04 #@! TO.N,/BTNK2_2*
X183235500Y-89725500D03*
G04 #@! TO.P,U1,12*
G04 #@! TO.N,/ON*
X182435500Y-89725500D03*
G04 #@! TO.P,U1,13*
G04 #@! TO.N,/SEN_LED*
X181635500Y-89725500D03*
G04 #@! TO.P,U1,14*
G04 #@! TO.N,/CS*
X180835500Y-89725500D03*
G04 #@! TO.P,U1,15*
G04 #@! TO.N,/MOSI*
X180035500Y-89725500D03*
G04 #@! TO.P,U1,16*
G04 #@! TO.N,/MISO*
X179235500Y-89725500D03*
D11*
G04 #@! TO.P,U1,17*
G04 #@! TO.N,/SCK*
X177785500Y-91175500D03*
G04 #@! TO.P,U1,18*
G04 #@! TO.N,/5v*
X177785500Y-91975500D03*
G04 #@! TO.P,U1,19*
G04 #@! TO.N,Net-(C8-Pad1)*
X177785500Y-92775500D03*
G04 #@! TO.P,U1,20*
G04 #@! TO.N,N/C*
X177785500Y-93575500D03*
G04 #@! TO.P,U1,21*
G04 #@! TO.N,GND*
X177785500Y-94375500D03*
G04 #@! TO.P,U1,22*
G04 #@! TO.N,Net-(R10-Pad2)*
X177785500Y-95175500D03*
G04 #@! TO.P,U1,23*
G04 #@! TO.N,/SDA_INTERNAL*
X177785500Y-95975500D03*
G04 #@! TO.P,U1,24*
G04 #@! TO.N,/SDA1*
X177785500Y-96775500D03*
D12*
G04 #@! TO.P,U1,25*
G04 #@! TO.N,/SDA2*
X179235500Y-98225500D03*
G04 #@! TO.P,U1,26*
G04 #@! TO.N,/SDA3*
X180035500Y-98225500D03*
G04 #@! TO.P,U1,27*
G04 #@! TO.N,/SDA4*
X180835500Y-98225500D03*
G04 #@! TO.P,U1,28*
G04 #@! TO.N,/CHGEN*
X181635500Y-98225500D03*
G04 #@! TO.P,U1,29*
G04 #@! TO.N,/RESET*
X182435500Y-98225500D03*
G04 #@! TO.P,U1,30*
G04 #@! TO.N,/RX*
X183235500Y-98225500D03*
G04 #@! TO.P,U1,31*
G04 #@! TO.N,/TX*
X184035500Y-98225500D03*
G04 #@! TO.P,U1,32*
G04 #@! TO.N,/PWRCTL*
X184835500Y-98225500D03*
G04 #@! TD*
D13*
G04 #@! TO.P,C9,1*
G04 #@! TO.N,/5v*
X68478400Y-112903000D03*
D14*
G04 #@! TO.P,C9,2*
G04 #@! TO.N,GND*
X75978400Y-112903000D03*
G04 #@! TD*
D15*
G04 #@! TO.P,D34,1*
G04 #@! TO.N,Net-(D34-Pad1)*
X192684400Y-142062200D03*
D16*
G04 #@! TO.P,D34,2*
G04 #@! TO.N,Net-(D34-Pad2)*
X182524400Y-142062200D03*
G04 #@! TD*
D17*
G04 #@! TO.P,R30,2*
G04 #@! TO.N,/ON*
X186055000Y-128854200D03*
D18*
G04 #@! TO.P,R30,1*
G04 #@! TO.N,Net-(D34-Pad2)*
X186055000Y-136474200D03*
G04 #@! TD*
G04 #@! TO.P,R31,1*
G04 #@! TO.N,Net-(D34-Pad2)*
X182727600Y-136525000D03*
D17*
G04 #@! TO.P,R31,2*
G04 #@! TO.N,GND*
X182727600Y-128905000D03*
G04 #@! TD*
D19*
G04 #@! TO.P,D28,1*
G04 #@! TO.N,Net-(D28-Pad1)*
X129540000Y-54610000D03*
D20*
G04 #@! TO.P,D28,2*
G04 #@! TO.N,/BTNA5*
X129540000Y-62230000D03*
G04 #@! TD*
D21*
G04 #@! TO.P,J6,8*
G04 #@! TO.N,GND*
X205740000Y-124460000D03*
G04 #@! TO.P,J6,7*
X205740000Y-121920000D03*
G04 #@! TO.P,J6,6*
G04 #@! TO.N,/5v*
X205740000Y-119380000D03*
G04 #@! TO.P,J6,5*
X205740000Y-116840000D03*
G04 #@! TO.P,J6,4*
G04 #@! TO.N,GND*
X205740000Y-114300000D03*
G04 #@! TO.P,J6,3*
X205740000Y-111760000D03*
G04 #@! TO.P,J6,2*
G04 #@! TO.N,/5v*
X205740000Y-109220000D03*
D22*
G04 #@! TO.P,J6,1*
X205740000Y-106680000D03*
G04 #@! TD*
D14*
G04 #@! TO.P,SW1,1*
G04 #@! TO.N,Net-(D3-Pad1)*
X28001306Y-153924940D03*
G04 #@! TO.P,SW1,2*
G04 #@! TO.N,/BTNK1_1*
X33001306Y-153924940D03*
G04 #@! TO.P,SW1,4*
G04 #@! TO.N,N/C*
X33001306Y-158924940D03*
G04 #@! TO.P,SW1,3*
X28001306Y-158924940D03*
G04 #@! TD*
D23*
G04 #@! TO.P,D1,4*
G04 #@! TO.N,Net-(D1-Pad4)*
X117157500Y-90424000D03*
G04 #@! TO.P,D1,3*
G04 #@! TO.N,Net-(D1-Pad3)*
X115887500Y-90424000D03*
G04 #@! TO.P,D1,2*
G04 #@! TO.N,Net-(D1-Pad2)*
X114617500Y-90424000D03*
D24*
G04 #@! TO.P,D1,1*
G04 #@! TO.N,Net-(D1-Pad1)*
X113347500Y-90424000D03*
G04 #@! TD*
G04 #@! TO.P,D2,1*
G04 #@! TO.N,Net-(D1-Pad1)*
X117157500Y-97599500D03*
D23*
G04 #@! TO.P,D2,2*
G04 #@! TO.N,Net-(D2-Pad2)*
X115887500Y-97599500D03*
G04 #@! TO.P,D2,3*
G04 #@! TO.N,Net-(D1-Pad3)*
X114617500Y-97599500D03*
G04 #@! TO.P,D2,4*
G04 #@! TO.N,Net-(D1-Pad4)*
X113347500Y-97599500D03*
G04 #@! TD*
D21*
G04 #@! TO.P,J1,4*
G04 #@! TO.N,/SCK_LED*
X26670000Y-64770000D03*
G04 #@! TO.P,J1,3*
G04 #@! TO.N,/SLT_LED*
X26670000Y-62230000D03*
G04 #@! TO.P,J1,2*
G04 #@! TO.N,/SEN_LED*
X26670000Y-59690000D03*
D22*
G04 #@! TO.P,J1,1*
G04 #@! TO.N,/SDA1*
X26670000Y-57150000D03*
G04 #@! TD*
G04 #@! TO.P,J2,1*
G04 #@! TO.N,/SDA2*
X26670000Y-69850000D03*
D21*
G04 #@! TO.P,J2,2*
G04 #@! TO.N,/SEN_LED*
X26670000Y-72390000D03*
G04 #@! TO.P,J2,3*
G04 #@! TO.N,/SLT_LED*
X26670000Y-74930000D03*
G04 #@! TO.P,J2,4*
G04 #@! TO.N,/SCK_LED*
X26670000Y-77470000D03*
G04 #@! TD*
D22*
G04 #@! TO.P,J3,1*
G04 #@! TO.N,/5v*
X22860000Y-59690000D03*
D21*
G04 #@! TO.P,J3,2*
X22860000Y-62230000D03*
G04 #@! TO.P,J3,3*
G04 #@! TO.N,GND*
X22860000Y-64770000D03*
G04 #@! TO.P,J3,4*
X22860000Y-67310000D03*
G04 #@! TO.P,J3,5*
G04 #@! TO.N,/5v*
X22860000Y-69850000D03*
G04 #@! TO.P,J3,6*
X22860000Y-72390000D03*
G04 #@! TO.P,J3,7*
G04 #@! TO.N,GND*
X22860000Y-74930000D03*
G04 #@! TO.P,J3,8*
X22860000Y-77470000D03*
G04 #@! TD*
G04 #@! TO.P,J4,4*
G04 #@! TO.N,/SCK_LED*
X201930000Y-124460000D03*
G04 #@! TO.P,J4,3*
G04 #@! TO.N,/SLT_LED*
X201930000Y-121920000D03*
G04 #@! TO.P,J4,2*
G04 #@! TO.N,/SEN_LED*
X201930000Y-119380000D03*
D22*
G04 #@! TO.P,J4,1*
G04 #@! TO.N,/SDA3*
X201930000Y-116840000D03*
G04 #@! TD*
G04 #@! TO.P,J5,1*
G04 #@! TO.N,/SDA4*
X201930000Y-104140000D03*
D21*
G04 #@! TO.P,J5,2*
G04 #@! TO.N,/SEN_LED*
X201930000Y-106680000D03*
G04 #@! TO.P,J5,3*
G04 #@! TO.N,/SLT_LED*
X201930000Y-109220000D03*
G04 #@! TO.P,J5,4*
G04 #@! TO.N,/SCK_LED*
X201930000Y-111760000D03*
G04 #@! TD*
D25*
G04 #@! TO.P,Q1,1*
G04 #@! TO.N,Net-(Q1-Pad1)*
X35941000Y-98933000D03*
D26*
G04 #@! TO.P,Q1,2*
G04 #@! TO.N,/vBatt*
X38481000Y-98933000D03*
G04 #@! TO.P,Q1,3*
G04 #@! TO.N,/vUsb*
X41021000Y-98933000D03*
G04 #@! TD*
D27*
G04 #@! TO.P,Q2,2*
G04 #@! TO.N,Net-(Q2-Pad2)*
X29210000Y-85090000D03*
G04 #@! TO.P,Q2,3*
G04 #@! TO.N,Net-(Q2-Pad3)*
X30480000Y-85090000D03*
D28*
G04 #@! TO.P,Q2,1*
G04 #@! TO.N,GND*
X27940000Y-85090000D03*
G04 #@! TD*
G04 #@! TO.P,Q5,1*
G04 #@! TO.N,GND*
X106680000Y-90170000D03*
D27*
G04 #@! TO.P,Q5,3*
G04 #@! TO.N,Net-(D1-Pad2)*
X109220000Y-90170000D03*
G04 #@! TO.P,Q5,2*
G04 #@! TO.N,Net-(Q5-Pad2)*
X107950000Y-90170000D03*
G04 #@! TD*
G04 #@! TO.P,Q6,2*
G04 #@! TO.N,Net-(Q6-Pad2)*
X107950000Y-97790000D03*
G04 #@! TO.P,Q6,3*
G04 #@! TO.N,Net-(D2-Pad2)*
X106680000Y-97790000D03*
D28*
G04 #@! TO.P,Q6,1*
G04 #@! TO.N,GND*
X109220000Y-97790000D03*
G04 #@! TD*
D29*
G04 #@! TO.P,R1,2*
G04 #@! TO.N,Net-(D1-Pad4)*
X120650000Y-97790000D03*
D30*
G04 #@! TO.P,R1,1*
G04 #@! TO.N,Net-(R1-Pad1)*
X120650000Y-90170000D03*
G04 #@! TD*
G04 #@! TO.P,R2,1*
G04 #@! TO.N,Net-(R2-Pad1)*
X107950000Y-102870000D03*
D29*
G04 #@! TO.P,R2,2*
G04 #@! TO.N,Net-(D1-Pad3)*
X115570000Y-102870000D03*
G04 #@! TD*
D30*
G04 #@! TO.P,R3,1*
G04 #@! TO.N,Net-(R3-Pad1)*
X107950000Y-85090000D03*
D29*
G04 #@! TO.P,R3,2*
G04 #@! TO.N,Net-(D1-Pad1)*
X115570000Y-85090000D03*
G04 #@! TD*
D30*
G04 #@! TO.P,R15,1*
G04 #@! TO.N,/CS*
X195580000Y-78105000D03*
D29*
G04 #@! TO.P,R15,2*
G04 #@! TO.N,Net-(D32-Pad1)*
X187960000Y-78105000D03*
G04 #@! TD*
D17*
G04 #@! TO.P,U2,16*
G04 #@! TO.N,/5v*
X76200000Y-90170000D03*
G04 #@! TO.P,U2,8*
G04 #@! TO.N,GND*
X93980000Y-97790000D03*
G04 #@! TO.P,U2,15*
G04 #@! TO.N,Net-(R1-Pad1)*
X78740000Y-90170000D03*
G04 #@! TO.P,U2,7*
G04 #@! TO.N,N/C*
X91440000Y-97790000D03*
G04 #@! TO.P,U2,14*
G04 #@! TO.N,/SDA_INTERNAL*
X81280000Y-90170000D03*
G04 #@! TO.P,U2,6*
G04 #@! TO.N,N/C*
X88900000Y-97790000D03*
G04 #@! TO.P,U2,13*
G04 #@! TO.N,/SEN_LED*
X83820000Y-90170000D03*
G04 #@! TO.P,U2,5*
G04 #@! TO.N,N/C*
X86360000Y-97790000D03*
G04 #@! TO.P,U2,12*
G04 #@! TO.N,/SLT_LED*
X86360000Y-90170000D03*
G04 #@! TO.P,U2,4*
G04 #@! TO.N,Net-(R5-Pad1)*
X83820000Y-97790000D03*
G04 #@! TO.P,U2,11*
G04 #@! TO.N,/SCK_LED*
X88900000Y-90170000D03*
G04 #@! TO.P,U2,3*
G04 #@! TO.N,Net-(R4-Pad1)*
X81280000Y-97790000D03*
G04 #@! TO.P,U2,10*
G04 #@! TO.N,/5v*
X91440000Y-90170000D03*
G04 #@! TO.P,U2,2*
G04 #@! TO.N,Net-(R3-Pad1)*
X78740000Y-97790000D03*
G04 #@! TO.P,U2,9*
G04 #@! TO.N,Net-(U2-Pad9)*
X93980000Y-90170000D03*
D31*
G04 #@! TO.P,U2,1*
G04 #@! TO.N,Net-(R2-Pad1)*
X76200000Y-97790000D03*
G04 #@! TD*
G04 #@! TO.P,U3,1*
G04 #@! TO.N,/BTNA2*
X154940000Y-90170000D03*
D17*
G04 #@! TO.P,U3,9*
G04 #@! TO.N,N/C*
X137160000Y-97790000D03*
G04 #@! TO.P,U3,2*
G04 #@! TO.N,/BTNA3*
X152400000Y-90170000D03*
G04 #@! TO.P,U3,10*
G04 #@! TO.N,/5v*
X139700000Y-97790000D03*
G04 #@! TO.P,U3,3*
G04 #@! TO.N,/BTNA4*
X149860000Y-90170000D03*
G04 #@! TO.P,U3,11*
G04 #@! TO.N,/SCK_LED*
X142240000Y-97790000D03*
G04 #@! TO.P,U3,4*
G04 #@! TO.N,/BTNA5*
X147320000Y-90170000D03*
G04 #@! TO.P,U3,12*
G04 #@! TO.N,/SLT_LED*
X144780000Y-97790000D03*
G04 #@! TO.P,U3,5*
G04 #@! TO.N,/BTNA6*
X144780000Y-90170000D03*
G04 #@! TO.P,U3,13*
G04 #@! TO.N,/SEN_LED*
X147320000Y-97790000D03*
G04 #@! TO.P,U3,6*
G04 #@! TO.N,/BTNA7*
X142240000Y-90170000D03*
G04 #@! TO.P,U3,14*
G04 #@! TO.N,Net-(U2-Pad9)*
X149860000Y-97790000D03*
G04 #@! TO.P,U3,7*
G04 #@! TO.N,/SPEN*
X139700000Y-90170000D03*
G04 #@! TO.P,U3,15*
G04 #@! TO.N,/BTNA1*
X152400000Y-97790000D03*
G04 #@! TO.P,U3,8*
G04 #@! TO.N,GND*
X137160000Y-90170000D03*
G04 #@! TO.P,U3,16*
G04 #@! TO.N,/5v*
X154940000Y-97790000D03*
G04 #@! TD*
D14*
G04 #@! TO.P,SW2,3*
G04 #@! TO.N,N/C*
X41971306Y-158924940D03*
G04 #@! TO.P,SW2,4*
X46971306Y-158924940D03*
G04 #@! TO.P,SW2,2*
G04 #@! TO.N,/BTNK1_1*
X46971306Y-153924940D03*
G04 #@! TO.P,SW2,1*
G04 #@! TO.N,Net-(D4-Pad1)*
X41971306Y-153924940D03*
G04 #@! TD*
G04 #@! TO.P,SW3,1*
G04 #@! TO.N,Net-(D6-Pad1)*
X55941306Y-153924940D03*
G04 #@! TO.P,SW3,2*
G04 #@! TO.N,/BTNK1_1*
X60941306Y-153924940D03*
G04 #@! TO.P,SW3,4*
G04 #@! TO.N,N/C*
X60941306Y-158924940D03*
G04 #@! TO.P,SW3,3*
X55941306Y-158924940D03*
G04 #@! TD*
G04 #@! TO.P,SW4,3*
G04 #@! TO.N,N/C*
X69911306Y-158924940D03*
G04 #@! TO.P,SW4,4*
X74911306Y-158924940D03*
G04 #@! TO.P,SW4,2*
G04 #@! TO.N,/BTNK1_1*
X74911306Y-153924940D03*
G04 #@! TO.P,SW4,1*
G04 #@! TO.N,Net-(D7-Pad1)*
X69911306Y-153924940D03*
G04 #@! TD*
G04 #@! TO.P,SW5,1*
G04 #@! TO.N,Net-(D8-Pad1)*
X83881306Y-153924940D03*
G04 #@! TO.P,SW5,2*
G04 #@! TO.N,/BTNK1_1*
X88881306Y-153924940D03*
G04 #@! TO.P,SW5,4*
G04 #@! TO.N,N/C*
X88881306Y-158924940D03*
G04 #@! TO.P,SW5,3*
X83881306Y-158924940D03*
G04 #@! TD*
G04 #@! TO.P,SW6,3*
G04 #@! TO.N,N/C*
X97851306Y-158924940D03*
G04 #@! TO.P,SW6,4*
X102851306Y-158924940D03*
G04 #@! TO.P,SW6,2*
G04 #@! TO.N,/BTNK1_1*
X102851306Y-153924940D03*
G04 #@! TO.P,SW6,1*
G04 #@! TO.N,Net-(D9-Pad1)*
X97851306Y-153924940D03*
G04 #@! TD*
G04 #@! TO.P,SW7,1*
G04 #@! TO.N,Net-(D10-Pad1)*
X111821306Y-153924940D03*
G04 #@! TO.P,SW7,2*
G04 #@! TO.N,/BTNK1_1*
X116821306Y-153924940D03*
G04 #@! TO.P,SW7,4*
G04 #@! TO.N,N/C*
X116821306Y-158924940D03*
G04 #@! TO.P,SW7,3*
X111821306Y-158924940D03*
G04 #@! TD*
G04 #@! TO.P,SW8,3*
G04 #@! TO.N,N/C*
X125791306Y-158924940D03*
G04 #@! TO.P,SW8,4*
X130791306Y-158924940D03*
G04 #@! TO.P,SW8,2*
G04 #@! TO.N,/BTNK1_2*
X130791306Y-153924940D03*
G04 #@! TO.P,SW8,1*
G04 #@! TO.N,Net-(D11-Pad1)*
X125791306Y-153924940D03*
G04 #@! TD*
G04 #@! TO.P,SW9,1*
G04 #@! TO.N,Net-(D12-Pad1)*
X139761306Y-153924940D03*
G04 #@! TO.P,SW9,2*
G04 #@! TO.N,/BTNK1_2*
X144761306Y-153924940D03*
G04 #@! TO.P,SW9,4*
G04 #@! TO.N,N/C*
X144761306Y-158924940D03*
G04 #@! TO.P,SW9,3*
X139761306Y-158924940D03*
G04 #@! TD*
G04 #@! TO.P,SW10,3*
G04 #@! TO.N,N/C*
X153731306Y-158924940D03*
G04 #@! TO.P,SW10,4*
X158731306Y-158924940D03*
G04 #@! TO.P,SW10,2*
G04 #@! TO.N,/BTNK1_2*
X158731306Y-153924940D03*
G04 #@! TO.P,SW10,1*
G04 #@! TO.N,Net-(D13-Pad1)*
X153731306Y-153924940D03*
G04 #@! TD*
G04 #@! TO.P,SW11,1*
G04 #@! TO.N,Net-(D14-Pad1)*
X167701306Y-153924940D03*
G04 #@! TO.P,SW11,2*
G04 #@! TO.N,/BTNK1_2*
X172701306Y-153924940D03*
G04 #@! TO.P,SW11,4*
G04 #@! TO.N,N/C*
X172701306Y-158924940D03*
G04 #@! TO.P,SW11,3*
X167701306Y-158924940D03*
G04 #@! TD*
G04 #@! TO.P,SW12,3*
G04 #@! TO.N,N/C*
X181671306Y-158924940D03*
G04 #@! TO.P,SW12,4*
X186671306Y-158924940D03*
G04 #@! TO.P,SW12,2*
G04 #@! TO.N,/BTNK1_2*
X186671306Y-153924940D03*
G04 #@! TO.P,SW12,1*
G04 #@! TO.N,Net-(D15-Pad1)*
X181671306Y-153924940D03*
G04 #@! TD*
G04 #@! TO.P,SW13,1*
G04 #@! TO.N,Net-(D16-Pad1)*
X198181306Y-153924940D03*
G04 #@! TO.P,SW13,2*
G04 #@! TO.N,/BTNK1_2*
X203181306Y-153924940D03*
G04 #@! TO.P,SW13,4*
G04 #@! TO.N,N/C*
X203181306Y-158924940D03*
G04 #@! TO.P,SW13,3*
X198181306Y-158924940D03*
G04 #@! TD*
G04 #@! TO.P,SW14,1*
G04 #@! TO.N,Net-(D17-Pad1)*
X202676781Y-34137184D03*
G04 #@! TO.P,SW14,2*
G04 #@! TO.N,/BTNK2_1*
X197676781Y-34137184D03*
G04 #@! TO.P,SW14,4*
G04 #@! TO.N,N/C*
X197676781Y-29137184D03*
G04 #@! TO.P,SW14,3*
X202676781Y-29137184D03*
G04 #@! TD*
G04 #@! TO.P,SW15,3*
G04 #@! TO.N,N/C*
X188706781Y-29137184D03*
G04 #@! TO.P,SW15,4*
X183706781Y-29137184D03*
G04 #@! TO.P,SW15,2*
G04 #@! TO.N,/BTNK2_1*
X183706781Y-34137184D03*
G04 #@! TO.P,SW15,1*
G04 #@! TO.N,Net-(D18-Pad1)*
X188706781Y-34137184D03*
G04 #@! TD*
G04 #@! TO.P,SW16,1*
G04 #@! TO.N,Net-(D19-Pad1)*
X174736781Y-34137184D03*
G04 #@! TO.P,SW16,2*
G04 #@! TO.N,/BTNK2_1*
X169736781Y-34137184D03*
G04 #@! TO.P,SW16,4*
G04 #@! TO.N,N/C*
X169736781Y-29137184D03*
G04 #@! TO.P,SW16,3*
X174736781Y-29137184D03*
G04 #@! TD*
G04 #@! TO.P,SW17,3*
G04 #@! TO.N,N/C*
X160766781Y-29137184D03*
G04 #@! TO.P,SW17,4*
X155766781Y-29137184D03*
G04 #@! TO.P,SW17,2*
G04 #@! TO.N,/BTNK2_1*
X155766781Y-34137184D03*
G04 #@! TO.P,SW17,1*
G04 #@! TO.N,Net-(D20-Pad1)*
X160766781Y-34137184D03*
G04 #@! TD*
G04 #@! TO.P,SW18,1*
G04 #@! TO.N,Net-(D21-Pad1)*
X146796781Y-34137184D03*
G04 #@! TO.P,SW18,2*
G04 #@! TO.N,/BTNK2_1*
X141796781Y-34137184D03*
G04 #@! TO.P,SW18,4*
G04 #@! TO.N,N/C*
X141796781Y-29137184D03*
G04 #@! TO.P,SW18,3*
X146796781Y-29137184D03*
G04 #@! TD*
G04 #@! TO.P,SW19,3*
G04 #@! TO.N,N/C*
X132826781Y-29137184D03*
G04 #@! TO.P,SW19,4*
X127826781Y-29137184D03*
G04 #@! TO.P,SW19,2*
G04 #@! TO.N,/BTNK2_1*
X127826781Y-34137184D03*
G04 #@! TO.P,SW19,1*
G04 #@! TO.N,Net-(D22-Pad1)*
X132826781Y-34137184D03*
G04 #@! TD*
G04 #@! TO.P,SW20,1*
G04 #@! TO.N,Net-(D23-Pad1)*
X118856781Y-34137184D03*
G04 #@! TO.P,SW20,2*
G04 #@! TO.N,/BTNK2_1*
X113856781Y-34137184D03*
G04 #@! TO.P,SW20,4*
G04 #@! TO.N,N/C*
X113856781Y-29137184D03*
G04 #@! TO.P,SW20,3*
X118856781Y-29137184D03*
G04 #@! TD*
G04 #@! TO.P,SW21,3*
G04 #@! TO.N,N/C*
X104886781Y-29137184D03*
G04 #@! TO.P,SW21,4*
X99886781Y-29137184D03*
G04 #@! TO.P,SW21,2*
G04 #@! TO.N,/BTNK2_2*
X99886781Y-34137184D03*
G04 #@! TO.P,SW21,1*
G04 #@! TO.N,Net-(D24-Pad1)*
X104886781Y-34137184D03*
G04 #@! TD*
G04 #@! TO.P,SW22,1*
G04 #@! TO.N,Net-(D25-Pad1)*
X90916781Y-34137184D03*
G04 #@! TO.P,SW22,2*
G04 #@! TO.N,/BTNK2_2*
X85916781Y-34137184D03*
G04 #@! TO.P,SW22,4*
G04 #@! TO.N,N/C*
X85916781Y-29137184D03*
G04 #@! TO.P,SW22,3*
X90916781Y-29137184D03*
G04 #@! TD*
G04 #@! TO.P,SW23,3*
G04 #@! TO.N,N/C*
X76946781Y-29137184D03*
G04 #@! TO.P,SW23,4*
X71946781Y-29137184D03*
G04 #@! TO.P,SW23,2*
G04 #@! TO.N,/BTNK2_2*
X71946781Y-34137184D03*
G04 #@! TO.P,SW23,1*
G04 #@! TO.N,Net-(D26-Pad1)*
X76946781Y-34137184D03*
G04 #@! TD*
G04 #@! TO.P,SW24,1*
G04 #@! TO.N,Net-(D27-Pad1)*
X62976781Y-34137184D03*
G04 #@! TO.P,SW24,2*
G04 #@! TO.N,/BTNK2_2*
X57976781Y-34137184D03*
G04 #@! TO.P,SW24,4*
G04 #@! TO.N,N/C*
X57976781Y-29137184D03*
G04 #@! TO.P,SW24,3*
X62976781Y-29137184D03*
G04 #@! TD*
G04 #@! TO.P,SW25,3*
G04 #@! TO.N,N/C*
X49006781Y-29137184D03*
G04 #@! TO.P,SW25,4*
X44006781Y-29137184D03*
G04 #@! TO.P,SW25,2*
G04 #@! TO.N,/BTNK2_2*
X44006781Y-34137184D03*
G04 #@! TO.P,SW25,1*
G04 #@! TO.N,Net-(D28-Pad1)*
X49006781Y-34137184D03*
G04 #@! TD*
G04 #@! TO.P,SW26,1*
G04 #@! TO.N,Net-(D29-Pad1)*
X32385000Y-34210000D03*
G04 #@! TO.P,SW26,2*
G04 #@! TO.N,/BTNK2_2*
X27385000Y-34210000D03*
G04 #@! TO.P,SW26,4*
G04 #@! TO.N,N/C*
X27385000Y-29210000D03*
G04 #@! TO.P,SW26,3*
X32385000Y-29210000D03*
G04 #@! TD*
D22*
G04 #@! TO.P,J7,1*
G04 #@! TO.N,/vBatt*
X22225000Y-115570000D03*
D21*
G04 #@! TO.P,J7,2*
G04 #@! TO.N,GND*
X22225000Y-118110000D03*
G04 #@! TD*
D32*
G04 #@! TO.N,Net-(C2-Pad1)*
G04 #@! TO.C,C2*
G36*
X50772142Y-113227174D02*
X50795803Y-113230684D01*
X50819007Y-113236496D01*
X50841529Y-113244554D01*
X50863153Y-113254782D01*
X50883670Y-113267079D01*
X50902883Y-113281329D01*
X50920607Y-113297393D01*
X50936671Y-113315117D01*
X50950921Y-113334330D01*
X50963218Y-113354847D01*
X50973446Y-113376471D01*
X50981504Y-113398993D01*
X50987316Y-113422197D01*
X50990826Y-113445858D01*
X50992000Y-113469750D01*
X50992000Y-113957250D01*
X50990826Y-113981142D01*
X50987316Y-114004803D01*
X50981504Y-114028007D01*
X50973446Y-114050529D01*
X50963218Y-114072153D01*
X50950921Y-114092670D01*
X50936671Y-114111883D01*
X50920607Y-114129607D01*
X50902883Y-114145671D01*
X50883670Y-114159921D01*
X50863153Y-114172218D01*
X50841529Y-114182446D01*
X50819007Y-114190504D01*
X50795803Y-114196316D01*
X50772142Y-114199826D01*
X50748250Y-114201000D01*
X49835750Y-114201000D01*
X49811858Y-114199826D01*
X49788197Y-114196316D01*
X49764993Y-114190504D01*
X49742471Y-114182446D01*
X49720847Y-114172218D01*
X49700330Y-114159921D01*
X49681117Y-114145671D01*
X49663393Y-114129607D01*
X49647329Y-114111883D01*
X49633079Y-114092670D01*
X49620782Y-114072153D01*
X49610554Y-114050529D01*
X49602496Y-114028007D01*
X49596684Y-114004803D01*
X49593174Y-113981142D01*
X49592000Y-113957250D01*
X49592000Y-113469750D01*
X49593174Y-113445858D01*
X49596684Y-113422197D01*
X49602496Y-113398993D01*
X49610554Y-113376471D01*
X49620782Y-113354847D01*
X49633079Y-113334330D01*
X49647329Y-113315117D01*
X49663393Y-113297393D01*
X49681117Y-113281329D01*
X49700330Y-113267079D01*
X49720847Y-113254782D01*
X49742471Y-113244554D01*
X49764993Y-113236496D01*
X49788197Y-113230684D01*
X49811858Y-113227174D01*
X49835750Y-113226000D01*
X50748250Y-113226000D01*
X50772142Y-113227174D01*
X50772142Y-113227174D01*
G37*
D33*
G04 #@! TD*
G04 #@! TO.P,C2,1*
G04 #@! TO.N,Net-(C2-Pad1)*
X50292000Y-113713500D03*
D32*
G04 #@! TO.N,GND*
G04 #@! TO.C,C2*
G36*
X50772142Y-111352174D02*
X50795803Y-111355684D01*
X50819007Y-111361496D01*
X50841529Y-111369554D01*
X50863153Y-111379782D01*
X50883670Y-111392079D01*
X50902883Y-111406329D01*
X50920607Y-111422393D01*
X50936671Y-111440117D01*
X50950921Y-111459330D01*
X50963218Y-111479847D01*
X50973446Y-111501471D01*
X50981504Y-111523993D01*
X50987316Y-111547197D01*
X50990826Y-111570858D01*
X50992000Y-111594750D01*
X50992000Y-112082250D01*
X50990826Y-112106142D01*
X50987316Y-112129803D01*
X50981504Y-112153007D01*
X50973446Y-112175529D01*
X50963218Y-112197153D01*
X50950921Y-112217670D01*
X50936671Y-112236883D01*
X50920607Y-112254607D01*
X50902883Y-112270671D01*
X50883670Y-112284921D01*
X50863153Y-112297218D01*
X50841529Y-112307446D01*
X50819007Y-112315504D01*
X50795803Y-112321316D01*
X50772142Y-112324826D01*
X50748250Y-112326000D01*
X49835750Y-112326000D01*
X49811858Y-112324826D01*
X49788197Y-112321316D01*
X49764993Y-112315504D01*
X49742471Y-112307446D01*
X49720847Y-112297218D01*
X49700330Y-112284921D01*
X49681117Y-112270671D01*
X49663393Y-112254607D01*
X49647329Y-112236883D01*
X49633079Y-112217670D01*
X49620782Y-112197153D01*
X49610554Y-112175529D01*
X49602496Y-112153007D01*
X49596684Y-112129803D01*
X49593174Y-112106142D01*
X49592000Y-112082250D01*
X49592000Y-111594750D01*
X49593174Y-111570858D01*
X49596684Y-111547197D01*
X49602496Y-111523993D01*
X49610554Y-111501471D01*
X49620782Y-111479847D01*
X49633079Y-111459330D01*
X49647329Y-111440117D01*
X49663393Y-111422393D01*
X49681117Y-111406329D01*
X49700330Y-111392079D01*
X49720847Y-111379782D01*
X49742471Y-111369554D01*
X49764993Y-111361496D01*
X49788197Y-111355684D01*
X49811858Y-111352174D01*
X49835750Y-111351000D01*
X50748250Y-111351000D01*
X50772142Y-111352174D01*
X50772142Y-111352174D01*
G37*
D33*
G04 #@! TD*
G04 #@! TO.P,C2,2*
G04 #@! TO.N,GND*
X50292000Y-111838500D03*
D32*
G04 #@! TO.N,GND*
G04 #@! TO.C,C3*
G36*
X48105142Y-115259174D02*
X48128803Y-115262684D01*
X48152007Y-115268496D01*
X48174529Y-115276554D01*
X48196153Y-115286782D01*
X48216670Y-115299079D01*
X48235883Y-115313329D01*
X48253607Y-115329393D01*
X48269671Y-115347117D01*
X48283921Y-115366330D01*
X48296218Y-115386847D01*
X48306446Y-115408471D01*
X48314504Y-115430993D01*
X48320316Y-115454197D01*
X48323826Y-115477858D01*
X48325000Y-115501750D01*
X48325000Y-115989250D01*
X48323826Y-116013142D01*
X48320316Y-116036803D01*
X48314504Y-116060007D01*
X48306446Y-116082529D01*
X48296218Y-116104153D01*
X48283921Y-116124670D01*
X48269671Y-116143883D01*
X48253607Y-116161607D01*
X48235883Y-116177671D01*
X48216670Y-116191921D01*
X48196153Y-116204218D01*
X48174529Y-116214446D01*
X48152007Y-116222504D01*
X48128803Y-116228316D01*
X48105142Y-116231826D01*
X48081250Y-116233000D01*
X47168750Y-116233000D01*
X47144858Y-116231826D01*
X47121197Y-116228316D01*
X47097993Y-116222504D01*
X47075471Y-116214446D01*
X47053847Y-116204218D01*
X47033330Y-116191921D01*
X47014117Y-116177671D01*
X46996393Y-116161607D01*
X46980329Y-116143883D01*
X46966079Y-116124670D01*
X46953782Y-116104153D01*
X46943554Y-116082529D01*
X46935496Y-116060007D01*
X46929684Y-116036803D01*
X46926174Y-116013142D01*
X46925000Y-115989250D01*
X46925000Y-115501750D01*
X46926174Y-115477858D01*
X46929684Y-115454197D01*
X46935496Y-115430993D01*
X46943554Y-115408471D01*
X46953782Y-115386847D01*
X46966079Y-115366330D01*
X46980329Y-115347117D01*
X46996393Y-115329393D01*
X47014117Y-115313329D01*
X47033330Y-115299079D01*
X47053847Y-115286782D01*
X47075471Y-115276554D01*
X47097993Y-115268496D01*
X47121197Y-115262684D01*
X47144858Y-115259174D01*
X47168750Y-115258000D01*
X48081250Y-115258000D01*
X48105142Y-115259174D01*
X48105142Y-115259174D01*
G37*
D33*
G04 #@! TD*
G04 #@! TO.P,C3,2*
G04 #@! TO.N,GND*
X47625000Y-115745500D03*
D32*
G04 #@! TO.N,Net-(C3-Pad1)*
G04 #@! TO.C,C3*
G36*
X48105142Y-113384174D02*
X48128803Y-113387684D01*
X48152007Y-113393496D01*
X48174529Y-113401554D01*
X48196153Y-113411782D01*
X48216670Y-113424079D01*
X48235883Y-113438329D01*
X48253607Y-113454393D01*
X48269671Y-113472117D01*
X48283921Y-113491330D01*
X48296218Y-113511847D01*
X48306446Y-113533471D01*
X48314504Y-113555993D01*
X48320316Y-113579197D01*
X48323826Y-113602858D01*
X48325000Y-113626750D01*
X48325000Y-114114250D01*
X48323826Y-114138142D01*
X48320316Y-114161803D01*
X48314504Y-114185007D01*
X48306446Y-114207529D01*
X48296218Y-114229153D01*
X48283921Y-114249670D01*
X48269671Y-114268883D01*
X48253607Y-114286607D01*
X48235883Y-114302671D01*
X48216670Y-114316921D01*
X48196153Y-114329218D01*
X48174529Y-114339446D01*
X48152007Y-114347504D01*
X48128803Y-114353316D01*
X48105142Y-114356826D01*
X48081250Y-114358000D01*
X47168750Y-114358000D01*
X47144858Y-114356826D01*
X47121197Y-114353316D01*
X47097993Y-114347504D01*
X47075471Y-114339446D01*
X47053847Y-114329218D01*
X47033330Y-114316921D01*
X47014117Y-114302671D01*
X46996393Y-114286607D01*
X46980329Y-114268883D01*
X46966079Y-114249670D01*
X46953782Y-114229153D01*
X46943554Y-114207529D01*
X46935496Y-114185007D01*
X46929684Y-114161803D01*
X46926174Y-114138142D01*
X46925000Y-114114250D01*
X46925000Y-113626750D01*
X46926174Y-113602858D01*
X46929684Y-113579197D01*
X46935496Y-113555993D01*
X46943554Y-113533471D01*
X46953782Y-113511847D01*
X46966079Y-113491330D01*
X46980329Y-113472117D01*
X46996393Y-113454393D01*
X47014117Y-113438329D01*
X47033330Y-113424079D01*
X47053847Y-113411782D01*
X47075471Y-113401554D01*
X47097993Y-113393496D01*
X47121197Y-113387684D01*
X47144858Y-113384174D01*
X47168750Y-113383000D01*
X48081250Y-113383000D01*
X48105142Y-113384174D01*
X48105142Y-113384174D01*
G37*
D33*
G04 #@! TD*
G04 #@! TO.P,C3,1*
G04 #@! TO.N,Net-(C3-Pad1)*
X47625000Y-113870500D03*
D32*
G04 #@! TO.N,GND*
G04 #@! TO.C,C5*
G36*
X52513142Y-108394174D02*
X52536803Y-108397684D01*
X52560007Y-108403496D01*
X52582529Y-108411554D01*
X52604153Y-108421782D01*
X52624670Y-108434079D01*
X52643883Y-108448329D01*
X52661607Y-108464393D01*
X52677671Y-108482117D01*
X52691921Y-108501330D01*
X52704218Y-108521847D01*
X52714446Y-108543471D01*
X52722504Y-108565993D01*
X52728316Y-108589197D01*
X52731826Y-108612858D01*
X52733000Y-108636750D01*
X52733000Y-109549250D01*
X52731826Y-109573142D01*
X52728316Y-109596803D01*
X52722504Y-109620007D01*
X52714446Y-109642529D01*
X52704218Y-109664153D01*
X52691921Y-109684670D01*
X52677671Y-109703883D01*
X52661607Y-109721607D01*
X52643883Y-109737671D01*
X52624670Y-109751921D01*
X52604153Y-109764218D01*
X52582529Y-109774446D01*
X52560007Y-109782504D01*
X52536803Y-109788316D01*
X52513142Y-109791826D01*
X52489250Y-109793000D01*
X52001750Y-109793000D01*
X51977858Y-109791826D01*
X51954197Y-109788316D01*
X51930993Y-109782504D01*
X51908471Y-109774446D01*
X51886847Y-109764218D01*
X51866330Y-109751921D01*
X51847117Y-109737671D01*
X51829393Y-109721607D01*
X51813329Y-109703883D01*
X51799079Y-109684670D01*
X51786782Y-109664153D01*
X51776554Y-109642529D01*
X51768496Y-109620007D01*
X51762684Y-109596803D01*
X51759174Y-109573142D01*
X51758000Y-109549250D01*
X51758000Y-108636750D01*
X51759174Y-108612858D01*
X51762684Y-108589197D01*
X51768496Y-108565993D01*
X51776554Y-108543471D01*
X51786782Y-108521847D01*
X51799079Y-108501330D01*
X51813329Y-108482117D01*
X51829393Y-108464393D01*
X51847117Y-108448329D01*
X51866330Y-108434079D01*
X51886847Y-108421782D01*
X51908471Y-108411554D01*
X51930993Y-108403496D01*
X51954197Y-108397684D01*
X51977858Y-108394174D01*
X52001750Y-108393000D01*
X52489250Y-108393000D01*
X52513142Y-108394174D01*
X52513142Y-108394174D01*
G37*
D33*
G04 #@! TD*
G04 #@! TO.P,C5,2*
G04 #@! TO.N,GND*
X52245500Y-109093000D03*
D32*
G04 #@! TO.N,/5v*
G04 #@! TO.C,C5*
G36*
X50638142Y-108394174D02*
X50661803Y-108397684D01*
X50685007Y-108403496D01*
X50707529Y-108411554D01*
X50729153Y-108421782D01*
X50749670Y-108434079D01*
X50768883Y-108448329D01*
X50786607Y-108464393D01*
X50802671Y-108482117D01*
X50816921Y-108501330D01*
X50829218Y-108521847D01*
X50839446Y-108543471D01*
X50847504Y-108565993D01*
X50853316Y-108589197D01*
X50856826Y-108612858D01*
X50858000Y-108636750D01*
X50858000Y-109549250D01*
X50856826Y-109573142D01*
X50853316Y-109596803D01*
X50847504Y-109620007D01*
X50839446Y-109642529D01*
X50829218Y-109664153D01*
X50816921Y-109684670D01*
X50802671Y-109703883D01*
X50786607Y-109721607D01*
X50768883Y-109737671D01*
X50749670Y-109751921D01*
X50729153Y-109764218D01*
X50707529Y-109774446D01*
X50685007Y-109782504D01*
X50661803Y-109788316D01*
X50638142Y-109791826D01*
X50614250Y-109793000D01*
X50126750Y-109793000D01*
X50102858Y-109791826D01*
X50079197Y-109788316D01*
X50055993Y-109782504D01*
X50033471Y-109774446D01*
X50011847Y-109764218D01*
X49991330Y-109751921D01*
X49972117Y-109737671D01*
X49954393Y-109721607D01*
X49938329Y-109703883D01*
X49924079Y-109684670D01*
X49911782Y-109664153D01*
X49901554Y-109642529D01*
X49893496Y-109620007D01*
X49887684Y-109596803D01*
X49884174Y-109573142D01*
X49883000Y-109549250D01*
X49883000Y-108636750D01*
X49884174Y-108612858D01*
X49887684Y-108589197D01*
X49893496Y-108565993D01*
X49901554Y-108543471D01*
X49911782Y-108521847D01*
X49924079Y-108501330D01*
X49938329Y-108482117D01*
X49954393Y-108464393D01*
X49972117Y-108448329D01*
X49991330Y-108434079D01*
X50011847Y-108421782D01*
X50033471Y-108411554D01*
X50055993Y-108403496D01*
X50079197Y-108397684D01*
X50102858Y-108394174D01*
X50126750Y-108393000D01*
X50614250Y-108393000D01*
X50638142Y-108394174D01*
X50638142Y-108394174D01*
G37*
D33*
G04 #@! TD*
G04 #@! TO.P,C5,1*
G04 #@! TO.N,/5v*
X50370500Y-109093000D03*
D32*
G04 #@! TO.N,/vBatt*
G04 #@! TO.C,C6*
G36*
X40231142Y-111176674D02*
X40254803Y-111180184D01*
X40278007Y-111185996D01*
X40300529Y-111194054D01*
X40322153Y-111204282D01*
X40342670Y-111216579D01*
X40361883Y-111230829D01*
X40379607Y-111246893D01*
X40395671Y-111264617D01*
X40409921Y-111283830D01*
X40422218Y-111304347D01*
X40432446Y-111325971D01*
X40440504Y-111348493D01*
X40446316Y-111371697D01*
X40449826Y-111395358D01*
X40451000Y-111419250D01*
X40451000Y-111906750D01*
X40449826Y-111930642D01*
X40446316Y-111954303D01*
X40440504Y-111977507D01*
X40432446Y-112000029D01*
X40422218Y-112021653D01*
X40409921Y-112042170D01*
X40395671Y-112061383D01*
X40379607Y-112079107D01*
X40361883Y-112095171D01*
X40342670Y-112109421D01*
X40322153Y-112121718D01*
X40300529Y-112131946D01*
X40278007Y-112140004D01*
X40254803Y-112145816D01*
X40231142Y-112149326D01*
X40207250Y-112150500D01*
X39294750Y-112150500D01*
X39270858Y-112149326D01*
X39247197Y-112145816D01*
X39223993Y-112140004D01*
X39201471Y-112131946D01*
X39179847Y-112121718D01*
X39159330Y-112109421D01*
X39140117Y-112095171D01*
X39122393Y-112079107D01*
X39106329Y-112061383D01*
X39092079Y-112042170D01*
X39079782Y-112021653D01*
X39069554Y-112000029D01*
X39061496Y-111977507D01*
X39055684Y-111954303D01*
X39052174Y-111930642D01*
X39051000Y-111906750D01*
X39051000Y-111419250D01*
X39052174Y-111395358D01*
X39055684Y-111371697D01*
X39061496Y-111348493D01*
X39069554Y-111325971D01*
X39079782Y-111304347D01*
X39092079Y-111283830D01*
X39106329Y-111264617D01*
X39122393Y-111246893D01*
X39140117Y-111230829D01*
X39159330Y-111216579D01*
X39179847Y-111204282D01*
X39201471Y-111194054D01*
X39223993Y-111185996D01*
X39247197Y-111180184D01*
X39270858Y-111176674D01*
X39294750Y-111175500D01*
X40207250Y-111175500D01*
X40231142Y-111176674D01*
X40231142Y-111176674D01*
G37*
D33*
G04 #@! TD*
G04 #@! TO.P,C6,1*
G04 #@! TO.N,/vBatt*
X39751000Y-111663000D03*
D32*
G04 #@! TO.N,GND*
G04 #@! TO.C,C6*
G36*
X40231142Y-113051674D02*
X40254803Y-113055184D01*
X40278007Y-113060996D01*
X40300529Y-113069054D01*
X40322153Y-113079282D01*
X40342670Y-113091579D01*
X40361883Y-113105829D01*
X40379607Y-113121893D01*
X40395671Y-113139617D01*
X40409921Y-113158830D01*
X40422218Y-113179347D01*
X40432446Y-113200971D01*
X40440504Y-113223493D01*
X40446316Y-113246697D01*
X40449826Y-113270358D01*
X40451000Y-113294250D01*
X40451000Y-113781750D01*
X40449826Y-113805642D01*
X40446316Y-113829303D01*
X40440504Y-113852507D01*
X40432446Y-113875029D01*
X40422218Y-113896653D01*
X40409921Y-113917170D01*
X40395671Y-113936383D01*
X40379607Y-113954107D01*
X40361883Y-113970171D01*
X40342670Y-113984421D01*
X40322153Y-113996718D01*
X40300529Y-114006946D01*
X40278007Y-114015004D01*
X40254803Y-114020816D01*
X40231142Y-114024326D01*
X40207250Y-114025500D01*
X39294750Y-114025500D01*
X39270858Y-114024326D01*
X39247197Y-114020816D01*
X39223993Y-114015004D01*
X39201471Y-114006946D01*
X39179847Y-113996718D01*
X39159330Y-113984421D01*
X39140117Y-113970171D01*
X39122393Y-113954107D01*
X39106329Y-113936383D01*
X39092079Y-113917170D01*
X39079782Y-113896653D01*
X39069554Y-113875029D01*
X39061496Y-113852507D01*
X39055684Y-113829303D01*
X39052174Y-113805642D01*
X39051000Y-113781750D01*
X39051000Y-113294250D01*
X39052174Y-113270358D01*
X39055684Y-113246697D01*
X39061496Y-113223493D01*
X39069554Y-113200971D01*
X39079782Y-113179347D01*
X39092079Y-113158830D01*
X39106329Y-113139617D01*
X39122393Y-113121893D01*
X39140117Y-113105829D01*
X39159330Y-113091579D01*
X39179847Y-113079282D01*
X39201471Y-113069054D01*
X39223993Y-113060996D01*
X39247197Y-113055184D01*
X39270858Y-113051674D01*
X39294750Y-113050500D01*
X40207250Y-113050500D01*
X40231142Y-113051674D01*
X40231142Y-113051674D01*
G37*
D33*
G04 #@! TD*
G04 #@! TO.P,C6,2*
G04 #@! TO.N,GND*
X39751000Y-113538000D03*
D16*
G04 #@! TO.P,D33,2*
G04 #@! TO.N,/vUsb*
X45085000Y-100330000D03*
D15*
G04 #@! TO.P,D33,1*
G04 #@! TO.N,/5v*
X55245000Y-100330000D03*
G04 #@! TD*
D34*
G04 #@! TO.P,J9,1*
G04 #@! TO.N,/vUsb*
X26576000Y-92380000D03*
G04 #@! TO.P,J9,2*
G04 #@! TO.N,N/C*
X26576000Y-93180000D03*
G04 #@! TO.P,J9,3*
X26576000Y-93980000D03*
G04 #@! TO.P,J9,4*
X26576000Y-94780000D03*
G04 #@! TO.P,J9,5*
G04 #@! TO.N,GND*
X26576000Y-95580000D03*
D35*
G04 #@! TO.P,J9,6*
X26476000Y-89530000D03*
X21026000Y-89530000D03*
X26476000Y-98430000D03*
X21026000Y-98430000D03*
G04 #@! TD*
D30*
G04 #@! TO.P,R12,1*
G04 #@! TO.N,/MOSI*
X195580000Y-73025000D03*
D29*
G04 #@! TO.P,R12,2*
G04 #@! TO.N,Net-(D30-Pad1)*
X187960000Y-73025000D03*
G04 #@! TD*
G04 #@! TO.P,R13,2*
G04 #@! TO.N,Net-(D5-Pad1)*
X187960000Y-80645000D03*
D30*
G04 #@! TO.P,R13,1*
G04 #@! TO.N,/MISO*
X195580000Y-80645000D03*
G04 #@! TD*
G04 #@! TO.P,R14,1*
G04 #@! TO.N,/SCK*
X195580000Y-75565000D03*
D29*
G04 #@! TO.P,R14,2*
G04 #@! TO.N,Net-(D31-Pad1)*
X187960000Y-75565000D03*
G04 #@! TD*
D36*
G04 #@! TO.P,U4,1*
G04 #@! TO.N,Net-(D32-Pad1)*
X172626000Y-86233000D03*
G04 #@! TO.P,U4,2*
G04 #@! TO.N,Net-(D5-Pad1)*
X172626000Y-84963000D03*
G04 #@! TO.P,U4,3*
G04 #@! TO.N,/3v3*
X172626000Y-83693000D03*
G04 #@! TO.P,U4,4*
G04 #@! TO.N,GND*
X172626000Y-82423000D03*
G04 #@! TO.P,U4,5*
G04 #@! TO.N,Net-(D30-Pad1)*
X167226000Y-82423000D03*
G04 #@! TO.P,U4,6*
G04 #@! TO.N,Net-(D31-Pad1)*
X167226000Y-83693000D03*
G04 #@! TO.P,U4,7*
G04 #@! TO.N,/3v3*
X167226000Y-84963000D03*
G04 #@! TO.P,U4,8*
X167226000Y-86233000D03*
G04 #@! TD*
D37*
G04 #@! TO.P,U5,11*
G04 #@! TO.N,GND*
X43850000Y-112550000D03*
X45050000Y-112550000D03*
X43850000Y-109700000D03*
X45050000Y-109700000D03*
D38*
G04 #@! TO.P,U5,1*
G04 #@! TO.N,Net-(L1-Pad2)*
X42975000Y-110125000D03*
G04 #@! TO.P,U5,2*
G04 #@! TO.N,/vBatt*
X42975000Y-110625000D03*
D39*
G04 #@! TO.P,U5,3*
G04 #@! TO.N,Net-(D34-Pad1)*
X42690000Y-111125000D03*
D38*
G04 #@! TO.P,U5,4*
G04 #@! TO.N,GND*
X42975000Y-111625000D03*
D39*
G04 #@! TO.P,U5,5*
G04 #@! TO.N,Net-(U5-Pad5)*
X42690000Y-112125000D03*
D38*
G04 #@! TO.P,U5,6*
G04 #@! TO.N,Net-(C2-Pad1)*
X45925000Y-112125000D03*
G04 #@! TO.P,U5,7*
G04 #@! TO.N,GND*
X45925000Y-111625000D03*
D39*
G04 #@! TO.P,U5,8*
G04 #@! TO.N,Net-(C3-Pad1)*
X46210000Y-111125000D03*
G04 #@! TO.P,U5,9*
G04 #@! TO.N,/5v*
X46210000Y-110625000D03*
G04 #@! TO.P,U5,10*
G04 #@! TO.N,Net-(L1-Pad1)*
X46210000Y-110125000D03*
D40*
G04 #@! TO.P,U5,11*
G04 #@! TO.N,GND*
X44450000Y-111125000D03*
X43950000Y-110625000D03*
X44950000Y-110625000D03*
X43950000Y-111625000D03*
X44950000Y-111625000D03*
D37*
X44250000Y-109700000D03*
X44650000Y-109700000D03*
X44250000Y-112550000D03*
X44650000Y-112550000D03*
D41*
X44450000Y-111125000D03*
D39*
G04 #@! TO.P,U5,1*
G04 #@! TO.N,Net-(L1-Pad2)*
X42690000Y-110125000D03*
G04 #@! TO.P,U5,2*
G04 #@! TO.N,/vBatt*
X42690000Y-110625000D03*
D38*
G04 #@! TO.P,U5,3*
G04 #@! TO.N,Net-(D34-Pad1)*
X42975000Y-111125000D03*
D39*
G04 #@! TO.P,U5,4*
G04 #@! TO.N,GND*
X42690000Y-111625000D03*
D38*
G04 #@! TO.P,U5,5*
G04 #@! TO.N,Net-(U5-Pad5)*
X42975000Y-112125000D03*
D39*
G04 #@! TO.P,U5,6*
G04 #@! TO.N,Net-(C2-Pad1)*
X46210000Y-112125000D03*
G04 #@! TO.P,U5,7*
G04 #@! TO.N,GND*
X46210000Y-111625000D03*
D38*
G04 #@! TO.P,U5,8*
G04 #@! TO.N,Net-(C3-Pad1)*
X45925000Y-111125000D03*
G04 #@! TO.P,U5,9*
G04 #@! TO.N,/5v*
X45925000Y-110625000D03*
G04 #@! TO.P,U5,10*
G04 #@! TO.N,Net-(L1-Pad1)*
X45925000Y-110125000D03*
D42*
G04 #@! TO.P,U5,11*
G04 #@! TO.N,GND*
X44015000Y-110565000D03*
X44885000Y-111685000D03*
X44015000Y-111685000D03*
X44885000Y-110565000D03*
D43*
X43850000Y-109700000D03*
X44250000Y-109700000D03*
X44650000Y-109700000D03*
X45050000Y-109700000D03*
X43850000Y-112550000D03*
X44250000Y-112550000D03*
X44650000Y-112550000D03*
X45050000Y-112550000D03*
G04 #@! TD*
D31*
G04 #@! TO.P,C1,1*
G04 #@! TO.N,/vBatt*
X51435000Y-92710000D03*
D18*
G04 #@! TO.P,C1,2*
G04 #@! TO.N,GND*
X51435000Y-90210000D03*
G04 #@! TD*
G04 #@! TO.P,C4,2*
G04 #@! TO.N,GND*
X62230000Y-90210000D03*
D31*
G04 #@! TO.P,C4,1*
G04 #@! TO.N,/5v*
X62230000Y-92710000D03*
G04 #@! TD*
D44*
G04 #@! TO.P,L1,1*
G04 #@! TO.N,Net-(L1-Pad1)*
X29337000Y-104451000D03*
G04 #@! TO.P,L1,2*
G04 #@! TO.N,Net-(L1-Pad2)*
X29337000Y-114751000D03*
G04 #@! TD*
D19*
G04 #@! TO.P,D5,1*
G04 #@! TO.N,Net-(D5-Pad1)*
X185420000Y-80645000D03*
D20*
G04 #@! TO.P,D5,2*
G04 #@! TO.N,GND*
X177800000Y-80645000D03*
G04 #@! TD*
G04 #@! TO.P,D30,2*
G04 #@! TO.N,GND*
X177800000Y-73025000D03*
D19*
G04 #@! TO.P,D30,1*
G04 #@! TO.N,Net-(D30-Pad1)*
X185420000Y-73025000D03*
G04 #@! TD*
D20*
G04 #@! TO.P,D31,2*
G04 #@! TO.N,GND*
X177800000Y-75565000D03*
D19*
G04 #@! TO.P,D31,1*
G04 #@! TO.N,Net-(D31-Pad1)*
X185420000Y-75565000D03*
G04 #@! TD*
G04 #@! TO.P,D32,1*
G04 #@! TO.N,Net-(D32-Pad1)*
X185420000Y-78105000D03*
D20*
G04 #@! TO.P,D32,2*
G04 #@! TO.N,GND*
X177800000Y-78105000D03*
G04 #@! TD*
D32*
G04 #@! TO.N,Net-(C7-Pad1)*
G04 #@! TO.C,C7*
G36*
X152880142Y-125576174D02*
X152903803Y-125579684D01*
X152927007Y-125585496D01*
X152949529Y-125593554D01*
X152971153Y-125603782D01*
X152991670Y-125616079D01*
X153010883Y-125630329D01*
X153028607Y-125646393D01*
X153044671Y-125664117D01*
X153058921Y-125683330D01*
X153071218Y-125703847D01*
X153081446Y-125725471D01*
X153089504Y-125747993D01*
X153095316Y-125771197D01*
X153098826Y-125794858D01*
X153100000Y-125818750D01*
X153100000Y-126306250D01*
X153098826Y-126330142D01*
X153095316Y-126353803D01*
X153089504Y-126377007D01*
X153081446Y-126399529D01*
X153071218Y-126421153D01*
X153058921Y-126441670D01*
X153044671Y-126460883D01*
X153028607Y-126478607D01*
X153010883Y-126494671D01*
X152991670Y-126508921D01*
X152971153Y-126521218D01*
X152949529Y-126531446D01*
X152927007Y-126539504D01*
X152903803Y-126545316D01*
X152880142Y-126548826D01*
X152856250Y-126550000D01*
X151943750Y-126550000D01*
X151919858Y-126548826D01*
X151896197Y-126545316D01*
X151872993Y-126539504D01*
X151850471Y-126531446D01*
X151828847Y-126521218D01*
X151808330Y-126508921D01*
X151789117Y-126494671D01*
X151771393Y-126478607D01*
X151755329Y-126460883D01*
X151741079Y-126441670D01*
X151728782Y-126421153D01*
X151718554Y-126399529D01*
X151710496Y-126377007D01*
X151704684Y-126353803D01*
X151701174Y-126330142D01*
X151700000Y-126306250D01*
X151700000Y-125818750D01*
X151701174Y-125794858D01*
X151704684Y-125771197D01*
X151710496Y-125747993D01*
X151718554Y-125725471D01*
X151728782Y-125703847D01*
X151741079Y-125683330D01*
X151755329Y-125664117D01*
X151771393Y-125646393D01*
X151789117Y-125630329D01*
X151808330Y-125616079D01*
X151828847Y-125603782D01*
X151850471Y-125593554D01*
X151872993Y-125585496D01*
X151896197Y-125579684D01*
X151919858Y-125576174D01*
X151943750Y-125575000D01*
X152856250Y-125575000D01*
X152880142Y-125576174D01*
X152880142Y-125576174D01*
G37*
D33*
G04 #@! TD*
G04 #@! TO.P,C7,1*
G04 #@! TO.N,Net-(C7-Pad1)*
X152400000Y-126062500D03*
D32*
G04 #@! TO.N,Net-(C7-Pad2)*
G04 #@! TO.C,C7*
G36*
X152880142Y-127451174D02*
X152903803Y-127454684D01*
X152927007Y-127460496D01*
X152949529Y-127468554D01*
X152971153Y-127478782D01*
X152991670Y-127491079D01*
X153010883Y-127505329D01*
X153028607Y-127521393D01*
X153044671Y-127539117D01*
X153058921Y-127558330D01*
X153071218Y-127578847D01*
X153081446Y-127600471D01*
X153089504Y-127622993D01*
X153095316Y-127646197D01*
X153098826Y-127669858D01*
X153100000Y-127693750D01*
X153100000Y-128181250D01*
X153098826Y-128205142D01*
X153095316Y-128228803D01*
X153089504Y-128252007D01*
X153081446Y-128274529D01*
X153071218Y-128296153D01*
X153058921Y-128316670D01*
X153044671Y-128335883D01*
X153028607Y-128353607D01*
X153010883Y-128369671D01*
X152991670Y-128383921D01*
X152971153Y-128396218D01*
X152949529Y-128406446D01*
X152927007Y-128414504D01*
X152903803Y-128420316D01*
X152880142Y-128423826D01*
X152856250Y-128425000D01*
X151943750Y-128425000D01*
X151919858Y-128423826D01*
X151896197Y-128420316D01*
X151872993Y-128414504D01*
X151850471Y-128406446D01*
X151828847Y-128396218D01*
X151808330Y-128383921D01*
X151789117Y-128369671D01*
X151771393Y-128353607D01*
X151755329Y-128335883D01*
X151741079Y-128316670D01*
X151728782Y-128296153D01*
X151718554Y-128274529D01*
X151710496Y-128252007D01*
X151704684Y-128228803D01*
X151701174Y-128205142D01*
X151700000Y-128181250D01*
X151700000Y-127693750D01*
X151701174Y-127669858D01*
X151704684Y-127646197D01*
X151710496Y-127622993D01*
X151718554Y-127600471D01*
X151728782Y-127578847D01*
X151741079Y-127558330D01*
X151755329Y-127539117D01*
X151771393Y-127521393D01*
X151789117Y-127505329D01*
X151808330Y-127491079D01*
X151828847Y-127478782D01*
X151850471Y-127468554D01*
X151872993Y-127460496D01*
X151896197Y-127454684D01*
X151919858Y-127451174D01*
X151943750Y-127450000D01*
X152856250Y-127450000D01*
X152880142Y-127451174D01*
X152880142Y-127451174D01*
G37*
D33*
G04 #@! TD*
G04 #@! TO.P,C7,2*
G04 #@! TO.N,Net-(C7-Pad2)*
X152400000Y-127937500D03*
D22*
G04 #@! TO.P,J10,1*
G04 #@! TO.N,Net-(C7-Pad1)*
X147955000Y-125730000D03*
D21*
G04 #@! TO.P,J10,2*
G04 #@! TO.N,Net-(C7-Pad2)*
X147955000Y-128270000D03*
G04 #@! TD*
D30*
G04 #@! TO.P,L2,1*
G04 #@! TO.N,Net-(L2-Pad1)*
X152781000Y-121031000D03*
D29*
G04 #@! TO.P,L2,2*
G04 #@! TO.N,Net-(C7-Pad2)*
X145161000Y-121031000D03*
G04 #@! TD*
D14*
G04 #@! TO.P,SW27,1*
G04 #@! TO.N,/vBatt*
X198200000Y-136525000D03*
G04 #@! TO.P,SW27,2*
G04 #@! TO.N,Net-(D34-Pad2)*
X203200000Y-136525000D03*
G04 #@! TO.P,SW27,4*
G04 #@! TO.N,N/C*
X203200000Y-141525000D03*
G04 #@! TO.P,SW27,3*
X198200000Y-141525000D03*
G04 #@! TD*
D45*
G04 #@! TO.P,TP1,1*
G04 #@! TO.N,/SLT_LED*
X199136000Y-93980000D03*
G04 #@! TD*
D31*
G04 #@! TO.P,U6,1*
G04 #@! TO.N,Net-(R21-Pad2)*
X122555000Y-130810000D03*
D17*
G04 #@! TO.P,U6,9*
G04 #@! TO.N,Net-(C7-Pad1)*
X140335000Y-123190000D03*
G04 #@! TO.P,U6,2*
G04 #@! TO.N,/SPKR*
X125095000Y-130810000D03*
G04 #@! TO.P,U6,10*
G04 #@! TO.N,/SPEN*
X137795000Y-123190000D03*
G04 #@! TO.P,U6,3*
G04 #@! TO.N,N/C*
X127635000Y-130810000D03*
G04 #@! TO.P,U6,11*
X135255000Y-123190000D03*
G04 #@! TO.P,U6,4*
G04 #@! TO.N,/SPEN*
X130175000Y-130810000D03*
G04 #@! TO.P,U6,12*
G04 #@! TO.N,Net-(R21-Pad2)*
X132715000Y-123190000D03*
G04 #@! TO.P,U6,5*
G04 #@! TO.N,Net-(R22-Pad1)*
X132715000Y-130810000D03*
G04 #@! TO.P,U6,13*
G04 #@! TO.N,N/C*
X130175000Y-123190000D03*
G04 #@! TO.P,U6,6*
G04 #@! TO.N,/SPKR*
X135255000Y-130810000D03*
G04 #@! TO.P,U6,14*
G04 #@! TO.N,/5v*
X127635000Y-123190000D03*
G04 #@! TO.P,U6,7*
G04 #@! TO.N,GND*
X137795000Y-130810000D03*
G04 #@! TO.P,U6,15*
G04 #@! TO.N,N/C*
X125095000Y-123190000D03*
G04 #@! TO.P,U6,8*
G04 #@! TO.N,Net-(R21-Pad2)*
X140335000Y-130810000D03*
G04 #@! TO.P,U6,16*
G04 #@! TO.N,N/C*
X122555000Y-123190000D03*
G04 #@! TD*
D30*
G04 #@! TO.P,R21,1*
G04 #@! TO.N,/5v*
X118745000Y-123825000D03*
D29*
G04 #@! TO.P,R21,2*
G04 #@! TO.N,Net-(R21-Pad2)*
X118745000Y-131445000D03*
G04 #@! TD*
D20*
G04 #@! TO.P,D3,2*
G04 #@! TO.N,/BTNA1*
X30480000Y-125730000D03*
D19*
G04 #@! TO.P,D3,1*
G04 #@! TO.N,Net-(D3-Pad1)*
X30480000Y-133350000D03*
G04 #@! TD*
G04 #@! TO.P,D4,1*
G04 #@! TO.N,Net-(D4-Pad1)*
X36830000Y-133350000D03*
D20*
G04 #@! TO.P,D4,2*
G04 #@! TO.N,/BTNA2*
X36830000Y-125730000D03*
G04 #@! TD*
G04 #@! TO.P,D6,2*
G04 #@! TO.N,/BTNA3*
X43180000Y-125730000D03*
D19*
G04 #@! TO.P,D6,1*
G04 #@! TO.N,Net-(D6-Pad1)*
X43180000Y-133350000D03*
G04 #@! TD*
G04 #@! TO.P,D7,1*
G04 #@! TO.N,Net-(D7-Pad1)*
X49530000Y-133350000D03*
D20*
G04 #@! TO.P,D7,2*
G04 #@! TO.N,/BTNA4*
X49530000Y-125730000D03*
G04 #@! TD*
G04 #@! TO.P,D8,2*
G04 #@! TO.N,/BTNA5*
X55880000Y-125730000D03*
D19*
G04 #@! TO.P,D8,1*
G04 #@! TO.N,Net-(D8-Pad1)*
X55880000Y-133350000D03*
G04 #@! TD*
G04 #@! TO.P,D9,1*
G04 #@! TO.N,Net-(D9-Pad1)*
X62230000Y-133350000D03*
D20*
G04 #@! TO.P,D9,2*
G04 #@! TO.N,/BTNA6*
X62230000Y-125730000D03*
G04 #@! TD*
D19*
G04 #@! TO.P,D10,1*
G04 #@! TO.N,Net-(D10-Pad1)*
X68580000Y-133350000D03*
D20*
G04 #@! TO.P,D10,2*
G04 #@! TO.N,/BTNA7*
X68580000Y-125730000D03*
G04 #@! TD*
G04 #@! TO.P,D11,2*
G04 #@! TO.N,/BTNA1*
X74930000Y-125730000D03*
D19*
G04 #@! TO.P,D11,1*
G04 #@! TO.N,Net-(D11-Pad1)*
X74930000Y-133350000D03*
G04 #@! TD*
G04 #@! TO.P,D12,1*
G04 #@! TO.N,Net-(D12-Pad1)*
X81280000Y-133350000D03*
D20*
G04 #@! TO.P,D12,2*
G04 #@! TO.N,/BTNA2*
X81280000Y-125730000D03*
G04 #@! TD*
G04 #@! TO.P,D13,2*
G04 #@! TO.N,/BTNA3*
X87630000Y-125730000D03*
D19*
G04 #@! TO.P,D13,1*
G04 #@! TO.N,Net-(D13-Pad1)*
X87630000Y-133350000D03*
G04 #@! TD*
G04 #@! TO.P,D14,1*
G04 #@! TO.N,Net-(D14-Pad1)*
X93980000Y-133350000D03*
D20*
G04 #@! TO.P,D14,2*
G04 #@! TO.N,/BTNA4*
X93980000Y-125730000D03*
G04 #@! TD*
G04 #@! TO.P,D15,2*
G04 #@! TO.N,/BTNA5*
X100330000Y-125730000D03*
D19*
G04 #@! TO.P,D15,1*
G04 #@! TO.N,Net-(D15-Pad1)*
X100330000Y-133350000D03*
G04 #@! TD*
D20*
G04 #@! TO.P,D16,2*
G04 #@! TO.N,/BTNA6*
X106680000Y-125730000D03*
D19*
G04 #@! TO.P,D16,1*
G04 #@! TO.N,Net-(D16-Pad1)*
X106680000Y-133350000D03*
G04 #@! TD*
D20*
G04 #@! TO.P,D17,2*
G04 #@! TO.N,/BTNA1*
X199390000Y-62230000D03*
D19*
G04 #@! TO.P,D17,1*
G04 #@! TO.N,Net-(D17-Pad1)*
X199390000Y-54610000D03*
G04 #@! TD*
G04 #@! TO.P,D18,1*
G04 #@! TO.N,Net-(D18-Pad1)*
X193040000Y-54610000D03*
D20*
G04 #@! TO.P,D18,2*
G04 #@! TO.N,/BTNA2*
X193040000Y-62230000D03*
G04 #@! TD*
G04 #@! TO.P,D19,2*
G04 #@! TO.N,/BTNA3*
X186690000Y-62230000D03*
D19*
G04 #@! TO.P,D19,1*
G04 #@! TO.N,Net-(D19-Pad1)*
X186690000Y-54610000D03*
G04 #@! TD*
G04 #@! TO.P,D20,1*
G04 #@! TO.N,Net-(D20-Pad1)*
X180340000Y-54610000D03*
D20*
G04 #@! TO.P,D20,2*
G04 #@! TO.N,/BTNA4*
X180340000Y-62230000D03*
G04 #@! TD*
G04 #@! TO.P,D21,2*
G04 #@! TO.N,/BTNA5*
X173990000Y-62230000D03*
D19*
G04 #@! TO.P,D21,1*
G04 #@! TO.N,Net-(D21-Pad1)*
X173990000Y-54610000D03*
G04 #@! TD*
G04 #@! TO.P,D22,1*
G04 #@! TO.N,Net-(D22-Pad1)*
X167640000Y-54610000D03*
D20*
G04 #@! TO.P,D22,2*
G04 #@! TO.N,/BTNA6*
X167640000Y-62230000D03*
G04 #@! TD*
G04 #@! TO.P,D23,2*
G04 #@! TO.N,/BTNA7*
X161290000Y-62230000D03*
D19*
G04 #@! TO.P,D23,1*
G04 #@! TO.N,Net-(D23-Pad1)*
X161290000Y-54610000D03*
G04 #@! TD*
D20*
G04 #@! TO.P,D24,2*
G04 #@! TO.N,/BTNA1*
X154940000Y-62230000D03*
D19*
G04 #@! TO.P,D24,1*
G04 #@! TO.N,Net-(D24-Pad1)*
X154940000Y-54610000D03*
G04 #@! TD*
G04 #@! TO.P,D25,1*
G04 #@! TO.N,Net-(D25-Pad1)*
X148590000Y-54610000D03*
D20*
G04 #@! TO.P,D25,2*
G04 #@! TO.N,/BTNA2*
X148590000Y-62230000D03*
G04 #@! TD*
D19*
G04 #@! TO.P,D26,1*
G04 #@! TO.N,Net-(D26-Pad1)*
X142240000Y-54610000D03*
D20*
G04 #@! TO.P,D26,2*
G04 #@! TO.N,/BTNA3*
X142240000Y-62230000D03*
G04 #@! TD*
D19*
G04 #@! TO.P,D27,1*
G04 #@! TO.N,Net-(D27-Pad1)*
X135890000Y-54610000D03*
D20*
G04 #@! TO.P,D27,2*
G04 #@! TO.N,/BTNA4*
X135890000Y-62230000D03*
G04 #@! TD*
G04 #@! TO.P,D29,2*
G04 #@! TO.N,/BTNA6*
X123190000Y-62230000D03*
D19*
G04 #@! TO.P,D29,1*
G04 #@! TO.N,Net-(D29-Pad1)*
X123190000Y-54610000D03*
G04 #@! TD*
D17*
G04 #@! TO.P,R4,2*
G04 #@! TO.N,Net-(Q5-Pad2)*
X103505000Y-90170000D03*
D18*
G04 #@! TO.P,R4,1*
G04 #@! TO.N,Net-(R4-Pad1)*
X103505000Y-97790000D03*
G04 #@! TD*
G04 #@! TO.P,R5,1*
G04 #@! TO.N,Net-(R5-Pad1)*
X84582000Y-104394000D03*
D17*
G04 #@! TO.P,R5,2*
G04 #@! TO.N,Net-(Q6-Pad2)*
X92202000Y-104394000D03*
G04 #@! TD*
D18*
G04 #@! TO.P,R6,1*
G04 #@! TO.N,/BTNK1_1*
X210439000Y-129667000D03*
D17*
G04 #@! TO.P,R6,2*
G04 #@! TO.N,GND*
X202819000Y-129667000D03*
G04 #@! TD*
G04 #@! TO.P,R7,2*
G04 #@! TO.N,GND*
X200533000Y-129667000D03*
D18*
G04 #@! TO.P,R7,1*
G04 #@! TO.N,/BTNK1_2*
X192913000Y-129667000D03*
G04 #@! TD*
D17*
G04 #@! TO.P,R8,2*
G04 #@! TO.N,GND*
X204724000Y-69596000D03*
D18*
G04 #@! TO.P,R8,1*
G04 #@! TO.N,/BTNK2_1*
X204724000Y-61976000D03*
G04 #@! TD*
D17*
G04 #@! TO.P,R9,2*
G04 #@! TO.N,GND*
X201295000Y-88900000D03*
D18*
G04 #@! TO.P,R9,1*
G04 #@! TO.N,/BTNK2_2*
X193675000Y-88900000D03*
G04 #@! TD*
D17*
G04 #@! TO.P,R10,2*
G04 #@! TO.N,Net-(R10-Pad2)*
X71266330Y-106650610D03*
D18*
G04 #@! TO.P,R10,1*
G04 #@! TO.N,/vUsb*
X63646330Y-106650610D03*
G04 #@! TD*
G04 #@! TO.P,R11,1*
G04 #@! TO.N,Net-(R10-Pad2)*
X71266330Y-103475610D03*
D17*
G04 #@! TO.P,R11,2*
G04 #@! TO.N,GND*
X63646330Y-103475610D03*
G04 #@! TD*
G04 #@! TO.P,R16,2*
G04 #@! TO.N,Net-(Q1-Pad1)*
X42545000Y-82677000D03*
D18*
G04 #@! TO.P,R16,1*
G04 #@! TO.N,Net-(Q2-Pad3)*
X34925000Y-82677000D03*
G04 #@! TD*
G04 #@! TO.P,R17,1*
G04 #@! TO.N,/CHGEN*
X68580000Y-99060000D03*
D17*
G04 #@! TO.P,R17,2*
G04 #@! TO.N,Net-(Q2-Pad2)*
X60960000Y-99060000D03*
G04 #@! TD*
D18*
G04 #@! TO.P,R18,1*
G04 #@! TO.N,Net-(D34-Pad1)*
X45720000Y-118110000D03*
D17*
G04 #@! TO.P,R18,2*
G04 #@! TO.N,GND*
X38100000Y-118110000D03*
G04 #@! TD*
D18*
G04 #@! TO.P,R19,1*
G04 #@! TO.N,/5v*
X53086000Y-105664000D03*
D17*
G04 #@! TO.P,R19,2*
G04 #@! TO.N,Net-(C3-Pad1)*
X60706000Y-105664000D03*
G04 #@! TD*
G04 #@! TO.P,R20,2*
G04 #@! TO.N,GND*
X54102000Y-109220000D03*
D18*
G04 #@! TO.P,R20,1*
G04 #@! TO.N,Net-(C3-Pad1)*
X61722000Y-109220000D03*
G04 #@! TD*
G04 #@! TO.P,R22,1*
G04 #@! TO.N,Net-(R22-Pad1)*
X147701000Y-132207000D03*
D17*
G04 #@! TO.P,R22,2*
G04 #@! TO.N,Net-(L2-Pad1)*
X155321000Y-132207000D03*
G04 #@! TD*
G04 #@! TO.P,R23,2*
G04 #@! TO.N,/PWRCTL*
X189230000Y-128905000D03*
D18*
G04 #@! TO.P,R23,1*
G04 #@! TO.N,Net-(D34-Pad1)*
X189230000Y-136525000D03*
G04 #@! TD*
D32*
G04 #@! TO.N,Net-(C8-Pad1)*
G04 #@! TO.C,C8*
G36*
X165700142Y-92900174D02*
X165723803Y-92903684D01*
X165747007Y-92909496D01*
X165769529Y-92917554D01*
X165791153Y-92927782D01*
X165811670Y-92940079D01*
X165830883Y-92954329D01*
X165848607Y-92970393D01*
X165864671Y-92988117D01*
X165878921Y-93007330D01*
X165891218Y-93027847D01*
X165901446Y-93049471D01*
X165909504Y-93071993D01*
X165915316Y-93095197D01*
X165918826Y-93118858D01*
X165920000Y-93142750D01*
X165920000Y-94055250D01*
X165918826Y-94079142D01*
X165915316Y-94102803D01*
X165909504Y-94126007D01*
X165901446Y-94148529D01*
X165891218Y-94170153D01*
X165878921Y-94190670D01*
X165864671Y-94209883D01*
X165848607Y-94227607D01*
X165830883Y-94243671D01*
X165811670Y-94257921D01*
X165791153Y-94270218D01*
X165769529Y-94280446D01*
X165747007Y-94288504D01*
X165723803Y-94294316D01*
X165700142Y-94297826D01*
X165676250Y-94299000D01*
X165188750Y-94299000D01*
X165164858Y-94297826D01*
X165141197Y-94294316D01*
X165117993Y-94288504D01*
X165095471Y-94280446D01*
X165073847Y-94270218D01*
X165053330Y-94257921D01*
X165034117Y-94243671D01*
X165016393Y-94227607D01*
X165000329Y-94209883D01*
X164986079Y-94190670D01*
X164973782Y-94170153D01*
X164963554Y-94148529D01*
X164955496Y-94126007D01*
X164949684Y-94102803D01*
X164946174Y-94079142D01*
X164945000Y-94055250D01*
X164945000Y-93142750D01*
X164946174Y-93118858D01*
X164949684Y-93095197D01*
X164955496Y-93071993D01*
X164963554Y-93049471D01*
X164973782Y-93027847D01*
X164986079Y-93007330D01*
X165000329Y-92988117D01*
X165016393Y-92970393D01*
X165034117Y-92954329D01*
X165053330Y-92940079D01*
X165073847Y-92927782D01*
X165095471Y-92917554D01*
X165117993Y-92909496D01*
X165141197Y-92903684D01*
X165164858Y-92900174D01*
X165188750Y-92899000D01*
X165676250Y-92899000D01*
X165700142Y-92900174D01*
X165700142Y-92900174D01*
G37*
D33*
G04 #@! TD*
G04 #@! TO.P,C8,1*
G04 #@! TO.N,Net-(C8-Pad1)*
X165432500Y-93599000D03*
D32*
G04 #@! TO.N,GND*
G04 #@! TO.C,C8*
G36*
X167575142Y-92900174D02*
X167598803Y-92903684D01*
X167622007Y-92909496D01*
X167644529Y-92917554D01*
X167666153Y-92927782D01*
X167686670Y-92940079D01*
X167705883Y-92954329D01*
X167723607Y-92970393D01*
X167739671Y-92988117D01*
X167753921Y-93007330D01*
X167766218Y-93027847D01*
X167776446Y-93049471D01*
X167784504Y-93071993D01*
X167790316Y-93095197D01*
X167793826Y-93118858D01*
X167795000Y-93142750D01*
X167795000Y-94055250D01*
X167793826Y-94079142D01*
X167790316Y-94102803D01*
X167784504Y-94126007D01*
X167776446Y-94148529D01*
X167766218Y-94170153D01*
X167753921Y-94190670D01*
X167739671Y-94209883D01*
X167723607Y-94227607D01*
X167705883Y-94243671D01*
X167686670Y-94257921D01*
X167666153Y-94270218D01*
X167644529Y-94280446D01*
X167622007Y-94288504D01*
X167598803Y-94294316D01*
X167575142Y-94297826D01*
X167551250Y-94299000D01*
X167063750Y-94299000D01*
X167039858Y-94297826D01*
X167016197Y-94294316D01*
X166992993Y-94288504D01*
X166970471Y-94280446D01*
X166948847Y-94270218D01*
X166928330Y-94257921D01*
X166909117Y-94243671D01*
X166891393Y-94227607D01*
X166875329Y-94209883D01*
X166861079Y-94190670D01*
X166848782Y-94170153D01*
X166838554Y-94148529D01*
X166830496Y-94126007D01*
X166824684Y-94102803D01*
X166821174Y-94079142D01*
X166820000Y-94055250D01*
X166820000Y-93142750D01*
X166821174Y-93118858D01*
X166824684Y-93095197D01*
X166830496Y-93071993D01*
X166838554Y-93049471D01*
X166848782Y-93027847D01*
X166861079Y-93007330D01*
X166875329Y-92988117D01*
X166891393Y-92970393D01*
X166909117Y-92954329D01*
X166928330Y-92940079D01*
X166948847Y-92927782D01*
X166970471Y-92917554D01*
X166992993Y-92909496D01*
X167016197Y-92903684D01*
X167039858Y-92900174D01*
X167063750Y-92899000D01*
X167551250Y-92899000D01*
X167575142Y-92900174D01*
X167575142Y-92900174D01*
G37*
D33*
G04 #@! TD*
G04 #@! TO.P,C8,2*
G04 #@! TO.N,GND*
X167307500Y-93599000D03*
D27*
G04 #@! TO.P,Q3,2*
G04 #@! TO.N,Net-(Q3-Pad2)*
X98504001Y-73752001D03*
G04 #@! TO.P,Q3,3*
G04 #@! TO.N,/vBattMeasure*
X99774001Y-73752001D03*
D28*
G04 #@! TO.P,Q3,1*
G04 #@! TO.N,/vBatt*
X97234001Y-73752001D03*
G04 #@! TD*
G04 #@! TO.P,Q4,1*
G04 #@! TO.N,GND*
X102744001Y-73752001D03*
D27*
G04 #@! TO.P,Q4,3*
G04 #@! TO.N,Net-(Q4-Pad3)*
X105284001Y-73752001D03*
G04 #@! TO.P,Q4,2*
G04 #@! TO.N,Net-(Q4-Pad2)*
X104014001Y-73752001D03*
G04 #@! TD*
D18*
G04 #@! TO.P,R24,1*
G04 #@! TO.N,Net-(C8-Pad1)*
X170307000Y-97155000D03*
D17*
G04 #@! TO.P,R24,2*
G04 #@! TO.N,/vBattMeasure*
X162687000Y-97155000D03*
G04 #@! TD*
D18*
G04 #@! TO.P,R25,1*
G04 #@! TO.N,/vBattMeasure*
X87054001Y-69472001D03*
D17*
G04 #@! TO.P,R25,2*
G04 #@! TO.N,GND*
X94674001Y-69472001D03*
G04 #@! TD*
G04 #@! TO.P,R26,2*
G04 #@! TO.N,Net-(Q4-Pad3)*
X104444001Y-66422001D03*
D18*
G04 #@! TO.P,R26,1*
G04 #@! TO.N,Net-(Q3-Pad2)*
X96824001Y-66422001D03*
G04 #@! TD*
G04 #@! TO.P,R27,1*
G04 #@! TO.N,Net-(Q4-Pad2)*
X87054001Y-72522001D03*
D17*
G04 #@! TO.P,R27,2*
G04 #@! TO.N,/5v*
X94674001Y-72522001D03*
G04 #@! TD*
G04 #@! TO.P,R28,2*
G04 #@! TO.N,GND*
X104444001Y-69472001D03*
D18*
G04 #@! TO.P,R28,1*
G04 #@! TO.N,Net-(Q4-Pad2)*
X96824001Y-69472001D03*
G04 #@! TD*
D17*
G04 #@! TO.P,R29,2*
G04 #@! TO.N,/vBatt*
X94674001Y-75572001D03*
D18*
G04 #@! TO.P,R29,1*
G04 #@! TO.N,Net-(Q3-Pad2)*
X87054001Y-75572001D03*
G04 #@! TD*
D22*
G04 #@! TO.P,J8,1*
G04 #@! TO.N,/5v*
X204724000Y-73660000D03*
D21*
G04 #@! TO.P,J8,2*
G04 #@! TO.N,/RESET*
X204724000Y-76200000D03*
G04 #@! TO.P,J8,3*
G04 #@! TO.N,/MISO*
X204724000Y-78740000D03*
G04 #@! TO.P,J8,4*
G04 #@! TO.N,/MOSI*
X204724000Y-81280000D03*
G04 #@! TO.P,J8,5*
G04 #@! TO.N,/SCK*
X204724000Y-83820000D03*
G04 #@! TO.P,J8,6*
G04 #@! TO.N,/RX*
X204724000Y-86360000D03*
G04 #@! TO.P,J8,7*
G04 #@! TO.N,/TX*
X204724000Y-88900000D03*
G04 #@! TO.P,J8,8*
G04 #@! TO.N,GND*
X204724000Y-91440000D03*
G04 #@! TD*
D46*
G04 #@! TO.N,/SLT_LED*
X198170800Y-94843600D03*
G04 #@! TO.N,/BTNA1*
X132080000Y-80010000D03*
X151130000Y-76200000D03*
X72390000Y-122809000D03*
G04 #@! TO.N,/BTNA2*
X158750000Y-90170000D03*
X133350000Y-82550000D03*
X148590000Y-78740000D03*
X145415000Y-78809991D03*
X81280000Y-131445000D03*
G04 #@! TO.N,/BTNA3*
X135890000Y-83820000D03*
X142240000Y-80010000D03*
X142240000Y-65405000D03*
X87630000Y-129921000D03*
X142240000Y-57912000D03*
G04 #@! TO.N,/BTNA4*
X135890000Y-65405000D03*
X93980000Y-128651000D03*
X135890000Y-59309000D03*
G04 #@! TO.N,/BTNA5*
X131445000Y-109220000D03*
X127741997Y-73490001D03*
X126365000Y-75565000D03*
X126365000Y-85725000D03*
X129540000Y-65405000D03*
G04 #@! TO.N,/BTNA6*
X106680000Y-114300000D03*
X146050000Y-63500000D03*
G04 #@! TO.N,/BTNA7*
X158750000Y-85090000D03*
X137160000Y-85090000D03*
X130810000Y-86360000D03*
G04 #@! TO.N,/SCK_LED*
X26670000Y-64770000D03*
X82550000Y-83185000D03*
X140335000Y-102235000D03*
X133350000Y-102235000D03*
X127000000Y-88900000D03*
X81915000Y-77470000D03*
X78105000Y-81070033D03*
X198120000Y-111760000D03*
X187985400Y-90424000D03*
X196697600Y-107391200D03*
X190474600Y-97713800D03*
G04 #@! TO.N,/SLT_LED*
X86360000Y-85090000D03*
X84455000Y-82550000D03*
X198120000Y-110490000D03*
X147320000Y-102870000D03*
X149733000Y-105283000D03*
X145034000Y-105283000D03*
X143383000Y-111252000D03*
X120904000Y-115189000D03*
X109474000Y-112903000D03*
X76708000Y-109728000D03*
X75438000Y-105791000D03*
X69850000Y-83566000D03*
X69850000Y-79870022D03*
X191860010Y-91111348D03*
X192042464Y-93311360D03*
X198170800Y-98093655D03*
X197942200Y-107442000D03*
G04 #@! TO.N,/SEN_LED*
X83185000Y-80010000D03*
X128270000Y-92075000D03*
X135890000Y-99695000D03*
X148590000Y-101600000D03*
G04 #@! TO.N,/SDA1*
X179705000Y-83820000D03*
X162560000Y-71120000D03*
X154940000Y-71120000D03*
X142875000Y-71120000D03*
X134620000Y-71120000D03*
X126365000Y-70485000D03*
X37465000Y-53340000D03*
X176178548Y-80996452D03*
X121920000Y-70065010D03*
X178992911Y-96690979D03*
G04 #@! TO.N,/SDA2*
X179070000Y-85090000D03*
X174625000Y-81280000D03*
X163195000Y-72390000D03*
X154940000Y-72390000D03*
X142875000Y-72390000D03*
X132715000Y-70485000D03*
X126365000Y-69215000D03*
X119380000Y-69215000D03*
X33020000Y-69215000D03*
X175895008Y-96552834D03*
G04 #@! TO.N,/5v*
X207645000Y-93345000D03*
X54610000Y-74295000D03*
X54610000Y-85090000D03*
X55880000Y-85090000D03*
X55880000Y-74295000D03*
X22225000Y-40640000D03*
X22225000Y-43180000D03*
X23495000Y-41910000D03*
X20955000Y-41910000D03*
X208280000Y-40640000D03*
X208280000Y-43180000D03*
X209550000Y-41910000D03*
X152400000Y-95885000D03*
X22225000Y-41910000D03*
X208280000Y-41910000D03*
X207010000Y-41910000D03*
X55245000Y-84454999D03*
X55245000Y-85725000D03*
X55245000Y-86995000D03*
X55245000Y-73660000D03*
X55245000Y-74930000D03*
X55245000Y-76200000D03*
X60325000Y-85090000D03*
X208975001Y-93345000D03*
X127635000Y-119380000D03*
X202692000Y-93345000D03*
X203708000Y-93472000D03*
G04 #@! TO.N,GND*
X24130000Y-94615000D03*
X24752498Y-95250000D03*
X27940000Y-95580000D03*
X28905000Y-95580000D03*
X48766398Y-111850010D03*
X48895000Y-114808000D03*
X51865665Y-110276345D03*
X188595000Y-93980000D03*
X39116000Y-114935000D03*
X32385000Y-44958000D03*
X32385000Y-38735000D03*
X196215000Y-38862000D03*
X196215000Y-44958000D03*
X187960000Y-94615000D03*
X34544000Y-88392000D03*
X36576000Y-88392000D03*
X38608000Y-88392000D03*
X40640000Y-88392000D03*
X35560000Y-89916000D03*
X37592000Y-89916000D03*
X39624000Y-89916000D03*
X41656000Y-89916000D03*
X35560000Y-86868000D03*
X37592000Y-86868000D03*
X39624000Y-86868000D03*
X41656000Y-86868000D03*
X34544000Y-91440000D03*
X36576000Y-91440000D03*
X38608000Y-91440000D03*
X40640000Y-91440000D03*
X35560000Y-92964000D03*
X37592000Y-92964000D03*
X39624000Y-92964000D03*
X41656000Y-92964000D03*
X42672000Y-91440000D03*
X42672000Y-88392000D03*
G04 #@! TO.N,/SDA3*
X186690000Y-98425000D03*
X184404000Y-96647000D03*
G04 #@! TO.N,/SDA4*
X180975000Y-102235000D03*
X179070000Y-100330000D03*
G04 #@! TO.N,/vBatt*
X37589320Y-113665000D03*
X38224320Y-113030000D03*
X38859320Y-112395000D03*
X36830000Y-109347000D03*
X37338000Y-109982000D03*
X37338000Y-109982000D03*
X31877000Y-98171000D03*
X30734000Y-98893998D03*
X125222000Y-82804000D03*
X67691000Y-77470000D03*
X67691000Y-82296000D03*
X63373000Y-86614000D03*
X53086000Y-89027000D03*
X183515000Y-114300000D03*
X177800000Y-104140000D03*
X160247001Y-94573896D03*
X154902620Y-92799620D03*
X136906000Y-93666904D03*
G04 #@! TO.N,Net-(Q6-Pad2)*
X101473000Y-104775000D03*
X103378000Y-104140000D03*
G04 #@! TO.N,Net-(R2-Pad1)*
X89535000Y-102235000D03*
X93345000Y-102235000D03*
G04 #@! TO.N,Net-(R4-Pad1)*
X93345000Y-100965000D03*
X89535000Y-100965000D03*
G04 #@! TO.N,/BTNK1_1*
X210094990Y-109220000D03*
G04 #@! TO.N,/BTNK1_2*
X208915000Y-116840000D03*
X202692000Y-91948000D03*
G04 #@! TO.N,/BTNK2_1*
X198120000Y-83820000D03*
X200660000Y-80612979D03*
G04 #@! TO.N,/BTNK2_2*
X196850000Y-83820000D03*
X203200000Y-38735000D03*
X205740000Y-37465000D03*
X198120000Y-85090000D03*
X199934838Y-79924384D03*
G04 #@! TO.N,/SDA_INTERNAL*
X83185000Y-93345000D03*
X93345000Y-93345000D03*
X97155000Y-93345000D03*
X101600000Y-99695000D03*
X101600000Y-103505000D03*
X111760000Y-106045000D03*
X125730000Y-109855000D03*
X183934990Y-108828947D03*
X178027820Y-100907170D03*
G04 #@! TO.N,Net-(U2-Pad9)*
X149860000Y-97790000D03*
X149860000Y-97790000D03*
X149860000Y-97790000D03*
X149860000Y-97790000D03*
X128270000Y-93980000D03*
X99060000Y-85090000D03*
X102235000Y-81915000D03*
X149860000Y-97790000D03*
X135890000Y-100965000D03*
G04 #@! TO.N,/MISO*
X198833957Y-80633947D03*
G04 #@! TO.N,Net-(C3-Pad1)*
X47625000Y-112903000D03*
X49784000Y-110490000D03*
X52324000Y-111760000D03*
G04 #@! TO.N,Net-(Q1-Pad1)*
X45085000Y-86360000D03*
G04 #@! TO.N,/vUsb*
X56515000Y-104140000D03*
X52705000Y-103505000D03*
G04 #@! TO.N,Net-(R10-Pad2)*
X123190000Y-99695000D03*
X129540000Y-106045000D03*
X142240000Y-106680000D03*
X153035000Y-103505000D03*
G04 #@! TO.N,/CHGEN*
X121920000Y-100965000D03*
X128270000Y-107315000D03*
X154305000Y-104140000D03*
X143510000Y-107734990D03*
G04 #@! TO.N,/PWRCTL*
X185470489Y-112402930D03*
G04 #@! TO.N,/3v3*
X170180000Y-83820000D03*
X168910000Y-86360000D03*
G04 #@! TO.N,/SPKR*
X132715000Y-128270000D03*
X141605000Y-118745000D03*
X184482590Y-112179990D03*
G04 #@! TO.N,Net-(D34-Pad1)*
X126365000Y-108585000D03*
X144780000Y-108585000D03*
X148590000Y-113030000D03*
G04 #@! TO.N,/SEN_LED*
X189941200Y-88112600D03*
X193916834Y-95783408D03*
G04 #@! TO.N,/SDA1*
X177170962Y-90100263D03*
G04 #@! TO.N,/SDA2*
X176280660Y-90555660D03*
G04 #@! TO.N,/SDA3*
X192500186Y-106680000D03*
G04 #@! TO.N,/vBatt*
X186690000Y-117475000D03*
X190296800Y-121183400D03*
G04 #@! TO.N,/BTNK1_1*
X194030600Y-96799400D03*
X202971400Y-97129600D03*
X191566795Y-95466114D03*
G04 #@! TO.N,/MOSI*
X193903600Y-82219800D03*
X193852800Y-80441800D03*
G04 #@! TO.N,/SCK*
X181364040Y-84844040D03*
X185420000Y-85059981D03*
G04 #@! TO.N,/PWRCTL*
X190127358Y-103877642D03*
G04 #@! TO.N,/SPKR*
X189331173Y-99508307D03*
G04 #@! TO.N,/SPEN*
X139319000Y-102920800D03*
X136194800Y-109626400D03*
X136194800Y-113639600D03*
G04 #@! TO.N,Net-(C8-Pad1)*
X163576000Y-93599000D03*
G04 #@! TO.N,Net-(Q3-Pad2)*
X92202000Y-72517000D03*
X92823999Y-75572001D03*
G04 #@! TO.N,/vBattMeasure*
X159131000Y-96139000D03*
X153924000Y-93726000D03*
X136906000Y-94869000D03*
X128397000Y-87122000D03*
X99695000Y-78232000D03*
X94674001Y-66422001D03*
X98704825Y-71423552D03*
G04 #@! TO.N,/RX*
X183388000Y-101600000D03*
X187043239Y-99396263D03*
G04 #@! TO.N,/TX*
X185887164Y-101662268D03*
X188616280Y-98541348D03*
G04 #@! TO.N,Net-(D34-Pad1)*
X117924776Y-104514513D03*
G04 #@! TO.N,/ON*
X180924200Y-114325400D03*
X173736000Y-101523800D03*
X174498000Y-94640400D03*
X181457600Y-92659200D03*
G04 #@! TO.N,Net-(D34-Pad2)*
X184810400Y-144983200D03*
G04 #@! TD*
D47*
G04 #@! TO.N,Net-(D1-Pad4)*
X117157500Y-90424000D02*
X117157500Y-92324000D01*
X117157500Y-92324000D02*
X118392501Y-93559001D01*
X118392501Y-93559001D02*
X118392501Y-97790000D01*
X120650000Y-97790000D02*
X118392501Y-97790000D01*
X117122002Y-100330000D02*
X114727070Y-100330000D01*
X118392501Y-97790000D02*
X118392501Y-99059501D01*
X118392501Y-99059501D02*
X117122002Y-100330000D01*
X114727070Y-100330000D02*
X113347500Y-98950430D01*
X113347500Y-98950430D02*
X113347500Y-97599500D01*
G04 #@! TO.N,Net-(D1-Pad3)*
X112112499Y-94252932D02*
X112112499Y-88963999D01*
X112112499Y-88963999D02*
X113446498Y-87630000D01*
X114617500Y-97599500D02*
X114617500Y-96757933D01*
X115887500Y-88524000D02*
X115887500Y-90424000D01*
X114993500Y-87630000D02*
X115887500Y-88524000D01*
X113446498Y-87630000D02*
X114993500Y-87630000D01*
X113859057Y-95999490D02*
X113109567Y-95250000D01*
X112835943Y-95999490D02*
X113859057Y-95999490D01*
X115570000Y-102870000D02*
X112112490Y-99412490D01*
X113109567Y-95250000D02*
X112112499Y-94252932D01*
X112112490Y-96722943D02*
X112835943Y-95999490D01*
X112112490Y-99412490D02*
X112112490Y-96722943D01*
X114617500Y-96757933D02*
X113109567Y-95250000D01*
G04 #@! TO.N,Net-(D1-Pad1)*
X117157500Y-96757933D02*
X117157500Y-97599500D01*
X113347500Y-92947933D02*
X117157500Y-96757933D01*
X113347500Y-90424000D02*
X113347500Y-92947933D01*
G04 #@! TO.N,Net-(D3-Pad1)*
X30480000Y-151446246D02*
X28001306Y-153924940D01*
X30480000Y-133350000D02*
X30480000Y-151446246D01*
G04 #@! TO.N,/BTNA1*
X154940000Y-64770000D02*
X156440001Y-66270001D01*
X156440001Y-76200000D02*
X151130000Y-76200000D01*
X156440001Y-66270001D02*
X156440001Y-76200000D01*
X156440001Y-76200000D02*
X156440001Y-92710000D01*
X154940000Y-64770000D02*
X154940000Y-62230000D01*
X30480000Y-125730000D02*
X34163000Y-125730000D01*
X37084000Y-122809000D02*
X72390000Y-122809000D01*
X34163000Y-125730000D02*
X37084000Y-122809000D01*
X159291958Y-91387967D02*
X157869921Y-91387967D01*
X153199999Y-96990001D02*
X152400000Y-97790000D01*
X156547890Y-92710000D02*
X156440001Y-92710000D01*
X154930968Y-94326923D02*
X154930967Y-95259033D01*
X161758490Y-69319988D02*
X160759987Y-70318491D01*
X154930967Y-95259033D02*
X153199999Y-96990001D01*
X157869921Y-91387967D02*
X156547890Y-92710000D01*
X161394996Y-89284929D02*
X159291958Y-91387967D01*
X161394992Y-72556514D02*
X161394996Y-89284929D01*
X156440001Y-92710000D02*
X156440001Y-92817889D01*
X160759987Y-70318491D02*
X160759988Y-71921510D01*
X192300012Y-69319988D02*
X161758490Y-69319988D01*
X199390000Y-62230000D02*
X192300012Y-69319988D01*
X160759988Y-71921510D02*
X161394992Y-72556514D01*
X156440001Y-92817889D02*
X154930968Y-94326923D01*
X132080000Y-80575685D02*
X132080000Y-80010000D01*
X110710634Y-116770011D02*
X113754947Y-113725698D01*
X113754947Y-113036829D02*
X118777230Y-108014545D01*
X132010011Y-96174129D02*
X132010011Y-94477058D01*
X132010011Y-94477058D02*
X132080000Y-94407069D01*
X132080000Y-94407069D02*
X132080000Y-80575685D01*
X83889989Y-116770011D02*
X110710634Y-116770011D01*
X74930000Y-125730000D02*
X83889989Y-116770011D01*
X120169594Y-108014545D02*
X132010011Y-96174129D01*
X118777230Y-108014545D02*
X120169594Y-108014545D01*
X113754947Y-113725698D02*
X113754947Y-113036829D01*
G04 #@! TO.N,/BTNA2*
X141774998Y-75204998D02*
X154940000Y-88370000D01*
X148590000Y-64770000D02*
X148590000Y-66467056D01*
X141774998Y-70591998D02*
X141774998Y-75204998D01*
X154940000Y-88370000D02*
X154940000Y-90170000D01*
X142346998Y-70019998D02*
X141774998Y-70591998D01*
X148590000Y-66467056D02*
X145037058Y-70019998D01*
X145037058Y-70019998D02*
X142346998Y-70019998D01*
X148590000Y-64770000D02*
X148590000Y-62230000D01*
X193040000Y-64770000D02*
X193040000Y-62230000D01*
X189690022Y-68119978D02*
X193040000Y-64770000D01*
X160194978Y-88725022D02*
X160194978Y-73053570D01*
X159559978Y-69821430D02*
X161261431Y-68119978D01*
X158750000Y-90170000D02*
X160194978Y-88725022D01*
X160194978Y-73053570D02*
X159559978Y-72418569D01*
X159559978Y-72418569D02*
X159559978Y-69821430D01*
X161261431Y-68119978D02*
X189690022Y-68119978D01*
X36830000Y-125730000D02*
X42545000Y-131445000D01*
X42545000Y-131445000D02*
X81280000Y-131445000D01*
X133210022Y-96671189D02*
X133210022Y-94974118D01*
X119274290Y-109214556D02*
X120666654Y-109214556D01*
X111207694Y-117970022D02*
X114954958Y-114222758D01*
X114954958Y-113533889D02*
X119274290Y-109214556D01*
X133210022Y-94974118D02*
X133312929Y-94871211D01*
X133312929Y-92237831D02*
X133350000Y-92200760D01*
X133312929Y-94871211D02*
X133312929Y-92237831D01*
X133350000Y-92200760D02*
X133350000Y-83115685D01*
X133350000Y-83115685D02*
X133350000Y-82550000D01*
X114954958Y-114222758D02*
X114954958Y-113533889D01*
X81280000Y-125730000D02*
X89039978Y-117970022D01*
X120666654Y-109214556D02*
X133210022Y-96671189D01*
X89039978Y-117970022D02*
X111207694Y-117970022D01*
G04 #@! TO.N,Net-(D4-Pad1)*
X36830000Y-148783634D02*
X36830000Y-133350000D01*
X41971306Y-153924940D02*
X36830000Y-148783634D01*
G04 #@! TO.N,Net-(D6-Pad1)*
X43180000Y-141163634D02*
X55941306Y-153924940D01*
X43180000Y-133350000D02*
X43180000Y-141163634D01*
G04 #@! TO.N,/BTNA3*
X142240000Y-80010000D02*
X152400000Y-90170000D01*
X140574987Y-66435013D02*
X140574987Y-78344987D01*
X141840001Y-79610001D02*
X142240000Y-80010000D01*
X140574987Y-78344987D02*
X141840001Y-79610001D01*
X141605000Y-65405000D02*
X140574987Y-66435013D01*
X142240000Y-65405000D02*
X141605000Y-65405000D01*
X43180000Y-125730000D02*
X47371000Y-129921000D01*
X47371000Y-129921000D02*
X87630000Y-129921000D01*
X178168002Y-57912000D02*
X142240000Y-57912000D01*
X186690000Y-62230000D02*
X182372000Y-57912000D01*
X182372000Y-57912000D02*
X178168002Y-57912000D01*
X135490001Y-84219999D02*
X135890000Y-83820000D01*
X121163714Y-110414567D02*
X134410033Y-97168249D01*
X116154969Y-114030949D02*
X119771350Y-110414567D01*
X134410033Y-97168249D02*
X134410033Y-95471178D01*
X134512940Y-95368271D02*
X134512940Y-92734891D01*
X134576439Y-85133561D02*
X135490001Y-84219999D01*
X134512940Y-92734891D02*
X134576439Y-92671392D01*
X94189967Y-119170033D02*
X111704754Y-119170033D01*
X134576439Y-92671392D02*
X134576439Y-85133561D01*
X134410033Y-95471178D02*
X134512940Y-95368271D01*
X119771350Y-110414567D02*
X121163714Y-110414567D01*
X111704754Y-119170033D02*
X116154969Y-114719818D01*
X87630000Y-125730000D02*
X94189967Y-119170033D01*
X116154969Y-114719818D02*
X116154969Y-114030949D01*
G04 #@! TO.N,/BTNA4*
X135890000Y-76200000D02*
X149860000Y-90170000D01*
X135890000Y-65405000D02*
X135890000Y-76200000D01*
X49530000Y-125730000D02*
X52324000Y-128524000D01*
X52324000Y-128524000D02*
X93853000Y-128524000D01*
X93853000Y-128524000D02*
X93980000Y-128651000D01*
X180340000Y-62230000D02*
X177419000Y-59309000D01*
X177419000Y-59309000D02*
X135890000Y-59309000D01*
X147954022Y-92075978D02*
X149060001Y-90969999D01*
X117354980Y-114528009D02*
X120268410Y-111614578D01*
X111991848Y-120580010D02*
X117354980Y-115216878D01*
X136868924Y-92075978D02*
X147954022Y-92075978D01*
X117354980Y-115216878D02*
X117354980Y-114528009D01*
X135610044Y-97665309D02*
X135610044Y-97119954D01*
X149060001Y-90969999D02*
X149860000Y-90170000D01*
X135712951Y-97017047D02*
X135712951Y-93231951D01*
X93980000Y-125730000D02*
X99129989Y-120580011D01*
X99129989Y-120580011D02*
X111991848Y-120580010D01*
X121660775Y-111614578D02*
X135610044Y-97665309D01*
X120268410Y-111614578D02*
X121660775Y-111614578D01*
X135610044Y-97119954D02*
X135712951Y-97017047D01*
X135712951Y-93231951D02*
X136868924Y-92075978D01*
G04 #@! TO.N,Net-(D7-Pad1)*
X49530000Y-135550000D02*
X67904940Y-153924940D01*
X68497093Y-153924940D02*
X69911306Y-153924940D01*
X67904940Y-153924940D02*
X68497093Y-153924940D01*
X49530000Y-133350000D02*
X49530000Y-135550000D01*
G04 #@! TO.N,Net-(D8-Pad1)*
X55880000Y-135550000D02*
X68920000Y-148590000D01*
X55880000Y-133350000D02*
X55880000Y-135550000D01*
X78546366Y-148590000D02*
X83881306Y-153924940D01*
X68920000Y-148590000D02*
X78546366Y-148590000D01*
G04 #@! TO.N,/BTNA5*
X146520001Y-89370001D02*
X147320000Y-90170000D01*
X130640001Y-73490001D02*
X146520001Y-89370001D01*
X127741997Y-73490001D02*
X130640001Y-73490001D01*
X126365000Y-85725000D02*
X126365000Y-75565000D01*
X98879999Y-127180001D02*
X99580001Y-126479999D01*
X61533999Y-127180001D02*
X98879999Y-127180001D01*
X99580001Y-126479999D02*
X100330000Y-125730000D01*
X55880000Y-125730000D02*
X60083998Y-125730000D01*
X60083998Y-125730000D02*
X61533999Y-127180001D01*
X125264998Y-67347946D02*
X125264998Y-71013002D01*
X129540000Y-65405000D02*
X127207944Y-65405000D01*
X127207944Y-65405000D02*
X125264998Y-67347946D01*
X125264998Y-71013002D02*
X127741997Y-73490001D01*
X130289999Y-61480001D02*
X129540000Y-62230000D01*
X130990001Y-60779999D02*
X130289999Y-61480001D01*
X172539999Y-60779999D02*
X130990001Y-60779999D01*
X173990000Y-62230000D02*
X172539999Y-60779999D01*
X131445000Y-109220000D02*
X127850411Y-112814589D01*
X104279979Y-121780021D02*
X101079999Y-124980001D01*
X127850411Y-112814589D02*
X120841670Y-112814589D01*
X120841670Y-112814589D02*
X118554991Y-115101269D01*
X118554991Y-115713937D02*
X112488907Y-121780021D01*
X112488907Y-121780021D02*
X104279979Y-121780021D01*
X101079999Y-124980001D02*
X100330000Y-125730000D01*
X118554991Y-115101269D02*
X118554991Y-115713937D01*
G04 #@! TO.N,Net-(D9-Pad1)*
X97851306Y-153924940D02*
X91036399Y-147110033D01*
X78190033Y-147110033D02*
X64430000Y-133350000D01*
X91036399Y-147110033D02*
X78190033Y-147110033D01*
X64430000Y-133350000D02*
X62230000Y-133350000D01*
G04 #@! TO.N,/BTNA6*
X124389999Y-63570001D02*
X123190000Y-64770000D01*
X129540000Y-74930000D02*
X144780000Y-90170000D01*
X127244937Y-74690012D02*
X129300012Y-74690012D01*
X129300012Y-74690012D02*
X129540000Y-74930000D01*
X123190000Y-64770000D02*
X123190000Y-70635075D01*
X123190000Y-70635075D02*
X127244937Y-74690012D01*
X124389999Y-63429999D02*
X124389999Y-63570001D01*
X123190000Y-62230000D02*
X124389999Y-63429999D01*
X145650001Y-63899999D02*
X124859999Y-63899999D01*
X124859999Y-63899999D02*
X124389999Y-63429999D01*
X146050000Y-63500000D02*
X145650001Y-63899999D01*
X111354925Y-112042710D02*
X111354925Y-112731578D01*
X129540000Y-74930000D02*
X129540000Y-95249999D01*
X72887060Y-124009011D02*
X63950989Y-124009011D01*
X129540000Y-95249999D02*
X119175474Y-105614523D01*
X111354925Y-112731578D02*
X109786503Y-114300000D01*
X62979999Y-124980001D02*
X62230000Y-125730000D01*
X109786503Y-114300000D02*
X82596071Y-114300000D01*
X117783110Y-105614523D02*
X111354925Y-112042710D01*
X63950989Y-124009011D02*
X62979999Y-124980001D01*
X119175474Y-105614523D02*
X117783110Y-105614523D01*
X82596071Y-114300000D02*
X72887060Y-124009011D01*
G04 #@! TO.N,Net-(D10-Pad1)*
X68580000Y-133350000D02*
X70780000Y-133350000D01*
X70780000Y-133350000D02*
X83340022Y-145910022D01*
X110821307Y-152924941D02*
X111821306Y-153924940D01*
X103806388Y-145910022D02*
X110821307Y-152924941D01*
X83340022Y-145910022D02*
X103806388Y-145910022D01*
G04 #@! TO.N,/BTNA7*
X137160000Y-85090000D02*
X142240000Y-90170000D01*
X161290000Y-64770000D02*
X161290000Y-62230000D01*
X158359968Y-67700032D02*
X161290000Y-64770000D01*
X158750000Y-85090000D02*
X158750000Y-73305663D01*
X158359968Y-72915630D02*
X158359968Y-67700032D01*
X158750000Y-73305663D02*
X158359968Y-72915630D01*
X130810000Y-86925685D02*
X130810000Y-86360000D01*
X118280170Y-106814534D02*
X119672534Y-106814534D01*
X68580000Y-125730000D02*
X72863142Y-125730000D01*
X130810000Y-95677069D02*
X130810000Y-86925685D01*
X119672534Y-106814534D02*
X130810000Y-95677069D01*
X112554936Y-113228638D02*
X112554936Y-112539769D01*
X110283563Y-115500011D02*
X112554936Y-113228638D01*
X83093131Y-115500011D02*
X110283563Y-115500011D01*
X72863142Y-125730000D02*
X83093131Y-115500011D01*
X112554936Y-112539769D02*
X118280170Y-106814534D01*
G04 #@! TO.N,Net-(D11-Pad1)*
X88490011Y-144710011D02*
X77130000Y-133350000D01*
X77130000Y-133350000D02*
X74930000Y-133350000D01*
X125791306Y-153924940D02*
X116576377Y-144710011D01*
X116576377Y-144710011D02*
X88490011Y-144710011D01*
G04 #@! TO.N,Net-(D12-Pad1)*
X81280000Y-135550000D02*
X89240000Y-143510000D01*
X81280000Y-133350000D02*
X81280000Y-135550000D01*
X129346366Y-143510000D02*
X139506366Y-153670000D01*
X89240000Y-143510000D02*
X129346366Y-143510000D01*
X139506366Y-153670000D02*
X139761306Y-153924940D01*
G04 #@! TO.N,Net-(D13-Pad1)*
X87630000Y-135550000D02*
X94320000Y-142240000D01*
X87630000Y-133350000D02*
X87630000Y-135550000D01*
X142046366Y-142240000D02*
X153731306Y-153924940D01*
X94320000Y-142240000D02*
X142046366Y-142240000D01*
G04 #@! TO.N,Net-(D14-Pad1)*
X93980000Y-135550000D02*
X99400000Y-140970000D01*
X93980000Y-133350000D02*
X93980000Y-135550000D01*
X154746366Y-140970000D02*
X167701306Y-153924940D01*
X99400000Y-140970000D02*
X154746366Y-140970000D01*
G04 #@! TO.N,Net-(D15-Pad1)*
X100330000Y-135550000D02*
X104480000Y-139700000D01*
X100330000Y-133350000D02*
X100330000Y-135550000D01*
X167446366Y-139700000D02*
X181671306Y-153924940D01*
X104480000Y-139700000D02*
X167446366Y-139700000D01*
G04 #@! TO.N,Net-(D16-Pad1)*
X106680000Y-133350000D02*
X108430000Y-133350000D01*
X113510000Y-138430000D02*
X182686366Y-138430000D01*
X108430000Y-133350000D02*
X113510000Y-138430000D01*
X182686366Y-138430000D02*
X184448589Y-140192223D01*
X196767093Y-153924940D02*
X198181306Y-153924940D01*
X184448589Y-143647940D02*
X183610389Y-144486140D01*
X184448589Y-140192223D02*
X184448589Y-143647940D01*
X183610389Y-145480260D02*
X192055069Y-153924940D01*
X183610389Y-144486140D02*
X183610389Y-145480260D01*
X192055069Y-153924940D02*
X196767093Y-153924940D01*
G04 #@! TO.N,Net-(D17-Pad1)*
X199390000Y-37423965D02*
X202676781Y-34137184D01*
X199390000Y-54610000D02*
X199390000Y-37423965D01*
G04 #@! TO.N,Net-(D18-Pad1)*
X193040000Y-38470403D02*
X188706781Y-34137184D01*
X193040000Y-54610000D02*
X193040000Y-38470403D01*
G04 #@! TO.N,Net-(D19-Pad1)*
X186690000Y-46090403D02*
X174736781Y-34137184D01*
X186690000Y-54610000D02*
X186690000Y-46090403D01*
G04 #@! TO.N,Net-(D20-Pad1)*
X162067184Y-34137184D02*
X160766781Y-34137184D01*
X180340000Y-52410000D02*
X162067184Y-34137184D01*
X180340000Y-54610000D02*
X180340000Y-52410000D01*
G04 #@! TO.N,Net-(D21-Pad1)*
X151317184Y-34137184D02*
X148210994Y-34137184D01*
X148210994Y-34137184D02*
X146796781Y-34137184D01*
X171790000Y-54610000D02*
X151317184Y-34137184D01*
X173990000Y-54610000D02*
X171790000Y-54610000D01*
G04 #@! TO.N,Net-(D22-Pad1)*
X165440000Y-54610000D02*
X155280000Y-44450000D01*
X167640000Y-54610000D02*
X165440000Y-54610000D01*
X143139597Y-44450000D02*
X132826781Y-34137184D01*
X155280000Y-44450000D02*
X143139597Y-44450000D01*
G04 #@! TO.N,Net-(D23-Pad1)*
X161290000Y-54610000D02*
X159090000Y-54610000D01*
X139764120Y-44589978D02*
X129309575Y-44589978D01*
X129309575Y-44589978D02*
X119856780Y-35137183D01*
X159090000Y-54610000D02*
X150200000Y-45720000D01*
X150200000Y-45720000D02*
X140894141Y-45720000D01*
X140894141Y-45720000D02*
X139764120Y-44589978D01*
X119856780Y-35137183D02*
X118856781Y-34137184D01*
G04 #@! TO.N,Net-(D24-Pad1)*
X154940000Y-54610000D02*
X152740000Y-54610000D01*
X105886780Y-35137183D02*
X104886781Y-34137184D01*
X140467070Y-46990000D02*
X139267060Y-45789989D01*
X139267060Y-45789989D02*
X116539586Y-45789989D01*
X145120000Y-46990000D02*
X140467070Y-46990000D01*
X116539586Y-45789989D02*
X105886780Y-35137183D01*
X152740000Y-54610000D02*
X145120000Y-46990000D01*
G04 #@! TO.N,Net-(D25-Pad1)*
X148590000Y-54610000D02*
X146390000Y-54610000D01*
X146390000Y-54610000D02*
X138770000Y-46990000D01*
X103769597Y-46990000D02*
X90916781Y-34137184D01*
X138770000Y-46990000D02*
X103769597Y-46990000D01*
G04 #@! TO.N,Net-(D26-Pad1)*
X140040000Y-54610000D02*
X133690000Y-48260000D01*
X142240000Y-54610000D02*
X140040000Y-54610000D01*
X91069597Y-48260000D02*
X76946781Y-34137184D01*
X133690000Y-48260000D02*
X91069597Y-48260000D01*
G04 #@! TO.N,Net-(D27-Pad1)*
X135890000Y-52410000D02*
X133010000Y-49530000D01*
X135890000Y-54610000D02*
X135890000Y-52410000D01*
X78369597Y-49530000D02*
X62976781Y-34137184D01*
X133010000Y-49530000D02*
X78369597Y-49530000D01*
G04 #@! TO.N,Net-(D28-Pad1)*
X127340000Y-54610000D02*
X123530000Y-50800000D01*
X129540000Y-54610000D02*
X127340000Y-54610000D01*
X65669597Y-50800000D02*
X49006781Y-34137184D01*
X123530000Y-50800000D02*
X65669597Y-50800000D01*
G04 #@! TO.N,Net-(D29-Pad1)*
X120990000Y-54610000D02*
X118450000Y-52070000D01*
X123190000Y-54610000D02*
X120990000Y-54610000D01*
X50245000Y-52070000D02*
X32385000Y-34210000D01*
X118450000Y-52070000D02*
X50245000Y-52070000D01*
G04 #@! TO.N,/SCK_LED*
X80435033Y-81070033D02*
X82550000Y-83185000D01*
X26670000Y-77470000D02*
X30270033Y-81070033D01*
X30270033Y-81070033D02*
X80435033Y-81070033D01*
X140734999Y-102634999D02*
X140335000Y-102235000D01*
X182655971Y-108479963D02*
X146533879Y-108479951D01*
X143833989Y-105733989D02*
X140734999Y-102634999D01*
X146533879Y-108479951D02*
X143833989Y-105780060D01*
X198120000Y-111760000D02*
X189168014Y-111760000D01*
X143833989Y-105780060D02*
X143833989Y-105733989D01*
X183406989Y-107728946D02*
X182655971Y-108479963D01*
X185136959Y-107728945D02*
X183406989Y-107728946D01*
X189168014Y-111760000D02*
X185136959Y-107728945D01*
X82550000Y-77470000D02*
X82480685Y-77470000D01*
X99293998Y-79459002D02*
X98644986Y-78809990D01*
X82480685Y-77470000D02*
X81915000Y-77470000D01*
X117102217Y-79459002D02*
X99293998Y-79459002D01*
X125715225Y-88072010D02*
X117102217Y-79459002D01*
X126172012Y-88072012D02*
X125715225Y-88072010D01*
X127000000Y-88900000D02*
X126172012Y-88072012D01*
X98644986Y-78809990D02*
X83889990Y-78809990D01*
X83889990Y-78809990D02*
X82550000Y-77470000D01*
D48*
X186285500Y-91175500D02*
X187233900Y-91175500D01*
X187233900Y-91175500D02*
X187985400Y-90424000D01*
X196697600Y-103936800D02*
X190474600Y-97713800D01*
X196697600Y-107391200D02*
X196697600Y-103936800D01*
D47*
X138790999Y-101820799D02*
X138376798Y-102235000D01*
X140335000Y-102235000D02*
X139920799Y-101820799D01*
X133915685Y-102235000D02*
X133350000Y-102235000D01*
X138376798Y-102235000D02*
X133915685Y-102235000D01*
X139920799Y-101820799D02*
X138790999Y-101820799D01*
G04 #@! TO.N,/SLT_LED*
X25820001Y-63079999D02*
X26670000Y-62230000D01*
X25119999Y-73379999D02*
X25119999Y-63780001D01*
X25119999Y-63780001D02*
X25820001Y-63079999D01*
X26670000Y-74930000D02*
X25119999Y-73379999D01*
X86360000Y-90170000D02*
X86360000Y-85090000D01*
X31610022Y-79870022D02*
X27519999Y-75779999D01*
X84455000Y-82550000D02*
X83115009Y-81210009D01*
X27519999Y-75779999D02*
X26670000Y-74930000D01*
X81347952Y-79870022D02*
X31610022Y-79870022D01*
X82687939Y-81210009D02*
X81347952Y-79870022D01*
X83115009Y-81210009D02*
X82687939Y-81210009D01*
X202779999Y-121070001D02*
X201930000Y-121920000D01*
X203480001Y-110770001D02*
X203480001Y-120369999D01*
X203480001Y-120369999D02*
X202779999Y-121070001D01*
X201930000Y-109220000D02*
X203480001Y-110770001D01*
X147719999Y-103269999D02*
X147320000Y-102870000D01*
X149733000Y-105283000D02*
X147719999Y-103269999D01*
X149733000Y-105283000D02*
X145034000Y-105283000D01*
X109474000Y-112903000D02*
X106299000Y-109728000D01*
X106299000Y-109728000D02*
X76708000Y-109728000D01*
X72666331Y-86382331D02*
X69850000Y-83566000D01*
X151729947Y-107279947D02*
X150132999Y-105682999D01*
X182158917Y-107279947D02*
X151729947Y-107279947D01*
X198120000Y-110490000D02*
X189595085Y-110490000D01*
X150132999Y-105682999D02*
X149733000Y-105283000D01*
X185634017Y-106528933D02*
X182909928Y-106528937D01*
X189595085Y-110490000D02*
X185634017Y-106528933D01*
X182909928Y-106528937D02*
X182158917Y-107279947D01*
X75438000Y-105225315D02*
X72666331Y-102453646D01*
X72666331Y-102453646D02*
X72666331Y-86382331D01*
X75438000Y-105791000D02*
X75438000Y-105225315D01*
D48*
X191294325Y-91111348D02*
X191860010Y-91111348D01*
X186285500Y-91975500D02*
X187527760Y-91975500D01*
X187527760Y-91975500D02*
X188391912Y-91111348D01*
X188391912Y-91111348D02*
X191294325Y-91111348D01*
X199136000Y-93980000D02*
X196600646Y-93980000D01*
X196600646Y-93980000D02*
X195932006Y-93311360D01*
X195932006Y-93311360D02*
X192608149Y-93311360D01*
X192608149Y-93311360D02*
X192042464Y-93311360D01*
X198170800Y-107213400D02*
X197942200Y-107442000D01*
X198170800Y-98093655D02*
X198170800Y-107213400D01*
D47*
X143383000Y-111252000D02*
X138087591Y-116547409D01*
X120504001Y-115828741D02*
X120504001Y-115588999D01*
X138087591Y-116547409D02*
X121222669Y-116547409D01*
X120504001Y-115588999D02*
X120904000Y-115189000D01*
X121222669Y-116547409D02*
X120504001Y-115828741D01*
G04 #@! TO.N,/SEN_LED*
X27519999Y-60539999D02*
X26670000Y-59690000D01*
X28220001Y-61240001D02*
X27519999Y-60539999D01*
X28220001Y-71260001D02*
X28220001Y-61240001D01*
X27940001Y-71540001D02*
X28220001Y-71260001D01*
X27519999Y-71540001D02*
X27940001Y-71540001D01*
X26670000Y-72390000D02*
X27519999Y-71540001D01*
X81845011Y-78670011D02*
X32950011Y-78670011D01*
X32950011Y-78670011D02*
X27519999Y-73239999D01*
X83185000Y-80010000D02*
X81845011Y-78670011D01*
X27519999Y-73239999D02*
X26670000Y-72390000D01*
X200379999Y-118250001D02*
X200379999Y-108230001D01*
X200379999Y-108230001D02*
X201080001Y-107529999D01*
X200659999Y-118530001D02*
X200379999Y-118250001D01*
X201080001Y-118530001D02*
X200659999Y-118530001D01*
X201080001Y-107529999D02*
X201930000Y-106680000D01*
X201930000Y-119380000D02*
X201080001Y-118530001D01*
X83185000Y-80010000D02*
X83750685Y-80010000D01*
X84399698Y-80659013D02*
X116605157Y-80659013D01*
X127621145Y-91675001D02*
X127870001Y-91675001D01*
X127870001Y-91675001D02*
X128270000Y-92075000D01*
X116605157Y-80659013D02*
X127621145Y-91675001D01*
X83750685Y-80010000D02*
X84399698Y-80659013D01*
D49*
G04 #@! TO.N,/SDA1*
X154940000Y-71120000D02*
X142875000Y-71120000D01*
X175883002Y-81280000D02*
X175895000Y-81280000D01*
X162560000Y-71120000D02*
X165723002Y-71120000D01*
X165723002Y-71120000D02*
X175883002Y-81280000D01*
X175895000Y-81280000D02*
X176178548Y-80996452D01*
X134220001Y-71519999D02*
X127399999Y-71519999D01*
X127399999Y-71519999D02*
X126365000Y-70485000D01*
X134620000Y-71120000D02*
X134220001Y-71519999D01*
X105194990Y-53340000D02*
X121920000Y-70065010D01*
X37465000Y-53340000D02*
X105194990Y-53340000D01*
X177819976Y-96809977D02*
X178873913Y-96809977D01*
X178873913Y-96809977D02*
X178992911Y-96690979D01*
X177785500Y-96775500D02*
X177819976Y-96809977D01*
G04 #@! TO.N,/SDA2*
X174625000Y-81280000D02*
X172085000Y-81280000D01*
X172085000Y-81280000D02*
X163195000Y-72390000D01*
X154940000Y-72390000D02*
X142875000Y-72390000D01*
X131445000Y-69215000D02*
X126365000Y-69215000D01*
X132715000Y-70485000D02*
X131445000Y-69215000D01*
X119380000Y-69215000D02*
X104902000Y-54737000D01*
X104902000Y-54737000D02*
X35433000Y-54737000D01*
X33020000Y-57150000D02*
X33020000Y-69215000D01*
X35433000Y-54737000D02*
X33020000Y-57150000D01*
X176295007Y-97170009D02*
X176295007Y-96952833D01*
X176634986Y-97509988D02*
X176295007Y-97170009D01*
X178959467Y-98225500D02*
X178243955Y-97509988D01*
X176295007Y-96952833D02*
X175895008Y-96552834D01*
X179235500Y-98225500D02*
X178959467Y-98225500D01*
X178243955Y-97509988D02*
X176634986Y-97509988D01*
D47*
G04 #@! TO.N,/5v*
X76999999Y-90969999D02*
X76200000Y-90170000D01*
X77700001Y-91670001D02*
X76999999Y-90969999D01*
X89939999Y-91670001D02*
X77700001Y-91670001D01*
X91440000Y-90170000D02*
X89939999Y-91670001D01*
X139700000Y-97790000D02*
X141605000Y-95885000D01*
X141605000Y-95885000D02*
X152400000Y-95885000D01*
X22860000Y-59690000D02*
X22860000Y-62230000D01*
X22860000Y-69850000D02*
X22860000Y-72390000D01*
X22010001Y-63079999D02*
X22860000Y-62230000D01*
X21309999Y-63780001D02*
X22010001Y-63079999D01*
X21309999Y-68299999D02*
X21309999Y-63780001D01*
X22860000Y-69850000D02*
X21309999Y-68299999D01*
X22805000Y-61595000D02*
X22225000Y-61595000D01*
X22225000Y-62865000D02*
X22010001Y-63079999D01*
X22225000Y-61595000D02*
X22225000Y-62865000D01*
X22860000Y-59690000D02*
X22860000Y-61540000D01*
X22860000Y-61540000D02*
X22805000Y-61595000D01*
X22860000Y-59690000D02*
X21590000Y-60960000D01*
X21590000Y-60960000D02*
X22225000Y-60960000D01*
X22860000Y-72390000D02*
X22860000Y-71120000D01*
X22860000Y-71120000D02*
X21590000Y-69850000D01*
X21309999Y-60605001D02*
X22225000Y-59690000D01*
X22225000Y-59690000D02*
X22860000Y-59690000D01*
X21309999Y-70485000D02*
X21309999Y-60605001D01*
X21309999Y-70839999D02*
X21309999Y-70485000D01*
X22860000Y-72390000D02*
X21309999Y-70839999D01*
X22860000Y-62230000D02*
X20955000Y-62230000D01*
X20955000Y-62230000D02*
X20320000Y-62865000D01*
X20320000Y-67310000D02*
X22860000Y-69850000D01*
X22860000Y-69850000D02*
X21590000Y-69850000D01*
X20320000Y-68580000D02*
X20320000Y-66040000D01*
X21590000Y-69850000D02*
X20320000Y-68580000D01*
X20320000Y-62865000D02*
X20320000Y-66040000D01*
X20320000Y-66040000D02*
X20320000Y-67310000D01*
X207290001Y-117829999D02*
X205740000Y-119380000D01*
X205740000Y-106680000D02*
X207290001Y-108230001D01*
X205740000Y-109220000D02*
X205740000Y-106680000D01*
X205740000Y-108530000D02*
X205795000Y-108585000D01*
X205740000Y-106680000D02*
X205740000Y-108530000D01*
X205795000Y-108585000D02*
X206375000Y-108585000D01*
X206375000Y-108585000D02*
X207010000Y-109220000D01*
X206375000Y-108585000D02*
X206375000Y-107950000D01*
X206589999Y-115990001D02*
X207859999Y-115990001D01*
X205740000Y-116840000D02*
X206589999Y-115990001D01*
X207859999Y-115990001D02*
X208280000Y-115570000D01*
X205740000Y-109220000D02*
X207645000Y-109220000D01*
X208280000Y-109855000D02*
X208280000Y-111760000D01*
X207645000Y-109220000D02*
X208280000Y-109855000D01*
X205740000Y-109220000D02*
X207010000Y-110490000D01*
X207010000Y-110490000D02*
X207290001Y-110490000D01*
X207290001Y-108230001D02*
X207290001Y-110490000D01*
X207290001Y-110490000D02*
X207290001Y-117829999D01*
X205740000Y-116840000D02*
X208280000Y-114300000D01*
X208280000Y-115570000D02*
X208280000Y-114300000D01*
X208280000Y-114300000D02*
X208280000Y-111760000D01*
X21309999Y-70485000D02*
X21309999Y-61314999D01*
D50*
X22860000Y-54840000D02*
X22225000Y-54205000D01*
X22860000Y-59690000D02*
X22860000Y-54840000D01*
X22225000Y-54205000D02*
X22225000Y-41910000D01*
X208280000Y-41910000D02*
X208975001Y-42605001D01*
X208975001Y-105349999D02*
X206375000Y-107950000D01*
D51*
X62230000Y-93345000D02*
X55245000Y-100330000D01*
X62230000Y-92710000D02*
X62230000Y-93345000D01*
D48*
X45925000Y-110625000D02*
X47617000Y-110625000D01*
X47617000Y-110625000D02*
X47998000Y-110625000D01*
D52*
X47998000Y-110625000D02*
X48260000Y-110363000D01*
D49*
X48260000Y-110363000D02*
X48641000Y-109982000D01*
D47*
X55245000Y-103378000D02*
X55245000Y-100330000D01*
X49783000Y-109093000D02*
X49530000Y-109093000D01*
X50370500Y-109093000D02*
X49783000Y-109093000D01*
X48641000Y-109982000D02*
X49530000Y-109093000D01*
X49530000Y-109093000D02*
X55245000Y-103378000D01*
D49*
X185200498Y-94375500D02*
X186285500Y-94375500D01*
X185035499Y-94210501D02*
X185200498Y-94375500D01*
X185035499Y-92940499D02*
X185035499Y-94210501D01*
X185200498Y-92775500D02*
X185035499Y-92940499D01*
X186285500Y-92775500D02*
X185200498Y-92775500D01*
X184400498Y-91975500D02*
X185200498Y-92775500D01*
D53*
X55245000Y-100330000D02*
X55245000Y-96130000D01*
X55245000Y-96130000D02*
X55245000Y-86995000D01*
X55245000Y-85725000D02*
X55245000Y-84454999D01*
X55245000Y-86995000D02*
X55245000Y-85725000D01*
X55245000Y-76200000D02*
X55245000Y-74930000D01*
D49*
X186285500Y-92775500D02*
X187894500Y-92775500D01*
X187894500Y-92775500D02*
X188595000Y-92075000D01*
D50*
X208975001Y-93345000D02*
X208975001Y-105349999D01*
X208975001Y-78740000D02*
X208975001Y-93345000D01*
D49*
X184150000Y-91975500D02*
X184400498Y-91975500D01*
X177785500Y-91975500D02*
X179070000Y-91975500D01*
D53*
X30919998Y-70223002D02*
X30919998Y-50604998D01*
X22624999Y-42309999D02*
X22225000Y-41910000D01*
X55245000Y-74930000D02*
X35626996Y-74930000D01*
X35626996Y-74930000D02*
X30919998Y-70223002D01*
X30919998Y-50604998D02*
X22624999Y-42309999D01*
D47*
X63877928Y-87714002D02*
X62844998Y-87714002D01*
X60724999Y-85489999D02*
X60325000Y-85090000D01*
X69225939Y-82365991D02*
X63877928Y-87714002D01*
X62272998Y-87037998D02*
X60724999Y-85489999D01*
X76200000Y-90170000D02*
X76200000Y-88218930D01*
X62844998Y-87714002D02*
X62272998Y-87142002D01*
X62272998Y-87142002D02*
X62272998Y-87037998D01*
X70347061Y-82365991D02*
X69225939Y-82365991D01*
X76200000Y-88218930D02*
X70347061Y-82365991D01*
X126835001Y-123989999D02*
X127635000Y-123190000D01*
X125665001Y-125159999D02*
X126835001Y-123989999D01*
X119444999Y-125159999D02*
X125665001Y-125159999D01*
X118745000Y-124460000D02*
X119444999Y-125159999D01*
X118745000Y-123825000D02*
X118745000Y-124460000D01*
D49*
X94674001Y-72522001D02*
X92874002Y-74322000D01*
X92874002Y-74322000D02*
X82142000Y-74322000D01*
X55810685Y-76200000D02*
X55245000Y-76200000D01*
X82142000Y-74322000D02*
X80264000Y-76200000D01*
X80264000Y-76200000D02*
X55810685Y-76200000D01*
D47*
X156130977Y-96599023D02*
X156130978Y-94823982D01*
X159789018Y-92587978D02*
X160936996Y-91440000D01*
X156130978Y-94823982D02*
X158366982Y-92587978D01*
X158366982Y-92587978D02*
X159789018Y-92587978D01*
X160936996Y-91440000D02*
X175260000Y-91440000D01*
X154940000Y-97790000D02*
X156130977Y-96599023D01*
X162666998Y-110379977D02*
X185309977Y-110379977D01*
X137160000Y-119380000D02*
X146010024Y-110529977D01*
X146010024Y-110529977D02*
X162516993Y-110529982D01*
X207290001Y-125204001D02*
X207290001Y-120930001D01*
X162516993Y-110529982D02*
X162666998Y-110379977D01*
X127635000Y-119380000D02*
X137160000Y-119380000D01*
X207290001Y-120930001D02*
X206589999Y-120229999D01*
X206589999Y-120229999D02*
X205740000Y-119380000D01*
X200940001Y-126010001D02*
X206484001Y-126010001D01*
X206484001Y-126010001D02*
X207290001Y-125204001D01*
X185309977Y-110379977D02*
X200940001Y-126010001D01*
D51*
X204724000Y-73660000D02*
X208975001Y-73660000D01*
D50*
X208975001Y-42605001D02*
X208975001Y-73660000D01*
X208975001Y-73660000D02*
X208975001Y-78740000D01*
D49*
G04 #@! TO.N,GND*
X26576000Y-95580000D02*
X27940000Y-95580000D01*
X25076000Y-95580000D02*
X24752498Y-95250000D01*
X26576000Y-95580000D02*
X25076000Y-95580000D01*
X24130000Y-94615000D02*
X24130000Y-94634000D01*
X24752498Y-95250000D02*
X24130000Y-94615000D01*
X27940000Y-95580000D02*
X28905000Y-95580000D01*
D51*
X26476000Y-89530000D02*
X21026000Y-89530000D01*
X26476000Y-98430000D02*
X21026000Y-98430000D01*
X21026000Y-98430000D02*
X21026000Y-89530000D01*
D49*
X26476000Y-95680000D02*
X26576000Y-95580000D01*
X26476000Y-98430000D02*
X26476000Y-95680000D01*
D48*
X43950000Y-111625000D02*
X44450000Y-111125000D01*
X42975000Y-111625000D02*
X43950000Y-111625000D01*
X45050000Y-109700000D02*
X43850000Y-109700000D01*
X45050000Y-112550000D02*
X43850000Y-112550000D01*
X44250000Y-112550000D02*
X44250000Y-109700000D01*
X43850000Y-110525000D02*
X43950000Y-110625000D01*
X43850000Y-109700000D02*
X43850000Y-110525000D01*
D52*
X42975000Y-111625000D02*
X41410000Y-111625000D01*
X45925000Y-111625000D02*
X47617000Y-111625000D01*
D47*
X52372500Y-109220000D02*
X52245500Y-109093000D01*
X54102000Y-109220000D02*
X52372500Y-109220000D01*
D48*
X47617000Y-111625000D02*
X48541388Y-111625000D01*
X48541388Y-111625000D02*
X48766398Y-111850010D01*
X49452911Y-111457500D02*
X49335400Y-111575011D01*
X50292000Y-111457500D02*
X49452911Y-111457500D01*
X49335400Y-111846693D02*
X49332083Y-111850010D01*
X49332083Y-111850010D02*
X48766398Y-111850010D01*
X49335400Y-111575011D02*
X49335400Y-111846693D01*
X47625000Y-115745500D02*
X47957500Y-115745500D01*
X47957500Y-115745500D02*
X48895000Y-114808000D01*
D47*
X50330000Y-111457500D02*
X50684510Y-111457500D01*
X51465666Y-110676344D02*
X51865665Y-110276345D01*
X52245500Y-109896510D02*
X51865665Y-110276345D01*
X52245500Y-109093000D02*
X52245500Y-109896510D01*
X50684510Y-111457500D02*
X51465666Y-110676344D01*
D49*
X176022000Y-82423000D02*
X177800000Y-80645000D01*
X172626000Y-82423000D02*
X176022000Y-82423000D01*
X177800000Y-80645000D02*
X177800000Y-73025000D01*
X187535501Y-95010501D02*
X187370502Y-95175500D01*
X187535501Y-93740499D02*
X187535501Y-95010501D01*
X187370502Y-93575500D02*
X187535501Y-93740499D01*
X186285500Y-93575500D02*
X187370502Y-93575500D01*
X187370502Y-93575500D02*
X188190500Y-93575500D01*
X188190500Y-93575500D02*
X188595000Y-93980000D01*
X187564499Y-95010501D02*
X188595000Y-93980000D01*
X187535501Y-95010501D02*
X187564499Y-95010501D01*
X187325000Y-95175500D02*
X186285500Y-95175500D01*
D48*
X39801800Y-113355600D02*
X39801800Y-114249200D01*
X39801800Y-114249200D02*
X39116000Y-114935000D01*
X39116000Y-117094000D02*
X38100000Y-118110000D01*
X39116000Y-114935000D02*
X39116000Y-117094000D01*
X32385000Y-44958000D02*
X32385000Y-44392315D01*
X32385000Y-44958000D02*
X32385000Y-38735000D01*
X196215000Y-44958000D02*
X196215000Y-38862000D01*
D49*
X179743998Y-96293002D02*
X179818514Y-96367519D01*
X179818514Y-96367519D02*
X179910545Y-96275488D01*
X181334516Y-96275488D02*
X182434504Y-95175500D01*
X182434504Y-95175500D02*
X186285500Y-95175500D01*
X179743998Y-95033998D02*
X179743998Y-96293002D01*
X179085500Y-94375500D02*
X179743998Y-95033998D01*
X179910545Y-96275488D02*
X181334516Y-96275488D01*
X177785500Y-94375500D02*
X179085500Y-94375500D01*
D48*
X44945000Y-111625000D02*
X45925000Y-111625000D01*
X44885000Y-111685000D02*
X44945000Y-111625000D01*
D49*
X187370502Y-95175500D02*
X187325000Y-95175500D01*
X102744001Y-71172001D02*
X102744001Y-73752001D01*
X104444001Y-69472001D02*
X102744001Y-71172001D01*
X95474000Y-68672002D02*
X94674001Y-69472001D01*
X102744001Y-71782036D02*
X99183965Y-68222000D01*
X102744001Y-73752001D02*
X102744001Y-71782036D01*
X95924002Y-68222000D02*
X95474000Y-68672002D01*
X99183965Y-68222000D02*
X95924002Y-68222000D01*
G04 #@! TO.N,/SDA3*
X180035500Y-97140498D02*
X180200499Y-96975499D01*
X180035500Y-98225500D02*
X180035500Y-97140498D01*
X183509816Y-96975499D02*
X180200499Y-96975499D01*
X183838315Y-96647000D02*
X183509816Y-96975499D01*
X184404000Y-96647000D02*
X183838315Y-96647000D01*
G04 #@! TO.N,/SDA4*
X180670501Y-99475501D02*
X180835500Y-99310502D01*
X179924499Y-99475501D02*
X180670501Y-99475501D01*
X179070000Y-100330000D02*
X179924499Y-99475501D01*
X180835500Y-99310502D02*
X180835500Y-98225500D01*
D48*
G04 #@! TO.N,/vBatt*
X42975000Y-110625000D02*
X41410000Y-110625000D01*
X42300000Y-110625000D02*
X42690000Y-110625000D01*
X40201500Y-110625000D02*
X42300000Y-110625000D01*
D47*
X39289083Y-111965237D02*
X38859320Y-112395000D01*
X40005000Y-111409000D02*
X39448763Y-111965237D01*
X39448763Y-111965237D02*
X39289083Y-111965237D01*
X35560000Y-115694320D02*
X35560000Y-117475000D01*
D52*
X42975000Y-110625000D02*
X40201500Y-110625000D01*
X40005000Y-110821500D02*
X40005000Y-111409000D01*
X40201500Y-110625000D02*
X40005000Y-110821500D01*
D47*
X37589320Y-113665000D02*
X35560000Y-115694320D01*
X38224320Y-113030000D02*
X37589320Y-113665000D01*
X38859320Y-112395000D02*
X38224320Y-113030000D01*
X29183998Y-108458000D02*
X27051000Y-106325002D01*
X35814000Y-108458000D02*
X29183998Y-108458000D01*
X27051000Y-106325002D02*
X27051000Y-102576998D01*
X27051000Y-102576998D02*
X30734000Y-98893998D01*
D51*
X26106000Y-108839000D02*
X36195000Y-108839000D01*
X22225000Y-115570000D02*
X22225000Y-112720000D01*
D47*
X37338000Y-109982000D02*
X36195000Y-108839000D01*
D51*
X22225000Y-112720000D02*
X26106000Y-108839000D01*
D47*
X36195000Y-108839000D02*
X35814000Y-108458000D01*
D49*
X67691000Y-82296000D02*
X63373000Y-86614000D01*
X52735000Y-92710000D02*
X51435000Y-92710000D01*
X53086000Y-92359000D02*
X52735000Y-92710000D01*
X53086000Y-89027000D02*
X53086000Y-92359000D01*
D47*
X186690000Y-117475000D02*
X183515000Y-114300000D01*
D49*
X79918954Y-77535010D02*
X79339046Y-77535010D01*
X79274036Y-77470000D02*
X68256685Y-77470000D01*
X81126964Y-76327000D02*
X79918954Y-77535010D01*
X68256685Y-77470000D02*
X67691000Y-77470000D01*
X79339046Y-77535010D02*
X79274036Y-77470000D01*
X84201000Y-77724000D02*
X82804000Y-76327000D01*
X82804000Y-76327000D02*
X81126964Y-76327000D01*
X96494001Y-73752001D02*
X94674001Y-75572001D01*
X97234001Y-73752001D02*
X96494001Y-73752001D01*
X93653372Y-77724000D02*
X93472000Y-77724000D01*
X94674001Y-76703371D02*
X93653372Y-77724000D01*
X94674001Y-75572001D02*
X94674001Y-76703371D01*
X93472000Y-77724000D02*
X84201000Y-77724000D01*
D47*
X159068100Y-94573896D02*
X159681316Y-94573896D01*
X159681316Y-94573896D02*
X160247001Y-94573896D01*
X177800000Y-104140000D02*
X162179000Y-104140000D01*
X158030998Y-95610998D02*
X159068100Y-94573896D01*
X162179000Y-104140000D02*
X158030998Y-99991998D01*
X158030998Y-99991998D02*
X158030998Y-95610998D01*
D49*
X153366009Y-93025989D02*
X137546915Y-93025989D01*
X137305999Y-93266905D02*
X136906000Y-93666904D01*
X153592378Y-92799620D02*
X153366009Y-93025989D01*
X137546915Y-93025989D02*
X137305999Y-93266905D01*
X154902620Y-92799620D02*
X153592378Y-92799620D01*
X99286998Y-77381998D02*
X98944996Y-77724000D01*
X119799998Y-77381998D02*
X99286998Y-77381998D01*
X125222000Y-82804000D02*
X119799998Y-77381998D01*
X98944996Y-77724000D02*
X93472000Y-77724000D01*
D51*
X38481000Y-98933000D02*
X38481001Y-98933000D01*
X38481001Y-97808738D02*
X39714729Y-96575010D01*
X51435000Y-95510000D02*
X51435000Y-92710000D01*
X50369990Y-96575010D02*
X51435000Y-95510000D01*
X39714729Y-96575010D02*
X50369990Y-96575010D01*
X38481001Y-98933000D02*
X38481001Y-97808738D01*
D49*
G04 #@! TO.N,Net-(Q2-Pad2)*
X29275011Y-83774989D02*
X29210000Y-83840000D01*
X29210000Y-83840000D02*
X29210000Y-85090000D01*
X66040000Y-92169998D02*
X66040000Y-93980000D01*
X62451490Y-88664012D02*
X62534015Y-88664013D01*
X54437279Y-82504989D02*
X56292467Y-82504989D01*
X29210000Y-83840000D02*
X34237998Y-83840000D01*
X62534015Y-88664013D02*
X66040000Y-92169998D01*
X56292467Y-82504989D02*
X62451490Y-88664012D01*
X42926000Y-84074000D02*
X43053000Y-83947000D01*
X34237998Y-83840000D02*
X34471998Y-84074000D01*
X43053000Y-83947000D02*
X52995268Y-83947000D01*
X66040000Y-93980000D02*
X60960000Y-99060000D01*
X34471998Y-84074000D02*
X42926000Y-84074000D01*
X52995268Y-83947000D02*
X54437279Y-82504989D01*
D47*
G04 #@! TO.N,Net-(Q5-Pad2)*
X107950000Y-88904998D02*
X107950000Y-90170000D01*
X107765001Y-88719999D02*
X107950000Y-88904998D01*
X104955001Y-88719999D02*
X107765001Y-88719999D01*
X103505000Y-90170000D02*
X104955001Y-88719999D01*
D48*
G04 #@! TO.N,Net-(Q6-Pad2)*
X92202000Y-104394000D02*
X101092000Y-104394000D01*
X101092000Y-104394000D02*
X101473000Y-104775000D01*
X107950000Y-98790000D02*
X107950000Y-97790000D01*
X108975001Y-99815001D02*
X107950000Y-98790000D01*
X108975001Y-103362001D02*
X108975001Y-99815001D01*
X108197002Y-104140000D02*
X108975001Y-103362001D01*
X103378000Y-104140000D02*
X108197002Y-104140000D01*
D47*
G04 #@! TO.N,Net-(R2-Pad1)*
X78845000Y-102235000D02*
X89535000Y-102235000D01*
X76200000Y-97790000D02*
X76200000Y-99590000D01*
X76200000Y-99590000D02*
X78845000Y-102235000D01*
X107315000Y-102235000D02*
X107950000Y-102870000D01*
X93345000Y-102235000D02*
X107315000Y-102235000D01*
G04 #@! TO.N,Net-(R3-Pad1)*
X107950000Y-85090000D02*
X103505000Y-85090000D01*
X79539999Y-96990001D02*
X78740000Y-97790000D01*
X92305001Y-96289999D02*
X80240001Y-96289999D01*
X80240001Y-96289999D02*
X79539999Y-96990001D01*
X103505000Y-85090000D02*
X92305001Y-96289999D01*
G04 #@! TO.N,Net-(R4-Pad1)*
X84455000Y-100965000D02*
X81280000Y-97790000D01*
X89535000Y-100965000D02*
X84455000Y-100965000D01*
X103505000Y-99418004D02*
X101958004Y-100965000D01*
X101958004Y-100965000D02*
X93910685Y-100965000D01*
X103505000Y-97790000D02*
X103505000Y-99418004D01*
X93910685Y-100965000D02*
X93345000Y-100965000D01*
G04 #@! TO.N,/BTNK1_1*
X33001306Y-153924940D02*
X36830000Y-157753634D01*
X36830000Y-157753634D02*
X36830000Y-162560000D01*
X120650000Y-157753634D02*
X116821306Y-153924940D01*
X120650000Y-162560000D02*
X120650000Y-157753634D01*
X106680000Y-157753634D02*
X106680000Y-162560000D01*
X102851306Y-153924940D02*
X106680000Y-157753634D01*
X106680000Y-162560000D02*
X120650000Y-162560000D01*
X92710000Y-157753634D02*
X92710000Y-162560000D01*
X88881306Y-153924940D02*
X92710000Y-157753634D01*
X92710000Y-162560000D02*
X106680000Y-162560000D01*
X74911306Y-153924940D02*
X76454940Y-153924940D01*
X78740000Y-156210000D02*
X78740000Y-162560000D01*
X76454940Y-153924940D02*
X78740000Y-156210000D01*
X78740000Y-162560000D02*
X92710000Y-162560000D01*
X64770000Y-157753634D02*
X64770000Y-162560000D01*
X60941306Y-153924940D02*
X64770000Y-157753634D01*
X64770000Y-162560000D02*
X78740000Y-162560000D01*
X50800000Y-157753634D02*
X50800000Y-162560000D01*
X46971306Y-153924940D02*
X50800000Y-157753634D01*
X36830000Y-162560000D02*
X50800000Y-162560000D01*
X50800000Y-162560000D02*
X64770000Y-162560000D01*
D49*
X207010000Y-163830000D02*
X210494989Y-160345011D01*
D47*
X210494989Y-109619999D02*
X210094990Y-109220000D01*
D49*
X133350000Y-163830000D02*
X207010000Y-163830000D01*
X132080000Y-162560000D02*
X133350000Y-163830000D01*
X120650000Y-162560000D02*
X132080000Y-162560000D01*
D48*
X210494989Y-130712938D02*
X210494989Y-131318000D01*
X210439000Y-130656949D02*
X210494989Y-130712938D01*
X210439000Y-129667000D02*
X210439000Y-130656949D01*
D49*
X210494989Y-160345011D02*
X210494989Y-131318000D01*
X210494989Y-131318000D02*
X210494989Y-109619999D01*
D47*
G04 #@! TO.N,/BTNK1_2*
X130791306Y-153924940D02*
X134620000Y-157753634D01*
X134620000Y-157753634D02*
X134620000Y-162560000D01*
X186671306Y-153924940D02*
X190500000Y-157753634D01*
X190500000Y-157753634D02*
X190500000Y-162560000D01*
X176530000Y-157753634D02*
X176530000Y-162560000D01*
X172701306Y-153924940D02*
X176530000Y-157753634D01*
X176530000Y-162560000D02*
X190500000Y-162560000D01*
X158731306Y-153924940D02*
X162560000Y-157753634D01*
X162560000Y-157753634D02*
X162560000Y-162560000D01*
X162560000Y-162560000D02*
X176530000Y-162560000D01*
X148590000Y-157753634D02*
X148590000Y-162560000D01*
X144761306Y-153924940D02*
X148590000Y-157753634D01*
X134620000Y-162560000D02*
X148590000Y-162560000D01*
X148590000Y-162560000D02*
X162560000Y-162560000D01*
X206444989Y-162560000D02*
X206444989Y-157188623D01*
X190500000Y-162560000D02*
X206444989Y-162560000D01*
X206444989Y-157188623D02*
X203181306Y-153924940D01*
D49*
X206444989Y-130740011D02*
X208915000Y-128270000D01*
X192913000Y-130656949D02*
X194082051Y-131826000D01*
D47*
X192913000Y-129667000D02*
X192913000Y-130656949D01*
D49*
X194082051Y-131826000D02*
X206444989Y-131826000D01*
X206444989Y-131826000D02*
X206444989Y-130740011D01*
X206444989Y-146053529D02*
X207960011Y-144538507D01*
X206444989Y-133981471D02*
X206444989Y-131826000D01*
X207960011Y-144538507D02*
X207960011Y-135496493D01*
X206444989Y-157188623D02*
X206444989Y-146053529D01*
X207960011Y-135496493D02*
X206444989Y-133981471D01*
X208915000Y-128270000D02*
X208915000Y-116840000D01*
D48*
X202692000Y-91948000D02*
X201358989Y-90614989D01*
X201174304Y-90614989D02*
X200660000Y-90614989D01*
X201358989Y-90614989D02*
X200660000Y-90614989D01*
D47*
G04 #@! TO.N,/BTNK2_1*
X197676781Y-34137184D02*
X194310000Y-30770403D01*
X194310000Y-30770403D02*
X194310000Y-25400000D01*
X124460000Y-30770403D02*
X124460000Y-25400000D01*
X127826781Y-34137184D02*
X124460000Y-30770403D01*
X138430000Y-30770403D02*
X138430000Y-25400000D01*
X141796781Y-34137184D02*
X138430000Y-30770403D01*
X138430000Y-25400000D02*
X124460000Y-25400000D01*
X152400000Y-30770403D02*
X152400000Y-25400000D01*
X155766781Y-34137184D02*
X152400000Y-30770403D01*
X152400000Y-25400000D02*
X138430000Y-25400000D01*
X166370000Y-30770403D02*
X166370000Y-25400000D01*
X169736781Y-34137184D02*
X166370000Y-30770403D01*
X166370000Y-25400000D02*
X152400000Y-25400000D01*
X180340000Y-30770403D02*
X180340000Y-25400000D01*
X194310000Y-25400000D02*
X180340000Y-25400000D01*
X183706781Y-34137184D02*
X180340000Y-30770403D01*
X180340000Y-25400000D02*
X166370000Y-25400000D01*
X124460000Y-25400000D02*
X110490000Y-25400000D01*
X110490000Y-25400000D02*
X110490000Y-30770403D01*
X110490000Y-30770403D02*
X113856781Y-34137184D01*
D49*
X200875001Y-68364999D02*
X200875001Y-80418001D01*
X204470000Y-64770000D02*
X200875001Y-68364999D01*
X200875001Y-80418001D02*
X200680023Y-80612979D01*
X200680023Y-80612979D02*
X200660000Y-80612979D01*
X201085599Y-25400000D02*
X204470000Y-28784401D01*
X194310000Y-25400000D02*
X201085599Y-25400000D01*
D48*
X204724000Y-61976000D02*
X204724000Y-61214000D01*
X204724000Y-61214000D02*
X204470000Y-60960000D01*
D49*
X204470000Y-28784401D02*
X204470000Y-60960000D01*
X204470000Y-60960000D02*
X204470000Y-64770000D01*
D47*
G04 #@! TO.N,/BTNK2_2*
X99886781Y-34137184D02*
X96520000Y-30770403D01*
X96520000Y-30770403D02*
X96520000Y-25400000D01*
X24130000Y-30955000D02*
X27385000Y-34210000D01*
X24130000Y-25400000D02*
X24130000Y-30955000D01*
X40640000Y-30770403D02*
X40640000Y-25400000D01*
X44006781Y-34137184D02*
X40640000Y-30770403D01*
X40640000Y-25400000D02*
X24130000Y-25400000D01*
X54610000Y-30770403D02*
X54610000Y-25400000D01*
X57976781Y-34137184D02*
X54610000Y-30770403D01*
X54610000Y-25400000D02*
X40640000Y-25400000D01*
X71946781Y-34137184D02*
X68580000Y-30770403D01*
X68580000Y-30770403D02*
X68580000Y-25400000D01*
X68580000Y-25400000D02*
X54610000Y-25400000D01*
X85916781Y-34137184D02*
X82550000Y-30770403D01*
X96520000Y-25400000D02*
X82550000Y-25400000D01*
X82550000Y-30770403D02*
X82550000Y-25400000D01*
X82550000Y-25400000D02*
X68580000Y-25400000D01*
D49*
X205740000Y-29064436D02*
X200805564Y-24130000D01*
X205740000Y-37465000D02*
X205740000Y-29064436D01*
X97790000Y-24130000D02*
X96520000Y-25400000D01*
X200805564Y-24130000D02*
X97790000Y-24130000D01*
X195009999Y-88200001D02*
X198120000Y-85090000D01*
X193675000Y-88900000D02*
X194374999Y-88200001D01*
X194374999Y-88200001D02*
X195009999Y-88200001D01*
X203200000Y-64135000D02*
X199934838Y-67400162D01*
X199934838Y-79358699D02*
X199934838Y-79924384D01*
X199934838Y-67400162D02*
X199934838Y-79358699D01*
X203200000Y-38735000D02*
X203200000Y-64135000D01*
G04 #@! TO.N,/SDA_INTERNAL*
X83185000Y-93345000D02*
X93345000Y-93345000D01*
X97155000Y-93345000D02*
X97155000Y-95250000D01*
X97155000Y-95250000D02*
X101600000Y-99695000D01*
X102969999Y-104990001D02*
X110705001Y-104990001D01*
X110705001Y-104990001D02*
X111360001Y-105645001D01*
X102527999Y-104548001D02*
X102969999Y-104990001D01*
X111360001Y-105645001D02*
X111760000Y-106045000D01*
X101600000Y-103505000D02*
X102527999Y-104432999D01*
X102527999Y-104432999D02*
X102527999Y-104548001D01*
X176204092Y-95761021D02*
X176113069Y-95669998D01*
X176608504Y-95975500D02*
X176394025Y-95761021D01*
X178396001Y-98651999D02*
X178396001Y-99618893D01*
X177785500Y-95975500D02*
X176608504Y-95975500D01*
X176113069Y-95669998D02*
X175486998Y-95669998D01*
X177954001Y-98209999D02*
X178396001Y-98651999D01*
X175486998Y-95669998D02*
X175044998Y-96111998D01*
X175044998Y-96975888D02*
X176279109Y-98209999D01*
X176394025Y-95761021D02*
X176204092Y-95761021D01*
X178396001Y-99618893D02*
X178027820Y-99987074D01*
X178027820Y-99987074D02*
X178027820Y-100341485D01*
X178027820Y-100341485D02*
X178027820Y-100907170D01*
X175044998Y-96111998D02*
X175044998Y-96975888D01*
X176279109Y-98209999D02*
X177954001Y-98209999D01*
D47*
G04 #@! TO.N,Net-(U2-Pad9)*
X93980000Y-90170000D02*
X99060000Y-85090000D01*
X102634999Y-82314999D02*
X102235000Y-81915000D01*
X118170012Y-84445697D02*
X118170012Y-83920939D01*
X127704315Y-93980000D02*
X118170012Y-84445697D01*
X102809988Y-82489988D02*
X102634999Y-82314999D01*
X116739061Y-82489988D02*
X102809988Y-82489988D01*
X128270000Y-93980000D02*
X127704315Y-93980000D01*
X118170012Y-83920939D02*
X116739061Y-82489988D01*
G04 #@! TO.N,Net-(R1-Pad1)*
X116970001Y-86490001D02*
X119950001Y-89470001D01*
X119950001Y-89470001D02*
X120650000Y-90170000D01*
X116242001Y-83689999D02*
X116970001Y-84417999D01*
X78740000Y-90170000D02*
X85220001Y-83689999D01*
X116970001Y-84417999D02*
X116970001Y-86490001D01*
X85220001Y-83689999D02*
X116242001Y-83689999D01*
D48*
G04 #@! TO.N,/MISO*
X194880001Y-81344999D02*
X195580000Y-80645000D01*
X199233956Y-81033946D02*
X198833957Y-80633947D01*
X199537999Y-81337989D02*
X201997600Y-81337989D01*
X201997600Y-81337989D02*
X202505600Y-80829989D01*
X198833957Y-80633947D02*
X199537999Y-81337989D01*
X203874001Y-79589999D02*
X204724000Y-78740000D01*
X202505600Y-80829989D02*
X202634011Y-80829989D01*
X202634011Y-80829989D02*
X203874001Y-79589999D01*
G04 #@! TO.N,/MOSI*
X195580000Y-73025000D02*
X194554999Y-74050001D01*
X196279999Y-73724999D02*
X195580000Y-73025000D01*
X197505023Y-74950023D02*
X196279999Y-73724999D01*
X197505023Y-80665023D02*
X197505023Y-74950023D01*
X202692000Y-81279999D02*
X202184000Y-81787999D01*
X197612000Y-80772000D02*
X197505023Y-80665023D01*
X204724000Y-81280000D02*
X202692000Y-81279999D01*
X202184000Y-81787999D02*
X198915005Y-81787997D01*
X197899008Y-80772000D02*
X197612000Y-80772000D01*
X198915005Y-81787997D02*
X197899008Y-80772000D01*
G04 #@! TO.N,/SCK*
X197055012Y-77040012D02*
X197055012Y-81709988D01*
X195580000Y-75565000D02*
X197055012Y-77040012D01*
X198286001Y-82970001D02*
X197055012Y-81739012D01*
X197055012Y-81739012D02*
X197055012Y-81709988D01*
X204724000Y-83820000D02*
X203874001Y-82970001D01*
X203874001Y-82970001D02*
X198286001Y-82970001D01*
G04 #@! TO.N,Net-(C2-Pad1)*
X45925000Y-112125000D02*
X47968384Y-112125000D01*
X49175884Y-113332500D02*
X49492000Y-113332500D01*
X47968384Y-112125000D02*
X49175884Y-113332500D01*
X49492000Y-113332500D02*
X50292000Y-113332500D01*
G04 #@! TO.N,Net-(C3-Pad1)*
X45925000Y-111125000D02*
X46600000Y-111125000D01*
X46600000Y-111125000D02*
X47625000Y-111125000D01*
D47*
X60706000Y-108204000D02*
X61722000Y-109220000D01*
X60706000Y-105664000D02*
X60706000Y-108204000D01*
D48*
X47625000Y-113870500D02*
X47625000Y-112903000D01*
X47625000Y-111125000D02*
X48133000Y-111125000D01*
X48133000Y-111125000D02*
X48768000Y-111125000D01*
X49149000Y-111125000D02*
X49784000Y-110490000D01*
X48768000Y-111125000D02*
X49149000Y-111125000D01*
X52889685Y-111760000D02*
X54286685Y-110363000D01*
X52324000Y-111760000D02*
X52889685Y-111760000D01*
X60579000Y-110363000D02*
X61722000Y-109220000D01*
X54286685Y-110363000D02*
X60579000Y-110363000D01*
D49*
G04 #@! TO.N,Net-(D5-Pad1)*
X187960000Y-80645000D02*
X185420000Y-80645000D01*
X175312071Y-84963000D02*
X173901000Y-84963000D01*
X173901000Y-84963000D02*
X172626000Y-84963000D01*
X179630069Y-80645000D02*
X175312071Y-84963000D01*
X185420000Y-80645000D02*
X179630069Y-80645000D01*
G04 #@! TO.N,Net-(D30-Pad1)*
X187960000Y-73025000D02*
X185420000Y-73025000D01*
X185420000Y-73025000D02*
X184170000Y-73025000D01*
X167226000Y-77679004D02*
X167226000Y-81623000D01*
X184170000Y-73025000D02*
X181414998Y-70269998D01*
X162344998Y-72798002D02*
X167226000Y-77679004D01*
X162344998Y-72163002D02*
X162344998Y-72798002D01*
X167226000Y-81623000D02*
X167226000Y-82423000D01*
X161709998Y-70711998D02*
X161709998Y-71528002D01*
X161709998Y-71528002D02*
X162344998Y-72163002D01*
X162151998Y-70269998D02*
X161709998Y-70711998D01*
X181414998Y-70269998D02*
X162151998Y-70269998D01*
G04 #@! TO.N,Net-(D31-Pad1)*
X187960000Y-75565000D02*
X185420000Y-75565000D01*
X167701000Y-83693000D02*
X167226000Y-83693000D01*
X170991001Y-86983001D02*
X167701000Y-83693000D01*
X185420000Y-75565000D02*
X189230000Y-75565000D01*
X189230000Y-75565000D02*
X189230000Y-79223034D01*
X175271999Y-86983001D02*
X170991001Y-86983001D01*
X189230000Y-79223034D02*
X189810012Y-79803045D01*
X188751955Y-82545012D02*
X179709988Y-82545012D01*
X179709988Y-82545012D02*
X175271999Y-86983001D01*
X189810012Y-79803045D02*
X189810012Y-81486955D01*
X189810012Y-81486955D02*
X188751955Y-82545012D01*
G04 #@! TO.N,Net-(D32-Pad1)*
X187960000Y-78105000D02*
X185420000Y-78105000D01*
X179420034Y-81845001D02*
X188462001Y-81845001D01*
X189110001Y-81197001D02*
X189110001Y-80092999D01*
X189110001Y-80092999D02*
X187960000Y-78942998D01*
X188462001Y-81845001D02*
X189110001Y-81197001D01*
X187960000Y-78942998D02*
X187960000Y-78105000D01*
X172626000Y-86233000D02*
X175032036Y-86233000D01*
X175032036Y-86233000D02*
X179420034Y-81845001D01*
D52*
G04 #@! TO.N,/RESET*
X182979999Y-102450001D02*
X182435500Y-101905502D01*
D49*
X182435500Y-99525500D02*
X182435500Y-98225500D01*
X182435500Y-101905502D02*
X182435500Y-99525500D01*
D48*
G04 #@! TO.N,Net-(L1-Pad1)*
X46600000Y-110125000D02*
X46616000Y-110109000D01*
X45925000Y-110125000D02*
X46600000Y-110125000D01*
X46616000Y-110109000D02*
X47625000Y-110109000D01*
D47*
X29337000Y-104451000D02*
X44761000Y-104451000D01*
X44761000Y-104451000D02*
X46990000Y-106680000D01*
X46990000Y-106680000D02*
X46990000Y-109220000D01*
D49*
X46990000Y-109220000D02*
X46355000Y-109855000D01*
X46990000Y-109220000D02*
X46990000Y-109855000D01*
X46990000Y-109855000D02*
X46355000Y-109855000D01*
D48*
X46085000Y-110125000D02*
X46355000Y-109855000D01*
X45925000Y-110125000D02*
X46085000Y-110125000D01*
G04 #@! TO.N,Net-(L1-Pad2)*
X42975000Y-110125000D02*
X41418000Y-110125000D01*
D47*
X29337000Y-114751000D02*
X34474000Y-114751000D01*
X34474000Y-114751000D02*
X39497000Y-109728000D01*
X39497000Y-109728000D02*
X42164000Y-109728000D01*
D49*
G04 #@! TO.N,Net-(Q1-Pad1)*
X35941000Y-95504000D02*
X35941000Y-98933000D01*
D48*
X45085000Y-86360000D02*
X45085000Y-94361000D01*
X44196001Y-95249999D02*
X36195001Y-95249999D01*
X45085000Y-94361000D02*
X44196001Y-95249999D01*
X36195001Y-95249999D02*
X35941000Y-95504000D01*
D49*
G04 #@! TO.N,/vUsb*
X26576000Y-92380000D02*
X28270000Y-92380000D01*
X28270000Y-92380000D02*
X28575000Y-92075000D01*
D51*
X42418000Y-100330000D02*
X41021000Y-98933000D01*
X45085000Y-100330000D02*
X42418000Y-100330000D01*
D49*
X63646330Y-106650610D02*
X61135720Y-104140000D01*
X61135720Y-104140000D02*
X56515000Y-104140000D01*
X49530000Y-100330000D02*
X45085000Y-100330000D01*
X52705000Y-103505000D02*
X49530000Y-100330000D01*
D51*
X34028509Y-101133011D02*
X39392275Y-101133011D01*
X40681012Y-99844274D02*
X40681012Y-98775021D01*
X39392275Y-101133011D02*
X40681012Y-99844274D01*
X33788499Y-100893001D02*
X34028509Y-101133011D01*
X28575000Y-92075000D02*
X33788499Y-97288499D01*
X41021000Y-98775021D02*
X41021000Y-98933000D01*
X33788499Y-97288499D02*
X33788499Y-100893001D01*
X40681012Y-98775021D02*
X41021000Y-98775021D01*
D49*
G04 #@! TO.N,Net-(R10-Pad2)*
X71266330Y-103475610D02*
X71266330Y-106650610D01*
G04 #@! TO.N,/CHGEN*
X178750011Y-104533507D02*
X178750011Y-103177991D01*
X178193507Y-105090011D02*
X178750011Y-104533507D01*
X178750011Y-103177991D02*
X181635500Y-100292502D01*
X181635500Y-100292502D02*
X181635500Y-99525500D01*
X181635500Y-99525500D02*
X181635500Y-98225500D01*
X154305000Y-104140000D02*
X155255011Y-105090011D01*
X155255011Y-105090011D02*
X178193507Y-105090011D01*
G04 #@! TO.N,/PWRCTL*
X189230000Y-116162441D02*
X188891559Y-115824000D01*
X189230000Y-128905000D02*
X189230000Y-116162441D01*
X188891559Y-115824000D02*
X185470489Y-112402930D01*
G04 #@! TO.N,/3v3*
X167226000Y-84963000D02*
X167226000Y-86233000D01*
X172626000Y-83693000D02*
X170307000Y-83693000D01*
X170307000Y-83693000D02*
X170180000Y-83820000D01*
X167353000Y-86360000D02*
X167226000Y-86233000D01*
X168910000Y-86360000D02*
X167353000Y-86360000D01*
D48*
G04 #@! TO.N,Net-(U5-Pad5)*
X42942000Y-112125000D02*
X42975000Y-112125000D01*
X42621200Y-112445800D02*
X42942000Y-112125000D01*
X41427400Y-112445800D02*
X42621200Y-112445800D01*
D47*
G04 #@! TO.N,/SPKR*
X125095000Y-130810000D02*
X127635000Y-128270000D01*
X127635000Y-128270000D02*
X132715000Y-128270000D01*
X132715000Y-128270000D02*
X135255000Y-130810000D01*
D49*
X148170001Y-112179999D02*
X148998001Y-112179999D01*
X183766906Y-112329989D02*
X183916905Y-112179990D01*
X183916905Y-112179990D02*
X184482590Y-112179990D01*
X149147991Y-112329989D02*
X183766906Y-112329989D01*
X148998001Y-112179999D02*
X149147991Y-112329989D01*
X141605000Y-118745000D02*
X148170001Y-112179999D01*
D48*
G04 #@! TO.N,Net-(D34-Pad1)*
X45020001Y-117410001D02*
X45720000Y-118110000D01*
X40826810Y-111496990D02*
X40826810Y-113216810D01*
X40826810Y-113216810D02*
X45020001Y-117410001D01*
X41198800Y-111125000D02*
X40826810Y-111496990D01*
X42975000Y-111125000D02*
X41198800Y-111125000D01*
D49*
X187960000Y-135255000D02*
X189230000Y-136525000D01*
X187960000Y-116205000D02*
X187960000Y-135255000D01*
X148590000Y-113030000D02*
X184785000Y-113030000D01*
X184785000Y-113030000D02*
X187960000Y-116205000D01*
D48*
G04 #@! TO.N,/SEN_LED*
X181635500Y-89725500D02*
X181635500Y-88675500D01*
X181635500Y-88675500D02*
X184255800Y-86055200D01*
X187883800Y-86055200D02*
X189941200Y-88112600D01*
X184255800Y-86055200D02*
X187883800Y-86055200D01*
X203696402Y-104913598D02*
X203696402Y-96806998D01*
X202547198Y-96379198D02*
X202007762Y-96918634D01*
X201930000Y-106680000D02*
X203696402Y-104913598D01*
X203696402Y-96806998D02*
X203268602Y-96379198D01*
X194482519Y-95783408D02*
X193916834Y-95783408D01*
X196993636Y-96918634D02*
X195858410Y-95783408D01*
X203268602Y-96379198D02*
X202547198Y-96379198D01*
X195858410Y-95783408D02*
X194482519Y-95783408D01*
X202007762Y-96918634D02*
X196993636Y-96918634D01*
D47*
X191375528Y-109242013D02*
X199367987Y-109242013D01*
X153069936Y-106079936D02*
X181661857Y-106079936D01*
X187462438Y-105328923D02*
X191375528Y-109242013D01*
X148590000Y-101600000D02*
X153069936Y-106079936D01*
X199367987Y-109242013D02*
X201080001Y-107529999D01*
X181661857Y-106079936D02*
X182412872Y-105328923D01*
X182412872Y-105328923D02*
X187462438Y-105328923D01*
X146520001Y-98589999D02*
X147320000Y-97790000D01*
X137796879Y-99420777D02*
X145689223Y-99420777D01*
X135890000Y-99695000D02*
X137522656Y-99695000D01*
X145689223Y-99420777D02*
X146520001Y-98589999D01*
X137522656Y-99695000D02*
X137796879Y-99420777D01*
D49*
G04 #@! TO.N,/SDA1*
X180104999Y-85313005D02*
X177170962Y-88247042D01*
X177170962Y-88247042D02*
X177170962Y-89534578D01*
X180104999Y-84219999D02*
X180104999Y-85313005D01*
X177170962Y-89534578D02*
X177170962Y-90100263D01*
X179705000Y-83820000D02*
X180104999Y-84219999D01*
G04 #@! TO.N,/SDA2*
X179070000Y-85090000D02*
X176280660Y-87879340D01*
X176280660Y-87879340D02*
X176280660Y-90555660D01*
G04 #@! TO.N,/5v*
X175260000Y-91440000D02*
X175510365Y-91690365D01*
X176700498Y-91975500D02*
X177785500Y-91975500D01*
X175510365Y-91690365D02*
X176415363Y-91690365D01*
X176415363Y-91690365D02*
X176700498Y-91975500D01*
D47*
X181985601Y-93759201D02*
X182557601Y-93187201D01*
X179070000Y-91975500D02*
X179145898Y-91975500D01*
X180929599Y-93759201D02*
X181985601Y-93759201D01*
X182557601Y-93187201D02*
X182557601Y-92958601D01*
X183540702Y-91975500D02*
X184150000Y-91975500D01*
X182557601Y-92958601D02*
X183540702Y-91975500D01*
X179145898Y-91975500D02*
X180929599Y-93759201D01*
X201120706Y-92004708D02*
X202587998Y-93472000D01*
X192388012Y-92211350D02*
X192594654Y-92004708D01*
X192594654Y-92004708D02*
X201120706Y-92004708D01*
X188595000Y-92075000D02*
X188601792Y-92068208D01*
X190677800Y-92068208D02*
X190820942Y-92211350D01*
X203142315Y-93472000D02*
X203708000Y-93472000D01*
X190820942Y-92211350D02*
X192388012Y-92211350D01*
X188601792Y-92068208D02*
X190677800Y-92068208D01*
X202587998Y-93472000D02*
X203142315Y-93472000D01*
G04 #@! TO.N,GND*
X202819000Y-129667000D02*
X200533000Y-129667000D01*
D49*
X173291431Y-93599000D02*
X173800044Y-93090387D01*
X177710501Y-94300501D02*
X177785500Y-94375500D01*
X167307500Y-93599000D02*
X173291431Y-93599000D01*
X176625499Y-94300501D02*
X177710501Y-94300501D01*
X173800044Y-93090387D02*
X175415385Y-93090387D01*
X175415385Y-93090387D02*
X176625499Y-94300501D01*
G04 #@! TO.N,/SDA3*
X186635237Y-100246265D02*
X186811124Y-100246265D01*
X186193237Y-99804265D02*
X186635237Y-100246265D01*
X192500186Y-105048374D02*
X192500186Y-106114315D01*
X187710027Y-101145168D02*
X188596980Y-101145168D01*
X188596980Y-101145168D02*
X192500186Y-105048374D01*
X192500186Y-106114315D02*
X192500186Y-106680000D01*
X186811124Y-100246265D02*
X187710027Y-101145168D01*
X186690000Y-98425000D02*
X186193237Y-98921763D01*
X186193237Y-98921763D02*
X186193237Y-99804265D01*
G04 #@! TO.N,/SDA4*
X187617033Y-104140000D02*
X182880000Y-104140000D01*
X201930000Y-104140000D02*
X200580000Y-104140000D01*
X200580000Y-104140000D02*
X198792202Y-105927798D01*
X198350202Y-108292002D02*
X191769035Y-108292002D01*
X191769035Y-108292002D02*
X187617033Y-104140000D01*
X181374999Y-102634999D02*
X180975000Y-102235000D01*
X198792202Y-105927798D02*
X198792202Y-107850002D01*
X182880000Y-104140000D02*
X181374999Y-102634999D01*
X198792202Y-107850002D02*
X198350202Y-108292002D01*
D47*
G04 #@! TO.N,/vBatt*
X194451010Y-132776009D02*
X198200000Y-136525000D01*
X193334990Y-132776009D02*
X194451010Y-132776009D01*
X191412999Y-130854018D02*
X193334990Y-132776009D01*
X191412999Y-122299599D02*
X191412999Y-130854018D01*
X190296800Y-121183400D02*
X191412999Y-122299599D01*
D48*
G04 #@! TO.N,/BTNK1_1*
X194599845Y-97368645D02*
X202732355Y-97368645D01*
X202732355Y-97368645D02*
X202971400Y-97129600D01*
X194030600Y-96799400D02*
X194599845Y-97368645D01*
X189740050Y-95466114D02*
X191001110Y-95466114D01*
X189230664Y-95975500D02*
X189740050Y-95466114D01*
X186285500Y-95975500D02*
X189230664Y-95975500D01*
X191001110Y-95466114D02*
X191566795Y-95466114D01*
G04 #@! TO.N,/BTNK1_2*
X185360500Y-89725500D02*
X184835500Y-89725500D01*
X190877333Y-90237624D02*
X192218624Y-88896333D01*
X184835500Y-89725500D02*
X185483500Y-89725500D01*
X186944000Y-88265000D02*
X187032443Y-88265000D01*
X187032443Y-88265000D02*
X189005067Y-90237624D01*
X189005067Y-90237624D02*
X190877333Y-90237624D01*
X192492241Y-89725500D02*
X193381730Y-90614989D01*
X192492241Y-88860241D02*
X192492241Y-89725500D01*
X192218624Y-88896333D02*
X192218624Y-88586623D01*
X193381730Y-90614989D02*
X200660000Y-90614989D01*
X185483500Y-89725500D02*
X186944000Y-88265000D01*
X192218624Y-88586623D02*
X192492241Y-88860241D01*
D49*
G04 #@! TO.N,/BTNK2_1*
X191618213Y-88683556D02*
X190639156Y-89662613D01*
X190639156Y-89662613D02*
X189243244Y-89662613D01*
X191618213Y-88327956D02*
X191618213Y-88683556D01*
X186910853Y-87330222D02*
X185320743Y-87330222D01*
X194609778Y-87330222D02*
X192615947Y-87330222D01*
X198120000Y-83820000D02*
X194609778Y-87330222D01*
X192615947Y-87330222D02*
X191618213Y-88327956D01*
X184035500Y-88615464D02*
X184035500Y-89725500D01*
X185320743Y-87330222D02*
X184035500Y-88615464D01*
X189243244Y-89662613D02*
X186910853Y-87330222D01*
G04 #@! TO.N,/BTNK2_2*
X189533198Y-88962602D02*
X190298402Y-88962602D01*
X192275193Y-86630211D02*
X194039789Y-86630211D01*
X196450001Y-84219999D02*
X196850000Y-83820000D01*
X194039789Y-86630211D02*
X196450001Y-84219999D01*
X190918202Y-88342802D02*
X190918202Y-87987202D01*
X185030789Y-86630211D02*
X187200807Y-86630211D01*
X183235500Y-89725500D02*
X183235500Y-88425500D01*
X190298402Y-88962602D02*
X190918202Y-88342802D01*
X187200807Y-86630211D02*
X189533198Y-88962602D01*
X190918202Y-87987202D02*
X192275193Y-86630211D01*
X183235500Y-88425500D02*
X185030789Y-86630211D01*
G04 #@! TO.N,/SDA_INTERNAL*
X162123485Y-109579972D02*
X162273491Y-109429966D01*
X131051492Y-108269990D02*
X131838508Y-108269990D01*
X133041565Y-110904264D02*
X134713736Y-112576435D01*
X183534991Y-109228946D02*
X183934990Y-108828947D01*
X129466482Y-109855000D02*
X131051492Y-108269990D01*
X137472664Y-112576435D02*
X140469134Y-109579964D01*
X133041565Y-109473047D02*
X133041565Y-110904264D01*
X183333971Y-109429966D02*
X183534991Y-109228946D01*
X140469134Y-109579964D02*
X162123485Y-109579972D01*
X125730000Y-109855000D02*
X129466482Y-109855000D01*
X134713736Y-112576435D02*
X137472664Y-112576435D01*
X162273491Y-109429966D02*
X183333971Y-109429966D01*
X131838508Y-108269990D02*
X133041565Y-109473047D01*
D47*
G04 #@! TO.N,Net-(U2-Pad9)*
X137949727Y-100965000D02*
X138293939Y-100620788D01*
X138293939Y-100620788D02*
X147029212Y-100620788D01*
X149060001Y-98589999D02*
X149860000Y-97790000D01*
X135890000Y-100965000D02*
X137949727Y-100965000D01*
X147029212Y-100620788D02*
X149060001Y-98589999D01*
D48*
G04 #@! TO.N,/MISO*
X190765154Y-81344999D02*
X188990131Y-83120022D01*
X194880001Y-81344999D02*
X190765154Y-81344999D01*
X188990131Y-83120022D02*
X184113378Y-83120022D01*
X179235500Y-87997900D02*
X179235500Y-89725500D01*
X184113378Y-83120022D02*
X179235500Y-87997900D01*
G04 #@! TO.N,/MOSI*
X180035500Y-88675500D02*
X185018000Y-83693000D01*
X180035500Y-89725500D02*
X180035500Y-88675500D01*
X185018000Y-83693000D02*
X192430400Y-83693000D01*
X192430400Y-83693000D02*
X193903600Y-82219800D01*
X194554999Y-79739601D02*
X194554999Y-77216000D01*
X193852800Y-80441800D02*
X194554999Y-79739601D01*
X194554999Y-74050001D02*
X194554999Y-77216000D01*
X194554999Y-77216000D02*
X194554999Y-77860001D01*
G04 #@! TO.N,/SCK*
X177895964Y-88337516D02*
X180964041Y-85269439D01*
X180964041Y-85269439D02*
X180964041Y-85244039D01*
X180964041Y-85244039D02*
X181364040Y-84844040D01*
X177895964Y-90448265D02*
X177895964Y-88337516D01*
X177785500Y-91175500D02*
X177785500Y-90558729D01*
X177785500Y-90558729D02*
X177895964Y-90448265D01*
X193705019Y-85059981D02*
X185985685Y-85059981D01*
X197055012Y-81709988D02*
X193705019Y-85059981D01*
X185985685Y-85059981D02*
X185420000Y-85059981D01*
G04 #@! TO.N,/RESET*
X204724000Y-76200000D02*
X206349012Y-77825012D01*
X191997000Y-107530002D02*
X186916999Y-102450001D01*
X191356002Y-97522198D02*
X190822602Y-96988798D01*
X192514198Y-97522198D02*
X191356002Y-97522198D01*
X206349012Y-77825012D02*
X206349012Y-94183788D01*
X189749598Y-98087202D02*
X193225196Y-101562800D01*
X186916999Y-102450001D02*
X182979999Y-102450001D01*
X201005201Y-96468623D02*
X197180036Y-96468623D01*
X189749598Y-97365798D02*
X189749598Y-98087202D01*
X193191824Y-96844572D02*
X192514198Y-97522198D01*
X190822602Y-96988798D02*
X190126598Y-96988798D01*
X193225196Y-101562800D02*
X193225196Y-107530002D01*
X193555598Y-95058398D02*
X193191824Y-95422172D01*
X190126598Y-96988798D02*
X189749598Y-97365798D01*
X193191824Y-95422172D02*
X193191824Y-96844572D01*
X195769811Y-95058398D02*
X193555598Y-95058398D01*
X201544637Y-95929187D02*
X201005201Y-96468623D01*
X206349012Y-94183788D02*
X204603613Y-95929187D01*
X193225196Y-107530002D02*
X191997000Y-107530002D01*
X197180036Y-96468623D02*
X195769811Y-95058398D01*
X204603613Y-95929187D02*
X201544637Y-95929187D01*
D49*
G04 #@! TO.N,Net-(R10-Pad2)*
X175125431Y-93790398D02*
X176335545Y-95000512D01*
X176798469Y-95175500D02*
X177785500Y-95175500D01*
X161824612Y-94807989D02*
X173072407Y-94807989D01*
X158674593Y-93623885D02*
X160640508Y-93623885D01*
X173072407Y-94807989D02*
X174089998Y-93790398D01*
X153035000Y-103505000D02*
X157080986Y-99459014D01*
X176623481Y-95000512D02*
X176798469Y-95175500D01*
X157080988Y-95217490D02*
X158674593Y-93623885D01*
X176335545Y-95000512D02*
X176623481Y-95000512D01*
X157080986Y-99459014D02*
X157080988Y-95217490D01*
X160640508Y-93623885D02*
X161824612Y-94807989D01*
X174089998Y-93790398D02*
X175125431Y-93790398D01*
X135141598Y-108603187D02*
X135141598Y-110034402D01*
X135141598Y-110034402D02*
X135583598Y-110476402D01*
X135583598Y-110476402D02*
X136602802Y-110476402D01*
X140399204Y-106680000D02*
X141674315Y-106680000D01*
X141674315Y-106680000D02*
X142240000Y-106680000D01*
X129540000Y-106045000D02*
X132583411Y-106045000D01*
X136602802Y-110476402D02*
X140399204Y-106680000D01*
X132583411Y-106045000D02*
X135141598Y-108603187D01*
X74954092Y-106650610D02*
X75198484Y-106895002D01*
X71266330Y-106650610D02*
X74954092Y-106650610D01*
X122624315Y-99695000D02*
X123190000Y-99695000D01*
X75198484Y-106895002D02*
X113179184Y-106895002D01*
X113179184Y-106895002D02*
X120379185Y-99695000D01*
X120379185Y-99695000D02*
X122624315Y-99695000D01*
D48*
G04 #@! TO.N,/CS*
X193793610Y-84334980D02*
X196605001Y-81523589D01*
X196605001Y-79130001D02*
X196279999Y-78804999D01*
X180835500Y-88571479D02*
X185071999Y-84334980D01*
X185071999Y-84334980D02*
X193793610Y-84334980D01*
X196279999Y-78804999D02*
X195580000Y-78105000D01*
X180835500Y-89725500D02*
X180835500Y-88571479D01*
X196605001Y-81523589D02*
X196605001Y-79130001D01*
D49*
G04 #@! TO.N,/CHGEN*
X134441587Y-110324356D02*
X135293644Y-111176413D01*
X130471584Y-106869968D02*
X132418415Y-106869968D01*
X136892756Y-111176413D02*
X140334179Y-107734990D01*
X130026552Y-107315000D02*
X130471584Y-106869968D01*
X140334179Y-107734990D02*
X142944315Y-107734990D01*
X128270000Y-107315000D02*
X130026552Y-107315000D01*
X132418415Y-106869968D02*
X134441587Y-108893140D01*
X134441587Y-108893140D02*
X134441587Y-110324356D01*
X142944315Y-107734990D02*
X143510000Y-107734990D01*
X135293644Y-111176413D02*
X136892756Y-111176413D01*
X70666329Y-107900611D02*
X113163540Y-107900611D01*
X120099150Y-100965000D02*
X121354315Y-100965000D01*
X121354315Y-100965000D02*
X121920000Y-100965000D01*
X68580000Y-105814282D02*
X70666329Y-107900611D01*
X68580000Y-99060000D02*
X68580000Y-105814282D01*
X113163540Y-107900611D02*
X120099150Y-100965000D01*
G04 #@! TO.N,/PWRCTL*
X189452536Y-103877642D02*
X189561673Y-103877642D01*
X184835500Y-99436493D02*
X186345283Y-100946276D01*
X186345283Y-100946276D02*
X186521170Y-100946276D01*
X189561673Y-103877642D02*
X190127358Y-103877642D01*
X184835500Y-98225500D02*
X184835500Y-99436493D01*
X186521170Y-100946276D02*
X189452536Y-103877642D01*
G04 #@! TO.N,/SPKR*
X188765488Y-99508307D02*
X189331173Y-99508307D01*
X187766279Y-98949349D02*
X188325237Y-99508307D01*
X186285500Y-96775500D02*
X186810500Y-96775500D01*
X188325237Y-99508307D02*
X188765488Y-99508307D01*
X187766279Y-97731279D02*
X187766279Y-98949349D01*
X186810500Y-96775500D02*
X187766279Y-97731279D01*
D47*
G04 #@! TO.N,/SPEN*
X116205000Y-131445000D02*
X118110000Y-133350000D01*
X137795000Y-123190000D02*
X137795000Y-121285000D01*
X127635000Y-133350000D02*
X130175000Y-130810000D01*
X117475000Y-121285000D02*
X116205000Y-122555000D01*
X118110000Y-133350000D02*
X127635000Y-133350000D01*
X116205000Y-122555000D02*
X116205000Y-131445000D01*
X137795000Y-121285000D02*
X137160000Y-121285000D01*
X137160000Y-121285000D02*
X117475000Y-121285000D01*
D48*
X139319000Y-102920800D02*
X136194800Y-106045000D01*
X136194800Y-106045000D02*
X136194800Y-109626400D01*
X119380001Y-115442999D02*
X119380000Y-116055668D01*
X121183400Y-113639600D02*
X119380001Y-115442999D01*
X136194800Y-113639600D02*
X121183400Y-113639600D01*
X117475000Y-117960668D02*
X117475000Y-121285000D01*
X119380000Y-116055668D02*
X117475000Y-117960668D01*
D47*
G04 #@! TO.N,Net-(C7-Pad1)*
X148287500Y-126062500D02*
X147955000Y-125730000D01*
X152400000Y-126062500D02*
X148287500Y-126062500D01*
X141093999Y-121796001D02*
X144145000Y-118745000D01*
X147955000Y-120650000D02*
X147955000Y-125730000D01*
X144145000Y-118745000D02*
X146050000Y-118745000D01*
X140335000Y-123190000D02*
X141093999Y-122431001D01*
X146050000Y-118745000D02*
X147955000Y-120650000D01*
X141093999Y-122431001D02*
X141093999Y-121796001D01*
G04 #@! TO.N,Net-(C7-Pad2)*
X146752919Y-128270000D02*
X147955000Y-128270000D01*
X145161000Y-126678081D02*
X146752919Y-128270000D01*
X145161000Y-121031000D02*
X145161000Y-126678081D01*
X148287500Y-127937500D02*
X147955000Y-128270000D01*
X152400000Y-127937500D02*
X148287500Y-127937500D01*
G04 #@! TO.N,Net-(L2-Pad1)*
X154305000Y-122555000D02*
X152781000Y-121031000D01*
X155321000Y-132207000D02*
X154305000Y-131191000D01*
X154305000Y-131191000D02*
X154305000Y-122555000D01*
G04 #@! TO.N,Net-(R21-Pad2)*
X132715000Y-123190000D02*
X128905000Y-127000000D01*
X122555000Y-129010000D02*
X122555000Y-130810000D01*
X124565000Y-127000000D02*
X122555000Y-129010000D01*
X128905000Y-127000000D02*
X124565000Y-127000000D01*
X132715000Y-123190000D02*
X140335000Y-130810000D01*
X121920000Y-131445000D02*
X122555000Y-130810000D01*
X118745000Y-131445000D02*
X121920000Y-131445000D01*
G04 #@! TO.N,Net-(R22-Pad1)*
X147001001Y-132906999D02*
X147701000Y-132207000D01*
X134811999Y-132906999D02*
X147001001Y-132906999D01*
X132715000Y-130810000D02*
X134811999Y-132906999D01*
D49*
G04 #@! TO.N,Net-(C8-Pad1)*
X163576000Y-93599000D02*
X165432500Y-93599000D01*
X163576000Y-93599000D02*
X164784624Y-92390376D01*
X164784624Y-92390376D02*
X176100376Y-92390376D01*
X176100376Y-92390376D02*
X176485500Y-92775500D01*
X176485500Y-92775500D02*
X177785500Y-92775500D01*
G04 #@! TO.N,Net-(Q3-Pad2)*
X95264998Y-73772002D02*
X97028000Y-72009000D01*
X94623998Y-73772002D02*
X95264998Y-73772002D01*
X87054001Y-75572001D02*
X92823999Y-75572001D01*
X92823999Y-75572001D02*
X94623998Y-73772002D01*
X98504001Y-72502001D02*
X98504001Y-73752001D01*
X98011000Y-72009000D02*
X98504001Y-72502001D01*
X97028000Y-72009000D02*
X98011000Y-72009000D01*
X96024002Y-67222000D02*
X95724004Y-67222000D01*
X94724004Y-68222000D02*
X94084000Y-68222000D01*
X96824001Y-66422001D02*
X96024002Y-67222000D01*
X95724004Y-67222000D02*
X94724004Y-68222000D01*
X94084000Y-68222000D02*
X92202000Y-70104000D01*
X92202000Y-70104000D02*
X92202000Y-72517000D01*
G04 #@! TO.N,/vBattMeasure*
X91624001Y-69472001D02*
X87054001Y-69472001D01*
X160147000Y-97155000D02*
X159131000Y-96139000D01*
X162687000Y-97155000D02*
X160147000Y-97155000D01*
X138049000Y-93726000D02*
X136906000Y-94869000D01*
X153924000Y-93726000D02*
X138049000Y-93726000D01*
X117218733Y-78232000D02*
X99695000Y-78232000D01*
X128397000Y-87122000D02*
X126108733Y-87122000D01*
X126108733Y-87122000D02*
X117218733Y-78232000D01*
X94674001Y-66422001D02*
X91624001Y-69472001D01*
X99774001Y-72492728D02*
X98704825Y-71423552D01*
X99774001Y-73752001D02*
X99774001Y-72492728D01*
G04 #@! TO.N,Net-(Q4-Pad3)*
X105284001Y-72502001D02*
X105284001Y-73752001D01*
X106807000Y-70979002D02*
X105284001Y-72502001D01*
X106807000Y-68785000D02*
X106807000Y-70979002D01*
X104444001Y-66422001D02*
X106807000Y-68785000D01*
G04 #@! TO.N,Net-(Q4-Pad2)*
X92737002Y-73367002D02*
X93179002Y-72925002D01*
X93029011Y-71959007D02*
X93029011Y-71272000D01*
X93029011Y-71272000D02*
X95024002Y-71272000D01*
X93179002Y-72108998D02*
X93029011Y-71959007D01*
X93179002Y-72925002D02*
X93179002Y-72108998D01*
X95024002Y-71272000D02*
X96824001Y-69472001D01*
X91793998Y-73367002D02*
X92737002Y-73367002D01*
X87054001Y-72522001D02*
X90948997Y-72522001D01*
X90948997Y-72522001D02*
X91793998Y-73367002D01*
X101769000Y-73285630D02*
X101769000Y-75353000D01*
X97955371Y-69472001D02*
X101769000Y-73285630D01*
X96824001Y-69472001D02*
X97955371Y-69472001D01*
X101769000Y-75353000D02*
X101854000Y-75438000D01*
X104014001Y-75002001D02*
X104014001Y-73752001D01*
X103578002Y-75438000D02*
X104014001Y-75002001D01*
X101854000Y-75438000D02*
X103578002Y-75438000D01*
D48*
G04 #@! TO.N,/RX*
X183388000Y-98378000D02*
X183235500Y-98225500D01*
X183388000Y-101600000D02*
X183388000Y-98378000D01*
X197366436Y-96018612D02*
X195956211Y-94608387D01*
X205899001Y-88335999D02*
X205899001Y-93997388D01*
X204417213Y-95479176D02*
X201358237Y-95479176D01*
X189299587Y-97179398D02*
X189299587Y-98299002D01*
X205899001Y-93997388D02*
X204417213Y-95479176D01*
X205288001Y-87724999D02*
X205899001Y-88335999D01*
X189312428Y-100570157D02*
X188217133Y-100570157D01*
X191009002Y-96538787D02*
X189940198Y-96538787D01*
X193369198Y-94608387D02*
X192741813Y-95235772D01*
X203874001Y-87209999D02*
X203874001Y-87439001D01*
X190086987Y-99795598D02*
X189312428Y-100570157D01*
X195956211Y-94608387D02*
X193369198Y-94608387D01*
X192741813Y-96658172D02*
X192327798Y-97072187D01*
X188217133Y-100570157D02*
X187443238Y-99796262D01*
X200818801Y-96018612D02*
X197366436Y-96018612D01*
X189940198Y-96538787D02*
X189299587Y-97179398D01*
X203874001Y-87439001D02*
X204159999Y-87724999D01*
X187443238Y-99796262D02*
X187043239Y-99396263D01*
X192327798Y-97072187D02*
X191542402Y-97072187D01*
X204724000Y-86360000D02*
X203874001Y-87209999D01*
X201358237Y-95479176D02*
X200818801Y-96018612D01*
X189299587Y-98299002D02*
X190086987Y-99086402D01*
X204159999Y-87724999D02*
X205288001Y-87724999D01*
X191542402Y-97072187D02*
X191009002Y-96538787D01*
X192741813Y-95235772D02*
X192741813Y-96658172D01*
X190086987Y-99086402D02*
X190086987Y-99795598D01*
G04 #@! TO.N,/TX*
X184035500Y-99810604D02*
X185487165Y-101262269D01*
X184035500Y-98225500D02*
X184035500Y-99810604D01*
X188616280Y-97975663D02*
X188616280Y-98541348D01*
X185487165Y-101262269D02*
X185887164Y-101662268D01*
X204533011Y-93130270D02*
X204533011Y-93813730D01*
X201171837Y-95029165D02*
X200632401Y-95568601D01*
X189753798Y-96088776D02*
X188616280Y-97226294D01*
X204724000Y-88900000D02*
X203517009Y-90106991D01*
X192291802Y-96471772D02*
X192242997Y-96520576D01*
X188616280Y-97226294D02*
X188616280Y-97975663D01*
X204533011Y-93813730D02*
X203317567Y-95029165D01*
X192829339Y-94132976D02*
X192291802Y-94670513D01*
X200632401Y-95568601D02*
X197552836Y-95568601D01*
X191195402Y-96088776D02*
X189753798Y-96088776D01*
X203517009Y-90106991D02*
X203517009Y-92114268D01*
X192291802Y-94670513D02*
X192291802Y-96471772D01*
X197552836Y-95568601D02*
X196117211Y-94132976D01*
X203517009Y-92114268D02*
X204533011Y-93130270D01*
X203317567Y-95029165D02*
X201171837Y-95029165D01*
X192242997Y-96520576D02*
X191627201Y-96520576D01*
X196117211Y-94132976D02*
X192829339Y-94132976D01*
X191627201Y-96520576D02*
X191195402Y-96088776D01*
D49*
G04 #@! TO.N,Net-(D34-Pad1)*
X189179200Y-136474200D02*
X189230000Y-136525000D01*
D47*
X192684400Y-139979400D02*
X189230000Y-136525000D01*
X192684400Y-142062200D02*
X192684400Y-139979400D01*
D49*
X132128462Y-107569979D02*
X133741576Y-109183093D01*
X137182710Y-111876424D02*
X140474134Y-108585000D01*
X144214315Y-108585000D02*
X144780000Y-108585000D01*
X130761538Y-107569979D02*
X132128462Y-107569979D01*
X133741576Y-109183093D02*
X133741576Y-110614310D01*
X133741576Y-110614310D02*
X135003690Y-111876424D01*
X129746518Y-108585000D02*
X130761538Y-107569979D01*
X126365000Y-108585000D02*
X129746518Y-108585000D01*
X135003690Y-111876424D02*
X137182710Y-111876424D01*
X140474134Y-108585000D02*
X144214315Y-108585000D01*
X117389603Y-104664512D02*
X117774777Y-104664512D01*
X66902965Y-118110000D02*
X76412343Y-108600622D01*
X45720000Y-118110000D02*
X66902965Y-118110000D01*
X76412343Y-108600622D02*
X113453494Y-108600622D01*
X117774777Y-104664512D02*
X117924776Y-104514513D01*
X113453494Y-108600622D02*
X117389603Y-104664512D01*
D47*
G04 #@! TO.N,/ON*
X186055000Y-127722830D02*
X185851800Y-127519630D01*
X186055000Y-128854200D02*
X186055000Y-127722830D01*
X185851800Y-127519630D02*
X185851800Y-119253000D01*
X185851800Y-119253000D02*
X180924200Y-114325400D01*
D48*
X173736000Y-95402400D02*
X174498000Y-94640400D01*
X173736000Y-101523800D02*
X173736000Y-95402400D01*
X182435500Y-91681300D02*
X182435500Y-89725500D01*
X181457600Y-92659200D02*
X182435500Y-91681300D01*
D49*
G04 #@! TO.N,Net-(Q2-Pad3)*
X30480000Y-86340000D02*
X30256800Y-86563200D01*
X30480000Y-85090000D02*
X30480000Y-86340000D01*
X27328198Y-86563200D02*
X26644600Y-85879602D01*
X30256800Y-86563200D02*
X27328198Y-86563200D01*
X33793630Y-82677000D02*
X34925000Y-82677000D01*
X28267998Y-82677000D02*
X33793630Y-82677000D01*
X26644600Y-84300398D02*
X28267998Y-82677000D01*
X26644600Y-85879602D02*
X26644600Y-84300398D01*
D47*
G04 #@! TO.N,Net-(D34-Pad2)*
X203200000Y-136525000D02*
X205003400Y-138328400D01*
X205003400Y-138328400D02*
X205003400Y-143103600D01*
X205003400Y-143103600D02*
X203123800Y-144983200D01*
X203123800Y-144983200D02*
X184810400Y-144983200D01*
X182778400Y-136474200D02*
X182727600Y-136525000D01*
X186055000Y-136474200D02*
X182778400Y-136474200D01*
G04 #@! TD*
D54*
G04 #@! TO.N,GND*
G36*
X43561000Y-94489999D02*
X36269849Y-94489999D01*
X36195001Y-94475111D01*
X36120153Y-94489999D01*
X36120149Y-94489999D01*
X35898464Y-94534095D01*
X35736450Y-94642349D01*
X35595690Y-94670348D01*
X35302951Y-94865951D01*
X35131196Y-95123000D01*
X33935239Y-95123000D01*
X33401000Y-94588761D01*
X33401000Y-86233000D01*
X43561000Y-86233000D01*
X43561000Y-94489999D01*
X43561000Y-94489999D01*
G37*
X43561000Y-94489999D02*
X36269849Y-94489999D01*
X36195001Y-94475111D01*
X36120153Y-94489999D01*
X36120149Y-94489999D01*
X35898464Y-94534095D01*
X35736450Y-94642349D01*
X35595690Y-94670348D01*
X35302951Y-94865951D01*
X35131196Y-95123000D01*
X33935239Y-95123000D01*
X33401000Y-94588761D01*
X33401000Y-86233000D01*
X43561000Y-86233000D01*
X43561000Y-94489999D01*
G04 #@! TD*
M02*
